<?xml version="1.0" encoding="iso-8859-1"?>
<!-- Generator: Adobe Illustrator 19.0.0, SVG Export Plug-In . SVG Version: 6.00 Build 0)  -->
<svg version="1.1" id="Layer_1" xmlns="http://www.w3.org/2000/svg" xmlns:xlink="http://www.w3.org/1999/xlink" x="0px" y="0px"
	 viewBox="0 0 498.967 498.967" style="enable-background:new 0 0 498.967 498.967;" xml:space="preserve">
<g>
	<path style="fill:#5FD6D6;" d="M322.283,304c4.8-4.8,8.8-12,8.8-19.2c0-8-3.2-15.2-8.8-20c5.6-4.8,9.6-12,9.6-20s-3.2-15.2-8.8-20
		c5.6-4.8,8.8-12,8.8-20s-4-15.2-9.6-20.8c8-8,12.8-19.2,12.8-37.6c0-52-38.4-85.6-85.6-85.6s-85.6,33.6-85.6,85.6
		c0,17.6,4.8,29.6,12.8,37.6c-5.6,4.8-9.6,12-9.6,20.8c0,8,3.2,15.2,8.8,20c-5.6,4.8-8.8,12-8.8,20c0,8,3.2,15.2,8.8,20
		c-5.6,4.8-8.8,12-8.8,20c0,7.2,4.8,14.4,9.6,19.2c-5.6,4-7.2,10.4-7.2,20.8v152.8c0,24,15.2,18.4,39.2,18.4h80.8
		c24,0,39.2,5.6,39.2-18.4V324.8C329.483,314.4,327.883,308,322.283,304z"/>
</g>
<g>
	<path style="fill:#42BEC1;" d="M287.883,496c24,0,41.6,5.6,41.6-18.4V324.8c0-10.4-1.6-16.8-7.2-20.8c4.8-4.8,8.8-12,8.8-19.2
		c0-8-3.2-15.2-8.8-20c5.6-4.8,9.6-12,9.6-20s-3.2-15.2-8.8-20c5.6-4.8,8.8-12,8.8-20s-4-15.2-9.6-20.8c8-8,12.8-19.2,12.8-37.6
		c0-52-38.4-85.6-85.6-85.6c-23.2,0-44.8,8-60,23.2"/>
</g>
<rect x="217.483" y="48" style="fill:#00637A;" width="64" height="24"/>
<path style="fill:#00669E;" d="M297.483,48.8c0,8-6.4,7.2-14.4,7.2h-66.4c-8,0-14.4,0.8-14.4-7.2V14.4c0-8,6.4-14.4,14.4-14.4h66.4
	c8,0,14.4,5.6,14.4,14.4V48.8z"/>
<path style="fill:#004F77;" d="M217.483,0h65.6c8,0,14.4,5.6,14.4,14.4v34.4c0,8-5.6,7.2-14.4,7.2"/>
<path id="SVGCleanerId_0" style="fill:#2D9EAA;" d="M231.083,74.4c5.6-3.2,12-4.8,18.4-4.8s12.8,1.6,18.4,4.8
	c4.8-3.2,10.4-4.8,16.8-4.8c-11.2-4-22.4-6.4-35.2-6.4s-24,2.4-35.2,7.2C220.683,70.4,226.283,72,231.083,74.4z"/>
<path style="fill:#5FD6D6;" d="M334.283,141.6c-3.2,0.8-7.2,1.6-11.2,1.6c-6.4,0-12.8-1.6-18.4-4.8c-5.6,3.2-12,4.8-18.4,4.8
	s-12.8-1.6-18.4-4.8c-5.6,3.2-12,5.6-18.4,5.6s-12.8-1.6-18.4-4.8c-5.6,2.4-12,4.8-18.4,4.8s-12.8-1.6-18.4-4.8
	c-5.6,3.2-12,4.8-18.4,4.8c-4,0-7.2-0.8-11.2-1.6c0,2.4,0,4,0,6.4c0,17.6,4.8,29.6,12.8,37.6c-5.6,4.8-9.6,12-9.6,20.8
	c0,8,3.2,15.2,8.8,20c-5.6,4.8-8.8,12-8.8,20c0,8,3.2,15.2,8.8,20c-5.6,4.8-8.8,12-8.8,20c0,7.2,4.8,14.4,9.6,19.2
	c-5.6,4-7.2,10.4-7.2,20.8V480c0,24,15.2,18.4,39.2,18.4h80.8c24,0,39.2,5.6,39.2-18.4V324.8c0-10.4-1.6-16.8-7.2-20.8
	c4.8-4.8,8.8-12,8.8-19.2c0-8-3.2-15.2-8.8-20c5.6-4.8,9.6-12,9.6-20s-3.2-15.2-8.8-20c5.6-4.8,8.8-12,8.8-20s-4-15.2-9.6-20.8
	c8-8,12.8-19.2,12.8-37.6C335.083,146.4,335.083,144,334.283,141.6z"/>
<g>
	<path id="SVGCleanerId_0_1_" style="fill:#2D9EAA;" d="M231.083,74.4c5.6-3.2,12-4.8,18.4-4.8s12.8,1.6,18.4,4.8
		c4.8-3.2,10.4-4.8,16.8-4.8c-11.2-4-22.4-6.4-35.2-6.4s-24,2.4-35.2,7.2C220.683,70.4,226.283,72,231.083,74.4z"/>
</g>
<path style="fill:#2D9EAA;" d="M334.283,149.6c-3.2,0.8-7.2,1.6-11.2,1.6c-6.4,0-12.8-1.6-18.4-4.8c-5.6,3.2-12,4.8-18.4,4.8
	s-12.8-1.6-18.4-4.8c-5.6,3.2-12,5.6-18.4,5.6s-12.8-1.6-18.4-4.8c-5.6,2.4-12,4.8-18.4,4.8s-12.8-1.6-18.4-4.8
	c-5.6,3.2-12,4.8-18.4,4.8c-4,0-7.2-0.8-11.2-1.6c0,2.4,0,4,0,6.4c0,17.6,4.8,21.6,12.8,29.6c-5.6,4.8-9.6,12-9.6,20.8
	c0,8,3.2,15.2,8.8,20c-5.6,4.8-8.8,12-8.8,20c0,8,3.2,15.2,8.8,20c-5.6,4.8-8.8,12-8.8,20c0,7.2,4.8,14.4,9.6,19.2
	c-5.6,4-7.2,10.4-7.2,20.8V480c0,24,15.2,18.4,39.2,18.4h80.8c24,0,39.2,5.6,39.2-18.4V324.8c0-10.4-1.6-16.8-7.2-20.8
	c4.8-4.8,8.8-12,8.8-19.2c0-8-3.2-15.2-8.8-20c5.6-4.8,9.6-12,9.6-20s-3.2-15.2-8.8-20c5.6-4.8,8.8-12,8.8-20s-4-15.2-9.6-20.8
	c8-8,12.8-11.2,12.8-29.6C335.083,154.4,335.083,152,334.283,149.6z"/>
<g>
	<ellipse style="fill:#42BEC1;" cx="178.283" cy="204.8" rx="5.6" ry="11.2"/>
	<ellipse style="fill:#42BEC1;" cx="178.283" cy="245.6" rx="5.6" ry="11.2"/>
	<ellipse style="fill:#42BEC1;" cx="178.283" cy="286.4" rx="5.6" ry="11.2"/>
	<path style="fill:#42BEC1;" d="M185.483,474.4c0,4,0,6.4-4,6.4l0,0c-4,0-4-2.4-4-6.4v-152c0-4,0-8,4-8l0,0c4,0,4,4,4,8V474.4z"/>
</g>
<ellipse transform="matrix(-0.3642 0.9313 -0.9313 -0.3642 352.2414 -10.6245)" style="fill:#91EDEA;" cx="179.747" cy="114.922" rx="19.2" ry="5.6"/>
<rect x="201.483" y="32" style="fill:#168FC4;" width="96" height="8"/>
<g>
	<path style="fill:#42BEC1;" d="M313.483,190.4c0,0.8-0.8,1.6-1.6,1.6h-124.8c-0.8,0-1.6-0.8-1.6-1.6v-4c0-0.8,0.8-1.6,1.6-1.6h124
		c0.8,0,1.6,0.8,1.6,1.6v4H313.483z"/>
	<path style="fill:#42BEC1;" d="M313.483,230.4c0,0.8-0.8,1.6-1.6,1.6h-124.8c-0.8,0-1.6-0.8-1.6-1.6v-4c0-0.8,0.8-1.6,1.6-1.6h124
		c0.8,0,1.6,0.8,1.6,1.6v4H313.483z"/>
	<path style="fill:#42BEC1;" d="M313.483,270.4c0,0.8-0.8,1.6-1.6,1.6h-124.8c-0.8,0-1.6-0.8-1.6-1.6v-4c0-0.8,0.8-1.6,1.6-1.6h124
		c0.8,0,1.6,0.8,1.6,1.6v4H313.483z"/>
	<path style="fill:#42BEC1;" d="M313.483,310.4c0,0.8-0.8,1.6-1.6,1.6h-124.8c-0.8,0-1.6-0.8-1.6-1.6v-4c0-0.8,0.8-1.6,1.6-1.6h124
		c0.8,0,1.6,0.8,1.6,1.6v4H313.483z"/>
</g>
<g>
	<path style="fill:#5FD6D6;" d="M191.883,408c-2.4,0-4.8-2.4-4.8-4.8c0-26.4,21.6-48,48-48c2.4,0,4.8,2.4,4.8,4.8s-2.4,4.8-4.8,4.8
		c-20.8,0-37.6,16.8-37.6,37.6C196.683,405.6,194.283,408,191.883,408z"/>
	<path style="fill:#5FD6D6;" d="M275.083,312.8c2.4,0,4.8,2.4,4.8,4.8c0,26.4-21.6,48-48,48c-2.4,0-4.8-2.4-4.8-4.8s2.4-4.8,4.8-4.8
		c20.8,0,37.6-16.8,37.6-37.6C270.283,315.2,272.684,312.8,275.083,312.8z"/>
	<path style="fill:#5FD6D6;" d="M207.883,430.4c-2.4,0-4.8-2.4-4.8-4.8c0-26.4,21.6-48,48-48c2.4,0,4.8,2.4,4.8,4.8
		s-2.4,4.8-4.8,4.8c-20.8,0-37.6,16.8-37.6,37.6C212.683,428.8,210.283,430.4,207.883,430.4z"/>
	<path style="fill:#5FD6D6;" d="M291.083,335.2c2.4,0,4.8,2.4,4.8,4.8c0,26.4-21.6,48-48,48c-2.4,0-4.8-2.4-4.8-4.8s2.4-4.8,4.8-4.8
		c20.8,0,37.6-16.8,37.6-37.6C286.283,337.6,288.684,335.2,291.083,335.2z"/>
	<path style="fill:#5FD6D6;" d="M223.883,453.6c-2.4,0-4.8-2.4-4.8-4.8c0-26.4,21.6-48,48-48c2.4,0,4.8,2.4,4.8,4.8
		s-2.4,4.8-4.8,4.8c-20.8,0-37.6,16.8-37.6,37.6C228.683,451.2,226.283,453.6,223.883,453.6z"/>
	<path style="fill:#5FD6D6;" d="M307.083,358.4c2.4,0,4.8,2.4,4.8,4.8c0,26.4-21.6,48-48,48c-2.4,0-4.8-2.4-4.8-4.8s2.4-4.8,4.8-4.8
		c20.8,0,37.6-16.8,37.6-37.6C302.283,360,304.684,358.4,307.083,358.4z"/>
</g>
<path style="fill:#0579AD;" d="M289.483,11.2c0,2.4-2.4,4.8-4.8,4.8h-69.6c-3.2,0-4-2.4-4-4.8l0,0c0-2.4,1.6-3.2,4-3.2h69.6
	C287.083,8,289.483,8.8,289.483,11.2L289.483,11.2z"/>
<g>
</g>
<g>
</g>
<g>
</g>
<g>
</g>
<g>
</g>
<g>
</g>
<g>
</g>
<g>
</g>
<g>
</g>
<g>
</g>
<g>
</g>
<g>
</g>
<g>
</g>
<g>
</g>
<g>
</g>
</svg>
