<?xml version="1.0" encoding="iso-8859-1"?>
<!-- Generator: Adobe Illustrator 19.0.0, SVG Export Plug-In . SVG Version: 6.00 Build 0)  -->
<svg version="1.1" id="Layer_1" xmlns="http://www.w3.org/2000/svg" xmlns:xlink="http://www.w3.org/1999/xlink" x="0px" y="0px"
	 viewBox="0 0 512 512" style="enable-background:new 0 0 512 512;" xml:space="preserve">
<path style="fill:#FF7731;" d="M155.329,132.844v69.498c0,33.303,26.997,60.301,60.301,60.301l0,0v198.787
	c0,22.298,18.074,40.372,40.37,40.372l0,0c22.296,0,40.37-18.074,40.37-40.37V262.644l0,0c33.302,0,60.301-26.997,60.301-60.301
	v-69.498H155.329V132.844z"/>
<rect x="155.324" y="10.199" style="fill:#BDCED4;" width="201.342" height="122.645"/>
<path d="M145.13,202.343c0,35.41,26.244,64.806,60.301,69.764v189.323C205.43,489.315,228.115,512,256,512s50.57-22.685,50.57-50.57
	V272.107c34.057-4.958,60.301-34.355,60.301-69.764V10.199C366.87,4.566,362.303,0,356.671,0H155.329
	c-5.633,0-10.199,4.566-10.199,10.199L145.13,202.343L145.13,202.343z M165.528,20.398h19.717v26.518
	c0,5.633,4.566,10.199,10.199,10.199c5.633,0,10.199-4.566,10.199-10.199V20.398h19.972v61.344c0,5.633,4.566,10.199,10.199,10.199
	s10.199-4.566,10.199-10.199V20.398h19.972v61.344c0,5.633,4.567,10.199,10.199,10.199c5.632,0,10.199-4.566,10.199-10.199V20.398
	h19.972v61.344c0,5.633,4.567,10.199,10.199,10.199c5.632,0,10.199-4.566,10.199-10.199V20.398h19.717v102.247H165.528
	L165.528,20.398L165.528,20.398z M346.472,202.343c0,27.626-22.475,50.102-50.102,50.102c-5.632,0-10.199,4.566-10.199,10.199
	V461.43c0,16.636-13.535,30.171-30.171,30.171s-30.171-13.535-30.171-30.171V262.644c0-5.633-4.566-10.199-10.199-10.199
	c-27.626,0-50.102-22.475-50.102-50.102v-59.299h180.944L346.472,202.343L346.472,202.343z"/>
<path d="M195.444,66.295c-5.633,0-10.199,4.566-10.199,10.199v5.247c0,5.633,4.566,10.199,10.199,10.199
	c5.633,0,10.199-4.566,10.199-10.199v-5.247C205.643,70.862,201.077,66.295,195.444,66.295z"/>
<path d="M256,473.243c5.632,0,10.199-4.566,10.199-10.199v-6.12c0-5.633-4.567-10.199-10.199-10.199
	c-5.633,0-10.199,4.566-10.199,10.199v6.12C245.801,468.677,250.367,473.243,256,473.243z"/>
<g>
</g>
<g>
</g>
<g>
</g>
<g>
</g>
<g>
</g>
<g>
</g>
<g>
</g>
<g>
</g>
<g>
</g>
<g>
</g>
<g>
</g>
<g>
</g>
<g>
</g>
<g>
</g>
<g>
</g>
</svg>
