<?xml version="1.0" encoding="iso-8859-1"?>
<!-- Generator: Adobe Illustrator 18.0.0, SVG Export Plug-In . SVG Version: 6.00 Build 0)  -->
<!DOCTYPE svg PUBLIC "-//W3C//DTD SVG 1.1//EN" "http://www.w3.org/Graphics/SVG/1.1/DTD/svg11.dtd">
<svg version="1.1" id="Capa_1" xmlns="http://www.w3.org/2000/svg" xmlns:xlink="http://www.w3.org/1999/xlink" x="0px" y="0px"
	 viewBox="0 0 512 512" style="enable-background:new 0 0 512 512;" xml:space="preserve">
<g>
	<g>
		<path style="fill:#AF6328;" d="M400,296c0-8.8-7.2-16-16-16H128c-8.8,0-16,7.2-16,16v16c0,8.8,7.2,16,16,16h256
			c8.8,0,16-7.2,16-16V296z"/>
	</g>
	<path style="fill:#A25425;" d="M352,504c0,4.4,3.6,8,8,8h16c4.4,0,8-3.6,8-8V328h-32V504z"/>
	<path style="fill:#A25425;" d="M128,504c0,4.4,3.6,8,8,8h16c4.4,0,8-3.6,8-8V328h-32V504z"/>
	<g>
		<rect x="352" y="328" style="fill:#7F4122;" width="32" height="16"/>
	</g>
	<g>
		<rect x="128" y="328" style="fill:#7F4122;" width="32" height="16"/>
	</g>
	<g>
		<rect x="160" y="352" style="fill:#7F4122;" width="192" height="16"/>
	</g>
	<path style="fill:#7F4122;" d="M360,0H152c-8.836,0-16,7.163-16,16v24c0,8.836,7.164,16,16,16h4c6.627,0,12,5.372,12,12v204v8h16
		h16h16h16h16h16h16h16h16h16h8h8V68c0-6.628,5.373-12,12-12h4c8.836,0,16-7.164,16-16V16C376,7.163,368.836,0,360,0z M320,264
		c-4.418,0-8-3.582-8-8V80c0-4.418,3.582-8,8-8s8,3.582,8,8v176C328,260.418,324.418,264,320,264z M288,264c-4.418,0-8-3.582-8-8V80
		c0-4.418,3.582-8,8-8s8,3.582,8,8v176C296,260.418,292.418,264,288,264z M256,264c-4.418,0-8-3.582-8-8V80c0-4.418,3.582-8,8-8
		s8,3.582,8,8v176C264,260.418,260.418,264,256,264z M224,264c-4.418,0-8-3.582-8-8V80c0-4.418,3.582-8,8-8s8,3.582,8,8v176
		C232,260.418,228.418,264,224,264z M192,264c-4.418,0-8-3.582-8-8V80c0-4.418,3.582-8,8-8s8,3.582,8,8v176
		C200,260.418,196.418,264,192,264z"/>
</g>
<g>
</g>
<g>
</g>
<g>
</g>
<g>
</g>
<g>
</g>
<g>
</g>
<g>
</g>
<g>
</g>
<g>
</g>
<g>
</g>
<g>
</g>
<g>
</g>
<g>
</g>
<g>
</g>
<g>
</g>
</svg>
