<?xml version="1.0" encoding="iso-8859-1"?>
<!-- Generator: Adobe Illustrator 19.0.0, SVG Export Plug-In . SVG Version: 6.00 Build 0)  -->
<svg xmlns="http://www.w3.org/2000/svg" xmlns:xlink="http://www.w3.org/1999/xlink" version="1.1" id="Layer_1" x="0px" y="0px" viewBox="0 0 403.48 403.48" style="enable-background:new 0 0 403.48 403.48;" xml:space="preserve" width="512" height="512">
<g>
	<polygon style="fill:#F7B239;" points="324.094,240.269 360.394,240.269 309.814,395.979 277.544,395.979 313.014,240.269  "/>
	<polygon style="fill:#F7B239;" points="313.014,240.269 277.544,395.979 234.434,395.979 249.734,240.269  "/>
	<polygon style="fill:#F7B239;" points="249.734,240.269 234.434,395.979 169.044,395.979 153.754,240.269  "/>
	<polygon style="fill:#E09B2D;" points="153.754,240.269 169.044,395.979 125.944,395.979 90.474,240.269  "/>
	<polygon style="fill:#E09B2D;" points="80.954,240.269 90.474,240.269 125.944,395.979 93.664,395.979 43.094,240.269  "/>
	<path style="fill:#F95428;" d="M244.204,49.179c0,13.92-6.83,26.24-17.3,33.81h-48.76c-10.47-7.57-17.3-19.89-17.3-33.81   c0-23.01,18.66-41.68,41.68-41.68C225.554,7.499,244.204,26.169,244.204,49.179z"/>
	<path style="fill:#E54728;" d="M196.842,49.179c0-16.567,9.674-30.882,23.683-37.602C215.076,8.965,208.972,7.5,202.524,7.5   c-23.02,0-41.68,18.67-41.68,41.68c0,13.92,6.83,26.24,17.3,33.81h35.998C203.672,75.419,196.842,63.099,196.842,49.179z"/>
	<path style="fill:#B27214;" d="M327.154,178.559c7.54,7.55,12.21,17.96,12.21,29.47c0,13-5.96,24.6-15.27,32.24h-11.08h-63.28   h-95.98h-63.28h-9.52c-1.06-0.87-2.08-1.79-3.05-2.76c-7.54-7.55-12.21-17.96-12.21-29.48c0-23.01,18.67-41.68,41.68-41.68h29.95   h130.41h29.95C309.184,166.349,319.604,171.019,327.154,178.559z"/>
	<path style="fill:#B27214;" d="M226.904,82.989h40.83c21.95,0,39.75,17.8,39.75,39.75v3.87c0,21.95-17.8,39.74-39.75,39.74h-130.41   c-21.95,0-39.75-17.79-39.75-39.74v-3.87c0-21.95,17.8-39.75,39.75-39.75h40.82H226.904z"/>
	<g>
		<path style="fill:#995C0D;" d="M133.404,237.509c0.97,0.97,1.99,1.89,3.05,2.76h-55.5c-1.06-0.87-2.08-1.79-3.05-2.76    c-7.54-7.55-12.21-17.96-12.21-29.48c0-23.01,18.67-41.68,41.68-41.68h55.5c-23.01,0-41.68,18.67-41.68,41.68    C121.194,219.549,125.864,229.959,133.404,237.509z"/>
		<path style="fill:#995C0D;" d="M192.824,166.349h-55.5c-21.95,0-39.75-17.79-39.75-39.74v-3.87c0-21.95,17.8-39.75,39.75-39.75    h55.5c-21.95,0-39.75,17.8-39.75,39.75v3.87C153.074,148.559,170.874,166.349,192.824,166.349z"/>
	</g>
	<path style="fill:#FFFFFF;" d="M309.507,229.989c-2.168,0-4.319-0.936-5.802-2.743c-2.628-3.202-2.162-7.928,1.041-10.556   c2.616-2.147,4.117-5.304,4.117-8.661c0-2.981-1.169-5.793-3.291-7.918c-2.104-2.101-4.908-3.262-7.889-3.262   c-4.143,0-7.5-3.358-7.5-7.5s3.357-7.5,7.5-7.5c6.983,0,13.552,2.719,18.495,7.655c4.958,4.964,7.685,11.541,7.685,18.525   c0,7.867-3.5,15.25-9.604,20.258C312.866,229.431,311.181,229.989,309.507,229.989z"/>
	<path style="fill:#FFFFFF;" d="M274.698,149.337c-2.843,0-5.562-1.625-6.823-4.378c-1.726-3.766-0.071-8.217,3.694-9.942   c3.289-1.507,5.415-4.808,5.415-8.408v-3.87c0-5.101-4.149-9.25-9.25-9.25c-4.143,0-7.5-3.358-7.5-7.5s3.357-7.5,7.5-7.5   c13.371,0,24.25,10.878,24.25,24.25v3.87c0,9.448-5.561,18.101-14.167,22.044C276.805,149.118,275.743,149.337,274.698,149.337z"/>
	<path style="fill:#FFFFFF;" d="M213.434,71.851c-2.325,0-4.617-1.078-6.084-3.106c-2.427-3.357-1.673-8.045,1.684-10.472   c3.012-2.177,4.67-5.407,4.67-9.094c0-3.925-2.013-7.497-5.385-9.556c-3.535-2.158-4.651-6.774-2.493-10.31   c2.158-3.535,6.772-4.652,10.31-2.493c7.87,4.805,12.568,13.163,12.568,22.358c0,8.504-3.966,16.25-10.881,21.249   C216.495,71.389,214.958,71.851,213.434,71.851z"/>
	<path style="fill:#333333;" d="M366.457,235.865c-1.411-1.942-3.667-3.091-6.067-3.091h-20.208   c4.325-7.415,6.683-15.908,6.683-24.743c0-13.127-5.113-25.477-14.405-34.783c-8.51-8.499-19.581-13.489-31.461-14.275   c8.643-8.867,13.983-20.969,13.983-34.3c0-27.118-22.062-49.179-49.179-49.179h-21.774c4.93-7.785,7.677-16.894,7.677-26.313   C251.705,22.063,229.642,0,202.524,0c-27.119,0-49.182,22.063-49.182,49.181c0,9.419,2.748,18.528,7.678,26.313h-21.767   c-27.117,0-49.179,22.062-49.179,49.179c0,13.332,5.34,25.434,13.984,34.301c-25.576,1.713-45.864,23.054-45.864,49.057   c0,8.832,2.324,17.307,6.667,24.743h-21.77c-2.4,0-4.656,1.149-6.067,3.091c-1.411,1.942-1.808,4.442-1.065,6.726l50.572,155.707   c1.003,3.09,3.883,5.183,7.133,5.183h216.154c3.25,0,6.13-2.093,7.133-5.183l50.571-155.707   C368.264,240.308,367.868,237.807,366.457,235.865z M168.342,49.181c0-18.848,15.334-34.181,34.182-34.181   s34.181,15.333,34.181,34.181c0,10.174-4.591,19.843-12.377,26.313H180.72C172.933,69.024,168.342,59.355,168.342,49.181z    M139.252,90.494h126.549c18.847,0,34.179,15.333,34.179,34.179c0,18.814-15.28,34.125-34.083,34.177H139.156   c-18.802-0.052-34.083-15.362-34.083-34.177C105.074,105.827,120.406,90.494,139.252,90.494z M83.207,232.207   c-6.457-6.465-10.013-15.051-10.013-24.176c0-18.848,15.334-34.181,34.182-34.181h190.308c9.125,0,17.711,3.556,24.169,10.005   c6.456,6.466,10.012,15.052,10.012,24.176c0,9.427-3.847,18.304-10.622,24.743H83.803   C83.604,232.585,83.395,232.396,83.207,232.207z M53.413,247.774h31.074l32.053,140.707H99.113L53.413,247.774z M99.871,247.774   h47.081l13.824,140.707h-28.852L99.871,247.774z M175.847,388.48l-13.823-140.707h79.434L227.634,388.48H175.847z M242.706,388.48   l13.824-140.707h47.08L271.558,388.48H242.706z M304.368,388.48h-17.426l32.052-140.707h31.074L304.368,388.48z"/>
</g>















</svg>
