<?xml version="1.0" encoding="iso-8859-1"?>
<!-- Generator: Adobe Illustrator 19.0.0, SVG Export Plug-In . SVG Version: 6.00 Build 0)  -->
<svg version="1.1" id="Layer_1" xmlns="http://www.w3.org/2000/svg" xmlns:xlink="http://www.w3.org/1999/xlink" x="0px" y="0px"
	 viewBox="0 0 511.999 511.999" style="enable-background:new 0 0 511.999 511.999;" xml:space="preserve">
<path style="fill:#185F8D;" d="M96.348,365.579l32.737,32.737c3.191,3.191,3.191,8.364,0,11.554
	c-0.001,0.001,11.554,11.556,11.554,11.556l17.333-17.333l-32.737-32.737c-3.191-3.191-3.191-8.364,0-11.554
	c0.001-0.001-11.554-11.555-11.554-11.555L96.348,365.579z"/>
<g>
	<path style="fill:#274B6D;" d="M123.308,412.265c-2.09,0-4.182-0.797-5.777-2.393l-32.737-32.737l-11.555,11.555l5.772,5.773
		c0.01,0.01,44.297,44.297,44.297,44.297l17.331-17.331l-11.555-11.555C127.489,411.467,125.399,412.265,123.308,412.265z"/>
	<path style="fill:#274B6D;" d="M130.512,331.415l-16.833,16.833l11.555,11.555c3.191-3.19,8.363-3.19,11.554,0.001l32.737,32.737
		l11.056-11.056L130.512,331.415z"/>
</g>
<polygon style="fill:#C1E8E6;" points="100.2,438.758 73.239,411.797 34.228,450.808 47.705,464.286 61.188,477.769 "/>
<g>
	
		<rect x="191.034" y="175.37" transform="matrix(-0.7071 -0.7071 0.7071 -0.7071 210.9249 636.7172)" style="fill:#185F8D;" width="92.594" height="198.61"/>
	
		<rect x="407.463" y="50.077" transform="matrix(0.7071 0.7071 -0.7071 0.7071 174.0902 -303.7967)" style="fill:#185F8D;" width="92.594" height="16.34"/>
</g>
<rect x="294.798" y="87.941" transform="matrix(0.7071 -0.7071 0.7071 0.7071 15.7234 306.4359)" style="fill:#6DA8D6;" width="165.929" height="92.594"/>
<path style="fill:#082947;" d="M509.606,79.425l-77.028-77.03c-1.532-1.533-3.61-2.393-5.777-2.393s-4.245,0.861-5.777,2.393
	l-17.332,17.332L386.361,2.395c-1.532-1.533-3.61-2.393-5.777-2.393s-4.245,0.861-5.777,2.393L248.095,129.107
	c-3.191,3.191-3.191,8.364,0,11.554c1.595,1.595,3.686,2.393,5.777,2.393s4.182-0.797,5.777-2.393L380.583,19.727l11.555,11.555
	L117.036,306.384c-3.191,3.191-3.191,8.364,0,11.554l1.923,1.923l-63.051,63.051c-1.533,1.532-2.393,3.61-2.393,5.777
	s0.861,4.245,2.393,5.777l5.777,5.777L16.896,445.03c-3.191,3.191-3.191,8.364,0,11.554l13.48,13.481L2.393,498.049
	c-3.191,3.191-3.191,8.364,0,11.554c1.595,1.596,3.686,2.394,5.777,2.394s4.182-0.797,5.777-2.393l27.983-27.983l13.48,13.48
	c1.532,1.533,3.61,2.393,5.777,2.393c2.167,0,4.245-0.861,5.777-2.393l44.789-44.789l5.777,5.777
	c1.595,1.595,3.686,2.393,5.777,2.393s4.182-0.797,5.777-2.393l63.05-63.05l1.929,1.929c1.532,1.533,3.61,2.393,5.777,2.393
	c2.167,0,4.245-0.861,5.777-2.393L509.606,90.98C512.797,87.789,512.797,82.615,509.606,79.425z M169.525,392.54l-32.737-32.737
	c-3.19-3.19-8.363-3.191-11.554-0.001c-3.192,3.191-3.192,8.364-0.001,11.555l32.737,32.737l-34.663,34.663L79.019,394.47
	c-0.01-0.01-5.782-5.782-5.782-5.782l11.555-11.555l32.737,32.737c1.595,1.595,3.686,2.393,5.777,2.393s4.181-0.797,5.776-2.392
	c3.192-3.192,3.192-8.365,0.001-11.555l-32.737-32.737l34.164-34.164l50.069,50.069L169.525,392.54z M47.71,464.291
	c-0.005-0.005-13.483-13.483-13.483-13.483l39.011-39.011l26.961,26.96L61.187,477.77L47.71,464.291z M469.166,108.311
	l-117.33,117.33l-65.475-65.475l117.33-117.331L469.166,108.311z M134.366,312.16l140.44-140.44l65.475,65.475l-140.44,140.44
	L134.366,312.16z M480.721,96.756l-65.475-65.475l11.555-11.555l65.475,65.475L480.721,96.756z"/>
<g>
</g>
<g>
</g>
<g>
</g>
<g>
</g>
<g>
</g>
<g>
</g>
<g>
</g>
<g>
</g>
<g>
</g>
<g>
</g>
<g>
</g>
<g>
</g>
<g>
</g>
<g>
</g>
<g>
</g>
</svg>
