<?xml version="1.0" encoding="iso-8859-1"?>
<!-- Generator: Adobe Illustrator 19.0.0, SVG Export Plug-In . SVG Version: 6.00 Build 0)  -->
<svg version="1.1" id="Layer_1" xmlns="http://www.w3.org/2000/svg" xmlns:xlink="http://www.w3.org/1999/xlink" x="0px" y="0px"
	 viewBox="0 0 512 512" style="enable-background:new 0 0 512 512;" xml:space="preserve">
<path style="fill:#E0E0E0;" d="M495.6,216.4l-46,74.8c-7.2,11.2-23.6,20.8-36.8,20.8H99.6c-13.2,0-29.6-9.6-36.8-20.8l-46-74.4
	L495.6,216.4z"/>
<path d="M412.8,316H99.6c-14.4,0-32.4-10-40-22.8l-46-74.4c-1.2-2-0.4-4.4,1.2-5.6c2-1.2,4.4-0.4,5.6,1.2l46,74.4
	c6.4,10.4,21.6,18.8,33.2,18.8h313.2c11.6,0,26.8-8.8,33.2-18.8l46-74.8c1.2-2,3.6-2.4,5.6-1.2c2,1.2,2.4,3.6,1.2,5.6l-46,74.8
	C444.8,306,426.8,316,412.8,316z"/>
<path style="fill:#BDBDBD;" d="M500,200c4.4,0,8,4.4,8,8.8c0,2.4-0.8,3.6-2.4,5.2s-3.6,2-5.6,2h-35.6h-36H12c-4.4,0-8-2.8-8-7.2
	c0-2,0.8-4.8,2.4-6C8,201.2,10,200,12,200H500z"/>
<path d="M500,220h-36c-2.4,0-4-1.6-4-4s1.6-4,4-4h36c2,0,2.4-0.4,2.8-0.8c1.2-1.2,1.2-1.6,1.2-2.4c0-2.4-2-4.8-4-4.8H12
	c-0.8,0-1.6,0.8-2.8,1.6c-0.8,0.8-1.2,2-1.2,3.2c0,2.8,3.2,3.2,4,3.2h416c2.4,0,4,1.6,4,4s-1.6,4-4,4H12c-6.8,0-12-4.8-12-11.2
	c0-3.2,1.2-6.8,3.6-8.8c1.6-2,4.8-4,8.4-4h488c6.4,0,12,6,12,12.8c0,4-2,6.4-3.6,8C505.6,220,501.2,220,500,220z"/>
<g>
</g>
<g>
</g>
<g>
</g>
<g>
</g>
<g>
</g>
<g>
</g>
<g>
</g>
<g>
</g>
<g>
</g>
<g>
</g>
<g>
</g>
<g>
</g>
<g>
</g>
<g>
</g>
<g>
</g>
</svg>
