<?xml version="1.0" encoding="iso-8859-1"?>
<!-- Generator: Adobe Illustrator 19.0.0, SVG Export Plug-In . SVG Version: 6.00 Build 0)  -->
<svg version="1.1" id="Layer_1" xmlns="http://www.w3.org/2000/svg" xmlns:xlink="http://www.w3.org/1999/xlink" x="0px" y="0px"
	 viewBox="0 0 512 512" style="enable-background:new 0 0 512 512;" xml:space="preserve">
<g transform="translate(1 1)">
	<path style="fill:#FFDD09;" d="M374.467,127c0-18.773-15.36-34.133-34.133-34.133S306.2,108.227,306.2,127H374.467z"/>
	<path style="fill:#54C9FD;" d="M161.133,246.467c-1.707,0-3.413,0-4.267,0.853C150.893,237.08,139.8,229.4,127,229.4
		c-17.067,0-31.573,12.8-33.28,29.013c-6.827-6.827-16.213-11.947-26.453-11.947c-18.773,0-34.133,15.36-34.133,34.133h162.133
		C195.267,261.827,179.907,246.467,161.133,246.467"/>
	<path style="fill:#FFDD09;" d="M485.4,314.733H24.6c-9.387,0-17.067-7.68-17.067-17.067c0-9.387,7.68-17.067,17.067-17.067h460.8
		c9.387,0,17.067,7.68,17.067,17.067C502.467,307.053,494.787,314.733,485.4,314.733"/>
	<path style="fill:#FD9808;" d="M220.867,314.733h247.467l-24.747,98.133c-5.973,23.04-26.453,38.4-49.493,38.4h-98.987
		c-23.893,0-44.373-16.213-49.493-38.4L220.867,314.733z"/>
	<path style="fill:#FFFFFF;" d="M41.667,314.733h247.467l-24.747,98.133c-5.973,23.04-26.453,38.4-49.493,38.4h-98.987
		c-23.893,0-44.373-16.213-49.493-38.4L41.667,314.733z"/>
	<path style="fill:#FFDD09;" d="M67.267,314.733h375.467L421.4,412.867c-5.12,23.04-23.04,38.4-43.52,38.4H132.973
		c-20.48,0-38.4-16.213-43.52-38.4L67.267,314.733z"/>
	<path d="M485.4,323.267H24.6c-14.507,0-25.6-11.093-25.6-25.6s11.093-25.6,25.6-25.6h460.8c14.507,0,25.6,11.093,25.6,25.6
		S499.907,323.267,485.4,323.267z M24.6,289.133c-5.12,0-8.533,3.413-8.533,8.533S19.48,306.2,24.6,306.2h460.8
		c5.12,0,8.533-3.413,8.533-8.533s-3.413-8.533-8.533-8.533H24.6z"/>
	<path d="M394.093,459.8H115.907c-27.307,0-51.2-18.773-58.027-45.227L33.133,316.44c-0.853-2.56,0-5.12,1.707-7.68
		c1.707-1.707,4.267-2.56,6.827-2.56h426.667c2.56,0,5.12,0.853,6.827,3.413c1.707,1.707,2.56,5.12,1.707,7.68l-24.747,98.133
		C445.293,441.027,421.4,459.8,394.093,459.8z M52.76,323.267l22.187,87.04c5.12,18.773,22.187,32.427,41.813,32.427h278.187
		c19.627,0,36.693-13.653,41.813-32.427l20.48-87.04H52.76z"/>
	<path d="M118.467,493.933c-0.853,0-2.56,0-3.413-0.853c-4.267-1.707-5.973-6.827-3.413-11.093l17.067-34.133
		c1.707-4.267,6.827-5.973,11.093-3.413c4.267,1.707,5.973,6.827,3.413,11.093l-17.067,34.133
		C124.44,492.227,121.88,493.933,118.467,493.933z"/>
	<path d="M400.067,493.933c-3.413,0-5.973-1.707-7.68-5.12L375.32,454.68c-1.707-4.267,0-9.387,3.413-11.093
		c4.267-1.707,9.387,0,11.093,3.413l17.067,34.133c1.707,4.267,0,9.387-3.413,11.093
		C402.627,493.933,401.773,493.933,400.067,493.933z"/>
	<path d="M195.267,289.133H33.133c-5.12,0-8.533-3.413-8.533-8.533c0-23.893,18.773-42.667,42.667-42.667
		c7.68,0,15.36,2.56,22.187,5.973c6.827-13.653,21.333-23.04,37.547-23.04c13.653,0,25.6,6.827,34.133,17.067l0,0
		c23.893,0,42.667,18.773,42.667,42.667C203.8,285.72,200.387,289.133,195.267,289.133z M43.373,272.067H185.88
		c-3.413-10.24-12.8-17.067-23.893-17.067c-0.853,0-1.707,0-2.56,0c-3.413,0.853-7.68-0.853-9.387-4.267
		c-4.267-8.533-12.8-12.8-22.187-12.8c-12.8,0-23.04,9.387-25.6,22.187c-0.853,3.413-2.56,5.973-5.973,6.827s-6.827,0-8.533-2.56
		c-5.973-5.973-12.8-9.387-20.48-9.387C56.173,255,46.787,261.827,43.373,272.067z"/>
	<path d="M476.867,280.6H459.8V92.867c0-33.28-26.453-59.733-59.733-59.733c-34.987,0-51.2,29.867-51.2,59.733H331.8
		c0-45.227,28.16-76.8,68.267-76.8c42.667,0,76.8,34.133,76.8,76.8V280.6z"/>
	<path d="M306.2,173.933c-5.12,0-8.533-3.413-8.533-8.533v-4.267c0-5.12,3.413-8.533,8.533-8.533s8.533,3.413,8.533,8.533v4.267
		C314.733,170.52,311.32,173.933,306.2,173.933z"/>
	<path d="M306.2,213.187c-5.12,0-8.533-3.413-8.533-8.533v-9.387c0-5.12,3.413-8.533,8.533-8.533s8.533,3.413,8.533,8.533v9.387
		C314.733,208.92,311.32,213.187,306.2,213.187z"/>
	<path d="M306.2,246.467c-5.12,0-8.533-3.413-8.533-8.533v-4.267c0-5.12,3.413-8.533,8.533-8.533s8.533,3.413,8.533,8.533v4.267
		C314.733,243.053,311.32,246.467,306.2,246.467z"/>
	<path d="M340.333,173.933c-5.12,0-8.533-3.413-8.533-8.533v-4.267c0-5.12,3.413-8.533,8.533-8.533c5.12,0,8.533,3.413,8.533,8.533
		v4.267C348.867,170.52,345.453,173.933,340.333,173.933z"/>
	<path d="M340.333,213.187c-5.12,0-8.533-3.413-8.533-8.533v-9.387c0-5.12,3.413-8.533,8.533-8.533c5.12,0,8.533,3.413,8.533,8.533
		v9.387C348.867,208.92,345.453,213.187,340.333,213.187z"/>
	<path d="M340.333,246.467c-5.12,0-8.533-3.413-8.533-8.533v-4.267c0-5.12,3.413-8.533,8.533-8.533c5.12,0,8.533,3.413,8.533,8.533
		v4.267C348.867,243.053,345.453,246.467,340.333,246.467z"/>
	<path d="M374.467,173.933c-5.12,0-8.533-3.413-8.533-8.533v-4.267c0-5.12,3.413-8.533,8.533-8.533c5.12,0,8.533,3.413,8.533,8.533
		v4.267C383,170.52,379.587,173.933,374.467,173.933z"/>
	<path d="M374.467,213.187c-5.12,0-8.533-3.413-8.533-8.533v-9.387c0-5.12,3.413-8.533,8.533-8.533c5.12,0,8.533,3.413,8.533,8.533
		v9.387C383,208.92,379.587,213.187,374.467,213.187z"/>
	<path d="M374.467,246.467c-5.12,0-8.533-3.413-8.533-8.533v-4.267c0-5.12,3.413-8.533,8.533-8.533c5.12,0,8.533,3.413,8.533,8.533
		v4.267C383,243.053,379.587,246.467,374.467,246.467z"/>
	<path d="M374.467,135.533H306.2c-5.12,0-8.533-3.413-8.533-8.533c0-23.893,18.773-42.667,42.667-42.667
		C364.227,84.333,383,103.107,383,127C383,132.12,379.587,135.533,374.467,135.533z M316.44,118.467h48.64
		c-3.413-10.24-12.8-17.067-23.893-17.067S319.853,108.227,316.44,118.467z"/>
</g>
<g>
</g>
<g>
</g>
<g>
</g>
<g>
</g>
<g>
</g>
<g>
</g>
<g>
</g>
<g>
</g>
<g>
</g>
<g>
</g>
<g>
</g>
<g>
</g>
<g>
</g>
<g>
</g>
<g>
</g>
</svg>
