<?xml version="1.0" encoding="iso-8859-1"?>
<!-- Generator: Adobe Illustrator 19.0.0, SVG Export Plug-In . SVG Version: 6.00 Build 0)  -->
<svg version="1.1" id="Layer_1" xmlns="http://www.w3.org/2000/svg" xmlns:xlink="http://www.w3.org/1999/xlink" x="0px" y="0px"
	 viewBox="0 0 512 512" style="enable-background:new 0 0 512 512;" xml:space="preserve">
<path style="fill:#A3DDE9;" d="M504.647,7.353v32.681l-312.211,10.73l-10.894,83.467c0,0.011-32.681,0-32.681,0V43.139
	c0-19.685,16.112-35.786,35.786-35.786H504.647z"/>
<path style="fill:#82C8DB;" d="M504.647,40.034v17.081H198.623v77.127h-17.081c0-0.011,0-91.103,0-91.103
	c0-1.623,1.482-3.105,3.105-3.105C184.647,40.034,504.647,40.034,504.647,40.034z"/>
<polygon style="fill:#F77A20;" points="204.266,112.444 212.197,153.447 173.748,186.128 135.299,153.447 143.218,112.444 "/>
<path style="fill:#D93722;" d="M321.994,210.323l-41.919,21.787l-67.878-78.663C257.841,161.04,296.916,181.858,321.994,210.323z"/>
<g>
	<path style="fill:#EA5A20;" d="M290.969,210.323c-17.985-28.465-46.026-49.283-78.772-56.876h-76.898
		c-45.655,7.593-84.731,28.411-109.797,56.876l52.812,21.787L290.969,210.323z"/>
	<polygon style="fill:#EA5A20;" points="321.994,210.323 327.843,254.224 273.375,254.224 290.969,210.323 	"/>
</g>
<polygon style="fill:#F77A20;" points="290.969,210.323 25.502,210.323 19.641,254.224 295.163,254.224 "/>
<path d="M503.83,49.759h-70.36V16.34h70.36c4.513,0,8.17-3.657,8.17-8.17S508.343,0,503.83,0H183.833
	c-24.237,0-43.956,19.719-43.956,43.955v61.549c-2.762,0.9-4.916,3.232-5.493,6.212l-6.863,35.488
	c-44.579,8.519-83.113,29.181-108.97,58.539c-0.02,0.022-0.034,0.047-0.052,0.069c-0.234,0.271-0.452,0.556-0.649,0.856
	c-0.027,0.041-0.05,0.084-0.076,0.125c-0.175,0.278-0.332,0.566-0.474,0.865c-0.024,0.052-0.051,0.102-0.074,0.155
	c-0.148,0.33-0.275,0.671-0.378,1.023c-0.015,0.05-0.025,0.101-0.039,0.152c-0.083,0.303-0.147,0.613-0.195,0.93
	c-0.008,0.048-0.024,0.095-0.031,0.144l-4.908,36.808H8.17c-4.513,0-8.17,3.657-8.17,8.17c0,4.513,3.657,8.17,8.17,8.17h318.822
	c0.008,0,0.015,0.001,0.023,0.001c0.005,0,0.011-0.001,0.016-0.001h10.654c4.512,0,8.17-3.657,8.17-8.17
	c0-4.513-3.658-8.17-8.17-8.17h-3.507l-4.908-36.808c-0.007-0.049-0.023-0.095-0.031-0.144c-0.048-0.316-0.112-0.625-0.195-0.929
	c-0.014-0.051-0.025-0.103-0.039-0.155c-0.104-0.352-0.23-0.693-0.378-1.023c-0.023-0.052-0.049-0.101-0.074-0.154
	c-0.142-0.298-0.298-0.587-0.474-0.865c-0.026-0.041-0.05-0.086-0.077-0.127c-0.197-0.301-0.415-0.585-0.648-0.856
	c-0.018-0.022-0.034-0.047-0.052-0.069c-25.858-29.359-64.392-50.02-108.97-58.539l-6.863-35.488
	c-0.575-2.979-2.731-5.312-5.494-6.212V66.099h211.152v304.238c-2.745,1.694-5.173,4.246-7.075,7.541l-62.191,107.716
	c-3.641,6.305-3.995,12.926-0.971,18.164c3.024,5.239,8.934,8.242,16.216,8.242h124.381c7.282,0,13.191-3.004,16.216-8.242
	c3.024-5.238,2.67-11.859-0.971-18.164l-62.19-107.716c-1.902-3.294-4.33-5.847-7.075-7.541V66.099h70.36
	c4.513,0,8.17-3.657,8.17-8.17C512,53.416,508.343,49.759,503.83,49.759z M488.584,493.764c0.423,0.732,0.638,1.304,0.741,1.692
	c-0.386,0.105-0.989,0.205-1.836,0.205h-124.38c-0.845,0-1.449-0.1-1.836-0.205c0.102-0.387,0.318-0.96,0.741-1.692l62.191-107.716
	c0.423-0.732,0.81-1.204,1.095-1.487c0.284,0.283,0.672,0.755,1.095,1.487L488.584,493.764z M210.037,162.319
	c35.805,5.957,67.522,20.179,91.26,40.653H122.725c-4.513,0-8.17,3.657-8.17,8.17s3.657,8.17,8.17,8.17h191.294l3.674,27.559H28.162
	l3.673-27.559h58.209c4.513,0,8.17-3.657,8.17-8.17s-3.657-8.17-8.17-8.17H44.56c23.598-20.351,55.084-34.524,90.629-40.543h43.506
	c4.513,0,8.17-3.657,8.17-8.17c0-4.513-3.657-8.17-8.17-8.17h-34.315l4.767-24.653h47.56l6.647,34.375
	C204.004,159.162,206.668,161.758,210.037,162.319z M197.807,49.759c-4.513,0-8.17,3.657-8.17,8.17v47.167h-33.419V43.955
	c0-15.226,12.388-27.614,27.615-27.614H417.13v33.418H197.807z"/>
<g>
	<path style="fill:#82C8DB;" d="M63.991,325.41c-4.513,0-8.17-3.657-8.17-8.17v-21.787c0-4.513,3.657-8.17,8.17-8.17
		s8.17,3.657,8.17,8.17v21.787C72.162,321.752,68.505,325.41,63.991,325.41z"/>
	<path style="fill:#82C8DB;" d="M63.991,512c-4.513,0-8.17-3.657-8.17-8.17v-21.787c0-4.513,3.657-8.17,8.17-8.17
		s8.17,3.657,8.17,8.17v21.787C72.162,508.343,68.505,512,63.991,512z"/>
	<path style="fill:#82C8DB;" d="M63.991,449.803c-4.513,0-8.17-3.657-8.17-8.17v-21.787c0-4.513,3.657-8.17,8.17-8.17
		s8.17,3.657,8.17,8.17v21.787C72.162,446.146,68.505,449.803,63.991,449.803z"/>
	<path style="fill:#82C8DB;" d="M63.991,387.606c-4.513,0-8.17-3.657-8.17-8.17v-21.787c0-4.512,3.657-8.17,8.17-8.17
		s8.17,3.658,8.17,8.17v21.787C72.162,383.949,68.505,387.606,63.991,387.606z"/>
	<path style="fill:#82C8DB;" d="M107.566,325.41c-4.513,0-8.17-3.657-8.17-8.17v-21.787c0-4.513,3.657-8.17,8.17-8.17
		s8.17,3.657,8.17,8.17v21.787C115.736,321.752,112.079,325.41,107.566,325.41z"/>
	<path style="fill:#82C8DB;" d="M107.566,512c-4.513,0-8.17-3.657-8.17-8.17v-21.787c0-4.513,3.657-8.17,8.17-8.17
		s8.17,3.657,8.17,8.17v21.787C115.736,508.343,112.079,512,107.566,512z"/>
	<path style="fill:#82C8DB;" d="M107.566,449.803c-4.513,0-8.17-3.657-8.17-8.17v-21.787c0-4.513,3.657-8.17,8.17-8.17
		s8.17,3.657,8.17,8.17v21.787C115.736,446.146,112.079,449.803,107.566,449.803z"/>
	<path style="fill:#82C8DB;" d="M107.566,387.606c-4.513,0-8.17-3.657-8.17-8.17v-21.787c0-4.512,3.657-8.17,8.17-8.17
		s8.17,3.658,8.17,8.17v21.787C115.736,383.949,112.079,387.606,107.566,387.606z"/>
	<path style="fill:#82C8DB;" d="M151.14,325.41c-4.513,0-8.17-3.657-8.17-8.17v-21.787c0-4.513,3.657-8.17,8.17-8.17
		s8.17,3.657,8.17,8.17v21.787C159.31,321.752,155.653,325.41,151.14,325.41z"/>
	<path style="fill:#82C8DB;" d="M151.14,512c-4.513,0-8.17-3.657-8.17-8.17v-21.787c0-4.513,3.657-8.17,8.17-8.17
		s8.17,3.657,8.17,8.17v21.787C159.31,508.343,155.653,512,151.14,512z"/>
	<path style="fill:#82C8DB;" d="M151.14,449.803c-4.513,0-8.17-3.657-8.17-8.17v-21.787c0-4.513,3.657-8.17,8.17-8.17
		s8.17,3.657,8.17,8.17v21.787C159.31,446.146,155.653,449.803,151.14,449.803z"/>
	<path style="fill:#82C8DB;" d="M151.14,387.606c-4.513,0-8.17-3.657-8.17-8.17v-21.787c0-4.512,3.657-8.17,8.17-8.17
		s8.17,3.658,8.17,8.17v21.787C159.31,383.949,155.653,387.606,151.14,387.606z"/>
	<path style="fill:#82C8DB;" d="M194.715,325.41c-4.513,0-8.17-3.657-8.17-8.17v-21.787c0-4.513,3.657-8.17,8.17-8.17
		s8.17,3.657,8.17,8.17v21.787C202.885,321.752,199.228,325.41,194.715,325.41z"/>
	<path style="fill:#82C8DB;" d="M194.715,512c-4.513,0-8.17-3.657-8.17-8.17v-21.787c0-4.513,3.657-8.17,8.17-8.17
		s8.17,3.657,8.17,8.17v21.787C202.885,508.343,199.228,512,194.715,512z"/>
	<path style="fill:#82C8DB;" d="M194.715,449.803c-4.513,0-8.17-3.657-8.17-8.17v-21.787c0-4.513,3.657-8.17,8.17-8.17
		s8.17,3.657,8.17,8.17v21.787C202.885,446.146,199.228,449.803,194.715,449.803z"/>
	<path style="fill:#82C8DB;" d="M194.715,387.606c-4.513,0-8.17-3.657-8.17-8.17v-21.787c0-4.512,3.657-8.17,8.17-8.17
		s8.17,3.658,8.17,8.17v21.787C202.885,383.949,199.228,387.606,194.715,387.606z"/>
	<path style="fill:#82C8DB;" d="M238.289,325.41c-4.513,0-8.17-3.657-8.17-8.17v-21.787c0-4.513,3.657-8.17,8.17-8.17
		s8.17,3.657,8.17,8.17v21.787C246.459,321.752,242.802,325.41,238.289,325.41z"/>
	<path style="fill:#82C8DB;" d="M238.289,512c-4.513,0-8.17-3.657-8.17-8.17v-21.787c0-4.513,3.657-8.17,8.17-8.17
		s8.17,3.657,8.17,8.17v21.787C246.459,508.343,242.802,512,238.289,512z"/>
	<path style="fill:#82C8DB;" d="M238.289,449.803c-4.513,0-8.17-3.657-8.17-8.17v-21.787c0-4.513,3.657-8.17,8.17-8.17
		s8.17,3.657,8.17,8.17v21.787C246.459,446.146,242.802,449.803,238.289,449.803z"/>
	<path style="fill:#82C8DB;" d="M238.289,387.606c-4.513,0-8.17-3.657-8.17-8.17v-21.787c0-4.512,3.657-8.17,8.17-8.17
		s8.17,3.658,8.17,8.17v21.787C246.459,383.949,242.802,387.606,238.289,387.606z"/>
	<path style="fill:#82C8DB;" d="M281.864,325.41c-4.513,0-8.17-3.657-8.17-8.17v-21.787c0-4.513,3.657-8.17,8.17-8.17
		c4.513,0,8.17,3.657,8.17,8.17v21.787C290.034,321.752,286.377,325.41,281.864,325.41z"/>
	<path style="fill:#82C8DB;" d="M281.864,512c-4.513,0-8.17-3.657-8.17-8.17v-21.787c0-4.513,3.657-8.17,8.17-8.17
		c4.513,0,8.17,3.657,8.17,8.17v21.787C290.034,508.343,286.377,512,281.864,512z"/>
	<path style="fill:#82C8DB;" d="M281.864,449.803c-4.513,0-8.17-3.657-8.17-8.17v-21.787c0-4.513,3.657-8.17,8.17-8.17
		c4.513,0,8.17,3.657,8.17,8.17v21.787C290.034,446.146,286.377,449.803,281.864,449.803z"/>
	<path style="fill:#82C8DB;" d="M281.864,387.606c-4.513,0-8.17-3.657-8.17-8.17v-21.787c0-4.512,3.657-8.17,8.17-8.17
		c4.513,0,8.17,3.658,8.17,8.17v21.787C290.034,383.949,286.377,387.606,281.864,387.606z"/>
</g>
<g>
</g>
<g>
</g>
<g>
</g>
<g>
</g>
<g>
</g>
<g>
</g>
<g>
</g>
<g>
</g>
<g>
</g>
<g>
</g>
<g>
</g>
<g>
</g>
<g>
</g>
<g>
</g>
<g>
</g>
</svg>
