<?xml version="1.0" encoding="iso-8859-1"?>
<!-- Generator: Adobe Illustrator 19.0.0, SVG Export Plug-In . SVG Version: 6.00 Build 0)  -->
<svg version="1.1" id="Layer_1" xmlns="http://www.w3.org/2000/svg" xmlns:xlink="http://www.w3.org/1999/xlink" x="0px" y="0px"
	 viewBox="0 0 511.992 511.992" style="enable-background:new 0 0 511.992 511.992;" xml:space="preserve">
<path style="fill:#FFCE54;" d="M298.651,5.327c-41.163,0-74.655,33.5-74.655,74.671v149.373c0,5.89,4.773,10.671,10.664,10.671
	h42.68c5.875,0,10.655-4.781,10.655-10.671V79.998c0-5.875,4.781-10.672,10.656-10.672c5.891,0,10.688,4.797,10.688,10.672v23.156
	c0,3.5,1.312,12.109,13.64,16.64c5.016,1.844,11.531,2.875,18.359,2.875c6.812,0,13.312-1.031,18.344-2.875
	c12.312-4.53,13.656-13.14,13.656-16.64V79.998C373.338,38.827,339.838,5.327,298.651,5.327z"/>
<path style="fill:#F6BB42;" d="M309.339,90.671v12.484c0,3.5,1.312,12.109,13.64,16.64c5.016,1.844,11.531,2.875,18.359,2.875
	c6.812,0,13.312-1.031,18.344-2.875c12.312-4.53,13.656-13.14,13.656-16.64V90.671H309.339z"/>
<path style="fill:#ED5564;" d="M170.661,175.997h-21.328c-11.765,0-21.335,9.562-21.335,21.328v21.344
	c0,11.749,9.57,21.327,21.335,21.327h21.328c11.766,0,21.336-9.578,21.336-21.327v-21.344
	C191.997,185.559,182.427,175.997,170.661,175.997z"/>
<path style="fill:#5D9CEC;" d="M362.65,175.997h-21.312c-11.781,0-21.344,9.562-21.344,21.328v21.344
	c0,11.749,9.562,21.327,21.344,21.327h21.312c11.781,0,21.344-9.578,21.344-21.327v-21.344
	C383.994,185.559,374.432,175.997,362.65,175.997z"/>
<path style="fill:#CCD1D9;" d="M487.539,264.496c-2.016-2-4.719-3.125-7.547-3.125H31.999c-2.828,0-5.538,1.125-7.538,3.125
	c-2.008,2-3.125,4.719-3.125,7.547c0.008,64.905,24.444,124.623,68.811,168.185c43.648,42.843,102.546,66.437,165.85,66.437
	c63.311,0,122.201-23.594,165.841-66.437c44.374-43.562,68.812-103.279,68.812-168.185
	C490.648,269.215,489.539,266.496,487.539,264.496z"/>
<path style="opacity:0.2;fill:#FFFFFF;enable-background:new    ;" d="M487.539,264.496c-2.016-2-4.719-3.125-7.547-3.125h-21.344
	c2.844,0,5.562,1.125,7.562,3.125s3.125,4.719,3.125,7.547c-0.031,64.905-24.469,124.623-68.826,168.185
	c-41.172,40.421-95.952,63.702-155.178,66.202c3.539,0.141,7.094,0.234,10.664,0.234c63.311,0,122.201-23.594,165.841-66.437
	c44.374-43.562,68.812-103.279,68.812-168.185C490.648,269.215,489.539,266.496,487.539,264.496z"/>
<path style="fill:#E6E9ED;" d="M479.992,218.715H31.999C14.352,218.715,0,233.059,0,250.714c0,17.641,14.352,32,31.999,32h447.993
	c17.656,0,32-14.359,32-32C511.992,233.057,497.648,218.715,479.992,218.715z"/>
<g>
	<path style="fill:#CCD1D9;" d="M447.992,229.372c5.891,0,10.656-4.766,10.656-10.656h-21.312
		C437.336,224.605,442.101,229.372,447.992,229.372z"/>
	<path style="fill:#CCD1D9;" d="M405.337,229.372c5.875,0,10.656-4.766,10.656-10.656H394.65
		C394.65,224.605,399.432,229.372,405.337,229.372z"/>
	<path style="fill:#CCD1D9;" d="M362.65,229.372c5.906,0,10.688-4.766,10.688-10.656h-21.344
		C351.994,224.605,356.775,229.372,362.65,229.372z"/>
	<path style="fill:#CCD1D9;" d="M319.994,229.372c5.891,0,10.656-4.766,10.656-10.656h-21.312
		C309.339,224.605,314.104,229.372,319.994,229.372z"/>
	<path style="fill:#CCD1D9;" d="M277.324,229.372c5.891,0,10.671-4.766,10.671-10.656H266.66
		C266.66,224.605,271.434,229.372,277.324,229.372z"/>
	<path style="fill:#CCD1D9;" d="M234.66,229.372c5.891,0,10.664-4.766,10.664-10.656h-21.328
		C223.996,224.605,228.769,229.372,234.66,229.372z"/>
	<path style="fill:#CCD1D9;" d="M191.997,229.372c5.891,0,10.663-4.766,10.663-10.656h-21.335
		C181.325,224.605,186.106,229.372,191.997,229.372z"/>
	<path style="fill:#CCD1D9;" d="M149.325,229.372c5.891,0,10.672-4.766,10.672-10.656h-21.335
		C138.662,224.605,143.434,229.372,149.325,229.372z"/>
	<path style="fill:#CCD1D9;" d="M106.662,229.372c5.891,0,10.664-4.766,10.664-10.656H95.998
		C95.998,224.605,100.771,229.372,106.662,229.372z"/>
	<path style="fill:#CCD1D9;" d="M63.999,229.372c5.891,0,10.664-4.766,10.664-10.656H53.327
		C53.327,224.605,58.108,229.372,63.999,229.372z"/>
</g>
<g>
</g>
<g>
</g>
<g>
</g>
<g>
</g>
<g>
</g>
<g>
</g>
<g>
</g>
<g>
</g>
<g>
</g>
<g>
</g>
<g>
</g>
<g>
</g>
<g>
</g>
<g>
</g>
<g>
</g>
</svg>
