<?xml version="1.0" encoding="iso-8859-1"?>
<!-- Generator: Adobe Illustrator 19.0.0, SVG Export Plug-In . SVG Version: 6.00 Build 0)  -->
<svg version="1.1" id="Layer_1" xmlns="http://www.w3.org/2000/svg" xmlns:xlink="http://www.w3.org/1999/xlink" x="0px" y="0px"
	 viewBox="0 0 512 512" style="enable-background:new 0 0 512 512;" xml:space="preserve">
<path style="fill:#FBCDCB;" d="M501.289,72.252v56.421c0,104.314-84.554,188.868-188.868,188.868H256v-56.42
	c0-104.303,84.554-188.868,188.868-188.868h56.421V72.252z"/>
<path style="fill:#F78A68;" d="M256,317.54c98.572,0,178.478,79.907,178.478,178.478c-49.286,0-93.903-19.98-126.201-52.278
	S256,366.826,256,317.54z"/>
<path style="fill:#FBCDCB;" d="M256,261.121v56.421h-56.421C95.265,317.54,10.711,232.987,10.711,128.672V72.252h56.421
	C171.446,72.252,256,156.817,256,261.121z"/>
<path style="fill:#F78A68;" d="M256,317.54c0,49.286-19.98,93.903-52.278,126.201s-76.915,52.278-126.201,52.278
	C77.522,397.448,157.428,317.54,256,317.54z"/>
<path d="M512,128.672V72.252c0-5.916-4.797-10.711-10.711-10.711c-5.915,0-10.711,4.795-10.711,10.711v56.421
	c0,98.235-79.92,178.157-178.157,178.157h-45.709v-45.708c0-96.727,75.681-174.942,172.295-178.062
	c5.913-0.191,10.551-5.139,10.36-11.052c-0.192-5.913-5.13-10.543-11.052-10.36c-51.927,1.677-100.478,23.172-136.713,60.525
	c-4.167,4.296-8.108,8.755-11.84,13.352l33.673-116.566c1.641-5.683-1.635-11.622-7.318-13.264
	c-5.688-1.642-11.622,1.635-13.264,7.318L256,175.201L209.147,13.012c-1.641-5.683-7.583-8.96-13.263-7.318
	c-5.683,1.642-8.96,7.58-7.318,13.264l33.745,116.811C185.692,90.524,129.737,61.54,67.133,61.54H10.711
	C4.795,61.54,0,66.336,0,72.252v56.421C0,229.471,75.117,313.042,172.309,326.38c-62.453,30.936-105.499,95.35-105.499,169.638
	c0,5.916,4.795,10.711,10.711,10.711c50.531,0,98.039-19.68,133.776-55.415c13.797-13.798,25.19-29.356,33.992-46.161v53.065
	c0,5.916,4.795,10.711,10.711,10.711c5.915,0,10.711-4.795,10.711-10.711v-53.064c8.801,16.804,20.194,32.363,33.991,46.16
	c35.736,35.735,83.245,55.415,133.776,55.415c5.915,0,10.711-4.795,10.711-10.711c0-74.288-43.047-138.702-105.499-169.638
	C436.883,313.042,512,229.471,512,128.672z M21.423,128.672V82.963h45.709c98.235,0,178.157,79.921,178.157,178.158v45.709h-45.709
	C101.344,306.829,21.423,226.909,21.423,128.672z M196.148,436.167c-29.064,29.064-66.912,46.152-107.554,48.784
	c5.481-83.703,72.634-150.857,156.338-156.338C242.3,369.255,225.213,407.104,196.148,436.167z M423.406,484.951
	c-40.641-2.632-78.489-19.72-107.554-48.784c-29.064-29.063-46.152-66.912-48.784-107.554
	C350.772,334.094,417.925,401.247,423.406,484.951z"/>
<path d="M471.358,82.963c5.915,0,10.711-4.795,10.711-10.711c0-5.916-4.797-10.711-10.711-10.711h-4.201
	c-5.915,0-10.711,4.795-10.711,10.711c0,5.916,4.797,10.711,10.711,10.711H471.358z"/>
<g>
</g>
<g>
</g>
<g>
</g>
<g>
</g>
<g>
</g>
<g>
</g>
<g>
</g>
<g>
</g>
<g>
</g>
<g>
</g>
<g>
</g>
<g>
</g>
<g>
</g>
<g>
</g>
<g>
</g>
</svg>
