<?xml version="1.0" encoding="iso-8859-1"?>
<!-- Generator: Adobe Illustrator 19.0.0, SVG Export Plug-In . SVG Version: 6.00 Build 0)  -->
<svg version="1.1" id="Layer_1" xmlns="http://www.w3.org/2000/svg" xmlns:xlink="http://www.w3.org/1999/xlink" x="0px" y="0px"
	 viewBox="0 0 512 512" style="enable-background:new 0 0 512 512;" xml:space="preserve">
<path style="fill:#A58868;" d="M417.605,127.123C404.9,100.301,377.878,83.2,348.198,83.2H163.802
	c-29.679,0-56.701,17.101-69.407,43.923L0,326.4l0,0l76.8,38.4l38.4-76.8v192H192c35.375,0,64-28.625,64-64
	c0,35.375,28.625,64,64,64h76.8V288l38.4,76.8l76.8-38.4L417.605,127.123z"/>
<path style="fill:#947859;" d="M417.605,127.123C404.9,100.301,377.878,83.2,348.198,83.2H256V416c0,35.375,28.625,64,64,64h76.8
	V288l38.4,76.8l76.8-38.4L417.605,127.123z"/>
<g>
	<polygon style="fill:#DFDFE1;" points="371.2,108.8 294.4,32 217.6,32 140.8,108.8 256,224 	"/>
	<rect x="153.6" y="345.6" style="fill:#DFDFE1;" width="51.2" height="38.4"/>
</g>
<g>
	<rect x="307.2" y="345.6" style="fill:#CFCDD2;" width="51.2" height="38.4"/>
	<polygon style="fill:#CFCDD2;" points="294.4,32 256,32 256,224 371.2,108.8 	"/>
</g>
<path style="fill:#56545A;" d="M236.8,129.553v332.156c11.846-11.612,19.2-27.79,19.2-45.71c0,17.919,7.354,34.098,19.2,45.71
	V129.553L315.153,89.6H196.847L236.8,129.553z"/>
<g>
</g>
<g>
</g>
<g>
</g>
<g>
</g>
<g>
</g>
<g>
</g>
<g>
</g>
<g>
</g>
<g>
</g>
<g>
</g>
<g>
</g>
<g>
</g>
<g>
</g>
<g>
</g>
<g>
</g>
</svg>
