<?xml version="1.0" encoding="iso-8859-1"?>
<!-- Generator: Adobe Illustrator 19.0.0, SVG Export Plug-In . SVG Version: 6.00 Build 0)  -->
<svg version="1.1" id="Layer_1" xmlns="http://www.w3.org/2000/svg" xmlns:xlink="http://www.w3.org/1999/xlink" x="0px" y="0px"
	 viewBox="0 0 512 512" style="enable-background:new 0 0 512 512;" xml:space="preserve">
<path style="fill:#F95428;" d="M424.124,500.493h-55.647c-3.177,0-5.753-2.576-5.753-5.753c0-3.177,2.576-5.753,5.753-5.753h55.647
	c8.501,0,15.417-6.916,15.417-15.417v-38.914c0-3.177,2.576-5.753,5.753-5.753c3.177,0,5.753,2.576,5.753,5.753v38.914
	C451.047,488.415,438.969,500.493,424.124,500.493z"/>
<path style="fill:#E6E6E6;" d="M491.319,362.457h-22.437c-4.766,0-8.63-3.864-8.63-8.63c0-4.766,3.864-8.63,8.63-8.63h22.437
	c4.766,0,8.63,3.864,8.63,8.63C499.948,358.593,496.085,362.457,491.319,362.457z"/>
<path style="fill:#F95428;" d="M230.604,463.423H58.624c-15.217,0-27.552-12.336-27.552-27.552l0,0
	c0-8.931,7.24-16.172,16.172-16.172h183.361"/>
<path id="SVGCleanerId_0" style="fill:#E6E6E6;" d="M394.468,407.547V512H143.634V407.547c0-27.925,16.086-52.1,39.489-63.744
	c9.539-4.752,20.285-7.422,31.665-7.422h108.515c11.38,0,22.126,2.669,31.665,7.422
	C378.382,355.447,394.468,379.622,394.468,407.547z"/>
<path id="SVGCleanerId_1" style="fill:#CCCCCC;" d="M258.637,336.381h-43.845c-39.3,0-71.161,31.859-71.161,71.161v104.454h43.845
	V407.542C187.476,368.241,219.335,336.381,258.637,336.381z"/>
<g>
	<path id="SVGCleanerId_0_1_" style="fill:#E6E6E6;" d="M394.468,407.547V512H143.634V407.547c0-27.925,16.086-52.1,39.489-63.744
		c9.539-4.752,20.285-7.422,31.665-7.422h108.515c11.38,0,22.126,2.669,31.665,7.422
		C378.382,355.447,394.468,379.622,394.468,407.547z"/>
</g>
<path style="fill:#CCCCCC;" d="M277.68,398.986V512h-17.259V398.986c0-4.764,3.866-8.63,8.63-8.63S277.68,394.223,277.68,398.986z"
	/>
<g>
	<path id="SVGCleanerId_1_1_" style="fill:#CCCCCC;" d="M258.637,336.381h-43.845c-39.3,0-71.161,31.859-71.161,71.161v104.454
		h43.845V407.542C187.476,368.241,219.335,336.381,258.637,336.381z"/>
</g>
<path style="fill:#F7CBA4;" d="M354.968,343.802l-76.953,75.584c-4.982,4.89-12.944,4.89-17.927,0l-57.151-56.127l-19.814-19.457
	c2.761-1.369,5.627-2.577,8.584-3.578c0.483-0.161,0.967-0.322,1.45-0.483c6.812-2.186,14.084-3.36,21.632-3.36h108.515
	c7.548,0,14.808,1.174,21.62,3.36c0.483,0.15,0.967,0.311,1.45,0.472C349.33,341.225,352.195,342.421,354.968,343.802z"/>
<rect x="321.206" y="441.756" style="fill:#F76B4F;" width="44.874" height="17.259"/>
<polyline style="fill:#666666;" points="139.031,73.742 139.031,40.431 12.052,40.431 12.052,198.782 139.031,198.782 "/>
<path style="fill:#E0B394;" d="M344.924,339.74l-37.05,26.924c-23.15,16.822-54.505,16.822-77.667,0l-37.05-26.924
	c6.812-2.186,14.084-3.36,21.632-3.36h108.515C330.852,336.38,338.112,337.554,344.924,339.74z"/>
<path style="fill:#F7CBA4;" d="M355.107,320.835l-47.233,34.323c-23.15,16.822-54.505,16.822-77.667,0l-47.233-34.323
	c-24.957-18.134-38.454-48.119-35.485-78.829l0.944-9.734l1.956-20.228l5.293-54.815c5.638-58.382,54.7-102.934,113.359-102.934
	c29.329,0,56.265,11.138,76.562,29.571c20.308,18.444,33.989,44.172,36.808,73.363l5.293,54.804l1.956,20.228l0.944,9.746
	C393.572,272.717,380.075,302.703,355.107,320.835z"/>
<path style="fill:#E0B394;" d="M176.877,258.715c-0.794,13.428,3.578,26.637,12.231,36.935l49.365,60.66
	c2.577,3.072,5.5,5.65,8.664,7.709c-5.937-2.071-11.644-5.04-16.926-8.871l-47.233-34.311
	c-24.957-18.134-38.454-48.119-35.485-78.829l8.181-84.777c5.592-57.818,53.757-102.071,111.667-102.911
	c-35.669,0.863-76.059,34.484-78.165,70.291L176.877,258.715z"/>
<path style="fill:#EA8249;" d="M455.842,255.735c0,0-8.445,97.664-100.725,65.102c24.957-18.134,38.454-48.119,35.485-78.829
	l-8.192-84.777c-45.415,20.159-78.84-22.449-78.84-22.449s-38.327,55.506-119.871,63.249c-10.01,0.955-20.677,1.185-32.01,0.506
	l-4.2,43.47c-2.969,30.71,10.528,60.695,35.497,78.829C90.705,353.399,82.26,255.735,82.26,255.735
	c1.128,4.361,3.67,8.066,7.042,10.678c3.383,2.623,7.606,4.142,12.116,4.142c10.229,0,18.767-7.801,19.699-17.984l8.549-93.315
	c3.302-36.026,20.067-67.829,45.035-90.623c0.299-0.276,0.598-0.541,0.897-0.794c0.828,2.106,6.973,3.832,16.557,5.201
	c45.093,6.42,166.425,4.683,170.349-5.201c25.475,22.828,42.596,54.965,45.933,91.416l8.549,93.315
	c0.472,5.097,2.831,9.585,6.363,12.806c3.532,3.222,8.215,5.178,13.336,5.178C445.705,270.555,453.575,264.456,455.842,255.735z"/>
<path style="fill:#D36F3D;" d="M183.698,198.031c-10.01,0.955-20.677,1.185-32.01,0.506l-4.2,43.47
	c-2.969,30.71,10.528,60.695,35.497,78.829C90.705,353.399,82.26,255.735,82.26,255.735c1.128,4.361,3.67,8.066,7.042,10.678
	c3.383,2.623,7.606,4.142,12.116,4.142c10.229,0,18.767-7.801,19.699-17.984l8.549-93.315c3.302-36.026,20.067-67.829,45.035-90.623
	c0.299-0.276,0.598-0.541,0.897-0.794c0.828,2.106,6.973,3.832,16.557,5.201l23.185,22.483
	C215.34,95.523,163.344,130.559,183.698,198.031z"/>
<path style="fill:#E6E6E6;" d="M380.902,21.343c-6.133,15.499-12.266,30.998-18.398,46.496
	c-4.752,11.989-9.493,23.979-14.245,35.968c-40.801-16.155-85.307-19.353-127.569-9.596c-10.448,2.393-20.757,5.604-30.848,9.596
	c-4.752-11.989-9.493-23.979-14.245-35.968c-6.133-15.499-12.277-30.998-18.41-46.496c17.041-6.754,34.542-11.897,52.284-15.453
	C266.542-5.513,326.087-0.358,380.902,21.343z"/>
<path style="fill:#CCCCCC;" d="M220.69,94.211c-10.448,2.393-20.757,5.604-30.848,9.596c-4.752-11.989-9.493-23.979-14.245-35.968
	c-6.133-15.499-12.277-30.998-18.41-46.496c17.041-6.754,34.542-11.897,52.284-15.453L220.69,94.211z"/>
<polygon style="fill:#F95428;" points="295.515,35.829 277.68,35.829 277.68,17.994 260.421,17.994 260.421,35.829 242.587,35.829 
	242.587,53.088 260.421,53.088 260.421,70.923 277.68,70.923 277.68,53.088 295.515,53.088 "/>
<g>
	<path style="fill:#E6E6E6;" d="M341.437,250.637c0.046,27.626-1.346,55.402-4.211,83.224c-37.878,6.34-76.435,7.364-114.532,3.061
		c-7.283-0.828-14.544-1.841-21.781-3.049c-0.011-0.012-0.035-0.012-0.046-0.012v-0.035c-0.909-8.848-1.68-17.697-2.278-26.533
		c-1.323-18.939-1.968-37.832-1.933-56.656C244.325,261.291,293.767,261.291,341.437,250.637z"/>
	<polygon style="fill:#E6E6E6;" points="389.66,232.261 330.219,277.607 319.76,263.891 387.704,212.033 	"/>
	<polygon style="fill:#E6E6E6;" points="218.333,263.891 207.862,277.607 148.433,232.273 150.389,212.045 	"/>
</g>
<path style="fill:#CCCCCC;" d="M112.695,106.918c0-13.63-9.155-24.68-20.449-24.68c-2.151,0-4.223,0.4-6.168,1.144
	c-7.016,2.679-14.887,2.679-21.903,0c-1.946-0.743-4.018-1.144-6.168-1.144c-11.293,0-20.449,11.049-20.449,24.68
	c0,4.764,1.118,9.211,3.056,12.981c4.538,8.832,7.465,18.391,9.055,28.192c0.026,0.161,0.053,0.323,0.079,0.484
	c1.146,6.96,10.755,7.755,13.059,1.088c3.191-9.23,7.409-17.444,12.318-17.444c4.91,0,9.128,8.214,12.318,17.444
	c2.305,6.667,11.913,5.87,13.059-1.088c0.026-0.161,0.053-0.323,0.079-0.484c1.59-9.801,4.518-19.36,9.055-28.192
	C111.576,116.127,112.695,111.68,112.695,106.918z"/>
<path style="fill:#E6E6E6;" d="M93.792,160.008c-5.346,0-9.998-3.294-11.785-8.465c-3.347-9.681-5.944-12.577-6.881-13.363
	c-0.937,0.787-3.535,3.683-6.881,13.363c-1.911,5.529-7.087,8.916-12.902,8.417c-5.793-0.492-10.323-4.692-11.271-10.451
	l-0.081-0.494c-1.566-9.657-4.424-18.567-8.495-26.489c-2.415-4.7-3.691-10.099-3.691-15.61c0-16.781,11.754-30.433,26.201-30.433
	c2.809,0,5.575,0.512,8.221,1.522c5.656,2.16,12.144,2.16,17.799,0c2.646-1.01,5.413-1.522,8.221-1.522
	c14.447,0,26.201,13.652,26.201,30.433c0,5.511-1.276,10.909-3.691,15.61c-4.071,7.922-6.928,16.834-8.494,26.485l-0.083,0.509
	c-0.946,5.747-5.476,9.947-11.269,10.44C94.535,159.992,94.162,160.008,93.792,160.008z M58.007,87.991
	c-8.103,0-14.695,8.49-14.695,18.926c0,3.691,0.836,7.271,2.42,10.352c4.623,8.997,7.859,19.057,9.617,29.9l0.078,0.48
	c0.045,0.268,0.129,0.782,0.892,0.847c0.793,0.067,0.965-0.459,1.053-0.712c3.163-9.151,8.444-21.317,17.755-21.317
	c9.31,0,14.592,12.167,17.756,21.317c0.086,0.253,0.27,0.774,1.053,0.712c0.763-0.066,0.847-0.579,0.893-0.855l0.075-0.458
	c1.762-10.858,4.998-20.918,9.62-29.914c1.583-3.081,2.42-6.661,2.42-10.352c0-10.436-6.592-18.926-14.695-18.926
	c-1.401,0-2.787,0.258-4.117,0.765c-8.386,3.202-17.622,3.201-26.007,0C60.793,88.249,59.407,87.991,58.007,87.991z M74.749,137.913
	L74.749,137.913L74.749,137.913z"/>
<rect x="433.782" y="333.402" style="fill:#999999;" width="40.847" height="40.847"/>
<path style="fill:#CCCCCC;" d="M443.217,463.423h-9.429V374.25h25.314v73.288C459.102,456.312,451.99,463.423,443.217,463.423z"/>
<g>
	<path style="fill:#4D4D4D;" d="M217.706,235.598c-4.767,0-8.63-3.864-8.63-8.63v-13.803c0-4.766,3.863-8.63,8.63-8.63
		s8.63,3.864,8.63,8.63v13.803C226.335,231.735,222.473,235.598,217.706,235.598z"/>
	<path style="fill:#4D4D4D;" d="M320.151,235.598c-4.767,0-8.63-3.864-8.63-8.63v-13.803c0-4.766,3.863-8.63,8.63-8.63
		c4.767,0,8.63,3.864,8.63,8.63v13.803C328.78,231.735,324.917,235.598,320.151,235.598z"/>
</g>
<path style="fill:#E0B394;" d="M277.949,237.279h-0.392v-17.835c0-4.766-3.863-8.63-8.63-8.63c-4.767,0-8.63,3.864-8.63,8.63v17.835
	h-0.392c-4.767,0-8.63,3.864-8.63,8.63c0,4.766,3.863,8.63,8.63,8.63h18.044c4.767,0,8.63-3.864,8.63-8.63
	C286.578,241.143,282.716,237.279,277.949,237.279z"/>
<path style="fill:#666666;" d="M300.42,192.514c0,0,0.023-0.229,0.1-0.622c0.089-0.381,0.178-0.983,0.372-1.664
	c0.086-0.352,0.198-0.719,0.326-1.123c0.167-0.41,0.391-0.822,0.629-1.289c0.236-0.469,0.534-0.933,0.847-1.454
	c0.315-0.529,0.692-0.931,1.077-1.442c0.391-0.491,0.832-0.967,1.292-1.477c0.487-0.461,1.015-0.916,1.576-1.373
	c1.099-0.968,2.442-1.667,3.841-2.445c1.447-0.612,2.984-1.276,4.629-1.583c1.629-0.423,3.338-0.524,5.042-0.603
	c1.704,0.078,3.414,0.169,5.044,0.59c1.647,0.304,3.184,0.971,4.632,1.579c1.4,0.777,2.744,1.475,3.844,2.444
	c0.56,0.458,1.09,0.914,1.577,1.373c0.46,0.512,0.899,0.992,1.292,1.48c0.38,0.509,0.774,0.926,1.063,1.435
	c0.29,0.506,0.571,0.96,0.799,1.419c0.227,0.46,0.446,0.865,0.612,1.274c0.151,0.426,0.284,0.811,0.383,1.176
	c0.219,0.705,0.31,1.312,0.394,1.691c0.074,0.392,0.09,0.616,0.09,0.616s-0.238-0.006-0.641-0.045
	c-0.391-0.051-0.999-0.076-1.67-0.174c-0.347-0.036-0.702-0.1-1.092-0.152c-0.415-0.02-0.825-0.077-1.27-0.112
	c-0.873-0.092-1.785-0.229-2.787-0.268c-0.492-0.032-0.97-0.104-1.469-0.145c-0.517-0.007-1.026-0.033-1.533-0.071
	c-0.992-0.129-2.07-0.053-3.071-0.178c-1.053,0.038-2.061-0.091-3.104-0.059c-1.026-0.077-2.064,0.005-3.094-0.068
	c-1.03,0.07-2.068-0.02-3.096,0.055c-1.045-0.037-2.053,0.097-3.108,0.054c-1.002,0.124-2.083,0.047-3.074,0.177
	c-0.506,0.038-1.016,0.066-1.534,0.071c-0.499,0.041-0.975,0.117-1.469,0.147c-1.022,0.055-1.871,0.152-2.724,0.226
	c-0.448,0.035-0.866,0.067-1.254,0.095c-0.413,0.075-0.79,0.158-1.149,0.205c-0.696,0.123-1.305,0.152-1.691,0.201
	C300.65,192.513,300.42,192.514,300.42,192.514z"/>
<path style="fill:#CCCCCC;" d="M222.694,336.922c-7.283-0.828-14.544-1.841-21.781-3.049l-0.046-0.046
	c-0.909-8.848-1.68-17.697-2.278-26.533L222.694,336.922z"/>
<g>
</g>
<g>
</g>
<g>
</g>
<g>
</g>
<g>
</g>
<g>
</g>
<g>
</g>
<g>
</g>
<g>
</g>
<g>
</g>
<g>
</g>
<g>
</g>
<g>
</g>
<g>
</g>
<g>
</g>
</svg>
