<?xml version="1.0" encoding="iso-8859-1"?>
<!-- Generator: Adobe Illustrator 19.0.0, SVG Export Plug-In . SVG Version: 6.00 Build 0)  -->
<svg version="1.1" id="Layer_1" xmlns="http://www.w3.org/2000/svg" xmlns:xlink="http://www.w3.org/1999/xlink" x="0px" y="0px"
	 viewBox="0 0 512 512" style="enable-background:new 0 0 512 512;" xml:space="preserve">
<path style="fill:#F4661E;" d="M105.095,293.726h301.811c0,83.321-67.584,150.905-150.905,150.905S105.095,377.048,105.095,293.726z
	"/>
<g>
	<path style="fill:#E7ECED;" d="M342.232,142.821c20.803,0,37.726,16.923,37.726,37.726s-16.923,37.726-37.726,37.726
		s-37.726-16.923-37.726-37.726S321.428,142.821,342.232,142.821z"/>
	<path style="fill:#E7ECED;" d="M169.768,142.821c20.803,0,37.726,16.923,37.726,37.726s-16.923,37.726-37.726,37.726
		s-37.726-16.923-37.726-37.726S148.965,142.821,169.768,142.821z"/>
</g>
<path style="fill:#FFD248;" d="M256,8.084c136.893,0,247.916,111.023,247.916,247.916S392.893,503.916,256,503.916
	S8.084,392.893,8.084,256S119.107,8.084,256,8.084z M406.905,293.726H105.095c0,83.321,67.584,150.905,150.905,150.905
	S406.905,377.048,406.905,293.726z M379.958,180.547c0-20.803-16.923-37.726-37.726-37.726s-37.726,16.923-37.726,37.726
	s16.923,37.726,37.726,37.726S379.958,201.351,379.958,180.547z M207.495,180.547c0-20.803-16.923-37.726-37.726-37.726
	s-37.726,16.923-37.726,37.726s16.923,37.726,37.726,37.726S207.495,201.351,207.495,180.547z"/>
<path d="M256,512C114.841,512,0,397.159,0,256S114.841,0,256,0s256,114.841,256,256S397.159,512,256,512z M256,16.168
	C123.756,16.168,16.168,123.756,16.168,256S123.756,495.832,256,495.832S495.832,388.244,495.832,256S388.244,16.168,256,16.168z"/>
<path d="M169.768,226.358c-25.26,0-45.811-20.55-45.811-45.811s20.55-45.811,45.811-45.811s45.811,20.55,45.811,45.811
	S195.029,226.358,169.768,226.358z M169.768,150.905c-16.345,0-29.642,13.298-29.642,29.642s13.297,29.642,29.642,29.642
	s29.642-13.298,29.642-29.642S186.114,150.905,169.768,150.905z"/>
<path d="M342.232,226.358c-25.26,0-45.811-20.55-45.811-45.811s20.55-45.811,45.811-45.811s45.811,20.55,45.811,45.811
	S367.492,226.358,342.232,226.358z M342.232,150.905c-16.345,0-29.642,13.298-29.642,29.642s13.297,29.642,29.642,29.642
	c16.345,0,29.642-13.298,29.642-29.642S358.577,150.905,342.232,150.905z"/>
<path d="M256,452.716c-87.667,0-158.989-71.322-158.989-158.989v-8.084h317.979v8.084C414.989,381.394,343.667,452.716,256,452.716z
	 M113.405,301.811c4.203,75.009,66.554,134.737,142.595,134.737s138.392-59.728,142.595-134.737H113.405z"/>
<g>
</g>
<g>
</g>
<g>
</g>
<g>
</g>
<g>
</g>
<g>
</g>
<g>
</g>
<g>
</g>
<g>
</g>
<g>
</g>
<g>
</g>
<g>
</g>
<g>
</g>
<g>
</g>
<g>
</g>
</svg>
