<?xml version="1.0" encoding="iso-8859-1"?>
<!-- Generator: Adobe Illustrator 19.0.0, SVG Export Plug-In . SVG Version: 6.00 Build 0)  -->
<svg version="1.1" id="Layer_1" xmlns="http://www.w3.org/2000/svg" xmlns:xlink="http://www.w3.org/1999/xlink" x="0px" y="0px"
	 viewBox="0 0 612.001 612.001" style="enable-background:new 0 0 512.001 512.001;" xml:space="preserve">

<circle style="fill:#FFCE00;" cx="256.004" cy="256.004" r="246.855"/>
<path style="fill:#E09B2D;" d="M126.306,385.694c-88.801-88.802-95.798-228.426-20.998-325.241
	c-8.286,6.401-16.258,13.399-23.858,20.999c-96.401,96.401-96.401,252.698,0,349.099s252.698,96.401,349.099,0
	c7.599-7.599,14.597-15.573,20.999-23.858C354.733,481.492,215.108,474.495,126.306,385.694z"/>
<path style="fill:#F95428;" d="M417.596,401.667c-16.835,15.298-42.869,14.042-58.167-2.781l-12.151-13.371l-19.299-21.251
	c24.448-11.187,46.687-28.4,64.34-51.628l18.592,20.458l9.467,10.418C435.664,360.349,434.419,386.383,417.596,401.667z"/>
<path style="fill:#E54728;" d="M410.911,333.095c-13.114,13.798-39.209,39.441-63.632,52.421l-19.299-21.251
	c24.448-11.187,46.687-28.4,64.34-51.628L410.911,333.095z"/>
<path d="M256.001,0C114.841,0,0,114.841,0,256.001s114.841,256.001,256.001,256.001S512.001,397.16,512.001,256.001
	S397.16,0,256.001,0z M256.001,493.701c-131.069,0-237.702-106.631-237.702-237.7S124.932,18.299,256.001,18.299
	s237.702,106.632,237.702,237.702S387.068,493.701,256.001,493.701z"/>
<path d="M105.348,241.167c0-19.848,16.147-35.996,35.996-35.996s35.996,16.147,35.996,35.996c0,5.053,4.095,9.15,9.15,9.15
	s9.15-4.097,9.15-9.15c0-29.939-24.356-54.295-54.295-54.295s-54.295,24.356-54.295,54.295c0,5.053,4.095,9.15,9.15,9.15
	S105.348,246.22,105.348,241.167z"/>
<path d="M325.512,250.317c5.054,0,9.15-4.097,9.15-9.15c0-19.848,16.147-35.996,35.996-35.996s35.996,16.147,35.996,35.996
	c0,5.053,4.095,9.15,9.15,9.15c5.054,0,9.15-4.097,9.15-9.15c0-29.939-24.356-54.295-54.295-54.295
	c-29.939,0-54.295,24.356-54.295,54.295C316.362,246.22,320.459,250.317,325.512,250.317z"/>
<path d="M427.15,337.361l-23.064-25.381c2.457-3.526,4.813-7.132,7.017-10.801c0.947-1.442,1.499-3.168,1.499-5.022
	c0-5.053-4.101-9.15-9.156-9.15c-3.219,0-6.201,1.692-7.854,4.454c-3.222,5.388-6.776,10.652-10.557,15.64
	c-16.231,21.357-36.708,37.791-60.865,48.846c-35.577,16.296-76.023,19.285-113.885,8.409
	c-39.387-11.311-72.823-37.198-94.15-72.891c-2.591-4.338-8.209-5.752-12.547-3.162c-4.338,2.592-5.753,8.209-3.162,12.547
	c23.718,39.696,60.94,68.496,104.807,81.095c16.624,4.775,33.693,7.143,50.708,7.142c23.807-0.001,47.495-4.653,69.665-13.826
	l27.055,29.782c9.921,10.909,23.572,16.451,37.272,16.451c12.08,0,24.196-4.311,33.818-13.053
	C444.276,389.789,445.802,357.903,427.15,337.361z M411.443,394.897c-13.062,11.872-33.36,10.904-45.24-2.162l-23.344-25.697
	c7.322-3.977,14.306-8.429,20.935-13.35l21.617,22.899c1.801,1.907,4.225,2.869,6.655,2.869c2.254,0,4.511-0.827,6.279-2.496
	c3.674-3.47,3.84-9.259,0.373-12.935l-20.789-22.024c5.197-4.777,10.135-9.879,14.795-15.314l20.879,22.975
	C425.475,362.737,424.505,383.028,411.443,394.897z"/>
    <svg version="1.1" id="Layer_1" xmlns="http://www.w3.org/2000/svg" xmlns:xlink="http://www.w3.org/1999/xlink" x="0px" y="0px"
	 viewBox="0 0 151.998 511.998" style="enable-background:new 0 0 511.998 611.998;" xml:space="preserve">
<polyline style="fill:#F2F2F2;" points="271.19,225.098 271.19,351.447 244.165,351.447 244.165,225.098 "/>
<path style="fill:#76C7F4;" d="M257.677,503.781L257.677,503.781c-21.218,0-37.907-18.13-36.154-39.275l7.967-96.092
	c0.795-9.589,8.81-16.967,18.432-16.967h19.509c9.622,0,17.638,7.378,18.432,16.967l7.967,96.092
	C295.584,485.651,278.895,503.781,257.677,503.781z"/>
<path style="fill:#F2F2F2;" d="M319.402,128.834v30.803c0,35.022-28.385,63.407-63.407,63.407c-17.506,0-33.363-7.099-44.836-18.572
	c-11.473-11.473-18.572-27.319-18.572-44.836v-30.803c0,5.835,2.363,11.132,6.187,14.956c3.835,3.824,9.11,6.187,14.956,6.187
	c11.67,0,21.132-9.462,21.132-21.143c0,5.835,2.363,11.132,6.187,14.956c3.824,3.824,9.11,6.187,14.945,6.187
	c11.67,0,21.132-9.462,21.132-21.143c0,5.835,2.363,11.132,6.187,14.956c3.824,3.824,9.121,6.187,14.956,6.187
	C309.941,149.977,319.402,140.516,319.402,128.834z"/>
<path d="M319.4,0c-4.553,0-8.242,3.69-8.242,8.242v120.573c0,7.109-5.784,12.892-12.892,12.892s-12.892-5.784-12.892-12.892V8.242
	c0-4.552-3.689-8.242-8.242-8.242c-4.553,0-8.242,3.69-8.242,8.242v120.573c0,7.109-5.784,12.892-12.892,12.892
	s-12.892-5.784-12.892-12.892V8.242c0-4.552-3.689-8.242-8.242-8.242c-4.553,0-8.242,3.69-8.242,8.242v120.573
	c0,7.109-5.784,12.892-12.892,12.892c-7.109,0-12.892-5.784-12.892-12.892V8.242c0-4.552-3.689-8.242-8.242-8.242
	c-4.553,0-8.242,3.69-8.242,8.242v151.371c0,32.539,21.81,60.061,51.574,68.764v117.689c-8.052,4.091-13.858,12.14-14.64,21.572
	l-6.312,68.859c-0.415,4.533,2.922,8.544,7.455,8.959c4.51,0.411,8.544-2.922,8.959-7.455l6.319-68.93
	c0.436-5.275,4.925-9.407,10.219-9.407h19.509c5.292,0,9.781,4.132,10.219,9.407l7.967,96.092
	c0.656,7.903-1.943,15.471-7.313,21.305c-5.37,5.834-12.697,9.047-20.627,9.047c-7.931,0-15.256-3.213-20.628-9.048
	c-5.371-5.835-7.968-13.4-7.312-21.305c0.376-4.536-2.997-8.518-7.532-8.895c-4.529-0.377-8.519,2.996-8.896,7.532
	c-1.025,12.368,3.207,24.699,11.612,33.83c8.404,9.132,20.344,14.368,32.755,14.368c12.41,0,24.349-5.236,32.754-14.367
	c8.406-9.131,12.639-21.462,11.613-33.831l-7.967-96.092c-0.787-9.481-6.594-17.545-14.646-21.641v-66.695
	c0-4.552-3.689-8.242-8.242-8.242c-4.553,0-8.242,3.69-8.242,8.242v63.808H252.41V231.167c1.189,0.059,2.385,0.091,3.589,0.091
	c2.346,0,4.664-0.121,6.953-0.343v26.478c0,4.552,3.689,8.242,8.242,8.242c4.553,0,8.242-3.69,8.242-8.242v-30.093
	c28.028-9.733,48.209-36.391,48.209-67.69V8.242C327.642,3.69,323.952,0,319.4,0z M255.995,214.775
	c-30.417,0-55.162-24.746-55.162-55.163v-4.409c3.895,1.911,8.27,2.988,12.892,2.988c8.292,0,15.788-3.459,21.134-9.004
	c5.346,5.545,12.842,9.004,21.134,9.004c8.292,0,15.788-3.459,21.134-9.004c5.346,5.545,12.842,9.004,21.134,9.004
	c4.623,0,8.998-1.077,12.892-2.988v4.409C311.158,190.03,286.412,214.775,255.995,214.775z"/>
</svg>
<g>
</g>
<g>
</g>
<g>
</g>
<g>
</g>
<g>
</g>
<g>
</g>
<g>
</g>
<g>
</g>
<g>
</g>
<g>
</g>
<g>
</g>
<g>
</g>
<g>
</g>
<g>
</g>
<g>
</g>
</svg>