<?xml version="1.0" encoding="iso-8859-1"?>
<!-- Generator: Adobe Illustrator 19.0.0, SVG Export Plug-In . SVG Version: 6.00 Build 0)  -->
<svg version="1.1" id="Layer_1" xmlns="http://www.w3.org/2000/svg" xmlns:xlink="http://www.w3.org/1999/xlink" x="0px" y="0px"
	 viewBox="0 0 164 164" style="enable-background:new 0 0 164 164;" xml:space="preserve">
<g>
	<g>
		<g>
			<g>
				<path style="fill:#56B300;" d="M111.803,146.575c0,0,22.665-0.514,25.103-22.553
					C136.905,124.022,114.794,124.442,111.803,146.575z"/>
			</g>
			<g>
				<path style="fill:#56B300;" d="M111.641,145.634c0,0,21.514-7.143,31.228,12.792
					C142.868,158.426,121.905,165.471,111.641,145.634z"/>
			</g>
			<g>
				<path style="fill:#56B300;" d="M114.705,145.82c0,0,14.764-17.202,33.354-5.122C148.06,140.698,133.721,157.536,114.705,145.82z
					"/>
			</g>
		</g>
		<g>
			<path style="fill:#FF7500;" d="M52.704,163.929c-11.661,1.154-13.942-12.013-2.727-15.73l54.758-19.495
				c9.533-1.653,19.171,4.64,20.823,14.175l0.11,0.627c1.651,9.533-5.308,18.701-14.841,20.354L52.704,163.929z"/>
		</g>
	</g>
	<g>
		<g>
			<rect x="15.942" y="36" style="fill:#C8C8C8;" width="67" height="128"/>
		</g>
		<g>
			<rect x="15.942" y="36" style="fill:#DEDEDE;" width="33" height="128"/>
		</g>
		<g>
			<rect x="23.942" y="36" style="fill:#E9E9E9;" width="52" height="111"/>
		</g>
		<g>
			<rect x="23.942" y="66" style="fill:#FF7500;" width="52" height="81"/>
		</g>
		<g>
			<path style="fill:#FFFFFF;" d="M68.942,117.744c0,1.798-1.458,3.256-3.256,3.256h-0.488c-1.798,0-3.256-1.458-3.256-3.256V77.256
				c0-1.798,1.458-3.256,3.256-3.256h0.488c1.798,0,3.256,1.458,3.256,3.256V117.744z"/>
		</g>
		<g>
			<circle style="fill:#FFFFFF;" cx="65.183" cy="129.124" r="3.658"/>
		</g>
		<g>
			<g>
				<path style="fill:#FFFFFF;" d="M52.942,66h-8V16.57C44.942,7.123,52.386,0,62.256,0h31.687v8H62.256
					c-5.483,0-9.313,3.524-9.313,8.57L52.942,66L52.942,66z"/>
			</g>
			<g>
				<path style="fill:#DF1700;" d="M52.942,66h-8V54h8V66z M52.942,44h-8V32h8V44z M52.942,22h-8v-5.43
					c0-2.817,0.637-5.446,1.891-7.815l7.07,3.745c-0.638,1.203-0.961,2.572-0.961,4.07V22z M59.28,8.385l-2.098-7.72
					C58.806,0.224,60.513,0,62.256,0h7.687v8h-7.687C61.221,8,60.22,8.129,59.28,8.385z M91.942,8h-12V0h12V8z"/>
			</g>
		</g>
	</g>
</g>
<g>
</g>
<g>
</g>
<g>
</g>
<g>
</g>
<g>
</g>
<g>
</g>
<g>
</g>
<g>
</g>
<g>
</g>
<g>
</g>
<g>
</g>
<g>
</g>
<g>
</g>
<g>
</g>
<g>
</g>
</svg>
