<?xml version="1.0" encoding="iso-8859-1"?>
<!-- Generator: Adobe Illustrator 19.0.0, SVG Export Plug-In . SVG Version: 6.00 Build 0)  -->
<svg version="1.1" id="Layer_1" xmlns="http://www.w3.org/2000/svg" xmlns:xlink="http://www.w3.org/1999/xlink" x="0px" y="0px"
	 viewBox="0 0 512 512" style="enable-background:new 0 0 512 512;" xml:space="preserve">
<polygon style="fill:#212121;" points="508,268 508,284 504,284 408,284 312,284 120,284 8,284 4,284 4,268 20,268 492,268 "/>
<g>
	<polygon style="fill:#9F633C;" points="408,286.8 500,286.8 500,508 312.8,508 312.8,444 312.8,286.8 	"/>
	<polygon style="fill:#9F633C;" points="312,151.6 312,144 312.8,144 312.8,16 312,16 312,4 408,4 504,4 504,152 492,152 312.8,152 
			"/>
</g>
<polygon style="fill:#FCFCFC;" points="312.8,152 492,152 492,268 20,268 20,152 120,152 120.8,152 312,152 "/>
<polygon style="fill:#D1D3D4;" points="312,444 312,508 120,508 120,504 120,444 "/>
<path style="fill:#9AA8A7;" d="M312,328v116H120V328H312z M272,420v-56H160v56H272z"/>
<path style="fill:#D1D3D4;" d="M312,284v44H120v-44H312z M264.8,306c0-3.2-2.8-6-6-6s-6,2.8-6,6s2.8,6,6,6S264.8,309.2,264.8,306z
	 M180.8,306c0-3.2-2.8-6-6-6s-6,2.8-6,6s2.8,6,6,6S180.8,309.2,180.8,306z"/>
<polygon style="fill:#9AA8A7;" points="312,16 312,144 303.6,144 252.8,100 252.8,16 "/>
<rect x="160" y="364" style="fill:#C4EFF2;" width="112" height="56"/>
<circle style="fill:#F4F4F4;" cx="258.8" cy="306" r="6"/>
<polygon style="fill:#CBD8D8;" points="252,16 252,100 249.2,100 180.8,100 180,100 180,16 180,4 252,4 "/>
<polygon style="fill:#D1D3D4;" points="302.4,144 252,102.4 249.2,100 180.8,100 180,100.4 130,144 120.8,152 312,152 "/>
<polygon style="fill:#9AA8A7;" points="180,16 180,100 129.6,144 120,144 120,16 "/>
<circle style="fill:#F4F4F4;" cx="174.8" cy="306" r="6"/>
<g>
	<polygon style="fill:#9F633C;" points="120,152 20,152 8,152 8,4 120,4 120,16 120,144 	"/>
	<polygon style="fill:#9F633C;" points="8,352 8,286.8 118,286.8 118,508 8,508 	"/>
</g>
<path d="M504,512H8c-2.4,0-4-1.6-4-4V284c0-2.4,1.6-4,4-4s4,1.6,4,4v220h488V284c0-2.4,1.6-4,4-4s4,1.6,4,4v224
	C508,510.4,506.4,512,504,512z"/>
<path d="M504,156c-2.4,0-4-1.6-4-4V8H312c-2.4,0-4-1.6-4-4s1.6-4,4-4h192c2.4,0,4,1.6,4,4v148C508,154.4,506.4,156,504,156z"/>
<path d="M8,156c-2.4,0-4-1.6-4-4V4c0-2.4,1.6-4,4-4h112c2.4,0,4,1.6,4,4s-1.6,4-4,4H12v144C12,154.4,10.4,156,8,156z"/>
<path d="M508,288H4c-2.4,0-4-1.6-4-4v-16c0-2.4,1.6-4,4-4h504c2.4,0,4,1.6,4,4v16C512,286.4,510.4,288,508,288z M8,280h496v-8H8V280
	z"/>
<path d="M120,508c-2.4,0-4-1.6-4-4V284c0-2.4,1.6-4,4-4s4,1.6,4,4v220C124,506.4,122.4,508,120,508z"/>
<path d="M120,156c-2.4,0-4-1.6-4-4V4c0-2.4,1.6-4,4-4s4,1.6,4,4v148C124,154.4,122.4,156,120,156z"/>
<path d="M312,512c-2.4,0-4-1.6-4-4V284c0-2.4,1.6-4,4-4s4,1.6,4,4v224C316,510.4,314.4,512,312,512z"/>
<path d="M408,496c-2.4,0-4-1.6-4-4V284c0-2.4,1.6-4,4-4s4,1.6,4,4v208C412,494.4,410.4,496,408,496z"/>
<path d="M312,156c-2.4,0-4-1.6-4-4V4c0-2.4,1.6-4,4-4s4,1.6,4,4v148C316,154.4,314.4,156,312,156z"/>
<path d="M408,140c-2.4,0-4-1.6-4-4V4c0-2.4,1.6-4,4-4s4,1.6,4,4v132C412,138.4,410.4,140,408,140z"/>
<path d="M312,448H120c-2.4,0-4-1.6-4-4s1.6-4,4-4h192c2.4,0,4,1.6,4,4S314.4,448,312,448z"/>
<path d="M104,356H8c-2.4,0-4-1.6-4-4s1.6-4,4-4h96c2.4,0,4,1.6,4,4S106.4,356,104,356z"/>
<path d="M312,332H120c-2.4,0-4-1.6-4-4s1.6-4,4-4h192c2.4,0,4,1.6,4,4S314.4,332,312,332z"/>
<path d="M272,348H160c-2.4,0-4-1.6-4-4s1.6-4,4-4h112c2.4,0,4,1.6,4,4S274.4,348,272,348z"/>
<path d="M80,308H48c-2.4,0-4-1.6-4-4s1.6-4,4-4h32c2.4,0,4,1.6,4,4S82.4,308,80,308z"/>
<path d="M504,156H8c-2.4,0-4-1.6-4-4s1.6-4,4-4h496c2.4,0,4,1.6,4,4S506.4,156,504,156z"/>
<path d="M252,104h-72c-2.4,0-4-1.6-4-4V4c0-2.4,1.6-4,4-4h72c2.4,0,4,1.6,4,4v96C256,102.4,254.4,104,252,104z M184,96h64V8h-64V96z
	"/>
<path d="M120.8,156c-1.2,0-2.4-0.4-3.2-1.2c-1.6-1.6-1.2-4,0.4-5.6l60-52c1.6-1.6,4-1.2,5.6,0.4s1.2,4-0.4,5.6l-0.8,0.4l-59.2,51.6
	C122.4,155.6,121.6,156,120.8,156z"/>
<path d="M312.8,156c-0.8,0-2-0.4-2.8-1.2l-9.2-8l-50.8-44c-1.6-1.6-2-4-0.4-5.6s4-2,5.6-0.4l60,52c1.6,1.6,2,4,0.4,5.6
	C314.8,155.6,313.6,156,312.8,156z"/>
<path d="M20,272c-2.4,0-4-1.6-4-4V152c0-2.4,1.6-4,4-4s4,1.6,4,4v116C24,270.4,22.4,272,20,272z"/>
<path d="M492,272c-2.4,0-4-1.6-4-4V152c0-2.4,1.6-4,4-4s4,1.6,4,4v116C496,270.4,494.4,272,492,272z"/>
<path d="M100,412c-2.4,0-4-1.6-4-4v-32c0-2.4,1.6-4,4-4s4,1.6,4,4v32C104,410.4,102.4,412,100,412z"/>
<path d="M100,136c-2.4,0-4-1.6-4-4v-32c0-2.4,1.6-4,4-4s4,1.6,4,4v32C104,134.4,102.4,136,100,136z"/>
<path d="M388,340c-2.4,0-4-1.6-4-4v-32c0-2.4,1.6-4,4-4s4,1.6,4,4v32C392,338.4,390.4,340,388,340z"/>
<path d="M428,340c-2.4,0-4-1.6-4-4v-32c0-2.4,1.6-4,4-4s4,1.6,4,4v32C432,338.4,430.4,340,428,340z"/>
<path d="M388,136c-2.4,0-4-1.6-4-4v-32c0-2.4,1.6-4,4-4s4,1.6,4,4v32C392,134.4,390.4,136,388,136z"/>
<path d="M428,136c-2.4,0-4-1.6-4-4v-32c0-2.4,1.6-4,4-4s4,1.6,4,4v32C432,134.4,430.4,136,428,136z"/>
<path d="M180,20h-60c-2.4,0-4-1.6-4-4s1.6-4,4-4h60c2.4,0,4,1.6,4,4S182.4,20,180,20z"/>
<path d="M312,20h-60c-2.4,0-4-1.6-4-4s1.6-4,4-4h60c2.4,0,4,1.6,4,4S314.4,20,312,20z"/>
<path d="M272,424H160c-2.4,0-4-1.6-4-4v-56c0-2.4,1.6-4,4-4h112c2.4,0,4,1.6,4,4v56C276,422.4,274.4,424,272,424z M164,416h104v-48
	H164V416z"/>
<path d="M174.8,316c-5.6,0-10-4.4-10-10s4.4-10,10-10s10,4.4,10,10S180,316,174.8,316z M174.8,304c-1.2,0-2,0.8-2,2s0.8,2,2,2
	s2-0.8,2-2S175.6,304,174.8,304z"/>
<path d="M258.8,316c-5.6,0-10-4.4-10-10s4.4-10,10-10s10,4.4,10,10S264,316,258.8,316z M258.8,304c-1.2,0-2,0.8-2,2s0.8,2,2,2
	s2-0.8,2-2S259.6,304,258.8,304z"/>
<path d="M484,32h-16c-2.4,0-4-1.6-4-4s1.6-4,4-4h16c2.4,0,4,1.6,4,4S486.4,32,484,32z"/>
<path d="M452,32h-16c-2.4,0-4-1.6-4-4s1.6-4,4-4h16c2.4,0,4,1.6,4,4S454.4,32,452,32z"/>
<path d="M484,88c-2.4,0-4-1.6-4-4V28c0-2.4,1.6-4,4-4s4,1.6,4,4v56C488,86.4,486.4,88,484,88z"/>
<path d="M28,492c-2.4,0-4-1.6-4-4v-40c0-2.4,1.6-4,4-4s4,1.6,4,4v40C32,490.4,30.4,492,28,492z"/>
<path d="M28,432c-2.4,0-4-1.6-4-4v-12c0-2.4,1.6-4,4-4s4,1.6,4,4v12C32,430.4,30.4,432,28,432z"/>
<g>
</g>
<g>
</g>
<g>
</g>
<g>
</g>
<g>
</g>
<g>
</g>
<g>
</g>
<g>
</g>
<g>
</g>
<g>
</g>
<g>
</g>
<g>
</g>
<g>
</g>
<g>
</g>
<g>
</g>
</svg>
