<?xml version="1.0" encoding="iso-8859-1"?>
<!-- Generator: Adobe Illustrator 19.0.0, SVG Export Plug-In . SVG Version: 6.00 Build 0)  -->
<svg version="1.1" id="Layer_1" xmlns="http://www.w3.org/2000/svg" xmlns:xlink="http://www.w3.org/1999/xlink" x="0px" y="0px"
	 viewBox="0 0 512 512" style="enable-background:new 0 0 512 512;" xml:space="preserve">
<ellipse style="fill:#0F8EE3;" cx="256.162" cy="91.441" rx="161.807" ry="68.956"/>
<rect x="367.82" y="290.025" style="fill:#FFFFFF;" width="133.734" height="167.167"/>
<rect x="395.82" y="269.098" style="fill:#F9C573;" width="75.434" height="40.671"/>
<path style="fill:#FEBBA0;" d="M213.864,307.105v20.353c0,6.799-4.088,12.932-10.365,15.549l-67.241,28.017
	c-14.206,5.92-23.459,22.008-23.459,37.397v81.092h286.352V408.42c0-15.389-9.254-31.479-23.459-37.397l-67.242-28.016
	c-6.277-2.615-10.365-8.749-10.365-15.549v-20.353h-84.221V307.105z"/>
<g>
	<path style="fill:#0F8EE3;" d="M375.692,371.023l-67.242-28.016c-5.658-2.357-9.526-7.576-10.237-13.561v12.816
		c0,23.239-19.014,42.255-42.255,42.255l0,0c-23.239,0-42.254-19.014-42.254-42.255v-12.557c-0.79,5.877-4.632,10.978-10.208,13.301
		l-67.241,28.016c-14.206,5.92-23.459,22.008-23.459,37.397v81.092H399.15v-81.092C399.151,393.031,389.896,376.942,375.692,371.023
		z"/>
	<rect x="10.448" y="411.242" style="fill:#0F8EE3;" width="136.92" height="78.273"/>
</g>
<path style="fill:#FEBBA0;" d="M350.006,187.15v-30.443c0-25.362-10.065-48.371-26.413-65.261H188.724
	c-16.349,16.889-26.413,39.899-26.413,65.261h-0.368v30.443c-12.925,0-23.403,10.478-23.403,23.403
	c0,12.925,10.478,23.403,23.403,23.403v17.472c1.126,14.735,8.311,27.853,19.192,35.038l56.575,32.343
	c11.36,7.503,25.173,7.503,36.533,0l56.404-32.343c10.879-7.185,18.233-20.303,19.36-35.038v-17.472
	c12.925,0,23.403-10.478,23.403-23.403C373.409,197.627,362.931,187.15,350.006,187.15z"/>
<polyline style="fill:#0F8EE3;" points="10.448,411.24 78.907,450.376 147.367,411.24 "/>
<polygon style="fill:#FF9C2E;" points="170.755,356.65 142.217,368.54 263.19,489.512 303.617,489.512 "/>
<g>
	<path style="fill:#FFA036;" d="M333.435,152.833c0,17.702-34.687,32.052-77.476,32.052s-77.476-14.35-77.476-32.052H333.435z"/>
	<rect x="162.392" y="91.441" style="fill:#FFA036;" width="187.54" height="61.388"/>
</g>
<path d="M298.682,442.497h-0.158c-5.77,0-10.448-4.678-10.448-10.448c0-5.77,4.678-10.448,10.448-10.448h0.158
	c5.77,0,10.448,4.678,10.448,10.448C309.13,437.82,304.453,442.497,298.682,442.497z"/>
<path d="M363.925,442.496h-30.489c-5.77,0-10.448-4.678-10.448-10.448c0-5.77,4.678-10.448,10.448-10.448h30.489
	c5.77,0,10.448,4.678,10.448,10.448C374.373,437.819,369.695,442.496,363.925,442.496z"/>
<path d="M10.585,499.96h-0.137C4.678,499.96,0,495.282,0,489.512s4.678-10.448,10.448-10.448h0.137
	c5.77,0,10.448,4.678,10.448,10.448S16.355,499.96,10.585,499.96z"/>
<path d="M501.501,499.96h-0.137c-5.77,0-10.448-4.678-10.448-10.448s4.678-10.448,10.448-10.448h0.137
	c5.77,0,10.448,4.678,10.448,10.448S507.271,499.96,501.501,499.96z"/>
<path d="M294.077,223.46c-6.44,0-11.679-5.239-11.679-11.678c0-6.44,5.239-11.679,11.679-11.679c6.44,0,11.679,5.239,11.679,11.679
	C305.756,218.222,300.517,223.46,294.077,223.46z"/>
<path d="M217.872,223.46c-6.44,0-11.679-5.239-11.679-11.678c0-6.44,5.239-11.679,11.679-11.679s11.679,5.239,11.679,11.679
	C229.549,218.222,224.311,223.46,217.872,223.46z"/>
<path d="M283.921,233.67h-27.777c-0.009,0-0.019,0.001-0.029,0.001c-0.01,0-0.019-0.001-0.029-0.001h-27.777
	c-12.885,0-23.37,10.483-23.37,23.37v3.836c0,5.77,4.678,10.448,10.448,10.448h27.777c4.787,0,9.241-1.449,12.951-3.928
	c3.71,2.479,8.164,3.928,12.951,3.928h27.777c5.77,0,10.448-4.678,10.448-10.448v-3.836
	C307.289,244.155,296.806,233.67,283.921,233.67z"/>
<path d="M470.901,332.793h-75.085c-5.77,0-10.448,4.678-10.448,10.448s4.678,10.448,10.448,10.448h75.085
	c5.77,0,10.448-4.678,10.448-10.448S476.671,332.793,470.901,332.793z"/>
<path d="M470.901,389.212h-39.002c-5.77,0-10.448-4.678-10.448-10.448s4.678-10.448,10.448-10.448h39.002
	c5.77,0,10.448,4.678,10.448,10.448S476.671,389.212,470.901,389.212z"/>
<path d="M470.901,424.757h-39.002c-5.77,0-10.448-4.678-10.448-10.448c0-5.77,4.678-10.448,10.448-10.448h39.002
	c5.77,0,10.448,4.678,10.448,10.448C481.349,420.079,476.671,424.757,470.901,424.757z"/>
<path d="M501.552,279.582h-20.201v-10.296c0-5.77-4.678-10.448-10.448-10.448h-75.086c-5.77,0-10.448,4.678-10.448,10.448v10.296
	H367.82c-5.77,0-10.448,4.678-10.448,10.448v62.041l-44.902-18.708c-2.081-0.867-3.52-2.737-3.857-4.916
	c-0.005-0.05-0.01-0.1-0.016-0.15c-0.037-0.276-0.063-0.554-0.063-0.838v-16.27l27.31-15.659c0.19-0.109,0.377-0.225,0.561-0.346
	c13.674-9.03,22.654-25.091,24.02-42.961c0.021-0.264,0.03-0.531,0.03-0.796v-8.674c13.568-4.413,23.402-17.181,23.402-32.202
	s-9.835-27.788-23.402-32.202c0,0,0.065-22.611,0-23.084c43.343-14.728,67.963-37.815,67.963-63.822
	c0-22.872-19.087-43.601-53.745-58.372c-31.828-13.564-73.916-21.033-118.513-21.033s-86.685,7.469-118.513,21.033
	C102.986,47.844,83.9,68.575,83.9,91.446c0,25.963,24.457,48.965,67.595,63.7c-0.076,0.511,0,23.205,0,23.205
	c-13.568,4.413-23.402,17.181-23.402,32.202c0,15.021,9.835,27.788,23.402,32.202v8.674c0,0.265,0.01,0.532,0.03,0.796
	c1.372,17.943,10.288,34.003,23.852,42.961c0.187,0.123,0.378,0.24,0.573,0.352l27.467,15.702v16.219
	c0,2.59-1.545,4.907-3.936,5.904l-32.744,13.643l0,0l-34.498,14.374c-15.379,6.409-26.705,21.992-29.315,39.413H10.448
	C4.678,400.792,0,405.47,0,411.24v43.272c0,5.77,4.678,10.448,10.448,10.448s10.448-4.678,10.448-10.448v-25.264l52.827,30.199
	c1.607,0.918,3.396,1.377,5.185,1.377c1.79,0,3.578-0.459,5.185-1.377l52.827-30.199v49.817H44.386
	c-5.77,0-10.448,4.678-10.448,10.448c0,5.77,4.678,10.448,10.448,10.448h423.177c5.77,0,10.448-4.678,10.448-10.448
	c0-5.77-4.678-10.448-10.448-10.448h-57.964v-11.42h91.953c5.77,0,10.448-4.678,10.448-10.448V290.03
	C512,284.259,507.322,279.582,501.552,279.582z M78.907,438.341l-29.131-16.653h58.263L78.907,438.341z M406.264,279.733h54.19
	v19.975h-54.19V279.733z M172.837,142.386v-40.492h166.641v40.492H172.837z M312.228,163.281
	c-11.196,5.854-30.668,11.157-56.268,11.157s-45.072-5.303-56.267-11.157H312.228z M104.796,91.446
	c0-27.673,62.162-58.508,151.362-58.508s151.362,30.835,151.362,58.508c0,14.915-17.776,30.376-47.146,41.602V91.446
	c0-5.77-4.678-10.448-10.448-10.448H162.389c-5.77,0-10.448,4.678-10.448,10.448v41.604
	C122.553,121.825,104.796,106.389,104.796,91.446z M186.636,277.577c-7.984-5.406-13.284-15.292-14.245-26.569v-17.052
	c0-5.77-4.678-10.448-10.448-10.448c-7.143,0-12.954-5.812-12.954-12.954c0-7.142,5.812-12.954,12.954-12.954
	c5.77,0,10.448-4.678,10.448-10.448v-20.3c3.968,6.121,11.347,12.742,24.792,18.304c15.87,6.565,36.744,10.182,58.777,10.182
	c22.033,0,42.908-3.616,58.778-10.182c13.475-5.575,20.859-12.214,24.82-18.348v20.344c0,5.77,4.678,10.448,10.448,10.448
	c7.143,0,12.954,5.812,12.954,12.954c0,7.142-5.812,12.954-12.954,12.954c-5.77,0-10.448,4.678-10.448,10.448v17.05
	c-0.949,11.049-6.442,21.174-14.419,26.574l-56.094,32.164c-0.191,0.11-0.377,0.225-0.561,0.346c-7.831,5.174-17.184,5.174-25.018,0
	c-0.187-0.124-0.377-0.241-0.573-0.352L186.636,277.577z M287.766,323.17v19.092c0,17.538-14.269,31.806-31.807,31.806
	s-31.806-14.268-31.806-31.806v-19.078l8.097,4.539c7.333,4.763,15.529,7.144,23.725,7.144c8.198,0,16.396-2.383,23.73-7.148
	L287.766,323.17z M157.815,479.064v-67.825c0-5.77-4.678-10.448-10.448-10.448h-23.112c2.262-8.774,8.171-16.6,15.54-19.897
	l98.17,98.169h-80.15V479.064z M267.517,479.064l-106.88-106.879l7.678-3.199l110.079,110.079h-10.877V479.064z M388.703,479.064
	h-80.756L189.174,360.293l15.39-6.412c5.308,23.486,26.329,41.083,51.395,41.083c25.071,0,46.094-17.603,51.398-41.094
	l64.315,26.797c9.708,4.045,17.029,15.976,17.029,27.753v70.644H388.703z M491.104,446.748h-81.505V408.42
	c0-20.365-12.291-39.709-29.888-47.042l-1.444-0.602v-60.299h7.101v9.679c0,5.77,4.678,10.448,10.448,10.448h75.086
	c5.77,0,10.448-4.678,10.448-10.448v-9.679h9.753v146.271H491.104z"/>
<path d="M268.214,111.692h-24.115c-5.77,0-10.448,4.678-10.448,10.448c0,5.77,4.678,10.448,10.448,10.448h24.115
	c5.77,0,10.448-4.678,10.448-10.448C278.662,116.369,273.985,111.692,268.214,111.692z"/>
<g>
</g>
<g>
</g>
<g>
</g>
<g>
</g>
<g>
</g>
<g>
</g>
<g>
</g>
<g>
</g>
<g>
</g>
<g>
</g>
<g>
</g>
<g>
</g>
<g>
</g>
<g>
</g>
<g>
</g>
</svg>
