<?xml version="1.0" encoding="iso-8859-1"?>
<!-- Generator: Adobe Illustrator 19.0.0, SVG Export Plug-In . SVG Version: 6.00 Build 0)  -->
<svg version="1.1" id="Layer_1" xmlns="http://www.w3.org/2000/svg" xmlns:xlink="http://www.w3.org/1999/xlink" x="0px" y="0px"
	 viewBox="0 0 496.2 496.2" style="enable-background:new 0 0 496.2 496.2;" xml:space="preserve">
<path style="fill:#E4E9ED;" d="M394.8,382.8c-7.3-27.3-69.9-49.3-147.1-49.3s-139.1,22.1-146.4,49.3c-3.3,12.2-7,35.2-10.1,57.5
	c42.7,34.9,97.4,55.9,156.9,55.9s114.1-21,156.9-55.9C401.8,417.9,398.1,394.9,394.8,382.8z"/>
<g>
	<path style="fill:#172023;" d="M165.9,342.7c-1.7,0.4-3.3,0.9-5,1.3l5.4,14.8l4.8-1.8L165.9,342.7z"/>
	<path style="fill:#172023;" d="M180.2,339.5c-2.2,0.4-4.4,0.9-6.6,1.4l4.9,13.5l6.2-2.3L180.2,339.5z"/>
	<path style="fill:#172023;" d="M153.4,346.2c-1.6,0.5-3.2,1-4.8,1.6l5.7,15.5l-7.4,2.7l-5.7-15.5c-1.6,0.6-3.1,1.3-4.6,1.9
		l5.6,15.3l16.8-6.2L153.4,346.2z"/>
	<path style="fill:#172023;" d="M129.4,355.8c-2.1,1-4,2.1-5.9,3.2l5.1,13.8l6.2-2.3L129.4,355.8z"/>
</g>
<g>
	<path style="fill:#AF9604;" d="M173.7,340.9c-2.6,0.6-5.2,1.2-7.7,1.8l5.3,14.4l7.4-2.7L173.7,340.9z"/>
	<path style="fill:#AF9604;" d="M136.5,352.4c-2.5,1.1-4.9,2.2-7.2,3.3l5.4,14.7l7.4-2.7L136.5,352.4z"/>
	<path style="fill:#AF9604;" d="M148.6,347.8c-2.6,0.9-5,1.8-7.4,2.7l5.7,15.5l7.4-2.7L148.6,347.8z"/>
	<path style="fill:#AF9604;" d="M161,344c-2.6,0.7-5.1,1.5-7.6,2.2l5.6,15.3l7.4-2.7L161,344z"/>
</g>
<g>
	<path style="fill:#172023;" d="M330.2,342.8l-5.2,14.3l4.8,1.8l5.3-14.8C333.5,343.6,331.8,343.2,330.2,342.8z"/>
	<path style="fill:#172023;" d="M355,350.6l-5.7,15.4l-7.4-2.7l5.7-15.4c-1.6-0.5-3.2-1.1-4.8-1.6l-5.6,15.3l16.8,6.2l5.6-15.3
		C358.1,351.8,356.5,351.2,355,350.6z"/>
	<path style="fill:#172023;" d="M315.9,339.6l-4.6,12.5l6.2,2.3l4.9-13.4C320.3,340.5,318.1,340,315.9,339.6z"/>
	<path style="fill:#172023;" d="M366.8,355.8l-5.4,14.6l6.2,2.3l5-13.7C370.8,357.9,368.8,356.9,366.8,355.8z"/>
</g>
<g>
	<path style="fill:#AF9604;" d="M322.4,341l-4.9,13.4l7.4,2.7l5.2-14.3C327.6,342.1,325.1,341.5,322.4,341z"/>
	<path style="fill:#AF9604;" d="M359.6,352.5l-5.6,15.3l7.4,2.7l5.4-14.6C364.5,354.7,362.1,353.6,359.6,352.5z"/>
	<path style="fill:#AF9604;" d="M347.5,347.9l-5.7,15.4l7.4,2.7l5.7-15.4C352.6,349.6,350.1,348.7,347.5,347.9z"/>
	<path style="fill:#AF9604;" d="M335.1,344.1l-5.4,14.8l7.4,2.7l5.6-15.3C340.3,345.5,337.7,344.8,335.1,344.1z"/>
</g>
<path style="fill:#E4E9ED;" d="M247.7,333.4c-89.6,0,0.4,162.8,0.4,162.8S337.3,333.4,247.7,333.4z"/>
<g>
	<polygon style="fill:#172023;" points="248.1,360.5 232.3,368.4 248.1,394 263.8,368.4 	"/>
	<path style="fill:#172023;" d="M267,416c-2-22.6-15.4-38.5-15.4-38.5h-3.5v0.7v-0.7h-3.5c0,0-13.4,15.9-15.4,38.5
		c-1.6,18-4,53.4-5.3,79c8,0.8,16,1.2,24.2,1.2c8.2,0,16.3-0.4,24.2-1.2C271,469.4,268.7,434,267,416z"/>
</g>
<polygon style="fill:#C7C8C9;" points="247.9,317 208.3,322.3 210.2,335.4 247.8,363.5 286,335.4 287.9,322.3 "/>
<path style="fill:#E2A379;" d="M287,282.1h-77.8c12.1,36.6,1,53.3,1,53.3s16.8,28.1,37.6,28.1s38.2-28.1,38.2-28.1
	S274.9,318.7,287,282.1z"/>
<g>
	<path style="fill:#F4B382;" d="M248.1,61.6c-44,0-79.8,21.2-79.8,113.6c0,31.3,5.6,55.8,14,74.7c18.4,41.6,50.3,56.1,65.8,56.1
		s47.3-14.5,65.8-56.1c8.4-18.9,14-43.4,14-74.7C327.9,82.8,292.1,61.6,248.1,61.6z"/>
	<path style="fill:#F4B382;" d="M169.8,178c-7.6,1.3-13.4,4.6-9.1,29.7c4.3,25.2,9.6,26.3,17.3,25L169.8,178z"/>
	<path style="fill:#F4B382;" d="M326.5,178l-8.1,54.8c7.6,1.3,13,0.1,17.3-25C339.9,182.6,334.1,179.3,326.5,178z"/>
</g>
<path style="fill:#631F04;" d="M328.2,135.2c-7.7-56.8-33.2-73.6-80.1-73.6c-47,0-72.5,16.8-80.2,73.8c-0.7,5.2-5.9,17.8-6.4,23.7
	c0,16,3.8,20,3.8,20l9.5-7.9c45.8,0,84.9-26.9,113.2-52.3c0,42.8,42.7,60.1,42.7,60.1s3.8-4.7,3.8-20
	C334.2,153.1,328.9,140.5,328.2,135.2z"/>
<path style="fill:#CC785E;" d="M258.5,257.8c-3-0.4-10.4,2.5-10.4,2.5s-7.6-2.9-10.6-2.5c-4.8,0.7-16.1,4.6-16.1,6
	c0,0,14.2,9.6,26.7,9.6c12.5,0,26.7-9.6,26.7-9.6S263.4,258.5,258.5,257.8z"/>
<path style="fill:#BA6B56;" d="M254.2,264.4c-2-0.1-4.5,1.7-6.1,1.7c-1.9,0-4.8-1.8-7-1.6c-13.1,0.8-19.6-0.7-19.6-0.7
	s14.2,13.5,26.7,13.5c12.5,0,26.7-13.5,26.7-13.5S267.9,265.2,254.2,264.4z"/>
<g>
	<path style="fill:#631F04;" d="M174.8,183.1c-0.4-2.7-0.5-5.2-0.4-7.1c0.1-2.9,0.5-4.7,0.5-4.7l-9.4,3.5c0,1.4,0,2.9,0,4.3
		c0,0,1-0.3,2.8-0.9c-0.1,0-0.2,0.1-0.3,0.1c1.3,2.2,2.9,5.6,4.5,10.5C172.4,188.8,176.1,191.5,174.8,183.1z"/>
	<path style="fill:#631F04;" d="M330.7,174.8l-9.3-3.5c0,0,0.4,1.8,0.5,4.7c0.1,2,0,4.4-0.4,7.1c-1.3,8.4,2.3,5.7,2.3,5.7
		c1.5-5,3.2-8.3,4.4-10.5c1.6,0.6,2.5,0.8,2.5,0.8C330.8,177.6,330.8,176.2,330.7,174.8z"/>
</g>
<g>
	<path style="fill:#1F2323;" d="M248.1,181.3c-7,0-12.2,1.7-12.2,1.7v4.7c0,0,6.8-1.7,12.2-1.7s12.2,1.7,12.2,1.7V183
		C260.3,182.9,255.1,181.3,248.1,181.3z"/>
	<path style="fill:#1F2323;" d="M164,173.1c-0.9-0.1-0.7,6-0.2,6.1l16.3,0.2l2,4l7.8-10.2L164,173.1z"/>
	<path style="fill:#1F2323;" d="M332.4,173.1l-26.5,0.1l7.8,10.2l2-4l16.9-0.2C333.2,179.1,333.3,173,332.4,173.1z"/>
</g>
<g>
	<path style="fill:#2E3535;" d="M290.6,170.7c-16.6,0-35.5,3.9-35.5,18.6c0,11.1,15.5,28.7,35.9,28.7c11.8,0,24.1-9.3,24.1-25.9
		C315,175.5,307.1,170.7,290.6,170.7z"/>
	<path style="fill:#2E3535;" d="M205.6,170.7c-16.6,0-24.5,4.8-24.5,21.4s12.3,25.9,24.1,25.9c20.4,0,35.9-17.6,35.9-28.7
		C241.2,174.6,222.2,170.7,205.6,170.7z"/>
</g>
<path style="fill:#191919;" d="M346.9,73.8c0,0-38.2-35-99-35s-98.7,35-98.7,35s-10.5,10.5-2,25c0.3,0.5,0.6,1,0.9,1.4
	c4.6,6.8,14.1,15.5,14.1,15.5l-3,3.5l4.3,5.6c0,0-0.2,14.5,13.9,14.5s31.6-5.5,70.6-5.5s56.3,5.5,70.6,5.5s14.2-14.9,14.2-14.9
	l4-5.2l-3-3.5c0,0,9.3-8.5,14-15.3c0.4-0.6,0.8-1.1,1.1-1.7C357.4,84.3,346.9,73.8,346.9,73.8z"/>
<g>
	<path style="fill:#AF9604;" d="M334.2,115.9c-14.5-6.1-46.2-17.1-86.1-17.1s-71.6,11-86.1,17.1l-2.9,3.4l4.3,5.7
		c15.1-8.3,46-16.7,84.7-16.7c38.6,0,69.6,8.3,84.7,16.7l4.3-5.7L334.2,115.9z"/>
	<polygon style="fill:#AF9604;" points="248.1,64.7 214.6,58.3 248.1,79.3 281.6,58.3 	"/>
</g>
<g>
	<polygon style="fill:#D4D6D8;" points="287.9,322.3 248.1,363.9 284.7,374.1 305.8,337.8 	"/>
	<polygon style="fill:#D4D6D8;" points="208.3,322.3 190.4,337.8 211.5,374.1 248.1,363.9 	"/>
</g>
<g>
</g>
<g>
</g>
<g>
</g>
<g>
</g>
<g>
</g>
<g>
</g>
<g>
</g>
<g>
</g>
<g>
</g>
<g>
</g>
<g>
</g>
<g>
</g>
<g>
</g>
<g>
</g>
<g>
</g>
</svg>
