<?xml version="1.0" encoding="iso-8859-1"?>
<!-- Generator: Adobe Illustrator 19.0.0, SVG Export Plug-In . SVG Version: 6.00 Build 0)  -->
<svg version="1.1" id="Layer_1" xmlns="http://www.w3.org/2000/svg" xmlns:xlink="http://www.w3.org/1999/xlink" x="0px" y="0px"
	 viewBox="0 0 496 496" style="enable-background:new 0 0 496 496;" xml:space="preserve">
<rect y="327.2" style="fill:#029B40;" width="488" height="144"/>
<polygon style="fill:#057F37;" points="488,471.2 0,471.2 172,419.2 488,327.2 "/>
<circle style="fill:#E6E8E8;" cx="168" cy="300.8" r="168"/>
<path style="fill:#C3C9C9;" d="M287.2,181.6c65.6,65.6,65.6,172,0,237.6s-172,65.6-237.6,0"/>
<g>
	<rect x="160" y="159.2" style="fill:#AEB7B7;" width="16" height="80"/>
	<rect x="160" y="359.2" style="fill:#AEB7B7;" width="16" height="88"/>
	
		<rect x="233.774" y="189.645" transform="matrix(-0.7071 -0.7071 0.7071 -0.7071 244.6049 561.4085)" style="fill:#AEB7B7;" width="9.6" height="80.799"/>
	
		<rect x="92.718" y="331.294" transform="matrix(-0.7075 -0.7067 0.7067 -0.7075 -95.883 702.9028)" style="fill:#AEB7B7;" width="9.6" height="79.999"/>
	<rect x="224" y="295.2" style="fill:#AEB7B7;" width="88" height="8"/>
	<rect x="24" y="295.2" style="fill:#AEB7B7;" width="88" height="8"/>
	
		<rect x="233.702" y="330.625" transform="matrix(0.7067 -0.7075 0.7075 0.7067 -192.5513 277.5609)" style="fill:#AEB7B7;" width="9.6" height="80.799"/>
	
		<rect x="92.811" y="190.341" transform="matrix(0.7063 -0.7079 0.7079 0.7063 -134.3915 136.7492)" style="fill:#AEB7B7;" width="9.6" height="79.999"/>
</g>
<polygon style="fill:#505454;" points="96,260 168,220 240,260 240,340.8 168,380.8 96,340.8 "/>
<g>
	<polygon style="fill:#303535;" points="168,300.8 168,220 240,260 240,340.8 168,380.8 96,340.8 	"/>
	<path style="fill:#303535;" d="M72,204.8l13.6-51.2c-27.2,15.2-49.6,37.6-64.8,64.8L72,204.8z"/>
</g>
<path style="fill:#505454;" d="M6.4,346.4l26.4-45.6L6.4,255.2c-4,14.4-6.4,29.6-6.4,45.6C0,316,2.4,331.2,6.4,346.4z"/>
<path style="fill:#303535;" d="M85.6,447.2L72,396l-51.2-13.6C36.8,409.6,59.2,432,85.6,447.2z"/>
<path style="fill:#505454;" d="M168,468.8c16,0,31.2-2.4,45.6-6.4L168,436l-45.6,26.4C136.8,466.4,152,468.8,168,468.8z"/>
<path style="fill:#303535;" d="M250.4,447.2c27.2-15.2,49.6-37.6,64.8-64.8L264,396L250.4,447.2z"/>
<path style="fill:#505454;" d="M329.6,346.4c4-14.4,6.4-29.6,6.4-45.6s-2.4-31.2-6.4-45.6l-26.4,45.6L329.6,346.4z"/>
<path style="fill:#303535;" d="M264,204.8l51.2,13.6c-15.2-27.2-37.6-49.6-64.8-64.8L264,204.8z"/>
<path style="fill:#505454;" d="M122.4,139.2l45.6,26.4l45.6-26.4c-14.4-4-29.6-6.4-45.6-6.4S136.8,135.2,122.4,139.2z"/>
<rect x="343.257" y="76.686" transform="matrix(-0.9481 0.3179 -0.3179 -0.9481 724.1237 73.6033)" style="fill:#D3A235;" width="25.599" height="38.399"/>
<g>
	<polygon style="fill:#6965A8;" points="332.8,136 166.4,52.8 193.6,24.8 375.2,51.2 	"/>
	<polygon style="fill:#6965A8;" points="400,81.6 272,59.2 288,42.4 412,55.2 	"/>
</g>
<polygon style="fill:#515191;" points="332.8,136 166.4,52.8 233.6,60 375.2,51.2 "/>
<polygon style="fill:#CE3838;" points="454.4,196 240.8,89.6 315.2,85.6 424.8,121.6 452,105.6 496,112 "/>
<g>
	<polygon style="fill:#A31A1A;" points="454.4,196 294.4,116.8 316.8,93.6 430.4,134.4 452,120.8 489.6,126.4 	"/>
	<polygon style="fill:#A31A1A;" points="454.4,196 294.4,116.8 316.8,93.6 430.4,134.4 452,120.8 489.6,126.4 	"/>
</g>
<rect x="143.252" y="122.418" transform="matrix(-0.8949 -0.4463 0.4463 -0.8949 525.1226 382.9164)" style="fill:#19DAF4;" width="328.805" height="14.4"/>
<rect x="275.202" y="153.628" transform="matrix(-0.8949 -0.4463 0.4463 -0.8949 629.3385 469.8819)" style="fill:#0DC7CC;" width="189.603" height="14.4"/>
<g>
	<polygon style="fill:#493011;" points="168.8,95.2 158.4,89.6 165.6,68 180.8,76 	"/>
	<polygon style="fill:#493011;" points="202.4,112 192.8,107.2 200,85.6 215.2,92.8 	"/>
	<polygon style="fill:#493011;" points="281.6,151.2 271.2,146.4 279.2,124.8 294.4,132.8 	"/>
	<polygon style="fill:#493011;" points="316,168.8 305.6,163.2 313.6,141.6 328.8,149.6 	"/>
	<polygon style="fill:#493011;" points="395.2,208 384.8,202.4 392.8,181.6 408,188.8 	"/>
	<polygon style="fill:#493011;" points="429.6,224.8 419.2,220 426.4,198.4 441.6,206.4 	"/>
</g>
<g>
	<circle style="fill:#0DC7CC;" cx="405.6" cy="144" r="6.4"/>
	<circle style="fill:#0DC7CC;" cx="427.2" cy="154.4" r="6.4"/>
</g>
<g>
</g>
<g>
</g>
<g>
</g>
<g>
</g>
<g>
</g>
<g>
</g>
<g>
</g>
<g>
</g>
<g>
</g>
<g>
</g>
<g>
</g>
<g>
</g>
<g>
</g>
<g>
</g>
<g>
</g>
</svg>
