<?xml version="1.0" encoding="utf-8"?>
<!-- Generator: Adobe Illustrator 22.0.1, SVG Export Plug-In . SVG Version: 6.00 Build 0)  -->
<svg version="1.1" xmlns="http://www.w3.org/2000/svg" xmlns:xlink="http://www.w3.org/1999/xlink" x="0px" y="0px"
	 viewBox="0 0 2272 1872" style="enable-background:new 0 0 2272 1872;" xml:space="preserve">
<style type="text/css">
	.st0{fill:#E3F6FD;}
	.st1{fill:#B8D348;}
	.st2{fill:#AABC3B;}
	.st3{fill:#3F3421;}
	.st4{fill:#FFFFFF;}
	.st5{fill:#FFE89F;}
	.st6{fill:#FFC39A;}
	.st7{fill:#FFDB4F;}
	.st8{fill:#FFAB50;}
	.st9{fill:#E74C3C;}
	.st10{fill:#3498DB;}
	.st11{fill:#7F6D54;}
	.st12{fill:#564B3B;}
	.st13{fill:#FFF2CF;}
	.st14{fill:#7F7252;}
	.st15{fill:#A59063;}
	.st16{fill:#F190AC;}
	.st17{fill:#FF6D66;}
</style>
<g id="vv">
	<g id="Layer_1_1_">
	</g>
	<g id="Layer_2">
	</g>
</g>
<g id="Layer_2_1_">
	<rect x="0" class="st0" width="2272" height="1872"/>
	<g>
		<path class="st1" d="M2235,1809.5c-1.1-6.8-4.6-13.2-9.8-17.7c-14.3,7.5-22.5,25.2-19,40.9c-5.1-10.1-10.2-20.1-15.3-30.2
			c-1.3-2.7-2.9-5.6-5.7-6.6c-2.8-1.1-6,0-8.7,1.4c-8.7,4.4-15.8,11.8-20.1,20.5c0.1,3.8-1,7.5-3.7,10.5c0.8-3.7,2.1-7.2,3.7-10.5
			c-0.3-10.3-9.5-21.2-20.6-21.4c-15.1-0.4-27.5,13.9-29.8,28.8c1.5-14.3-10.9-28.4-25.3-28.9s-27.5,13-26.9,27.4
			c-0.9-10.7-1.8-21.3-2.7-32c-10.2,3.1-18.7,11.3-22.1,21.4c2.5-10.4-1.7-22.8-11.3-27.3c-9-4.2-22.2,1.3-24.2,10.6
			c0,0.7-0.1,1.5-0.3,2.2c0-0.8,0.1-1.5,0.3-2.2c0.3-7.6-6.1-15.2-13.8-15.6c-3.4-0.2-6.8,0.8-9.9,2.1c-8,3.3-15.1,8.5-20.7,15.1
			c0.2-5.1-0.5-10.2-2-15c-12.8,3.7-24.7,10.2-34.8,18.9c-0.9,3.9-4.8,6.2-8.4,8.1c2.6-2.9,5.4-5.6,8.4-8.1c0-0.1,0-0.2,0.1-0.3
			c0.7-4-2.5-7.9-6.3-9.2s-8.1-0.5-12,0.8c-6.5,2.2-13,1.2-18.1,4.5c-0.3,0.6-0.5,1.2-0.7,1.9c-0.3,0.9-0.7,2-1.7,2.2
			c-0.9,0.2-1.4-1.7-0.4-1.6c0.9-1,1.8-1.8,2.9-2.5c1.8-4.1,4.4-7.7,5.8-12c1.6-4.9,0.8-11.2-3.7-13.6c-3.2-1.7-7.1-0.7-10.6,0.4
			c-19.5,6.4-37.3,17.8-51.2,32.9c2.3-5.5,2.4-12,0.1-17.6c-10,6.2-18.1,15.3-23.1,25.9c-0.4-5.7-0.9-11.4-1.3-17
			c-10.2,4.2-18.6,12.8-22.4,23.2c-2.1-6.5-4.1-13-6.2-19.6c-1-3.1-2.8-6.9-6.1-6.7c-1.7,0.1-3.1,1.4-4.4,2.6
			c-6.5,6.5-12,14-16.4,22.2c-1.4-6.7-1.1-18.3-2.5-25c5.4-8.7-1-21.2-10.7-24.5s-20.7,1.1-28.1,8.1c-7.4,7.1-12,16.5-16.4,25.7
			c0.4-5.5,0.8-11.2-1.1-16.4s-7-9.6-12.5-9c-3.5,0.4-6.5,2.7-9.2,4.9c-8.6,6.9-17.3,13.8-25.9,20.8c2.2-6.6,3-13.7,2.5-20.7
			c-15.6-2.2-31.9,0.9-45.7,8.6c4.7-3.5,7.9-8.8,8.7-14.6c-14.3-1.8-29.3,3.3-39.6,13.4c0.2-4.1,0.4-8.3,0.7-12.4
			c-10.1,0.6-19.9,5.7-26.2,13.6c4.3-11.4,6.2-28.5-5.5-32c-6.7-2-13.4,2.4-19,6.6c-10,7.5-20,15-30,22.5c-0.5-7-1-14-1.5-21
			c-0.2-2.2-0.4-4.7-2.1-6.3c-3-2.8-7.8-0.6-11.1,1.9c-13.1,9.6-25.2,14-34.8,27.1c-2.3-3.8-3.3-8.4-2.8-12.8
			c-13.7,2.6-26.3,10.7-34.5,22.1c0.7-6.7,1.4-13.3,2-20c-20.3,4.6-38.1,19.2-46.5,38.2c6.4-14.3,6.5-31.3,0.4-45.7
			c-2.3-5.4-5.7-10.6-10.7-13.6c-7.3-4.4-16.5-3.4-24.8-1.6c-28.6,6.2-53.9,13.3-72.5,35.9c-0.6,0.7-1.1,1.3-1.7,2
			c4.3-5.8,8-12.2,10.8-18.9c1.7-4,3-8.8,0.5-12.3c-2.7-3.7-8.1-3.8-12.7-3.1c-20,3-38.7,14.1-51,30.2c5.2-9.3,7.1-20.3,5.2-30.8
			c-20.1,6.4-36.7,23-42.9,43.1c-2-7,1.4-14.3,2.6-21.5c1.2-7.2-1.5-16.7-8.8-17.4c-4.5-0.5-8.5,2.8-11.7,6
			c-18.3,18.2-30.7,42.2-35,67.7c-2.3-9.6-4.6-19.1-6.9-28.7c-0.5-2.1-1.2-4.5-3.2-5.3c-2-0.9-4.3,0.2-6.1,1.5
			c-4.7,3.3-13,5-15.2,10.3c-5.4-8.3-9-17.8-10.7-27.5c-19.7,5.6-38,16.3-52.5,30.8c-0.6-10.3-2.2-20.5-4.8-30.4
			c-26.9,3.3-52.3,16.7-70.3,36.9c-8.6-20.4-40.7-24.9-54.7-7.8c-5.5-10.7-11.1-21.4-16.6-32c-2.5-4.8-5.4-10-10.3-12.1
			c-4.1-1.8-8.7-1.2-13.1-0.2c-21.1,4.5-40.6,15.8-55,31.8c0.2-3.4,5-10.6,5.1-14c3.3-1,1.9-6-0.1-8.8c-5.7-8.1-13.2-17.2-23.1-16.7
			c-5.4,0.3-10.1,3.5-14.6,6.6c-21.9,15.1-47.6,25-69.5,40.2c9.4-6.9,18.9-13.9,28.3-20.8c2.7-2,5.5-4.1,7.2-7.1
			c1.6-3,1.7-7.1-0.8-9.4c-3.1-2.9-8-1.7-12-0.3c-29.3,10.8-55.2,18.1-78.7,37.6c-0.3,1.2-0.8,2.3-1.4,3.4c-1,1.9-4.6-0.5-2.5-0.1
			c1.3-1.2,2.6-2.3,3.9-3.3c1.1-3.9,1-8.2-0.4-12.1c-17.9-7.5-33.3,25.9-51.5,19.4c6.4-13-0.7-30.8-14.2-35.8
			c-13.6-5.1-30.5,3.7-34.3,17.7c-0.7,2.8-1,5.7-2.4,8.3c-3.1,5.5-10.4,7.1-16.7,6.1s-12-4-18.1-5.5c-10.7-2.6-22.5-0.1-31.2,6.5
			c5.3-8.2-4.1-19.4-13.8-19.6c-9.7-0.1-18.1,6.6-25.1,13.4c6-9.8,20.3-15.6,19.7-27c-0.4-7.7-8.5-13.2-16.2-13.4
			s-14.9,3.5-21.4,7.6c-22.4,13.8-41.7,32.7-56.1,54.7c2.9-16.7,5.9-33.4,8.8-50.2c-14.9,0.6-29.3,7.9-38.7,19.5
			c8.7-13.4,14-28.9,15.6-44.8c-16.1,7.1-29.6,18.7-36.9,34.8c-9.2-22.8-35.8-37.2-59.9-32.4c-18.6,3.7-34.2,18.5-40.3,36.4
			c-0.2,5.6-1.1,11.1-2.7,16.5c-0.1-5.6,0.9-11.2,2.7-16.5c0.2-6.1-0.4-12.3-1.8-18.2c-10.8,8.1-20,18.5-26.7,30.3
			c-0.5,0.8-0.9,1.6-1.4,2.5c0.4-0.8,0.9-1.6,1.4-2.5c7.2-13,14.4-26,21.5-39c2.9-5.3,5.9-10.8,6.3-16.9c0.4-6.1-2.7-12.8-8.4-14.6
			c-3.5-1.1-7.3-0.3-10.8,0.7c-26.4,7.7-49,27.8-59.7,53.2c5.9-15.3,8.5-32,7.3-48.4c-12.5,3.9-22.6,14.5-26.2,27
			c-0.3,2.2-0.7,4.5-1.3,6.6c0.2-2.3,0.7-4.5,1.3-6.6c1.6-11.4,0.1-23.2-4.4-33.8c-15.9,2.2-29.1,16.5-30.7,32.4
			c0.1,1.1,0.1,2.2-0.2,3.3c0-1.1,0-2.2,0.2-3.3c-0.8-9.5-12.9-16.5-22.9-14.3c-11.1,2.5-19,12-25.2,21.5v97h2272v-95.1
			c0,0-0.1,0-0.1,0C2255.7,1781.8,2241.8,1794,2235,1809.5z"/>
		<path class="st2" d="M2224.5,1851.4c-3.2-0.7-5.5-3.3-8.1-5.4c-10-8.1-26.5-6.1-34.4,4c-11.4-15.9-39.2-15.3-49.8,1.2
			c-13.7-7.1-32.6-4-37.8,10.5c-8-8.9-22.6-11-32.7-4.7c-4.5,2.8-8.4,7.2-13.7,8c1.2-5.6-2.7-11.3-7.8-13.8s-11.1-2.4-16.7-1.5
			c-11.8,1.8-23.1,6.7-32.5,14.1c-7.2-9.7-30.2-19.2-38.8-10.8c-0.5-11.4-10.1-21.7-21.4-22.9c-11.3-1.3-23,6.6-26,17.6
			c-4.3-8.4-8.8-17.1-15.9-23.2c-7.2-6.2-17.8-9.3-26.3-5.2c-11.1,5.4-13.7,19.9-14.1,32.3c-5.5-7.8-11.2-15.8-19.3-20.7
			s-19.5-5.8-26.7,0.5c-6.7,5.9-7.7,15.8-7.4,24.8c0,0.4,0.1,0.9,0,1.3c0-0.4,0-0.9,0-1.3c-0.7-8.6-11.1-14.4-19.7-12.6
			c-9.1,1.9-16,8.1-20.4,16.2c-6.8-7.3-14.7-13.6-23.3-18.6c-3.9-2.3-8.2-4.3-12.7-4.2c-11.2,0.3-17.5,12.8-21.3,23.4
			c-2.5-6-5.8-11.8-10.8-15.8c-5.1-4-12.1-5.9-18.1-3.6c-6,2.3-10.1,9.5-7.8,15.6c-5.6-5.3-12.8-9.6-20.5-9.5
			c-7.7,0.1-15.6,6-15.8,13.7c-5.5-7.6-14.7-24.1-19.1-32.4c-5.7-10.6-19.2-16.4-30.8-13.3c-11.7,3.1-20.4,14.8-20.1,26.9
			c-4.5-12.4-18-20.8-31.1-19.4s-24.5,12.6-26.2,25.7c-0.2-11.6-14.1-19.1-25.4-16.4c-11.3,2.7-19.5,12.3-25.3,22.3
			c-4.2-13.2-17.7-22.9-31.5-22.7s-27,10.4-30.8,23.7c-10.5-12.4-21.9-25.4-37.4-29.9c-15.6-4.5-36,4.3-37.2,20.5
			c-0.2,2.7-4.9-2.7-2.4-3.4c-7.7-9.2-19.9-14.9-31.8-13.2s-22.5,11.8-23.2,23.8c-2.7-7.5-7.6-15.3-14.4-19.5
			c-10.8-6.8-23.4-11.6-36.1-10.4c-12.7,1.1-25.3,9.3-29,21.5c-8-7.3-20.5-9.2-30.2-4.5c-8.4,4-14,9-14.9,17.2
			c0.6,1.4,0.6,2.8-0.1,4.2c-0.1-1.5-0.1-2.9,0.1-4.2c-1.1-2.7-4.1-5.1-6.9-6.4c-20.5-9.3-46.8-3.6-61.6,13.3
			c1.4-5.8,2.7-11.8,2.1-17.8c-0.6-6-3.5-12.1-8.8-14.9c-4.5-2.4-9.9-2.1-14.9-1.2c-15.5,2.8-30.2,1.4-40.1,13.7
			c-13.8-5.1-30.5-1.3-40.8,9.3c-12.5-7-31.7-3.8-40.6,7.4c-8.6-12.9-18.8-25-32.1-32.9c-13.3-7.9-30.1-11-44.5-5.4
			s-25.3,21-22.9,36.3c0.4,2.7-7.4,6-5.4,4.3c-19.2-13.8-48-12.2-65.6,3.7c5.5-4.6,4.4-14.4-1.3-18.8c-5.7-4.4-14.1-4.1-20.4-0.7
			c-6.4,3.4-11,9.3-14.8,15.4c0.5-6.7,0.9-13.6-1.3-19.9c-2.2-6.3-7.7-12-14.4-12.2c-4.3-0.1-8.4,1.9-12,4.3
			c-10.6,6.9-19.3,16.7-24.8,28c-5.3-12.2-3-28.9-14.1-36.3c-8.8-5.8-20.8-1.6-29.8,4c-17.1,10.5-33.1,16-43.1,33.4
			c-19.5-16.4-52.1-13.7-68.6,5.7c0.1-8.8-6.8-17.3-15.5-18.8c-8.7-1.5-18.1,4-21,12.3c-2-9.9-10.9-17.9-20.9-18.7
			c-10-0.9-20.2,5.6-23.8,14.9c-2.5-10.3-12.2-18.5-22.8-19.1s-21.2,6.4-24.8,16.4c-5.5-16.7-31.1-21.9-42.7-8.7
			c1.4-13.5-11.4-26.6-24.9-25.6c-13,0.9-23.3,14.5-21.3,27.2c0.1,0.6,0.2,1.1,0.3,1.7c-0.1-0.6-0.2-1.1-0.3-1.7
			c-2.9-12.8-14.1-23.8-27.2-24.2c-13.6-0.4-26.8,12.6-24.6,26.1c-2.5-8.3-10.8-14.6-19.5-14.7c-8.7-0.1-17.2,5.9-19.9,14.1
			c-3.6-10.2-14.3-17.4-25.1-17s-20.9,8.4-23.7,18.9c-4.7-7.9-14.6-12.3-23.6-10.3c-9,1.9-16.3,10-17.2,19.2
			c-1.2-11.6-8-23.3-18.9-27.5c-10.9-4.3-25.4,1.4-28.4,12.7c-1.4-20.8-11.5-42.3-30.2-51.4c-7.4-3.6-16.2-4.4-24.3-2.8v79.6h2272
			v-47.9c-12.8,4.1-24.7,11-34.3,20.4C2234,1848.1,2229.6,1852.4,2224.5,1851.4z"/>
		<g>
			<g>
				<g>
					<path class="st3" d="M3.7,1870.4c-2.9-6.8-1.8-15.6-1.5-22.9c0.3-7,0.5-14.1,0.9-21.1c0.7-13.9,2.4-27.8,6.5-41.2
						c8.3-26.7,29.9-48.8,53-63.6c6.9-4.4,13.5-9.6,20.9-13.2c6.6-3.2,11.8-6.4,12.3-14.4c0.3-4.8-6.4-7.5-9.6-4
						c-1.1,1.3-3.8,1.8-5.8,2.5c-3.3,1.2-6.6,2.5-9.7,4.2c-6.7,3.7-13,7.9-19.4,12.1c-13,8.7-24.8,19.4-34.5,31.7
						c-9.3,11.6-16.6,24-20.9,38.3c-4.1,13.8-5.8,28.3-6,42.7c-0.1,8.3,0.3,16.6,0.3,25c0,4.3,0.2,8.5,1,12.8
						c0.9,4.7,3,8.8,4.8,13.1C-2,1877.2,5.7,1875.2,3.7,1870.4L3.7,1870.4z"/>
				</g>
			</g>
			<g>
				<g>
					<path class="st3" d="M66.6,1759.5c2.6-4.5,4-9.6,6.6-14.1c2.6-4.6,5.9-8.7,9.5-12.5c7.3-7.7,15-14.6,21.3-23.2
						c2.5-3.4-2.4-8.2-5.8-5.8c-9.8,6.7-18.7,14.2-26.1,23.5c-6.6,8.4-14.3,20.1-12,31.3C60.6,1761.8,65.1,1762.1,66.6,1759.5
						L66.6,1759.5z"/>
				</g>
			</g>
			<g>
				<g>
					<path class="st3" d="M94.1,1764.4c0.2-2.6,0.7-5.7,2.3-7.9c2-2.8,4.7-5.1,6.8-8c3.4-4.6,5.9-11,11.8-12.7
						c5.9-1.7,4-9.3-1.3-9.9c-9.7-1.2-14.8,8.8-19,15.7c-2.2,3.6-5.4,6.5-7.2,10.4c-1.9,4.2-1.5,8-1.1,12.5
						C86.8,1769.4,93.7,1769.4,94.1,1764.4L94.1,1764.4z"/>
				</g>
			</g>
			<g>
				<g>
					<path class="st3" d="M105.8,1811.7c5.6-4.3,6.4-10.5,8.5-16.7c2.9-8.5,9.9-15.4,15.7-22c5.6-6.3,10.6-13.5,18.4-17.2
						c7.8-3.8,15.7-5.2,22.3-11.2c4.2-3.8-1.2-10.6-6-7.8c-7.1,4.2-15.9,4.6-23.3,8.5c-7.9,4.2-13.2,11.3-18.7,18.1
						c-5.7,6.9-11.8,13.5-15.7,21.6c-1.6,3.3-2.8,6.6-3.5,10.2c-0.6,3.1-0.6,7.3-3,9.7C97.2,1808.2,101.8,1814.8,105.8,1811.7
						L105.8,1811.7z"/>
				</g>
			</g>
			<g>
				<g>
					<path class="st3" d="M150.9,1807.9c0-8.6,7-16.6,12.7-22.3c7.4-7.4,17.8-10.3,24-19c2.6-3.6-2.4-7.8-5.8-5.8
						c-10.5,6-20.8,10.7-28.5,20.4c-6,7.5-12.8,17.8-9.8,27.8C144.7,1812.9,150.9,1812.2,150.9,1807.9L150.9,1807.9z"/>
				</g>
			</g>
			<g>
				<g>
					<path class="st3" d="M187.7,1811.3c0.7-20.9,14.5-41.7,35.4-47.2c11.2-2.9,23.7,2.1,32.7,8.6c7.8,5.6,15.6,17.5,26.4,12.9
						c2.9-1.2,4.9-5.1,2-7.7c-4.3-3.8-9.4-6.5-13.8-10.4c-4.9-4.4-10.2-8.2-16.2-11c-12.4-5.8-26.2-8.1-39.2-2.9
						c-22.4,9-40.1,34-34.7,58.7C181.3,1816.5,187.6,1815.4,187.7,1811.3L187.7,1811.3z"/>
				</g>
			</g>
			<g>
				<g>
					<path class="st3" d="M287.7,1805.5c1.6-9.9,7.2-21.4,15.8-27.1c8-5.2,19.9-10.1,21.3-20.7c0.5-3.7-5.3-4.9-6.9-1.9
						c-2.1,3.9-8.7,6.6-12.3,8.8c-4.7,2.7-9.7,5.6-13.3,9.8c-6.5,7.5-15.9,21.7-11,32C282.6,1808.9,287.3,1808.5,287.7,1805.5
						L287.7,1805.5z"/>
				</g>
			</g>
			<g>
				<g>
					<path class="st3" d="M311.4,1811.6c8.5-8.9,15.1-20.5,20.2-31.6c1.7-3.7-1.9-8.3-5.9-5.9c-11.3,6.9-14.8,21-22.4,31.2
						C299.8,1810.1,307.4,1815.7,311.4,1811.6L311.4,1811.6z"/>
				</g>
			</g>
			<g>
				<g>
					<path class="st3" d="M352.7,1820c2.5-4.9,4-10.5,7.1-15.1c3-4.6,8.3-7.2,13-9.9c9.6-5.4,20.3-11.1,31.6-11.3
						c5.1-0.1,6.6-8.2,1.2-9.2c-13.6-2.6-26.6,3.3-38.1,10.2c-5.2,3.1-10.8,6.4-14.6,11.1c-4.5,5.5-6.1,12.6-9.1,19
						C341,1820.7,349.7,1826,352.7,1820L352.7,1820z"/>
				</g>
			</g>
			<g>
				<g>
					<path class="st3" d="M383.1,1819.7c5.5-6.6,13.4-10.1,19.9-15.6c6.7-5.6,15.4-7.7,22.2-13.2c3.8-3.1-1.2-9.6-5.3-6.8
						c-7.3,5-15.9,6.9-22.4,13.3c-6.1,6.1-13.7,11-19.1,17.7C375.8,1818.3,380.3,1823,383.1,1819.7L383.1,1819.7z"/>
				</g>
			</g>
			<g>
				<g>
					<path class="st3" d="M443.4,1812.5c0.6-2.5,3.4-3.8,5.4-4.8c2.7-1.4,5.5-2.5,8.1-4.1c5-3.1,0.6-10.4-4.6-7.9
						c-6.5,3.2-17.9,7.5-16,16.7C437,1816.1,442.6,1815.9,443.4,1812.5L443.4,1812.5z"/>
				</g>
			</g>
			<g>
				<g>
					<path class="st3" d="M506.8,1815c0.3,0.2,0.6,0.4,1,0.6c1.6,1.2,4.6,0.7,5.9-0.8c3.3-3.8,3.7-9.3,4.2-14.1
						c0.6-5.4,0.8-10.8,0.7-16.3c-0.2-8.4-0.3-16.9-1.1-25.3c-1.1-12.1-5.3-36.7-22.9-32.5c-6.3,1.5-4.1,9.8,1.4,10.5
						c2.2,0.3,4.3,8,4.9,10.3c1.5,5.3,2.5,10.7,2.9,16c0.7,7.8,1.3,15.6,1.7,23.4c0.2,4.4,0.5,8.8,0.4,13.2
						c-0.1,4.2-1.2,8.7-0.3,12.7c0.4-1.6,0.8-3.1,1.2-4.7c-0.3,0.1-0.6,0.3-0.8,0.4C502.9,1809.7,504.2,1814,506.8,1815L506.8,1815z
						"/>
				</g>
			</g>
			<g>
				<g>
					<path class="st3" d="M535.2,1821.4c1-3.8,3.2-6.9,5.1-10.2c2-3.4,3.4-7,4.6-10.7c2.3-7.5,3.2-15.4,4.9-23.1
						c1.7-7.8,3.5-15.9,2.8-24c-0.8-8.8-5.3-14.8-8.6-22.7c-1.6-3.8-7.8-3.8-7.7,1c0.1,7.4,3.4,14.2,3.8,21.6
						c0.5,8.4-1.2,16.2-2.5,24.4c-1.3,7.8-1.9,15.7-4.2,23.3c-1.9,6.5-5.4,12.4-6,19.3C527.1,1824.8,534.1,1825.6,535.2,1821.4
						L535.2,1821.4z"/>
				</g>
			</g>
			<g>
				<g>
					<path class="st3" d="M563.6,1817.1c8.5-8.6,16-19.7,15.7-32.2c-0.1-3.4-5.1-5.2-6.7-1.8c-4.8,9.9-8.6,20.3-14.9,29.4
						C555.2,1816.1,560.7,1820.1,563.6,1817.1L563.6,1817.1z"/>
				</g>
			</g>
			<g>
				<g>
					<path class="st3" d="M614.6,1814.9c7.3-6.7,16.2-14,14.5-25c-0.4-2.7-4.9-3.3-6-0.8c-3.5,7.6-9.6,13-15.4,18.9
						C603.3,1812.5,610,1819.1,614.6,1814.9L614.6,1814.9z"/>
				</g>
			</g>
			<g>
				<g>
					<path class="st3" d="M672.1,1811.6c7.5-5.7,15.1-11.4,23-16.6c3.8-2.5,7.7-4.7,12-6.2c4.2-1.5,7.9-3.1,11.2-6.2
						c4.3-4-1.3-11.4-6.3-8.2c-3.4,2.2-7.6,2.6-11.4,4.1c-4.6,1.8-8.8,4.7-12.8,7.5c-3.6,2.6-7.1,5.4-10.4,8.4
						c-3.8,3.6-6.4,7.5-9.6,11.5C665.5,1808.8,668.5,1814.3,672.1,1811.6L672.1,1811.6z"/>
				</g>
			</g>
			<g>
				<g>
					<path class="st3" d="M725.1,1748c4.9,1.7,7.5,5.3,10.8,9c4,4.4,8.9,7.6,13.2,11.6c4.1,3.8,7.5,8.7,10.5,13.4
						c3.4,5.3,3.9,10.2,5.5,16.1c1.2,4.4,8.2,5.9,10.4,1.4c6.3-13.2-7.4-28.9-16.5-37.5c-5.2-4.9-11.6-8.3-16.7-13.4
						c-4.5-4.5-8.5-8-14.8-9.7C721.8,1737.5,719.5,1746.1,725.1,1748L725.1,1748z"/>
				</g>
			</g>
			<g>
				<g>
					<path class="st3" d="M770.5,1739.5c2.9,4.4,6.7,7.9,10.5,11.5c4,3.8,7.1,7.7,9.8,12.4c2.5,4.2,8.2,1.2,7.5-3.1
						c-2-11.5-15.4-16.6-22-25.1C773.7,1731.8,768.2,1736,770.5,1739.5L770.5,1739.5z"/>
				</g>
			</g>
			<g>
				<g>
					<path class="st3" d="M800.6,1734.3c1,1,2,1.9,3,2.9c1.4,1.3,3.8,1.5,5.2,0c1.4-1.5,1.4-3.7,0-5.2c-1-1-1.9-2-2.9-3
						c-1.4-1.4-3.9-1.5-5.2,0C799.2,1730.6,799.1,1732.9,800.6,1734.3L800.6,1734.3z"/>
				</g>
			</g>
			<g>
				<g>
					<path class="st3" d="M850.9,1769.7c3,2.7,4,6.6,6.3,9.8c2.5,3.4,5.8,6,7.9,9.7c3.6,6.3,5.6,13.6,7.5,20.5c1.4,5,9.1,4,9.1-1.2
						c0-8.2-4.1-17.2-8.4-24.1c-2.5-4-6.1-6.8-9.2-10.2c-3.2-3.5-4.9-7.3-8.8-10.2C851.9,1761.6,847.9,1767,850.9,1769.7
						L850.9,1769.7z"/>
				</g>
			</g>
			<g>
				<g>
					<path class="st3" d="M900,1773.1c0.3,3.9,1.9,7,3.9,10.3c2.3,3.8,3.7,7.1,4.7,11.4c2,8.1,3.2,16.9,9.4,23
						c3.7,3.6,10.5-1.2,7.4-5.7c-4.4-6.4-5.5-14-7.9-21.3c-1.1-3.4-2.6-6.4-4.7-9.3c-2.2-2.9-5-5.7-5.6-9.4
						C906.4,1768.1,899.7,1769,900,1773.1L900,1773.1z"/>
				</g>
			</g>
			<g>
				<g>
					<path class="st3" d="M951.1,1813.3c6.2-9.6,17-15.2,21.7-26c2.5-5.7-4.6-9.9-8.3-4.9c-6.6,9-14.5,17.2-19.7,27.2
						C942.6,1813.8,948.6,1817.3,951.1,1813.3L951.1,1813.3z"/>
				</g>
			</g>
			<g>
				<g>
					<path class="st3" d="M991,1811.2c4.3-6.5,12.7-11.7,12.1-20.4c-0.4-6.4-9.5-6.4-9.9,0c-0.2,2.1-3.5,5.2-4.9,6.8
						c-2.3,2.7-4.7,5.2-6.6,8.2C978,1811.7,987.2,1817,991,1811.2L991,1811.2z"/>
				</g>
			</g>
			<g>
				<g>
					<path class="st3" d="M1050,1813.4c1.1-7.5,5.5-13.9,7.2-21.2c1.7-7.6,1.5-16-0.1-23.5c-0.9-4.4-8.2-4.5-9,0
						c-1.5,7.7,0.3,15.4-0.9,23.1c-1.1,7-4.2,13.4-4.3,20.7C1042.7,1816.4,1049.4,1817.6,1050,1813.4L1050,1813.4z"/>
				</g>
			</g>
			<g>
				<g>
					<path class="st3" d="M1095.6,1830.7c1-17.1,13.4-32.2,9.8-49.8c-1-4.9-9.2-3.9-8.8,1.2c0.6,7.4-2.4,15.3-4.1,22.4
						c-2.1,8.7-4.7,17.1-4.1,26.2C1088.7,1835.3,1095.4,1835.3,1095.6,1830.7L1095.6,1830.7z"/>
				</g>
			</g>
			<g>
				<g>
					<path class="st3" d="M1147.4,1803.3c0.4-6.9,0.3-13.9,1.9-20.7c1.7-7.1,5.8-13.6,9.8-19.6c7.8-12,16.7-22.9,22.6-36.1
						c2.7-6-5.8-11.4-9.1-5.3c-7.3,13.5-17.1,25.5-24.9,38.7c-3.7,6.4-7.1,13-8.2,20.4c-1.1,7.5,0,15,0.5,22.5
						C1140.3,1808.1,1147.1,1808.1,1147.4,1803.3L1147.4,1803.3z"/>
				</g>
			</g>
			<g>
				<g>
					<path class="st3" d="M1185.1,1789.5c3.4-9.8,7.5-19.3,13.1-28.1c5.5-8.7,12.3-16.5,19.1-24.2c4.6-5.2-2.4-12.1-7.6-7.6
						c-17.1,15.2-27.9,35.5-34.7,57.1C1173.1,1793.2,1183,1795.8,1185.1,1789.5L1185.1,1789.5z"/>
				</g>
			</g>
			<g>
				<g>
					<path class="st3" d="M1240.5,1793.9c6.4-6.1,12.4-12.7,18.3-19.3c2.6-3,5.4-5.9,7.9-9c2-2.4,4.2-6.5,7.6-6.8c5-0.5,5.2-8,0-8
						c-8.4,0.1-13.2,7.7-18,13.5c-6.8,8.3-13.7,16.6-21.2,24.3C1231.7,1792,1237,1797.2,1240.5,1793.9L1240.5,1793.9z"/>
				</g>
			</g>
			<g>
				<g>
					<path class="st3" d="M1345,1806.4c0.1-5.7,4-10.7,5.7-16.1c2.2-6.6,3.3-13.3,5.8-19.8c4-10.4,7.6-22.4,15.1-30.9
						c3.6-4.1-2.1-10-6.1-6.1c-9.3,9.1-13.3,21.2-17.6,33.2c-2.5,7-3.7,14.2-5.6,21.3c-1.7,6.3-5.2,11.7-5,18.4
						C1337.5,1811.3,1344.9,1811.3,1345,1806.4L1345,1806.4z"/>
				</g>
			</g>
			<g>
				<g>
					<path class="st3" d="M1390.5,1795c6.8-7.3,13.5-14.9,20-22.5c2.6-3.1,5.1-6.2,7.8-9.3c1.8-2.1,4.8-6.4,7.9-6.8
						c6-0.6,6.3-9.2,0-9.6c-9.1-0.5-16.7,7.9-22,14.3c-7.1,8.7-14.1,17.6-21.4,26.1C1378.3,1792.6,1385.7,1800.2,1390.5,1795
						L1390.5,1795z"/>
				</g>
			</g>
			<g>
				<g>
					<path class="st3" d="M1425.8,1790.8c5.4-4.2,10.1-9.3,15.4-13.6c4.1-3.4,8.4-7,9.8-12.3c1-4-4.7-6.6-6.8-2.9
						c-2.2,4.1-7.4,7-10.9,9.9c-4.9,3.9-8.3,9.3-12.8,13.6C1416.9,1788.9,1422.1,1793.7,1425.8,1790.8L1425.8,1790.8z"/>
				</g>
			</g>
			<g>
				<g>
					<path class="st3" d="M1486.9,1787.3c4.6-0.4,8.2-2.4,11.1-6c1.2-1.5,2.2-3.1,3.4-4.7c0.5-0.7,1.6-2.1,2-2.3
						c4.5-1.6,4.3-9.5-1.2-9c-4.3,0.4-7.3,2.6-9.8,5.9c-1.6,2-3.3,5.4-5.4,5.6c-2.8,0.3-5.2,2.2-5.2,5.2
						C1481.7,1784.7,1484.1,1787.5,1486.9,1787.3L1486.9,1787.3z"/>
				</g>
			</g>
			<g>
				<g>
					<path class="st3" d="M1528.3,1788.4c4.9-3.5,7.3-8.6,10.6-13.4c2.7-3.9-3-7.5-6.2-4.8c-4,3.4-5.3,8.7-9,12.2
						C1520.6,1785.3,1524.8,1790.9,1528.3,1788.4L1528.3,1788.4z"/>
				</g>
			</g>
			<g>
				<g>
					<path class="st3" d="M1554.8,1791.8c2.3-0.4,4.5-1.6,6-3.3c1.2-1.3,2.3-2.7,3.8-3.5c3.1-1.5,1.6-6.4-1.7-6.4
						c-2.7,0.1-4.7,1.1-6.7,2.8c-0.7,0.6-1.3,1.2-1.9,1.8c-0.7,0.7-0.9,1-1.6,1.2c-1.9,0.6-3.2,2.6-2.7,4.7
						C1550.7,1791.3,1552.7,1792.1,1554.8,1791.8L1554.8,1791.8z"/>
				</g>
			</g>
			<g>
				<g>
					<path class="st3" d="M1591.2,1791.9c2.3-0.8,4.7-1.3,7-2.2c2.7-1.1,4.3-3.8,5-6.6c0.5-1.9-0.5-4-2.3-4.7
						c-1.7-0.7-4.1-0.2-5,1.6c-0.2,0.4-0.4,0.8-0.6,1.2c0.4-0.6-0.2,0.2-0.3,0.3c0.6-0.6-0.1,0-0.3,0.2c-1,0.8-1.2,0.9-0.6,0.5
						c-0.2,0.1-0.3,0.2-0.5,0.3c-0.2,0.1-0.3,0.2-0.5,0.3c0.3-0.1,0.3-0.1,0,0c-0.4,0.2-0.8,0.3-1.3,0.5c-1.2,0.5-2.4,1-3.6,1.5
						C1584.1,1786.5,1587,1793.3,1591.2,1791.9L1591.2,1791.9z"/>
				</g>
			</g>
			<g>
				<g>
					<path class="st3" d="M1632.7,1802.4c4.1-2,8.1-4,12.2-6c2.9-1.4,3.7-5.6,2.2-8.3c-1.7-3-5.4-3.7-8.3-2.2
						c-4,2.1-8.1,4.1-12.1,6.2c-2.9,1.5-3.7,5.5-2.1,8.1C1626.3,1803.2,1629.8,1803.8,1632.7,1802.4L1632.7,1802.4z"/>
				</g>
			</g>
			<g>
				<g>
					<path class="st3" d="M1686.8,1800.3c-0.1-22.3,7.2-41.6,17.1-61.3c2.9-5.7-5.2-10.6-8.7-5.1c-12.7,20.4-19.7,42.2-19.4,66.3
						C1675.9,1807.3,1686.8,1807.4,1686.8,1800.3L1686.8,1800.3z"/>
				</g>
			</g>
			<g>
				<g>
					<path class="st3" d="M1714.9,1796.1c5.4-8.9,10.3-18.1,15.3-27.3c2.4-4.4-4-8.1-6.6-3.9c-5.6,8.8-10.1,18.2-15.1,27.4
						C1706.1,1796.6,1712.4,1800.2,1714.9,1796.1L1714.9,1796.1z"/>
				</g>
			</g>
			<g>
				<g>
					<path class="st3" d="M1739.3,1808.3c3.3-7.4,8.4-13.9,9.6-22.1c0.7-4.8-6.5-7.1-7.5-2.1c-1.5,7.6-6.3,14.2-9,21.3
						C1730.8,1809.3,1737.5,1812.2,1739.3,1808.3L1739.3,1808.3z"/>
				</g>
			</g>
			<g>
				<g>
					<path class="st3" d="M1794.3,1813.4c8-22.2,16.1-44.4,25.9-65.9c9.1-19.9,21.8-37.1,34.5-54.7c2.9-4.1-3.8-7.9-6.7-3.9
						c-13.3,18.1-26.1,35.8-35.4,56.4c-9.7,21.6-17.7,43.8-25.7,66C1785.4,1816,1792.7,1818,1794.3,1813.4L1794.3,1813.4z"/>
				</g>
			</g>
			<g>
				<g>
					<path class="st3" d="M1813.8,1809.2c8.9-11.8,24.1-23.2,24.4-39.3c0.1-5.4-9-7-9.8-1.3c-1,6.8-6.6,13-10.8,18.2
						c-4.4,5.6-9.4,10.9-13.6,16.7C1799.8,1809.4,1809.5,1814.9,1813.8,1809.2L1813.8,1809.2z"/>
				</g>
			</g>
			<g>
				<g>
					<path class="st3" d="M1773,1810.4c6.8-28.5,17.4-56.3,16.1-86.1c-0.3-5.8-9.1-5.9-9.1,0c0.1,28.5-9,56.2-14.3,84.1
						C1764.9,1813.1,1771.9,1815.1,1773,1810.4L1773,1810.4z"/>
				</g>
			</g>
			<g>
				<g>
					<path class="st3" d="M1872.4,1806c5.5-4.3,9.2-10.4,14.7-14.8c4.3-3.4,8.6-9.9,14.2-10.9c5-0.9,3.8-9.1-1.2-8.8
						c-7.5,0.4-13.4,5.9-18.6,10.6c-6.3,5.8-10.8,11.8-15,19.3C1864.2,1805.4,1869.1,1808.6,1872.4,1806L1872.4,1806z"/>
				</g>
			</g>
			<g>
				<g>
					<path class="st3" d="M1902.7,1809c10.4-8.9,21.6-16.7,30.9-26.8c3.3-3.6-1.2-10.3-5.5-7.1c-11.3,8.5-21.4,17.9-30.8,28.6
						C1894.2,1807.4,1899,1812.2,1902.7,1809L1902.7,1809z"/>
				</g>
			</g>
			<g>
				<g>
					<path class="st3" d="M1955,1793.1c5.3-8,10.3-16.1,15.8-24c3-4.2-3.5-8.9-7-5.4c-7.7,7.5-12,16.6-15.7,26.4
						C1946.4,1794.4,1952.7,1796.5,1955,1793.1L1955,1793.1z"/>
				</g>
			</g>
			<g>
				<g>
					<path class="st3" d="M1984.1,1795.6c1-4.6,2.6-9,4.5-13.3c1.3-2.8,3.5-9.8,6.8-11c5.8-2,3.4-9.9-2.5-9
						c-12.2,1.8-17.4,20.4-19,30.5C1972.8,1799.4,1982.7,1802.4,1984.1,1795.6L1984.1,1795.6z"/>
				</g>
			</g>
			<g>
				<g>
					<path class="st3" d="M2028.5,1809.7c0.1,0,0.3,0,0.4,0.1c1.7,0.4,3.8-0.2,4.6-1.9c4.5-8.7,6.6-19.2,8.3-28.8
						c1.8-10.1,2.9-20.2,3.5-30.4c0.4-6.3-10.1-7.9-11.1-1.5c-1.6,9.9-3,19.7-4.4,29.6c-1.3,9.6-3.6,19.4-4,29.1
						c0.7-1.2,1.4-2.4,2-3.5c-0.4,0.2-0.9,0.5-1.3,0.7C2022.3,1804.3,2024.2,1810.3,2028.5,1809.7L2028.5,1809.7z"/>
				</g>
			</g>
			<g>
				<g>
					<path class="st3" d="M2059.3,1818c5.1-11.7,8.1-23.8,10.7-36.2c2.6-12.8,6.7-26.1,5.2-39.2c-0.8-6.3-9.3-6.4-9.9,0
						c-1.2,12.5-4.2,24.8-6.3,37.1c-2,11.7-4.4,23.4-8.7,34.5C2048.1,1819.3,2057,1823.1,2059.3,1818L2059.3,1818z"/>
				</g>
			</g>
			<g>
				<g>
					<path class="st3" d="M2107.4,1821.5c0-8.6,1.3-17.2,1.6-25.8c0.3-8.6,0-17.2-0.8-25.8c-0.5-5.9-8.7-5.9-9.2,0
						c-0.8,8.6-1.1,17.2-0.8,25.8c0.3,8.6,1.6,17.2,1.6,25.8C2099.8,1826.4,2107.4,1826.4,2107.4,1821.5L2107.4,1821.5z"/>
				</g>
			</g>
			<g>
				<g>
					<path class="st3" d="M2152.8,1825.6c6.6-22.4,7.5-52.8-9.7-70.9c-3.3-3.4-9.8,1.2-6.8,5.2c13.2,17.7,15.3,42.9,9.2,63.6
						C2144.1,1828.3,2151.4,1830.3,2152.8,1825.6L2152.8,1825.6z"/>
				</g>
			</g>
			<g>
				<g>
					<path class="st3" d="M2207.6,1827.6c-0.4-19.6-4.1-39.1-9.8-57.8c-4.9-16.1-7.8-33.7-17-48c-3.5-5.5-11.5-0.7-8.7,5.1
						c7.1,14.2,10.5,30.7,15.5,45.8c6,17.9,10.9,36.1,12.4,55C2200.4,1832.4,2207.7,1832.5,2207.6,1827.6L2207.6,1827.6z"/>
				</g>
			</g>
			<g>
				<g>
					<path class="st3" d="M2237.2,1797.2c0.1-20.7,1.4-41.6-0.9-62.2c-2.3-20.4-7-40.9-12.2-60.7c-1.5-5.7-10.9-4.7-10.5,1.4
						c1.3,20.4,7.4,40,9.9,60.3c2.5,20.3,1.4,40.8,1.5,61.3C2225.1,1805.1,2237.2,1805.1,2237.2,1797.2L2237.2,1797.2z"/>
				</g>
			</g>
			<g>
				<g>
					<path class="st3" d="M2253.2,1782.1c0.1-18.9,0.1-37.8,0.2-56.7c0.1-17.5,2.1-35.9-5.9-52.1c-2.6-5.2-10.2-1.5-9,3.8
						c2,8.4,1.3,16.9,0.9,25.4c-0.3,8.6-0.3,17.2-0.3,25.8c0.1,17.9,0.2,35.9,0.2,53.8C2239.5,1790.9,2253.2,1790.9,2253.2,1782.1
						L2253.2,1782.1z"/>
				</g>
			</g>
		</g>
	</g>
	<g>
		<path class="st4" d="M1115.3,977.6c-23.1-4.1-46.7-1.6-68.8,6.3c-22.5,8-42.4,20.9-59.7,37.3c-4.6,4.4-9.2,8.9-13.6,13.6
			c-3.3-9.8-13.2-15.9-21.1-23c-10.4-9.4-20.5-20.6-34.5-24.5c-12.2-3.4-25,1.2-35.4,7.6c-0.1,0.1-0.2,0.1-0.3,0.2
			c-1-10.2-7.2-19.2-11.8-28.1c-5.1-9.9-10.4-19.7-17-28.7c-11.7-16.2-25.4-31.5-38.6-46.5c-25.6-29.2-56.1-55.2-95.9-60.6
			c-38.2-5.3-78.2,3.1-111,23.4c-33.3,20.6-56.9,51.8-71.9,87.5c-19.5,46.5-31,100.4-17.4,150.1c-3.8-2.9-7.7-5.6-11.6-8.3
			c-5.8-4-12.1-6.9-19-8.3c-14.4-2.8-29,0.1-41.6,7.4c-10.2,5.9-24,15.5-31.9,27.3c-1.9-3.4-3.9-6.8-6.5-9.9
			c-4.8-5.9-10.7-11-16.4-16c-10.6-9.3-20.6-19.3-31.2-28.5c-21.7-18.9-48.4-34.1-78.1-32.5c-14.4,0.8-28.8,4.5-42.6,8.6
			c-11.9,3.5-23.6,8.2-33.8,15.5c-21.9,15.8-37.2,39.2-46,64.5c-5.3,15.4-9.4,31.8-11.1,48.1c-0.9,8.4-0.5,16.8,1.3,25.1
			c1.4,6.5,3.5,12.9,3.1,19.5c-11.9,1.7-23.6,4.1-35.5,6.1c-14.3,2.5-28.8,4.1-43.2,5.3c-4.8,0.4-4.8,7.1,0,7.5
			c14.4,1.2,28.6,0.5,43-1.2c13.9-1.7,28-5,42.1-4.3c3.4,0.2,5.8-2.4,6.9-5.2c5.3-13.4-1.9-27-2.2-40.6c-0.3-14,3.2-27.8,7-41.2
			c6.6-23.8,17.3-45.5,35.4-62.7c17.4-16.5,42-22.9,65.1-27c27.1-4.8,51.8,5.6,72.5,22.7c11.2,9.2,21.2,19.7,32.1,29.2
			c5.8,5.1,11.7,10.1,17,15.7c5.2,5.6,8.9,12.2,14.8,17.2c0.1,0.1,0.1,0.1,0.2,0.2c-0.2,2.9,0,5.8,0.9,8.8c1.2,4.2,7.6,3.4,7.6-1
			c0.1-3.1,0.6-6,1.6-8.8c0.9-1,1.5-2.2,1.6-3.6c6.5-12.8,21.7-22.5,33.4-28.6c11.1-5.8,23.7-7.6,35.8-3.7
			c10.9,3.5,18.7,16.2,30.8,15.6c3.8-0.2,6.8-4.9,4.3-8.1c3.4-0.2,6.7-2.9,5.6-7.2c-11.1-42.1-2.6-87,12.5-127.1
			c12.8-34.1,32.1-65.6,61.9-87.5c28.3-20.7,62.5-31,97.5-29.7c18.1,0.7,35.5,4.9,51.3,13.9c15.3,8.7,28.3,20.6,40.3,33.4
			c14.2,15.2,27.2,31.5,40.4,47.5c7.2,8.8,13,18.7,18.5,28.6c2.9,5.3,5.5,11,8.7,16.2c2.8,4.6,7,8.4,8.5,13.7
			c0.5,1.7,1.6,2.9,2.9,3.7c-5.8,5.4-10.2,12.2-10.8,20.3c-0.5,7.3,10.4,7,11.2,0c0.9-8.8,11.8-15.1,18.8-18.6
			c8.3-4.1,17.3-6.3,26-2.4c10.1,4.6,17.6,13.7,25.7,21.1c7.8,7.2,16.4,12.1,21.8,21.3c-7.5,8.7-14.3,18-20.1,27.9
			c-12.5,21.4-18.9,45.9-17.5,70.7c0.3,5.2,7.9,5.3,8.2,0c0.9-20.7,6.1-40.2,16.2-58.3c9.6-17.3,22.8-32.1,37-45.8
			c15.7-15.3,32.8-28.3,53.1-37c19.5-8.3,40.9-12.3,62.1-10.2c10.6,1,21.2,3.9,31.1,7.7c9.5,3.6,19.9,8.6,27.7,15.3
			c6.2,5.3,13.9-2.6,8.9-8.9C1158,988.7,1135.7,981.2,1115.3,977.6z"/>
		<path class="st4" d="M1300.8,989.1c-5.6-5.9-14.3-9.7-21.6-12.9c-15.5-6.9-34.2-12.1-50.9-6.1c-15.2,5.4-26.7,18-36.7,30.2
			c-5,6.1-10.4,12.1-12.3,19.9c-1.9,7.9-0.7,16-0.5,24c0.2,6.8,10.3,6.8,10.5,0c0.2-6.8-0.8-14.2,1.2-20.9c1.8-6,6.8-10.8,10.9-15.4
			c8.4-9.6,18.2-20.5,30.6-24.6c13.8-4.5,28.9,0,41.5,6.1c5.5,2.7,12.8,5.7,17,10.2c4,4.3,5.5,9.9,9.9,14c4,3.8,9.7-0.1,8.8-5.1
			C1307.9,1001.4,1305.9,994.3,1300.8,989.1z"/>
		<path class="st4" d="M1412.9,968.2c-4.4-3.1-9.8-4.5-15.2-4.4c-12.4,0.3-23,6.7-32.3,14.4c-16.6,13.7-34,34.2-31.8,57.2
			c0.6,5.9,9.6,6.1,9.4,0c-0.7-19.1,14.8-34.6,28.5-45.8c7-5.7,15.2-11.5,24.5-11.8c9-0.4,14.3,5.7,21,10.8c5.3,4,9.8-4.1,6.5-8.4
			C1420.2,976.1,1417.3,971.3,1412.9,968.2z"/>
		<path class="st4" d="M1804.3,1084.6c13.2-1.1,25.2,4.7,37.5,8.5c6.4,2,10.8-7.9,4.6-11c-11.5-5.8-23-11.9-36-13.1
			c-13-1.1-27.2,3.1-39.5,7c-23.6,7.4-45.8,18.5-65.5,33.5c-39,29.8-67.9,72.1-77.1,120.7c-2.3,12.3-3.9,25.1-3.1,37.6
			c0.7,10.3,2.5,21.7,9.7,29.5c-18-3.3-34.1,5.9-44.7,20.2c-5.2,7-10.4,14.4-13.8,22.4c-1.5,3.6-2.3,6.9-2.3,10.2
			c-9,0.1-18,0.6-27,1.3c-16,1.3-33.1,3.4-48,9.6c-13.1,5.5-25.1,14.3-35.3,24.1c-9.9,9.5-17,19.1-18,33.2c-0.4,5.6,8.3,5.5,8.7,0
			c1.1-13,10-20.7,19.4-28.6c9.8-8.3,21-16.3,33.5-20c23.3-6.8,47.2-6.4,71.1-7.1c0.3,0.4,0.7,0.9,1,1.3c1.8,2.1,5.2,0.8,5.9-1.5
			c4-0.2,8.1-0.4,12.1-0.7c6.9-0.6,6.9-10.2,0-10.8c-4.1-0.3-8.1-0.5-12.2-0.7c0.5-2.4,1.7-4.8,2.9-6.9c3.5-6.2,7.9-12.3,12.2-18
			c8.5-11.2,21-16.5,34.6-18.8c3.3-0.6,4.2-4.7,2.7-7.2c4.2,1,8.4-4.6,4.8-8.8c-5.4-6.2-5.5-16.3-5.5-24.1c0-9.9,1.1-19.7,3-29.4
			c4.5-22.6,13.1-44.5,25.6-63.9c23.4-36.4,59-64.2,99.6-78.8C1777.8,1089.9,1791.1,1085.8,1804.3,1084.6z"/>
		<path class="st4" d="M2107.1,960.1c-20.4-1.6-40.5-6.2-61.1-5.9c-19,0.2-37.4,4.5-54.6,12.4c-15.3,7.1-29.2,17.3-41,29.3
			c-13.4,13.6-25.9,28.6-34.8,45.6c-7.3,14-10.3,28.8-11,44c-6.1-1.6-12.6-1.2-18.8-0.2c-11.3,1.8-22.5,6.3-32.1,12.7
			c-17.4,11.6-29.2,29.2-39.5,47.1c-2.4,4.1,3.9,7.7,6.3,3.7c9.8-16.1,21-32,37.4-42.1c8.8-5.4,18.7-8.7,28.8-10.5
			c5.9-1,11.8-0.9,17.6,0.5c0,1.2,0,2.5,0.1,3.7c0.2,7.8,12.2,7.8,12.1,0c0-0.3,0-0.6,0-0.9c1.4,0.2,2.8,0.3,4.3,0.2
			c4.7-0.2,6.4-8,1.2-8.7c-1.8-0.2-3.6-0.7-5.4-1.2c0.5-12.9,2.4-25.7,8.2-37.5c7.8-16,19.5-29.8,31.8-42.6
			c23-24.1,52.8-39.9,86.6-40.7c21.3-0.6,42.6,2.8,63.9,2.9C2114.7,971.7,2114.4,960.7,2107.1,960.1z"/>
		<path class="st4" d="M2099,1385.8c-41.1,4.6-83.1,13.6-116.5,39.5c-15.5,12-27.8,27.3-39.4,43c-10.2,13.9-20.5,28-27.8,43.7
			c-3.2,6.9-6,14.1-7.6,21.5c-7.6-3.8-17.8-4.8-24.9-5.4c-12.1-1.1-24.5-0.8-36.7-0.6c-15,0.3-30.3,1.6-45,5
			c-15.8,3.6-29.4,12.2-44.2,18.6c-5.5,2.4-1.5,12.2,4.2,9.9c13.9-5.8,26.8-13.8,41.6-17.1c13.7-3.1,27.9-4.1,41.9-4.3
			c11.3-0.1,22.8-0.1,34,0.7c5.8,0.4,11.6,1.2,17.2,2.8c3.7,1.1,7,3,10.4,4.6c0.1,6.4,1.4,12.8,4.2,19c3.1,6.8,12.8,0.9,10-5.8
			c-6-14-0.2-30.4,6.2-43.2c7.1-14,16.5-26.7,26-39.1c10.9-14.3,22.2-28.5,36.3-39.8c14.6-11.8,32.1-20,49.9-25.8
			c20.2-6.5,41.2-10.3,61.9-14.6C2107.8,1397,2106.3,1385,2099,1385.8z"/>
		<path class="st4" d="M144.5,348.5c10.4,4.7,19.6,11.3,27.4,19.6c7.7,8.2,10.9,19.4,19.7,26.6c0.2,0.1,0.3,0.3,0.5,0.4
			c-2.6,2.7-1.4,8.1,3.6,8.6c24.9,2.6,49,6.8,70.3,20.9c10.1,6.7,18.7,15.6,26.1,25.1c6.8,8.8,13.4,17.6,17.9,27.8
			c2.8,6.4,11.1,2.2,11.7-3.2c1.4-11.8-10.7-23.5-17.4-32.1c-8.5-10.9-18.4-20.8-30-28.5c-21.3-14.1-47.8-21.2-73.4-20.6
			c0.9-1.5,1.1-3.5-0.2-5.5c-6.4-10.2-11-21.1-19.7-29.9c-8.8-8.8-19.2-16-30.6-20.9c-24.7-10.6-51.5-16-78.4-15.6
			c-6.9,0.1-6.9,10.6,0,10.8C96.6,333,121.9,338.4,144.5,348.5z"/>
		<path class="st4" d="M319.3,495.6c14.3,0.5,26.5,2.7,38.2,11.3c5.3,3.9,10,8.6,13.9,13.8c4.2,5.7,7.2,12.2,11.8,17.4
			c3.7,4.2,10.2-0.3,9-5.2c-3.4-14.6-16.7-28.2-28.7-36.4c-13.7-9.4-28-11.4-44.3-11.2C312.6,485.3,312.7,495.3,319.3,495.6z"/>
		<path class="st4" d="M395.9,557c8-11.7,13.7-25,22.3-36.4c8.8-11.7,22.1-20.5,35-27.1c12.9-6.6,26.9-10.5,41-13.4
			c13.5-2.8,29.1-5.7,42.7-2.1c12.4,3.3,22.5,11.9,31.9,20.5c-10.5,12.8-19,27.2-24,43.7c-7.8,25.5-11.9,52-16.2,78.2
			c-1.3,7.9,10.7,11.4,12.2,3.4c4-22.2,8.1-44.5,14.2-66.2c5-17.8,12.1-34.1,24.2-48.3c11.8-13.8,26.2-25.4,41.1-35.7
			c15.1-10.4,31.2-19.3,48.5-25.4c19.8-7,40.6-10.1,61.5-11c8.7-0.4,8.4-12.5,0-13.3c-40.2-3.7-78.9,9.8-112.1,31.8
			c-14.4,9.5-28.2,20.3-40.2,32.6c-9-8.7-18.5-16.9-30.2-21.7c-14.8-6-31-4.4-46.5-1.9c-31.8,5.2-65.2,17.4-87.3,41.9
			c-11.9,13.2-18.1,30.1-27.7,44.8C382.4,557.5,391.9,562.9,395.9,557z"/>
		<path class="st4" d="M456,625.9c-22.3,3.8-44.4,11.5-63.7,23.4c-5.9,3.7-0.6,12.9,5.5,9.4c18-10.2,37.8-15.9,58.2-19.3
			c19.9-3.4,37.8,3.9,55.4,12.5c7.7,3.7,14.4-7.4,6.8-11.6C498.7,629.6,478.6,622.1,456,625.9z"/>
	</g>
	<g>
		<g>
			<path class="st5" d="M1446.3,221.7c-29.3-26.3-65.5-38.5-104.1-43.1c-40.9-4.9-84-3.9-124,6.6c-20.3,5.3-40.7,13.3-58.3,25
				c-17,11.3-31.3,25.9-46.2,39.7c-14.9,13.8-30.1,27.4-42.9,43.2c-13.9,17.1-24.7,36.4-32.9,56.8c-4,10-7.4,20.5-9,31.2
				c-1.8,11.7-1.2,23.5-2.2,35.2c-0.9,11-3.3,21.9-3.2,33c0.1,10.8,1.4,21.7,3.4,32.3c7.5,41,28.4,77.1,53.9,109.5
				c12.3,15.7,26.1,30.1,41.9,42.3c16.1,12.5,34.2,21.3,53.1,28.9c19.3,7.7,39.4,13.1,60,15.4c20.2,2.2,40.5-0.1,60-5.5
				c39.2-10.9,74.6-32.9,103.4-61.4c27-26.9,50.2-57.8,62.1-94.4c12.9-39.8,16-86.2,4.5-126.6c-11-39-39.5-71.4-70.2-96.8
				c-31.8-26.2-70.8-37.1-111.5-38c-22-0.5-44.3,2-64.2,12c-9.4,4.7-18,11-26.3,17.4c-7.8,6.1-16,12.2-22.8,19.4
				c-7.2,7.6-13,16.4-18.7,25.1c-5.4,8.2-11.5,16-15.9,24.8c-9.7,19.6-11.8,43.1-12.2,64.7c-0.2,10.9-0.3,22,1.5,32.8
				c1.5,9.1,4.7,17.8,8.6,26.2c8,17.3,20.2,33.4,34.7,45.8c16.1,13.7,34.8,21.8,55.4,26.1c19.5,4.1,41.2,9.8,60.7,2.9
				c18.8-6.6,34.3-18.2,44.3-35.5c4.5-7.6,8-15.8,12.1-23.5c4.8-8.9,9.6-17.8,12.5-27.5c10.3-34.1-0.7-76.2-27-100.3
				c-13.5-12.3-30.5-21.3-48.4-25.1c-9.4-2-19.2-2.8-28.6-0.5c-9.7,2.4-17.1,9.1-22.7,17.1c-4.9,7.1-8.1,15.6-9.4,24.2
				c-1.5,9.4,0.5,17.8,3.1,26.8c2.6,9.1,13.3,11.1,20,5.3c0.9-0.8,1.8-1.5,2.7-2.2c5-4.1,4.2-12.6,0-16.8c-4.9-4.9-11.8-4.1-16.8,0
				c-0.1,0.1-0.2,0.2-0.3,0.3c5.9,2.4,11.7,4.8,17.6,7.1c-0.8-3.3-2.2-8.2-2.4-10.5c-0.2-1.9,0.3-6.1,1-8.9
				c1.5-5.9,4.1-11.8,8.9-16.1c2-1.8,3.4-2.3,6.5-2.9c1.8-0.3,6.4-0.3,9.4,0c6.6,0.7,14.1,3,20.4,5.7c27.7,11.9,42.9,36.4,44.7,65
				c0.5,8.3,0.2,16.3-2.1,24.3c-2.3,8-6.4,15.1-10.3,22.4c-7.1,13.2-12.3,29.4-24.7,38.6c-6,4.5-13.5,8.2-20.7,10.1
				c-7.2,2-14.3,1.2-22-0.2c-18.3-3.2-37.5-5.8-53.9-15.1c-25.4-14.5-48.2-45.8-49.4-74.8c-0.8-19.4-0.4-39.1,3.9-58.1
				c2-8.9,5-16.4,10-24.1c4.9-7.6,10.1-15,15.1-22.5c9.8-14.5,23.2-25.6,37.4-35.7c15.3-10.8,31.4-17.4,50.2-18.7
				c34.3-2.4,70.7,3.1,100.1,21.7c14.6,9.2,27.5,21.6,39.2,34.1c12.1,12.9,22.7,27.2,30.4,43.1c15.8,33,14.6,73.5,7.4,108.5
				c-6.9,33.3-22.4,62.3-44.8,87.8c-23.4,26.7-50.3,48.8-82.8,63.5c-15.3,6.9-32,12-48.7,14.2c-17.8,2.3-35.9,0.2-53.2-4.2
				c-34.3-8.5-66.9-24-92.3-48.8c-12.5-12.2-23.6-25.8-33.7-40.1c-10.3-14.8-19.9-30.3-26.6-47c-6.9-17.3-11.8-35.7-13.2-54.4
				c-0.7-9.9-0.2-19.6,1-29.5c1.3-10.3,1.9-20.4,2.2-30.7c0.9-37.4,21.8-74.5,46.7-101.4c12.7-13.7,26.8-26.2,40.4-39.1
				c12.9-12.2,25.7-24.6,41.1-33.7c32.4-19.3,70.8-26.6,108-28.1c35-1.4,71.8-0.4,105.2,11.4c15.7,5.6,30.4,13.9,43.2,24.7
				C1442.9,238.8,1453.7,228.4,1446.3,221.7L1446.3,221.7z"/>
		</g>
		<g>
			<path class="st5" d="M1517.3,371.8c-0.7,1.7-0.6,0.5,0.5,0.4c1-0.1,2.1-0.6,3.1-0.8c2.3-0.4,4.6-0.5,6.9-0.7
				c6.6-0.4,13.1-1.6,19.6-2.4c17.1-2.3,34.4-4.5,51.4-7.8c14.4-2.7,29.1-7,41.3-15.3c10.1-6.8,21.5-16,19.7-29.5
				c-0.8-5.9-10.9-5.8-11.8,0c-0.8,5.2-7,9.3-10.9,12.4c-4.8,3.7-9.8,7-15.3,9.6c-13.2,6.3-28,8.7-42.3,11.1
				c-16,2.7-33.9,6.2-48.9,8.1c-9.3,1.2-22,0.8-25.7,11.4C1502.1,376.3,1514.4,379.4,1517.3,371.8L1517.3,371.8z"/>
		</g>
		<g>
			<path class="st5" d="M1519.8,275.6c0.2-4.3,6.3-8.1,9.2-10.6c5.1-4.3,10.1-8.7,15.2-13c11.6-9.7,23.6-18.7,36.5-26.6
				c11.9-7.3,24.1-14.5,37.5-18.5c4.6-1.4,9.2-2.8,13.9-3.9c3.5-0.9,8.6-1.8,10.8,0.3c5.3,5.2,13.3-1.4,10-7.7
				c-6.7-13-22.4-9.2-33.6-5.7c-15.9,4.8-30,12-44.1,20.9c-15.1,9.5-29.4,20.3-42.6,32.3c-5.5,4.9-10.9,10-16.2,15.1
				c-5,4.8-9.5,10.4-9.5,17.6C1506.8,283.9,1519.4,283.8,1519.8,275.6L1519.8,275.6z"/>
		</g>
		<g>
			<path class="st5" d="M1560.4,474.7c20,10.1,40,19.9,60.9,28.1c10.1,4,20.3,7.5,30.8,10.4c5.1,1.4,10.2,2.6,15.3,4.2
				c5.1,1.6,9.6,4,15.1,4c7.6,0.1,8.2-10.1,1.7-12.5c-2.2-0.8-4.1-2.7-6.2-3.8c-2.1-1.2-4.2-2-6.5-2.8c-4.7-1.6-9.6-2.6-14.5-3.8
				c-10.5-2.5-20.9-5.7-31-9.4c-20.2-7.3-39.5-16.7-58.9-26C1559.5,459.4,1552.7,470.8,1560.4,474.7L1560.4,474.7z"/>
		</g>
		<g>
			<path class="st5" d="M1389.4,674.1c10.6,21.6,21,43.1,29.3,65.6c4,10.9,8.3,21.6,12.6,32.3c4,9.9,5.7,19.9,7.7,30.3
				c1.2,6,10.8,5.9,12,0c2.3-11-0.5-21.7-4.7-31.9c-4.7-11.5-9.9-22.8-14.4-34.4c-9.3-23.4-20.7-45.7-32.3-68
				C1396.2,661.2,1386.1,667.2,1389.4,674.1L1389.4,674.1z"/>
		</g>
		<g>
			<path class="st5" d="M1294.4,715c-4.9,41.6-6.5,83.4-8.7,125.2c-0.3,6.3,10,7.9,11.1,1.5c3.7-20.8,3.2-41.9,4.4-62.9
				c1.2-21.3,2.5-42.6,4.7-63.8C1306.6,707.7,1295.3,707.8,1294.4,715L1294.4,715z"/>
		</g>
		<g>
			<path class="st5" d="M865.6,446.6c47.1,15.7,95.5,26.8,142.7,42.1c8.6,2.8,11.6-10,3.6-13.2c-46.1-18.6-95.8-25.9-142.9-41.4
				C861.1,431.5,857.7,444,865.6,446.6L865.6,446.6z"/>
		</g>
		<g>
			<path class="st5" d="M884.3,608.8c16-4.8,31.6-10.9,47.4-16.4c14.7-5.2,29.3-10,42.4-18.7c7.3-4.9,0.5-16.8-7-11.9
				c-12.5,8.4-26.7,13.1-40.6,18.4c-15.1,5.8-30,11.8-45.4,16.8C873.6,599.5,876.7,611.1,884.3,608.8L884.3,608.8z"/>
		</g>
		<g>
			<path class="st5" d="M919.2,265.3c17.6,10.6,34.7,22.1,52.2,32.8c8.2,5,16.3,10.3,24.4,15.6c4,2.6,8,5.3,12,7.7
				c4.2,2.6,8.8,5.8,13.6,6.9c6.1,1.4,12.2-6.8,6.7-11.4c-3.7-3.1-8.1-5-12.3-7.4c-4.1-2.4-8.2-4.9-12.2-7.5
				c-8.4-5.4-16.9-10.5-25.6-15.3c-18-10-35.2-21.1-52.9-31.6C918.6,251.2,912.7,261.4,919.2,265.3L919.2,265.3z"/>
		</g>
		<g>
			<path class="st5" d="M967.2,164.6c14.4,15.5,30.8,28.6,48.8,39.8c8.2,5.1,16.7,9.7,24.8,15c8.3,5.3,15.2,12.1,23.1,17.9
				c5.5,4.1,12.1-3.7,9-9c-4.9-8.2-13.6-13.9-21.5-18.9c-8.3-5.3-17.1-9.7-25.6-14.6c-18.4-10.4-36.5-22.1-51.9-36.8
				C969.5,153.8,963.1,160.2,967.2,164.6L967.2,164.6z"/>
		</g>
		<g>
			<path class="st5" d="M1184.8,79.7c7.4,13.9,9.7,29.3,12.8,44.6c1.5,7.6,3.5,15.1,5.4,22.6c1.6,6.3,3,13,9,16.4
				c4.4,2.5,8.6-2.4,6.5-6.5c-1.1-2.3-1.2-5.3-1.8-7.8c-0.8-3.7-1.9-7.3-3-10.9c-2.3-7.3-4.6-14.6-6.9-21.9
				c-4.2-13.8-8.7-27.5-15.6-40.2C1189,71.7,1182.6,75.4,1184.8,79.7L1184.8,79.7z"/>
		</g>
		<g>
			<path class="st5" d="M1191.7,659.3c-13.1,24.7-25.6,49.7-37.4,75c-5.8,12.4-11.3,24.9-17.4,37c-6.1,12.2-12.8,24-17.8,36.7
				c-2.5,6.2,6.7,8.9,10,4.2c15.9-21.9,25.7-47.8,36.7-72.4c11.4-25.2,23.4-50.1,36.2-74.6C1205.5,658.5,1195.3,652.5,1191.7,659.3
				L1191.7,659.3z"/>
		</g>
		<g>
			<path class="st5" d="M1414.2,154.3c5.6-17.7,12.1-35,19.1-52.2c6.6-16.3,12.8-32.9,19.5-49.2c2.5-6.2-6.9-9.3-10.3-4.3
				c-10.1,14.9-15.6,32.3-22,49c-6.7,17.6-13.4,35.2-19.1,53.2C1398.8,158.9,1411.6,162.4,1414.2,154.3L1414.2,154.3z"/>
		</g>
	</g>
	<g>
		<g>
			<path class="st6" d="M345,706.4c-4.3-4.2-11.1-4-17.1-3.4c-10.9,1-23,2.8-29.7,11.5c-2.4,3.1-3.8,6.9-4.5,10.7
				c-1.3,7.6,0.4,15.8,4.6,22.3c4.3,6.6,10.9,11.2,16.8,16.4c32.7,28.9,44,76.2,76.1,105.8c45.3,41.9,95.8,81.1,152.4,105.6
				c3.3,1.5,6.8,2.9,10.5,2.8c7.6-0.3,13.3-7.1,16.8-13.8c2.7-5,4.8-10.8,3.4-16.3c-1.7-7-8.4-11.4-14.6-15.1
				c-31.3-18.9-62.7-37.9-94-56.8c-7-4.2-14-8.5-20.4-13.5c-12.3-9.7-22.1-22.1-31.8-34.4c-7.1-9-14.2-18-21.2-27
				c-4.7-6-9.6-12.4-10.1-20c-2.6-2.9-5.6-7.7-5.1-11.6c0.5-3.9,2-7.6,3.2-11.3c3.3-10.1,4.5-21,2.1-31.3
				c-2.3-10.3-8.5-20-17.5-25.5c-3.5-2.1-7.4-3.6-11.5-3.5C349.3,698,347,702.9,345,706.4z"/>
			<path class="st6" d="M859.7,972.9c9.4-12.4,18.8-24.7,28.1-37.1c13.5-17.8,27-35.6,38.1-54.9c19.9-34.5,31.7-73.2,38.7-112.4
				c7-39.2,9.3-79.1,11.1-118.9c-7-0.7-14.5-4.6-17.9-10.8c-1-1.9-1.8-3.9-3.4-5.4c-1.2-1.1-2.7-1.8-4.2-2.5
				c-15.6-7.2-29.5-18.2-40.1-31.8c-0.7-0.9-1.4-1.9-1.1-3c0.5-2,3.4-1.9,5.3-1.2c6.6,2.3,12.7,6.1,17.8,10.9
				c-8.3-26-14.6-50.5-17.6-77.6c-0.6-5.2-1-10.8,1.4-15.4c1.6-3,5.1-5.5,8.1-3.9c1.4,0.7,2.3,2.1,3,3.5
				c12,22.1,11.2,49.2,22.3,71.7c-1.3-19-0.2-38.2,3.3-56.9c1.3-6.8,3.2-14.1,8.6-18.3c0.8-0.6,1.7-1.2,2.8-1.3
				c3.1-0.2,4.6,3.6,5.1,6.6c2.9,17,3.8,34.3,2.6,51.5c5.6-15.7,15.8-28.4,28.4-39.4c1.8-1.6,4.6-3.2,6.5-1.7
				c0.8,0.7,1.2,1.8,1.4,2.9c0.8,4.3,0,8.7-0.9,13c-2.9,14.1-6.4,28-10.4,41.8c7.9-8.1,18.2-14,29.2-16.6c3.8-0.9,8.3-1.2,10.9,1.7
				c1.5,1.7,1.9,4.2,2,6.5c0.5,13.2-6.3,25.6-14,36.4c-7.7,10.8-16.6,20.9-21.6,33.1c7.2,29.4,4.8,59.4,2,89.6
				c-4.5,49-10.2,98.9-31.3,143.3c-6.9,14.5-15.5,28.4-26.4,40.2c-7.4,7.9-15.7,14.9-24,21.7c-15.5,12.8-30.9,25.6-46.4,38.4
				c-3.7,3.1-7.8,6.3-12.6,6.2C859.8,982.9,856.8,976.7,859.7,972.9z"/>
			<path class="st7" d="M429.1,602.2c-4.7,10.3-8.4,21.2-9.6,32.5c-1.1,9.9-0.2,20,1.4,29.9c6.8,41.9,26.7,81.6,56.4,111.9
				c8.7,9,22.6,17.5,32.8,10.3c15.9-11.2-1.5-41.7,13.5-54.2c9.1-7.6,24.9-2.9,32.9-11.6c7.2-7.8,4.1-22.7,13.1-28.4
				c13.3-8.5,32.1,15.1,44.6,5.4c2.6-2,4.1-5.1,6.6-7.4c11.3-10.4,29.9,4.7,44.6-0.1c13.6-4.4,17.1-23.5,30.1-29.4
				c12.6-5.8,28.6,3.3,41-3c4.3-2.2,7.5-6,11.7-8.3c14.9-8.3,34.3,4.2,50.3-1.6c3-1.1,6-2.9,9.2-3c7.5-0.2,11.9,8,16.8,13.8
				c6.9,8.2,18,12.6,28.7,11.5c1.9-0.2,3.9-0.6,5.3-1.9c3.5-3.2,1.4-8.8,1.4-13.5c0-7.8,6.2-14,10.1-20.8c8.6-14.8,6.5-33.3,2.8-50
				c-3.8-16.9-9-33.4-15.5-49.4c-4.4-10.8-9.4-21.4-16.9-30.3c-18.3-21.6-47.8-29.1-75.4-35.5c-21.1-4.9-44.7-9.4-63,2.1
				c-5.1,3.2-9.7,7.6-15.5,9.2c-7.4,2-15.1-0.8-22.5-3c-37.6-10.9-78-2.9-115.6,7.9c-12.8,3.7-25.6,7.7-36.8,14.8
				c-17.6,11.1-23.8,30.8-39.1,44.3C453.9,560.4,439.1,580.2,429.1,602.2z"/>
			<path class="st8" d="M451.9,682.4c3.1,0.8,6.3,1.2,9.3,0.2c6.7-2.2,9.5-9.9,11.8-16.5c7.3-20.7,18.6-39.9,33.1-56.3
				c3.2-3.6,7.1-7.4,12-7.4c13.9-0.1,10.9,24.2,22,32.6c9.9,7.5,24.3-2.7,28.5-14.4c4.2-11.7,3.2-25,9-36c2.2-4.3,6.2-8.3,11-8.2
				c4.4,0.2,7.7,3.7,10.6,7c8.4,9.6,16.8,19.3,25.1,28.9c7-18.3,16.2-35.8,27.5-51.9c4.1-5.9,10.3-12.4,17.3-10.6
				c5.1,1.3,8.1,6.5,10.6,11.2c5.1,9.3,10.8,18.2,17,26.7c1.6,2.2,3.4,4.4,5.9,5.3c7.5,2.5,12.5-7.4,14.8-15
				c4.1-13.3,11.1-25.7,20.3-36.1c1.4-1.5,3.1-3.2,5.1-3.1c2.9,0.1,4.4,3.4,5.6,6c11.8,28,48,42.9,76,31.2
				c16.5-6.9,28.5-22.3,33.2-39.5c-0.2-0.5-0.4-1.1-0.6-1.6c-4.4-10.8-9.4-21.4-16.9-30.3c-18.3-21.6-47.8-29.1-75.4-35.5
				c-21.1-4.9-44.7-9.4-63,2.1c-5.1,3.2-9.7,7.6-15.5,9.2c-7.4,2-15.1-0.8-22.5-3c-37.6-10.9-78-2.9-115.6,7.9
				c-12.8,3.7-25.6,7.7-36.8,14.8c-17.6,11.1-23.8,30.8-39.1,44.3c-18.1,16-32.9,35.7-43,57.7c-4.7,10.3-8.4,21.2-9.6,32.5
				c-0.4,3.5-0.5,7-0.4,10.5C423.4,662,435.1,678,451.9,682.4z"/>
			<path class="st6" d="M468.1,758.8c-7.1-2.4-14.7,3.8-16.7,11s0,14.8,2,22c4.4,15.7,9.1,31.9,19.7,44.3
				c12.9,15,32.8,22.2,52.4,25.3c18.8,25.1,42.2,50,70.6,63.2c10.6,4.9,21.8,8.2,33.2,10.7c65.6,14.7,137.6,3.9,193.1-34
				c9.1-6.2,17.8-13.2,24.8-21.7c12.6-15.4,18.8-35,24.7-54c6.6-21.2,18.4-38.3,23.7-59.9c10.4-2.1,17.4-7.8,22.2-17.3
				c4.8-9.5,6.4-20.2,7.2-30.8c0.9-11.4,1-23.2-2.9-34c-3.9-10.8-12.3-20.5-23.4-23.3c-11-2.7-22.4,1.5-32.9,5.7
				c-7.3,2.9-14.6,5.8-21.9,8.7c-2.4-6.6-8.1-8.7-12.5-14.2c-4.4-5.5-11-9.7-18-9.4c1.1,4.7,2.3,9.3,3.4,14
				c-9.8-10.9-24.4-17.3-39.1-17.3c1.1,4.3,2.3,8.6,3.4,12.8c-9.9-7.7-23-11.1-35.4-9.4c-0.3,4.3,1.3,8.6,4.1,11.7
				c-5.3,2.1-11.3,0.3-17-0.4c-5.7-0.7-12.8,0.6-14.8,6c2.7,1,5.5,2,8.2,3.1c-10.3,0.4-20.6,0.7-30.9,1.1c-4.8,0.2-9.9,0.5-13.5,3.6
				c-3.6,3.1-4.2,10,0.2,12c-2.8,0.3-5.6,0.5-8.4,0.8c-17.9-0.4-35.7,2.1-53.6,1.7c-3.9-0.1-8.9,0.7-9.7,4.5
				c-1,5.4,8.4,8.5,7.6,13.9c-9.8-2.5-19.6-5-29.4-7.5c-5.8-1.5-11.8-3-17.7-2.1s-11.9,4.5-13.5,10.3c-1.7,6.1,1.6,12.3,5,17.6
				c-7.6-0.3-15.2,4.1-18.7,10.8c-3.5,6.7-2.8,15.4,1.7,21.5c-10.1-2.9-20.8-4-31.3-3.3c4.4,7.9,2,17.7-0.5,26.5
				c-1.5,5.4-3.1,10.8-4.6,16.2c-0.5,1.6-1,3.3-2.5,4.1c-2.5,1.4-5.3-1.1-7.1-3.2C488.1,786.1,477.9,773.8,468.1,758.8z"/>
			<path class="st9" d="M684.9,892c-1.3,3.8-2.2,8.2-0.4,11.8c1.3,2.7,3.9,4.5,6.6,5.8c15,7.3,33.1,0.3,47-9
				c11.5-7.7,21.8-17,30.7-27.6c3.7-4.4,7.3-9.8,6.3-15.4c-0.6-3-2.4-5.6-4.5-8c-6.9-7.8-16.7-13.2-27.3-12.5
				c-8.9,0.7-13.2,6.4-20.2,10.9C705.7,859.2,691.6,871.8,684.9,892z"/>
			<path class="st4" d="M770.6,849.7c-6.9-7.8-16.7-13.2-27.3-12.5c-8.9,0.7-13.2,6.4-20.2,10.9c-17.3,11.1-31.4,23.6-38.1,43.9
				c-0.1,0.2-0.1,0.4-0.2,0.5c32.9-1.9,64.9-16.5,88.1-39.9C772.1,851.6,771.4,850.6,770.6,849.7z"/>
			<path class="st10" d="M597.4,939c-7.1-3-15.8-5.9-22.2-1.5c-2.6,1.8-4.4,4.6-6.1,7.3c-4.8,7.7-9.7,15.4-14.5,23.1
				c-0.8,1.2-1.5,2.5-1.6,3.9c-0.1,2.4,1.9,4.4,3.7,5.9c27,23.3,56.4,43.7,87.5,61c3.1,6,12.1,9.4,14.9,15.5
				c26.1,57-9.1,128.7,20.8,183.7c64.4,6,126.5-14.7,184.3-43.9c19.5-9.9,40.3-23.3,45-44.6c8.7-38.9-14.8-76.9-32.6-112.6
				c-1.4-2.7-2.8-5.6-2.6-8.6c19.3-6.8,34.8-19.3,49.2-33.8c2.5-2.5,5-5.3,5.9-8.7c0.9-3.5,0.1-7.2-0.6-10.7
				c-2.2-9.7-4.6-19.9-11.1-27.4c-5.8-6.8-14.5-11.1-18.4-19.1c-3.3-6.8-3.6-16.5-10.7-19c-6.4-2.2-12.4,3.6-17.7,7.7
				c-7.5,5.8-16.5,9.1-25.3,12.7c-14.3,5.8-28.2,12.6-41.6,20.3c-4.9,2.8-10,5.8-15.6,6c-10.8,0.4-18.9-9.2-25.3-18
				c-23.3,11.6-51.3,18-77.4,17.1c-15.9-0.5-31.7-3.5-47.4-6.4C622.9,946.1,611.5,945,597.4,939z"/>
			<path class="st9" d="M642,1357.8c-1.5,3.9-3,8.2-1.6,12.2c1.2,3.5,4.3,5.9,7.3,8c18.3,12.7,39.9,20.6,62,22.8
				c11.9,1.2,24.8,0.5,34.6-6.4c7.8-5.5,12.6-14.2,17.1-22.6c5.7-10.6,11.4-21.2,17.1-31.9c5.7-10.7,11.5-21.4,19.8-30.2
				c12.2-12.9,28.9-20.5,45.1-27.8c31-13.9,62.4-28,95.9-33.8c12.6-2.2,26.4-3.7,35.4-12.8c11.9-12.1,9.8-31.8,6.8-48.5
				c-2.1-11.8-4.2-23.6-6.4-35.4c-0.4-2.4-1-5-2.8-6.7c-2-1.8-4.9-2.1-7.6-2.3c-19.6-1.2-40.4-2.2-57.5,7.5
				c-10.3,5.8-18.2,15-26.9,22.9c-31.3,28.7-73.6,42.4-115.4,49.9c-20.5,3.6-31-0.9-49.8-5.9c-16.9-4.5-21.3,19.7-27.6,33.2
				C671.1,1285.4,655.9,1321.4,642,1357.8z"/>
			<path class="st6" d="M697.6,1381.3c-5.7,9.8-5.4,22-3.4,33.2c2,10.6,5.7,21.4,13.8,28.4c12,10.5,30,9.8,45.7,6.6
				c14.1-2.9,27.9-7.3,41-13.2c-0.9,0.1-1.7,0.1-2.6,0.2c6.8,4.7,11.5,11.5,14.1,19.4c0.6,1.7,1,3.5,0.5,5.3c-0.6,2-2.3,3.4-3.9,4.6
				c-23.7,17.6-56.4,20.6-84.6,11.9c-20-6.2-38.9-18.7-48.5-37.4c-3.4-6.6-5.5-13.8-6.3-21.1c-1-9.1,0.3-18.8,5.4-26.4
				C674,1385.1,688.6,1379.6,697.6,1381.3z"/>
			<path class="st11" d="M775.8,1446c0.1,1.5,0.4,3.1,1.3,4.3c2.4,3,7.1,1.8,10.9,1.5c7.3-0.5,14.7,4.2,17.3,11.1
				c2.5,6.9-0.1,15.3-6,19.6c-2.8,2-6.5,3.5-7.6,6.8c-0.6,1.8-0.3,3.7,0.2,5.5c3,12.3,11.2,22.7,19.8,32
				c12,12.9,25.4,24.5,39.9,34.4c2,1.4,4.2,2.8,6.6,2.5c3.3-0.4,5.3-3.8,6.7-6.9c17.5-40.8,6-88.9-15.6-127.7
				c-3.2-5.8-6.8-11.6-12.3-15.4C813.8,1397.5,773.4,1416.6,775.8,1446z"/>
			<path class="st6" d="M1040.4,1185.7c24.5-0.3,48.9,2.5,73.4,3c3.9,0.1,9-0.9,9.6-4.7c0.3-1.7-0.6-3.4-1.4-4.8
				c-8-13.5-22.8-21.9-38.2-25.2c-15.3-3.3-31.3-2-46.8,0.2c-12.2,1.8-24.3,4.1-36.3,7c-10.1,2.4-21.6,5.5-28.5,13.8
				c-5.8,6.9-6.7,16,3.1,19.6c8.9,3.3,21.8-4,30.8-5.7C1017.2,1186.7,1028.8,1185.9,1040.4,1185.7z"/>
			<g>
				<g>
					<g>
						<path class="st12" d="M669.6,962.6c-23.9,0-46.2-3.8-66.8-11.5c-29-10.8-54.7-29.1-76.1-54.4c-36.3-42.8-47.9-90.3-48.4-92.3
							c-0.9-3.8,1.4-7.7,5.3-8.6c3.8-0.9,7.7,1.4,8.6,5.3c0.2,0.7,11.6,46.7,45.8,86.8c19.9,23.3,43.5,40.1,70.2,50
							c33.5,12.4,72.1,13.8,114.9,4.3c51.2-11.4,89.1-36.4,112.4-74.3c23.9-38.9,28.3-84.8,27.8-116.4c-0.6-34.7-7-60.3-7.1-60.6
							c-1-3.8,1.3-7.7,5.1-8.7c3.8-1,7.7,1.3,8.7,5.1c0.3,1.1,6.9,27.2,7.5,63.5c0.6,33.6-4.1,82.5-29.8,124.4
							c-25.4,41.4-66.3,68.6-121.5,80.9C706.4,960.4,687.6,962.6,669.6,962.6z"/>
					</g>
					<g>
						<path class="st12" d="M515.1,876.2c0,0-0.1,0-0.1,0c-21.4-0.4-39.4-8.8-53.5-24.9c-12.1-13.8-19.5-30.8-25.1-45.7
							c-7-18.4-0.2-31,6.8-38.4c7-7.4,15.3-10.8,16.2-11.1c3.7-1.4,7.8,0.4,9.2,4.1c1.4,3.7-0.4,7.8-4.1,9.2
							c-2.4,0.9-22.9,9.8-14.8,31.2c12,31.5,28.2,60.8,65.6,61.4c3.9,0.1,7.1,3.3,7,7.3C522.2,873.1,519,876.2,515.1,876.2z"/>
					</g>
					<g>
						<path class="st12" d="M869.5,779.1c-2.4,0-4.8-1.3-6.2-3.5c-2-3.4-0.9-7.8,2.5-9.8c42.1-24.7,40.3-58.1,32.1-90.5
							c-2.4-9.3-9.2-14.5-20.9-15.9c-9.9-1.2-19.4,1-19.5,1c-3.8,0.9-7.7-1.5-8.6-5.3c-0.9-3.8,1.5-7.7,5.3-8.6
							c16.7-4,50.1-3.8,57.5,25.3c4,15.6,7.4,34.1,3.3,53c-4.7,21.7-18.9,39.7-42,53.3C872,778.8,870.7,779.1,869.5,779.1z"/>
					</g>
					<g>
						<g>
							<path class="st12" d="M874.4,748.2c3.7-2.4,7.1-4.5,9.9-7.9c2.9-3.5,5.9-7.2,8.4-11c4.7-7.2,7.8-16.1,7.7-24.8
								c-0.1-7.9-1.5-17-5.4-24c-3.7-6.8-10.4-15.6-19-14.8c-4.7,0.4-8.8,6.7-4.3,10.5c2.3,1.9,5,2.5,7,4.6c2.3,2.3,4.2,4.8,5.7,7.7
								c2.4,4.9,3.4,12,3.4,17.5c0,6.4-2.6,12.4-5.6,17.9c-3.5,6.4-7.4,12.7-13.2,17.2C864.9,744.3,870.2,751.1,874.4,748.2
								L874.4,748.2z"/>
						</g>
					</g>
					<g>
						<g>
							<path class="st12" d="M460,777.3c-4.6,7-4.7,15.3-3.8,23.4c0.5,4.2,1.8,8.1,3.3,12c1.4,3.7,2.5,7.6,4.1,11.3
								c3.3,7.2,10,13.7,15.8,19.1c2.8,2.6,6.2,5.4,9.6,7.2c3.1,1.6,6.7,3.7,10.1,4.5c6.2,1.5,9.8-6.9,4.3-10.3
								c-5.2-3.3-10.8-5.7-15.5-9.9c-4.8-4.3-10.3-9.5-13.4-15.2c-3-5.6-5.6-12.4-7.3-18.5c-1.9-6.9-2.6-14-1.2-21
								C466.6,776.2,462.1,774.1,460,777.3L460,777.3z"/>
						</g>
					</g>
				</g>
				<g>
					<path class="st12" d="M703.5,1239c-27.4,0-45.9-2.9-47-3c-2.5-0.4-4.6-2.1-5.5-4.4c-29.9-75.7-26.3-145.2-18-190.3
						c9-48.9,24.9-79.6,25.6-80.8c1.8-3.5,6.1-4.8,9.6-3c3.5,1.8,4.8,6.1,3,9.6c-0.3,0.5-15.8,30.6-24.3,77.3
						c-7.7,42.3-11.1,107.3,15.9,178.1c10.9,1.3,42.9,4.3,80.9,0.2c27.3-3,52.3-9.1,74.4-18.1c26.3-10.7,48.3-25.6,65.7-44.3
						c-0.9-9.9-5-44-19.5-83.1c-10.1-27.1-23.2-51.2-38.9-71.9c-19.5-25.6-43.2-45.8-70.4-60c-3.5-1.8-4.8-6.1-3-9.6
						c1.8-3.5,6.1-4.8,9.6-3c29.1,15.2,54.5,36.8,75.3,64.2c16.6,21.8,30.3,47.3,40.9,75.7c17.9,48.3,20.4,88.1,20.5,89.7
						c0.1,1.9-0.5,3.8-1.8,5.2c-19.2,21.4-43.8,38.4-73.2,50.3c-23.3,9.5-49.7,15.9-78.4,19C729.7,1238.5,715.7,1239,703.5,1239z"/>
				</g>
				<g>
					<path class="st12" d="M691.6,1400.6c-12.8,0-26.4-2.1-38.5-8.3c-15.7-8.1-26.3-21.9-31.5-40.9c-0.4-1.5-0.3-3.1,0.2-4.5
						l45.5-115.6c1.4-3.7,5.6-5.5,9.2-4c3.7,1.4,5.5,5.6,4,9.2L636,1349.8c4.3,14,12.1,23.8,23.7,29.8c25.7,13.3,61.9,3.4,71.8,0.3
						l34.5-67.4c14.1-27.6,42-44.6,72.9-44.6c0.3,0,0.6,0,0.9,0l130.4,1.4c12.7-44-1.9-86.4-7.2-99.4h-72c-3.9,0-7.1-3.2-7.1-7.1
						s3.2-7.1,7.1-7.1h76.7c2.7,0,5.2,1.6,6.4,4c1.2,2.4,28.1,59.4,8.1,119.1c-1,2.9-3.7,4.9-6.8,4.9l-135.7-1.4
						c-25.8-0.3-49.2,13.8-60.9,36.8l-35.9,70c-0.8,1.6-2.2,2.8-3.9,3.4C737.6,1392.9,716.2,1400.6,691.6,1400.6z"/>
				</g>
				<g>
					<path class="st11" d="M1118.5,1177.4c-0.8-29,4.4-58.1,15.2-85c3.8-9.6,10.9-20.5,21.2-19.6c20.8,35.9,26.8,78.2,31.1,119.3
						c1.6,15.1,2.7,31.8-6.3,44c-2.5,3.4-5.7,6.3-9.7,7.6c-5.9,2-12.4,0.2-18.1-2.3c-18.3-7.9-33.5-22.7-41.8-40.8
						C1111.9,1192.5,1118.7,1185.7,1118.5,1177.4z"/>
					<path class="st12" d="M982.3,1220.4c-3.1,0-5.9-2-6.8-5.1c-1.1-3.8,1.1-7.7,4.8-8.8c3.9-1.1,90.2-26.1,143.8-9.6
						c-0.2-5.8-1.6-12.4-5.7-15.4c-16.5-12.1-45.8-14.6-84.9-7.3c-30.4,5.7-55.7,15.4-55.9,15.5c-3.7,1.4-7.8-0.4-9.2-4.1
						c-1.4-3.7,0.4-7.8,4.1-9.2c4.4-1.7,107.5-40.8,154.4-6.4c6.6,4.9,10.6,13.2,11.4,24.1c0.6,7.5-0.5,13.8-0.6,14.1
						c-0.4,2.2-1.7,4-3.7,5.1c-1.9,1-4.2,1.1-6.2,0.2c-19.3-8.6-50.1-10.2-89-4.7c-30,4.3-54.2,11.3-54.5,11.4
						C983.7,1220.3,983,1220.4,982.3,1220.4z"/>
				</g>
				<g>
					<path class="st12" d="M1147.6,1246.6c-1,0-1.9-0.1-2.9-0.2c-22.3-2.8-46.2-38.9-48.8-43c-2.1-3.3-1.2-7.7,2.1-9.9
						c3.3-2.1,7.7-1.2,9.9,2.1c8.6,13.4,26.8,35.1,38.7,36.6c2.3,0.3,4-0.3,5.8-1.8c1.3-1.2,5.6-6.5,8.4-26.5
						c2-14.1,2.8-32.2,2.1-50.9c-1.5-41-9.2-77-19.5-91.7c-1.1-1.5-1.8-2.2-2.2-2.4c-1.6,0.9-9.9,7.5-21.3,54.2
						c-6.6,27.1-10.8,53.9-10.9,54.2c-0.6,3.9-4.2,6.6-8.1,5.9c-3.9-0.6-6.6-4.2-5.9-8.1c0-0.3,4.4-28,11.2-55.9
						c13.1-53.3,24-62.3,32-64.2c3.6-0.8,10.5-0.9,16.9,8.2c6.5,9.2,11.7,23.6,15.7,42.8c3.5,16.8,5.7,36.4,6.4,56.5
						c0.6,16.9,1.4,73.3-15.1,88.4C1157.8,1244.7,1152.9,1246.6,1147.6,1246.6z"/>
				</g>
				<g>
					<path class="st12" d="M741.4,1501.9c-12.2,0-25.7-1.5-38.6-5.9c-29.3-10-62.4-37.4-53.8-111.1c0.5-3.9,4-6.7,7.9-6.3
						c3.9,0.5,6.7,4,6.3,7.9c-5.7,48.7,7.3,80.3,38.6,93.8c41.8,18,98.6-1.8,104.4-8.4c2.4-4.1,2.4-7.9,0-12
						c-0.7-1.2-1.6-2.3-2.3-3.1c-11,4.2-41.2,14.5-73.4,14.5c-4.8,0-9.7-0.2-14.6-0.8c-11.8-1.3-21-6.4-27.5-15.4
						c-16.4-22.6-8.3-61.6-7.9-63.3c0.8-3.8,4.6-6.3,8.5-5.5c3.8,0.8,6.3,4.6,5.5,8.5l0,0c-0.1,0.3-7.1,34.5,5.5,51.9
						c4.1,5.6,9.8,8.8,17.5,9.6c40.9,4.4,84.7-14.2,85.1-14.4c2.3-1,4.9-0.7,6.9,0.7c7.5,5.3,19,19.8,8.9,36.7
						c-4.9,8.1-25.5,15.4-43.8,19.1C766.6,1500.1,754.8,1501.9,741.4,1501.9z M806.3,1471.9C806.3,1471.9,806.3,1471.9,806.3,1471.9
						S806.3,1471.9,806.3,1471.9z"/>
				</g>
				<g>
					<path class="st12" d="M847.3,1578c-3.5,0-6.9-1.1-9.9-3.4c-2.2-1.7-4.6-3.4-7.2-5.3c-17.8-12.8-44.6-32.3-54.4-72.9
						c-0.9-3.8,1.4-7.7,5.3-8.6c3.8-0.9,7.7,1.4,8.6,5.3c8.6,35.5,31,51.7,48.9,64.7c2.7,1.9,5.2,3.7,7.5,5.5
						c0.8,0.6,1.6,0.5,2.1,0.2c0.5-0.3,1.1-0.8,1.1-1.9c-1.1-22-3.3-54.4-7.9-84.2c-2.5-16.1-9.5-54.4-20.6-62.7
						c-1.7-1.3-2.9-1.2-3.9-1c-13,3.2-21.3,11-24.6,23.1c-2.6,9.3-1.2,17.9-1.2,18c0.7,3.9-2,7.6-5.8,8.2c-3.9,0.7-7.6-2-8.2-5.8
						c-0.1-0.5-1.9-11.6,1.5-24.1c3.3-12,12-27.4,34.9-33.1c5.6-1.4,11-0.2,15.9,3.4c11.5,8.5,20,32.1,26.2,72
						c4.7,30.4,7,63.4,8.1,85.7c0.3,6.4-3,12.2-8.7,15.2C852.5,1577.4,849.9,1578,847.3,1578z"/>
				</g>
				<g>
					<path class="st12" d="M847.5,1027.4c-2.4,0-4.8-1.2-6.1-3.5c-2-3.4-0.9-7.8,2.4-9.8l63.7-38.3l-37.6-61.8l-89.2,42.9
						c-3.5,1.7-7.8,0.2-9.5-3.3c-1.7-3.5-0.2-7.8,3.3-9.5l95-45.7c3.3-1.6,7.3-0.4,9.2,2.7l44.7,73.4c1,1.6,1.3,3.6,0.8,5.4
						c-0.5,1.8-1.6,3.4-3.3,4.4l-69.9,41.9C850,1027,848.7,1027.4,847.5,1027.4z"/>
				</g>
				<g>
					<path class="st12" d="M634.1,1058.8c-0.3,0-0.5,0-0.8,0c-2.1-0.2-4.8-0.5-50.5-25.1c-22.1-11.8-43.7-23.7-43.9-23.9
						c-1.7-0.9-2.9-2.4-3.4-4.3c-0.5-1.8-0.3-3.8,0.6-5.4l38.7-70.1c1.9-3.4,6.2-4.7,9.7-2.8c3.4,1.9,4.7,6.2,2.8,9.7l-35.2,63.8
						c37.6,20.6,77.8,42,83.6,43.9c3.6,0.7,6.1,4.1,5.7,7.8C640.8,1056.1,637.7,1058.8,634.1,1058.8z M634.9,1044.6
						C634.9,1044.6,634.9,1044.6,634.9,1044.6C634.9,1044.6,634.9,1044.6,634.9,1044.6z"/>
				</g>
				<g>
					<path class="st12" d="M515.1,821.2c-1.6,0-3.1-0.5-4.4-1.5c-36.2-28.8-56-57.4-58.7-84.8c-2.3-23.4,9-37.1,9.5-37.6
						c2.5-3,7-3.4,10-0.8c3,2.5,3.4,7,0.9,10c-0.4,0.5-8.1,10.3-6.2,27.6c3.2,29.1,30.7,56.6,53.3,74.6c3.1,2.5,3.6,6.9,1.1,10
						C519.3,820.3,517.2,821.2,515.1,821.2z"/>
				</g>
				<g>
					<path class="st12" d="M537.1,785c-0.8,0-1.7-0.1-2.5-0.5c-16.2-6.1-29.6-21.2-37.8-42.4c-3.7-9.5-6.1-19.3-8.5-28.9
						c-1.8-7.3-3.7-14.8-6.1-21.9c-1.2-3.7,0.8-7.8,4.5-9c3.7-1.2,7.8,0.8,9,4.5c2.5,7.6,4.5,15.4,6.4,23c2.4,9.5,4.6,18.5,8,27.2
						c3.9,10,12.9,27.8,29.5,34.2c3.7,1.4,5.5,5.5,4.1,9.2C542.6,783.2,539.9,785,537.1,785z"/>
				</g>
				<g>
					<path class="st12" d="M553.6,763c-1.6,0-3.2-0.5-4.5-1.6c-22.2-18-38.7-43.1-46.3-70.7c-0.6-2-2.2-8.1,1.8-12.9
						c2.5-3,7-3.4,10-0.8c2.6,2.2,3.2,6,1.6,8.9c0,0.2,0.1,0.6,0.2,1c6.8,24.7,21.6,47.2,41.5,63.4c3.1,2.5,3.5,7,1.1,10
						C557.8,762.1,555.7,763,553.6,763z M515.6,687.1C515.6,687.1,515.5,687.1,515.6,687.1C515.5,687.1,515.6,687.1,515.6,687.1z"/>
				</g>
				<g>
					<path class="st12" d="M568.1,738.5c-1.6,0-3.2-0.5-4.5-1.6c-15.1-12.3-28.6-26.6-39.9-42.5c-1.3-1.8-4.7-6.5-2.7-12.2
						c1.3-3.7,5.4-5.7,9.1-4.4c3.2,1.1,5.1,4.3,4.7,7.6c0.1,0.2,0.3,0.4,0.5,0.7c10.6,14.9,23.2,28.2,37.3,39.8c3.1,2.5,3.5,7,1,10
						C572.2,737.6,570.2,738.5,568.1,738.5z M534.5,686.9C534.5,686.9,534.5,686.9,534.5,686.9C534.5,686.9,534.5,686.9,534.5,686.9
						z"/>
				</g>
				<g>
					<path class="st12" d="M636.8,721.1c-0.4,0-0.9,0-1.3-0.1c-15.5-2.9-30.6-6-44.7-11.9c-16.7-6.9-29.9-17.1-38.3-29.4
						c-2.2-3.3-1.4-7.7,1.9-9.9c3.3-2.2,7.7-1.4,9.9,1.9c6.8,10,17.9,18.4,32,24.3c12.9,5.4,26.6,8.2,41.9,11.1
						c3.9,0.7,6.4,4.5,5.7,8.3C643.1,718.8,640.1,721.1,636.8,721.1z"/>
				</g>
				<g>
					<path class="st12" d="M678.2,694.7c-36.7,0-66.6-7.1-90.9-21.5c-3.4-2-4.5-6.4-2.5-9.8c2-3.4,6.4-4.5,9.8-2.5
						c26.5,15.7,60.8,21.8,105,18.7c3.9-0.3,7.3,2.7,7.6,6.6c0.3,3.9-2.7,7.3-6.6,7.6C692.8,694.5,685.4,694.7,678.2,694.7z"/>
				</g>
				<g>
					<path class="st12" d="M735.8,679.7c-2,0-3.9-0.8-5.3-2.4c-2.7-3-7.6-4.7-11.9-6.2l-47.5-16.5c-3.7-1.3-5.7-5.4-4.4-9.1
						s5.4-5.7,9.1-4.4l47.5,16.5c5.7,2,12.7,4.4,17.9,10.2c2.6,2.9,2.3,7.5-0.6,10.1C739.2,679.1,737.5,679.7,735.8,679.7z"/>
				</g>
				<g>
					<path class="st12" d="M754.8,666.3c-1,0-2.1-0.2-3.1-0.7c-13-6.3-25.6-13.7-37.5-22.1c-3.2-2.3-4-6.7-1.7-9.9
						c2.3-3.2,6.7-4,9.9-1.7c11.2,7.9,23.1,14.9,35.4,20.9c3.5,1.7,5,6,3.3,9.5C760,664.8,757.5,666.3,754.8,666.3z"/>
				</g>
				<g>
					<path class="st12" d="M788,669.7c-2,0-4.1-0.9-5.5-2.6c-10.3-12.3-22.4-23-35.8-31.8c-3.3-2.1-4.2-6.6-2.1-9.9
						c2.1-3.3,6.6-4.2,9.9-2.1c14.7,9.5,27.8,21.2,39,34.6c2.5,3,2.1,7.5-0.9,10C791.2,669.1,789.6,669.7,788,669.7z"/>
				</g>
				<g>
					<path class="st12" d="M822.8,676.8c-2,0-4-0.9-5.5-2.5c-1.5-1.7-1.9-3.9-1.5-6c-9.3-13.6-20.3-26.1-32.6-37.1
						c-2.9-2.6-3.2-7.1-0.6-10.1c2.6-2.9,7.1-3.2,10.1-0.6c13.5,12,25.4,25.6,35.5,40.5c4,5.8,2.5,11.2-0.8,14
						C826.1,676.3,824.4,676.8,822.8,676.8z M816.5,669.4L816.5,669.4L816.5,669.4z M818.2,664.2
						C818.2,664.2,818.2,664.2,818.2,664.2C818.2,664.2,818.2,664.2,818.2,664.2z"/>
				</g>
				<g>
					<path class="st12" d="M846,695.3c-3.7,0-6.8-2.8-7.1-6.6c-1.3-17.2-5.3-34.1-11.8-50.1c-1.5-3.6,0.3-7.8,3.9-9.3
						c3.6-1.5,7.8,0.3,9.3,3.9c7,17.4,11.3,35.6,12.8,54.3c0.3,3.9-2.6,7.4-6.6,7.7C846.4,695.3,846.2,695.3,846,695.3z"/>
				</g>
				<g>
					<path class="st7" d="M284.6,136.1c-20.9,15.4-40.1,34.3-51,57.9c-9.3,20.2-12.1,42.7-14.7,64.9c-5.6,48.8-10.3,100,8.2,145.5
						c19.8,48.7,63.6,83.8,109.7,109.1c4.2,2.3,8.9,5,10.3,9.7c0.8,2.6,0.4,5.3-0.1,7.9c-2.8,15.3-8.4,30.1-16.4,43.4
						c30.9,5.6,63.6,0.7,91.5-13.7c-5.7-4.3-11.5-8.8-14.7-15.2c-4.9-9.9-2.1-22.3,4.1-31.5s15.5-15.8,24.4-22.4
						c38.9-28.8,77.1-61.8,96.9-106c17-38.1,18.6-82.8,4.5-122.2c-14.1-39.3-5.9-118.5-103.9-160.8c-19.8-8.6-71-5-93.6,1.7
						C320.5,110.3,300.7,124.3,284.6,136.1z"/>
					<path class="st13" d="M378.9,108.5c-16.6,20.5-21.5,51.6-6.9,73.5c8.8,13.2,23,21.6,34.6,32.3c17.6,16.3,29.2,38.9,32.4,62.7
						c1.5,11.5,1.2,23.3,3.9,34.7c2.7,11.3,9.4,22.6,20.4,26.6c13.6,5,28.5-2.7,39.8-11.8c16.6-13.5,29.4-31.1,38-50.7
						c-1.1-4.1-2.4-8.2-3.8-12.2c-14.1-39.3-5.9-118.5-103.9-160.8c-9.6-4.2-26.7-5.4-44.3-4.9C385.5,101.1,382.1,104.6,378.9,108.5
						z"/>
					<path class="st12" d="M442.8,782.8c-2.1,0-4.2-0.9-5.6-2.7c-41.5-52-46.1-130.7-10.9-187.1c12.8-20.6,31.4-40,56.8-59.4
						c27.4-20.9,57.3-36.8,86.3-46c33.7-10.7,66.2-12.6,96.4-5.8c3.8,0.9,6.2,4.7,5.4,8.5c-0.9,3.8-4.7,6.2-8.5,5.4
						c-27.8-6.3-57.7-4.5-89,5.4c-27.5,8.7-55.9,23.9-82,43.8c-24,18.3-41.5,36.5-53.4,55.6c-32.1,51.5-27.9,123.3,10,170.7
						c2.5,3.1,2,7.6-1.1,10C445.9,782.3,444.3,782.8,442.8,782.8z"/>
				</g>
				<g>
					<path class="st12" d="M862.6,658c-0.1,0-0.1,0-0.2,0c-3.9-0.1-7-3.4-6.9-7.3c1.4-48.2-12.2-90.4-38.2-118.8
						c-14-15.3-33-26.6-53.3-31.8c-21-5.3-42.1-3.6-59.3,4.9c-3.5,1.7-7.8,0.3-9.5-3.3c-1.7-3.5-0.3-7.8,3.3-9.5
						c20.3-10,44.9-12.1,69.2-5.9c23,5.9,44.4,18.6,60.3,36c28.5,31.1,43.3,76.9,41.9,128.8C869.6,654.9,866.5,658,862.6,658z"/>
				</g>
				<g>
					<path class="st12" d="M686.5,486.8c-2.5,0-5-0.6-7.6-2c-6.9-3.8-10.7-14.4-15.2-29.1c-1.2-4-2.4-7.7-3.2-9.6
						c-5.5-11.9-11.8-23.8-17.2-33.7c-1.9-3.5-0.6-7.8,2.9-9.7c3.5-1.9,7.8-0.6,9.7,2.9c5.5,10.2,12,22.3,17.6,34.6
						c1.2,2.7,2.5,6.7,3.9,11.3c1.7,5.5,5.7,18.5,8.4,20.8c3.1,1.4,10.4-6.1,14-9.7c2-2,3.9-4,5.7-5.4
						c12.6-10.2,26.3-17.4,40.8-21.3c3.8-1,7.7,1.2,8.8,5c1,3.8-1.2,7.7-5,8.8c-12.5,3.4-24.5,9.7-35.6,18.7
						c-1.1,0.9-2.8,2.6-4.5,4.3C704.4,478.2,695.9,486.8,686.5,486.8z M685.8,472.4L685.8,472.4L685.8,472.4z"/>
				</g>
				<g>
					<g>
						<path class="st12" d="M883.1,929.2c-1.4,0-2.9-0.4-4.1-1.3c-3.2-2.3-4-6.7-1.7-9.9c0.2-0.3,24-34.2,45.5-82.5
							c19.2-43.2,40.4-107,33.6-167.9c-7.5-3.2-22.4-11.2-27.9-25.9c-2.6-2.3-8.2-7.5-13.7-13.5c-11.5-12.7-15.7-22-13.3-29.3
							c1.3-4,5-8.9,15.4-9.6c0.8-0.1,1.6,0,2.4,0.2c4.4,1.2,24.7,7.2,34.3,17.9c10.2-1,25.7,2,33.2,18.8c1.6,3.6,0,7.8-3.6,9.4
							c-3.6,1.6-7.8,0-9.4-3.6c-6-13.5-19.9-10.4-21.5-10c-3.2,0.8-6.5-0.6-8-3.5c-3.2-5.8-17.6-12.1-27.5-15
							c-0.7,0.1-1.1,0.2-1.5,0.3c0.5,1.7,2.5,6.5,11.1,15.7c6.4,6.9,12.9,12.4,12.9,12.5c1,0.9,1.8,2,2.2,3.3
							c4.2,13.7,23.5,20.1,23.7,20.1c2.6,0.8,4.6,3.1,4.9,5.9c8.7,65.5-13.8,134-34.3,180c-22,49.5-45.8,83.2-46.8,84.6
							C887.5,928.2,885.3,929.2,883.1,929.2z"/>
					</g>
					<g>
						<path class="st12" d="M935.4,610.6c-1,0-2.1-0.2-3.1-0.7c-3.5-1.7-4.1-4.3-6.4-14.1c-1.6-6.5-3.3-14.4-4.8-22.1
							c-3-15.5-6.6-36.8-6.3-50.2c0.2-6.5,1.2-14.3,7.5-17c2.6-1.1,5.6-1,8.3,0.3c5,2.5,11.1,9.3,22.1,42.5
							c3.6,11,6.7,21.7,8.5,28.2c9.5-1.2,26.1-0.5,37,14.9c2.3,3.2,1.5,7.7-1.7,9.9c-3.2,2.3-7.7,1.5-9.9-1.7
							c-9.5-13.6-27.6-8.3-28.4-8c-1.9,0.6-3.9,0.4-5.6-0.6c-1.7-0.9-2.9-2.5-3.4-4.4c0-0.2-4.2-15.9-9.6-32.5
							c-4.5-13.7-7.9-22.2-10.5-27.4c0.2,6.3,1.1,16.4,4,32.6c3.3,18.7,7.5,36.4,8.7,39.9c1,1.9,1.1,4.3,0.1,6.4
							C940.6,609.1,938.1,610.6,935.4,610.6z M939,597.3C939,597.3,939,597.3,939,597.3C939,597.3,939,597.3,939,597.3z
							 M938.6,597.1c0.1,0.1,0.3,0.1,0.4,0.2C938.9,597.2,938.8,597.2,938.6,597.1z M938.6,597.1
							C938.6,597.1,938.6,597.1,938.6,597.1C938.6,597.1,938.6,597.1,938.6,597.1z M938.6,597.1
							C938.6,597.1,938.6,597.1,938.6,597.1C938.6,597.1,938.6,597.1,938.6,597.1z M938.6,597.1
							C938.6,597.1,938.6,597.1,938.6,597.1C938.6,597.1,938.6,597.1,938.6,597.1z M938.6,597.1
							C938.6,597.1,938.6,597.1,938.6,597.1C938.6,597.1,938.6,597.1,938.6,597.1z M938.6,597.1
							C938.6,597.1,938.6,597.1,938.6,597.1C938.6,597.1,938.6,597.1,938.6,597.1z M938.6,597.1
							C938.6,597.1,938.6,597.1,938.6,597.1C938.6,597.1,938.6,597.1,938.6,597.1z"/>
					</g>
					<g>
						<path class="st12" d="M957.1,581.4c-0.2,0-0.4,0-0.6,0c-3.9-0.3-6.9-3.7-6.5-7.7c0-0.2,1.3-16.6,3.5-33.3
							c4.5-34,8.5-39.2,12.3-41.7c2.3-1.5,5.1-1.9,7.6-1c7.9,2.8,10.8,16.2,13.2,40c1.7,16.2,2.3,31.7,2.3,32.3
							c0.2,3.9-2.9,7.2-6.8,7.4c-3.9,0.2-7.2-2.9-7.4-6.8c-0.6-16.2-2.2-34.3-4.2-46.7c-2.2,11.7-4.6,29.6-6.3,50.8
							C963.9,578.5,960.8,581.4,957.1,581.4z"/>
					</g>
					<g>
						<path class="st12" d="M899.1,955.5c-2,0-4-0.8-5.4-2.5c-2.6-3-2.3-7.5,0.7-10.1c10.6-9.2,36.4-37.1,58.1-76.5
							c15.9-28.8,27.4-59.6,34.3-91.3c8.6-39.7,10-81.2,4.2-123.3c-0.1-0.9-0.1-1.7,0.1-2.6l8.1-35.4c0.3-1.2,0.9-2.3,1.7-3.3
							c12.9-13.8,24.4-28.5,29.7-37.4c-6.5,3.4-16,9.3-24.7,15.8c-2.5,1.8-5.8,1.9-8.3,0.1c-2.5-1.8-3.6-4.9-2.8-7.9
							c0-0.1,3.5-12,6.4-25c2.2-9.8,3.2-16.5,3.6-20.9c-5.7,10.1-13.5,29.8-19.5,50c-1.1,3.8-5.1,5.9-8.9,4.8
							c-3.8-1.1-5.9-5.1-4.8-8.9c0.2-0.6,4.6-15.4,10.6-30.7c7-17.8,14.8-34.4,25-35.8c3.4-0.5,6.6,0.7,8.8,3.3
							c3.9,4.5,5.3,12.9-0.4,39.3c-0.7,3.2-1.4,6.4-2.1,9.3c0.3-0.2,0.6-0.4,0.9-0.6c17.2-10.6,23.9-11.2,28.5-8.7
							c3.3,1.7,5.2,5.2,5.1,9.2c-0.2,4.7-2.5,12.8-19.1,33.4c-6.8,8.5-13.5,15.9-16.2,18.9l-7.4,32.2c5.9,43.5,4.4,86.3-4.6,127.4
							c-7.3,33.2-19.4,65.3-36,95.3c-28.3,51.3-59.7,78.7-61,79.8C902.4,954.9,900.8,955.5,899.1,955.5z"/>
					</g>
				</g>
				<g>
					<g>
						<path class="st12" d="M565.6,959.6c-0.9,0-1.8-0.2-2.7-0.5c-1.6-0.7-39.7-16.5-84.8-46.5c-41.9-27.9-97.6-73.7-125.2-133.7
							c-1.2-2.5-0.8-5.5,1-7.6c0.1-0.1,13.1-15.8,9.3-29.7c-0.1-0.5-0.2-1.1-0.3-1.6c0-0.8-1.2-21.6-20.8-25
							c-14.9-2.6-22.7,14-25.5,21.4c0.7,0.5,1.5,0.9,2.5,1.1c3.4,0.7,7.5-1.5,10.3-3.4c2.3-1.6,5.3-1.7,7.7-0.3
							c2.4,1.4,3.7,4.1,3.5,6.9c-0.5,5.4,0.3,14.1,3.3,16.4c3.1,2.4,3.7,6.9,1.3,10c-2.4,3.1-6.9,3.7-10,1.3
							c-5.5-4.2-7.8-11.2-8.6-17.4c-3.7,1-7.3,1.1-10.8,0.3c-8.8-2-13-8.8-13.4-9.6c-0.9-1.6-1.2-3.5-0.7-5.4
							c3.7-14.2,17.3-39.8,42.8-35.5c24.3,4.2,31.9,26,32.6,37.7c3.9,15.8-4.7,31.2-9.5,38.1c26.8,55.1,78.8,97.6,118.1,123.9
							c44,29.3,82.2,45.2,82.6,45.3c3.6,1.5,5.4,5.7,3.9,9.3C571.1,958,568.4,959.6,565.6,959.6z"/>
					</g>
					<g>
						<path class="st12" d="M542.3,995.3c-0.5,0-1-0.1-1.5-0.2c-1.5-0.3-36.8-8-82.3-37.5c-26.6-17.3-51.1-38.5-73-63
							c-27-30.3-49.9-65.9-68-105.7l-10.2-10.1c-2.8-2.8-2.8-7.3-0.1-10.1c2.8-2.8,7.3-2.8,10.1-0.1l11.1,11
							c0.6,0.6,1.1,1.3,1.5,2.1c17.6,38.8,39.8,73.5,65.9,102.9c20.9,23.6,44.4,43.9,69.8,60.5c43.3,28.3,77.7,35.8,78.1,35.9
							c3.8,0.8,6.3,4.6,5.5,8.5C548.5,993,545.6,995.3,542.3,995.3z"/>
					</g>
				</g>
				<g>
					<path class="st12" d="M336.1,715.4c-0.9,0-1.8-0.2-2.5-0.4c-3.1-1-5.2-3.9-5.2-7.2c0-3.4,2-6.4,5.1-7.5
						c0.2-0.1,0.4-0.1,0.6-0.2c23.3-32.5,31.4-76.2,21.1-114.8c-1-3.8,1.3-7.7,5.1-8.7c3.8-1,7.7,1.3,8.7,5.1
						c5.7,21.7,6.4,45.1,1.9,67.8c-4.5,22.7-14,44.1-27.5,62C341.2,714.4,338.4,715.4,336.1,715.4z"/>
				</g>
				<g>
					<path class="st12" d="M582.3,1297.8c-3.1,0-6-2-6.9-5.2c-13.2-46.3-53.5-75.2-96.2-105.8c-39.2-28.1-79.7-57.2-98.7-101.4
						c-7.8-18-11.3-37.5-14.8-56.4c-4.4-23.9-8.5-46.4-20.5-65.8c-4.6-7.4-10.2-14.1-16.1-21.2c-6.5-7.7-13.2-15.7-18.5-24.8
						c-24.8-42.2-14.2-93.7-1.3-142.8c1-3.8,4.9-6.1,8.7-5.1c3.8,1,6.1,4.9,5.1,8.7c-12.2,46.2-22.2,94.5-0.2,131.9
						c4.7,8,10.7,15.2,17.1,22.8c6,7.2,12.2,14.5,17.3,22.8c13.4,21.6,18,46.6,22.4,70.7c3.3,18.1,6.7,36.7,13.8,53.3
						c17.4,40.6,56.3,68.5,93.9,95.4c42.8,30.7,87,62.4,101.6,113.5c1.1,3.8-1.1,7.7-4.9,8.8
						C583.6,1297.7,582.9,1297.8,582.3,1297.8z"/>
				</g>
				<g>
					<path class="st12" d="M367.9,587.8c-32,0-65.1-10-67.2-10.6c-2.3-0.7-4.1-2.5-4.7-4.8c-0.7-2.3-0.2-4.8,1.4-6.6l48.3-57.5
						c1.4-1.6,3.4-2.5,5.5-2.5h20c2.4,0,4.6,1.2,5.9,3.2l38.2,57.5c2.1,3.1,1.4,7.3-1.6,9.6C402.1,584.9,385.2,587.8,367.9,587.8z
						 M315.4,566.4c22.9,5.6,62.5,11.9,83.8,1.7l-32-48.2h-12.8L315.4,566.4z M302.8,570.4L302.8,570.4L302.8,570.4z"/>
				</g>
				<g>
					<path class="st12" d="M351.1,520c-0.7,0-1.4-0.1-2.1-0.3c-2-0.6-49.7-15.6-95.6-52.7c-27.1-21.9-47.9-47-61.7-74.5
						c-17.3-34.5-23.6-73-18.7-114.2c4.2-35.8,14-67,29.1-92.6c13.1-22.2,30.2-40.5,50.9-54.2c27.7-18.5,56.7-25.3,76.1-27.8
						c24.1-3.1,43.7-1,54,1.9c17,4.9,52.4,15,85.5,42.9c40.7,34.2,64.5,83.8,70.8,147.3c3.4,34.4-3.3,67.6-19.9,98.8
						c-13.2,24.7-32.6,48.1-57.7,69.6c-42.5,36.3-86.1,54.4-87.9,55.2c-3.6,1.5-7.8-0.3-9.3-3.9c-1.5-3.6,0.3-7.8,3.9-9.3
						c0.4-0.2,43.6-18.1,84.3-53c23.7-20.3,41.9-42.3,54.2-65.4c15.2-28.6,21.4-59,18.2-90.5c-13.9-140-113.4-168.5-146.1-177.9
						c-18.7-5.4-72.3-6.6-118.3,24c-41.4,27.6-66.2,73.5-73.7,136.6c-4.5,38.4,1.3,74.1,17.3,106.1c12.9,25.7,32.3,49.2,57.9,69.8
						c43.8,35.3,90.4,50,90.9,50.1c3.8,1.2,5.9,5.2,4.7,8.9C356.9,518,354.1,520,351.1,520z"/>
				</g>
				<g>
					<path class="st12" d="M309.4,780.9c-10.9,0-20.7-5.9-27.8-16.6c-11.5-17.5-3.1-28.8,3-37.1c2.4-3.2,4.6-6.2,5.6-9.2
						c5.7-16.9,34.8-20,40.6-20.5c3.9-0.3,7.4,2.6,7.7,6.5c0.3,3.9-2.6,7.4-6.5,7.7c-10.6,0.9-26.3,5.1-28.2,10.8
						c-1.7,5.2-4.9,9.4-7.6,13.2c-5.7,7.7-8.6,11.6-2.6,20.8c4.3,6.6,10,10.2,15.9,10.2c0,0,0.1,0,0.1,0c6-0.1,11.9-3.8,15.9-10.1
						c2.1-3.3,6.5-4.3,9.8-2.2c3.3,2.1,4.3,6.5,2.2,9.8c-6.6,10.4-17,16.6-27.8,16.7C309.6,780.9,309.5,780.9,309.4,780.9z"/>
				</g>
			</g>
			<path class="st12" d="M633,812.4c-5.1-4.9-13.8-4.8-20.5-4.1c-7,0.8-13.8,3.1-19.3,7.6c-9.7,8-13,21.6-6.9,32.7
				c3.1,5.6,12.9,1.8,10.6-4.5c-2.4-6.6,1.4-14.1,7.3-17.5c3.5-2,7.5-2.7,11.5-2.7c4.7,0,9.5,1.9,14,0.5
				C634.9,823,637.1,816.3,633,812.4z"/>
			<path class="st12" d="M652.9,750.4c-18.8-19.6-53.9-10.3-73,3.9c-22.5,16.8-35.4,44.4-23,71.3c2.4,5.3,10.8,1.5,9.3-3.9
				c-6.3-21.4,6.7-42.9,24.2-54.4c8-5.3,17.1-9.1,26.6-10.1c10.3-1.1,19.4,1.8,28.8,5.5C653,765.5,657.6,755.3,652.9,750.4z"/>
			<path class="st12" d="M795.6,777.5c-3.8-6.8-13.1-9-20.4-9.7c-7.3-0.6-14.6,0.9-21.2,4.1c-6.2,3.1-11.4,8.1-14.8,14.1
				c-1.7,3-3.1,6.5-3.6,9.9c-0.6,3.6,0.6,6.8,0.5,10.3c-0.2,4.6,7,4.6,7.2,0c0.1-1.7,2.1-4.3,2.9-5.8c1.2-2.2,2.4-4.3,3.8-6.3
				c2.8-3.8,6.5-7.1,10.8-9c4.1-1.9,8.9-2.4,13.3-1.8c5.5,0.8,10,4,15.4,4.6C795.1,788.6,797.9,781.7,795.6,777.5z"/>
			<path class="st12" d="M783.5,711.8c-8.7-4.8-18.9-7.5-28.9-6.7c-19.7,1.6-36.6,15-43.1,33.5c-2.2,6.2,7.6,10.3,10.6,4.5
				c6.4-12.5,18.9-21.8,33.2-22.4c7-0.3,13.9,1.5,20,5c6.5,3.8,10.5,10.8,17,14.4c4.2,2.3,9.8-0.5,9.7-5.5
				C801.8,724.4,791.7,716.4,783.5,711.8z"/>
			<path class="st12" d="M784.5,844.3c-1.2-4.9-3.7-9.8-7.6-13.1c-5.1-4.3-11.1-4.3-17.3-3.4c-21.7,3.1-42.5,11.9-60.2,24.9
				c-8.9,6.5-18.3,15.7-29.6,17.6c-7.4,1.2-17.8-0.5-20.8-8.4c-2.4-6.5-11.4-3.9-10.3,2.8c2.7,16.5,21.7,23.7,36.5,20.7
				c19.1-3.8,33.4-19.8,50.4-28.3c9-4.5,18.7-7.8,28.6-10c2.9-0.7,8.1-2.6,11.1-1.9c-0.8-0.1,0.8,1.4,1.1,2.5c0.7,2,0.9,4,0.8,6.1
				c-0.3,9-5.5,17.7-10.4,24.9c-4.5,6.7-10.2,12.9-16.8,17.7c-17.5,12.6-37.3,12.3-56.8,4.5c-6.8-2.7-11.3,7-6.8,11.7
				c15.7,16.1,41.6,15.1,60.9,6.5c18.2-8.1,32.8-24.2,41.5-41.9C783.9,867.1,787.3,855.5,784.5,844.3z"/>
		</g>
		<g>
			<g>
				<path class="st14" d="M1516.7,769.9c-12.5,19.6-24.6,39.8-32.5,61.7s-11.3,46-6.2,68.7c1,4.6,2.6,9.4,6,12.7
					c3.4,3.3,9.2,4.5,12.9,1.5c1.9-1.5,3-3.9,4-6.1c4.9-10.1,11.9-19.1,20.4-26.3c6.5-5.4,16.9-9.5,22.7-3.4c2.8,3,3.3,7.4,4,11.4
					c1.5,9.6,4.7,19.3,11.5,26.2c6.8,7,17.7,10.4,26.5,6.3c9.5-4.5,13.6-15.8,21.7-22.5c6.9-5.7,16.8-7.5,25.3-4.6
					c9.3,19.2,18.8,39,31,56.6c3.5,5,9,10.6,14.7,8.4c5.9-2.3,6.6-11.4,12.4-14c5.8-2.6,11.7,3.2,15.8,8.1
					c11.5,14.1,24.8,26.7,39.4,37.5c2.3,1.7,4.9,3.4,7.7,2.9c7.4-1.4,4.6-14.2,10.6-18.8c3.4-2.6,8.6-1.4,11.7,1.5
					c3.2,2.9,4.8,7,6.6,10.9c6.2,13.7,14.8,26.6,26.8,35.6c12,9,27.7,13.8,42.3,10.5c2.8-0.6,5.6-1.5,8.4-0.9c4.1,0.9,7,4.6,10.9,6
					c5.7,1.9,12-2,14.9-7.2c2.9-5.2,3.2-11.5,3.4-17.4c2.6-65.5,4.8-132.5-15.3-194.9c-5.8-18.1-13.6-35.8-25.3-50.8
					c-17.6-22.7-43.9-38.6-72.2-43.5c-28.3-4.9-58.4,1.1-82.6,16.5c-5.9,3.8-12.3,8.3-19.3,7.4c-3.8-0.5-7.2-2.5-10.5-4.4
					c-22.2-12.5-48-19.9-73.3-16.6C1565.8,732.2,1530.4,748.5,1516.7,769.9z"/>
				<path class="st15" d="M1848.9,769.5c-17.6-22.7-43.9-38.6-72.2-43.5s-58.4,1.1-82.6,16.5c-5.9,3.8-12.3,8.3-19.3,7.4
					c-3.8-0.5-7.2-2.5-10.5-4.4c-22.2-12.5-48-19.9-73.3-16.6c-10.9,1.4-23.7,5.2-35.7,10.8c8.1,35,28.3,67.2,56.7,89.4
					c2.4-13.4,4.9-26.9,7.3-40.3c0.4-2.4,1.1-5.1,3.2-6.3c4.3-2.5,8.5,3.5,10.2,8.2c8.1,23.2,21.5,46.8,44.1,56.5
					c3.7,1.6,7.7,2.8,11.6,1.9c7.6-1.8,11.1-10.2,14.1-17.4c3-7.2,8.1-15.3,15.9-15c7.6,9.9,9.9,22.9,15.8,33.9s18.3,20.9,30,16.5
					c14.1-5.3,15.8-26.6,29.2-33.5c8.7-4.5,19.7-1.2,27.4,4.8c7.7,6,13.2,14.4,19.7,21.8c9.6,10.8,21.5,19.5,34.8,25.3
					c4.1,1.8,8.4,3.3,12.8,3c-2.5-23.2-6.8-46-14-68.2C1868.3,802.3,1860.6,784.6,1848.9,769.5z"/>
				<path class="st6" d="M1533.3,875.7c-22.8,47.2-29.7,101.8-19.3,153.2c4.6,22.7,4.7,45.7,13.4,67.2c4.6,11.3,10.4,22.4,19,31.1
					c11.8,11.9,27.8,18.5,43.4,24.7c17.6,7.1,33.4,17.3,52.1,19.9c38.1,5.3,79,10,113-7.8c13.8-7.2,25.5-17.8,36-29.3
					c5.4-5.9,10.6-12.2,17.1-16.7c12.5-8.7,29.1-10.6,40.6-20.7c12.8-11.2,16.1-29.4,18.6-46.2c1.4-9.1,2.7-18.6-0.8-27.1
					c-4.8-11.5-18.8-18.2-30.7-14.6c-4.4,1.3-10,3.6-13,0c-2.3-2.8-0.9-7-2-10.4c-2-5.8-10-6.5-16-5c-6,1.5-12.2,4-18.3,2.7
					c-6.1-1.3-11.2-8.8-7.4-13.7c-14.3-12.5-28.1-20-46.7-23.1c-6.8-1.1-14.1-1-20.3-4c-14.9-7.3-18.1-29.8-33.7-35.4
					c-12.1-4.4-26,3.7-38.3-0.4c-11.3-3.8-17.3-16.6-28.1-21.6c-10.4-4.8-22.7-1.1-32.9,4.1c-3.6,1.9-7.6,4-11.5,2.8
					c-2.1-0.7-3.8-2.2-5.2-3.9c-4.7-5.5-7-12.7-11.5-18.3S1539.5,871.9,1533.3,875.7z"/>
				<path class="st6" d="M1957.9,975.9c-1,3.3-0.7,6.8-0.5,10.3c0.7,9.6,0.8,19.2-0.9,28.6c-4.7,25.7-22.9,46.7-41.3,65.3
					c-17.5,17.7-35.8,34.5-54.8,50.4c-15,12.5-30.8,24.7-49.1,31.6c-10.5,4-22.5,6.7-29.1,15.8c-8,11.1-2.6,29.1,10.1,33.9
					c11.2,4.3,23.7-1,34.3-6.7c67.1-36.5,119.7-95.1,161.7-158.9c2.1-3.1,4.2-6.4,7.2-8.6c4-3,9-4,13.8-5.5
					c18.2-5.9,33-21.4,37.9-39.9c4.9-18.5-0.2-39.3-13.1-53.5c-6.3-6.9-17.4-14.1-27.1-9.9c-7,3.1-6.4,8.7-8,15.2
					C1993.8,965.4,1963.9,956.6,1957.9,975.9z"/>
				<path class="st6" d="M1459.7,1147.6c-9.1-10.7-18.3-21.3-27.4-32c-5.1-5.9-10.1-11.8-14.6-18.2c-5.8-8.3-10.5-17.4-14.8-26.6
					c-25.4-54.8-36.4-117.5-23.6-176.6c4.3-20-2.6-44.7-17.6-58.6c-4-3.7-8.6-6.9-12.2-11c-3.7-4.3-6.3-9.5-7.4-15
					c5.6-3.4,11.1,9.3,17,6.5c-0.5-8.7-1-17.4-1.6-26.2c-0.2-3.2-0.1-6.9,2.5-8.7c3-2.1,7.4,0.1,9.2,3.4c1.7,3.2,1.7,7.1,2.3,10.7
					s2.2,7.6,5.6,8.9c6.6-9.4,3.3-23,8.9-33.1c1.6-2.9,5-5.6,7.9-4.1c1,0.5,1.7,1.4,2.3,2.4c6.8,11,1.2,27.1,9.5,36.9
					c2.7-4.9,5.4-9.8,8.1-14.7c3.1-5.6,6.3-11.4,11-15.7c4.7-4.4,11.3-7.2,17.6-5.9c1.4,0.3,2.9,0.9,3.9,1.9
					c2.2,2.2,2.1,5.7,1.9,8.8c-1.2,14.2-3,28.3-5.3,42.4c4.5-3.4,11.4-0.4,14.6,4.2c7.2,10.4,2.6,24.7-4.1,35.4
					c-11.3,18.1-28.2,32.6-47.7,41.1c-1.2,45.7,12.9,87.9,24.7,132c2.6,9.5,5.2,19.1,9.5,28.1c7.8,16.2,21,30,25.1,47.5
					C1468.2,1124.1,1466.6,1136.5,1459.7,1147.6z"/>
				<path class="st9" d="M1644.1,716.7c-3.3,3.6-6,7.9-6.5,12.8c-0.5,5.3,1.6,10.4,4.3,15c2.7,4.7,6,9.1,9.7,13
					c2.2,2.3,4.6,4.5,7.7,5.3c6.4,1.7,12.3-3.3,18.4-6c11.4-5.1,25.2-2.4,36.2-8.3c4.6-2.4,8.6-7.1,7.9-12.2
					c-0.5-3.5-3.2-6.2-5.8-8.6c-8.8-8-20.1-22.4-31.9-24.5C1669.7,700.6,1653.9,706,1644.1,716.7z"/>
				<path class="st14" d="M1628.1,649.6c-18.1-27.9-51.6-41.5-84-49s-66.3-11-96-25.8c-9.4-4.7-19.5-13-17.9-23.4
					c8.1-4.2,20,7,26,0.2c-6-5.8-12-11.7-16.2-18.8c-4.2-7.2-6.4-15.9-4.1-23.9c5.5,5.1,11.6,9.4,18.3,12.7c2.5,1.3,5.3,2.4,8.1,2.2
					c2.8-0.3,5.7-2.5,5.7-5.3c0-2.8-2.5-4.9-4.4-7c-5.5-6-6.8-15.5-3.2-22.8c2.2-4.4,6.5-8.2,11.5-8c3.1,0.1,5.9,1.7,8.6,3.2
					c10,5.7,20.4,10.8,31.3,14.4c21.7,7.3,44.8,8.8,67.5,12c23,3.3,45.8,8.3,68,15.2c32.1,9.8,64.9,24.9,82.9,53.1
					c11.4,17.8,15.8,39.7,13.9,60.8c-1.9,21.1-9.8,41.4-21.3,59.2c-5.8,9.1-13.7,18.2-24.4,19.6c-10.4,1.3-19.8-4.8-29.8-6.2
					c-6.3-0.9-17.8,2.3-22.8-2.8c-5.3-5.4-3.5-20.6-5-27.9C1638.3,669.9,1634.3,659.2,1628.1,649.6z"/>
				<path class="st16" d="M1574.6,1141.9c-7.5,3.4-16.2,0.3-23.7-3.1c-18.8-8.6-36.7-19.2-53.2-31.7c-9.6,27.4-20.1,56.1-41.9,75.3
					c15.4,12.9,30.9,25.8,46.3,38.7c2.8,2.4,5.8,4.9,7.2,8.3c1.4,3.5,1,7.5,0.3,11.3c-3.7,19.9-13.8,38-21,56.9
					c-10.1,26.2-14.8,54.4-13.7,82.5c-37.3,53.7-63.9,110.1-81.1,173.2c20.9,19.9,40.9,42.4,66.2,56.2
					c21.2,11.6,44.7,18.4,68.4,23.5c34.2,7.3,69.6,11,104.2,5.5c34.5-5.5,68.3-20.8,91.6-46.8c-27-60.5-40.1-120.3-40.1-186.5
					c0-3.1,0.8-7.1,3.8-7.5c23.9-42.2,21.9-86.5,22.2-135c21.4-8.5,45.5-22.6,66.9-31.1c3-1.2,6.1-2.5,8.1-5.1
					c4-5.3,1-12.8-2.2-18.7c-5.9-11-11.7-22-17.6-33c-3.5-6.6-7.4-13.6-14.1-17.1c-11.9-6.2-25.8,1.6-38.2,6.9
					c-19.6,8.5-41.8,10.8-62.7,6.6c-11.7-2.3-23-6.7-34.2-11C1601.5,1154.3,1589.5,1147.6,1574.6,1141.9z"/>
				<path class="st6" d="M1352.9,1728.8c-0.8,3.3-1.6,6.8-0.2,9.9c2.1,4.5,7.7,5.9,12.7,6.7c5.2,0.8,10.7,1.7,15.7-0.1
					c9.2-3.2,13.5-13.5,16.8-22.7c12-34.4,24.1-68.9,36.1-103.3c2.1-6.1,4.3-12.3,4.4-18.8c0.1-8-2.9-15.7-7-22.6
					c-6.8-11.3-19.4-29.7-29.3-15.8c-9.9,13.9-13.3,40.2-18.4,56.5C1372.3,1655.1,1362.1,1691.8,1352.9,1728.8z"/>
				<path class="st6" d="M1678.1,1685.6c20.6,28.6,41.2,57.2,61.7,85.8c3.5,4.8,7.1,9.8,12.4,12.7c5.3,2.8,12.6,2.7,16.4-1.8
					c2-2.4,2.8-5.5,3.1-8.6c2-16.3-4.7-32.2-11.8-47c-14.1-29.1-30.4-57.2-48.7-83.9c-11-16-41.7-54.3-62.5-29.4
					C1631.2,1634.5,1666.4,1669.3,1678.1,1685.6z"/>
				<path class="st11" d="M1265.4,1785.7c-5.1,4.4-10.4,9.6-10.8,16.3c30.7,14.5,66.9,11.6,99.7,2.9c6.6-1.7,13.2-3.7,18.8-7.6
					c13-8.8,18.2-27.4,11.6-41.7c-1.3-2.9-3.1-5.7-5.7-7.6c-10.6-8.1-39.9-4-52.3,0.1C1304.5,1755.5,1283,1770.6,1265.4,1785.7z"/>
				<path class="st11" d="M1771.9,1827.2c27.2,7.8,56,9.9,84,6c8.5-1.2,18.3-4,21.3-12c2.3-6.2-0.5-13.2-4.7-18.2
					c-6.2-7.3-15.2-11.7-24-15.5c-14.9-6.4-30.6-11.7-46.8-12.1c-11.5-0.3-21.6,2.6-32,7.2c-6.1,2.7-15.4,4.6-20.1,9.5
					C1734.4,1808,1758.8,1823.5,1771.9,1827.2z"/>
				<path class="st9" d="M1956.5,389.9C1877.5,411.5,1817.7,490,1818,572c0.3,82,60.5,160.1,139.7,181.1
					c-9.3,18.4-18.8,39.4-28,57.8c-2.2,4.3-4.4,8.9-3.8,13.6c1.2,9.8,12.7,14.2,22.4,15.9c17.6,3,35.7,3.6,53.5,1.7
					c3.6-0.4,7.6-1.1,9.6-4.1c2.3-3.6,0.6-8.3-1.2-12.2c-8.3-18.2-16.7-36.4-25-54.6c31-8.4,56.9-29.3,81.8-49.6
					c14-11.5,28.2-23,39.4-37.2c38.3-48.3,36.5-117.6,19.6-176.8c-8.8-30.8-22.4-62.2-48.6-80.7c-21.1-14.9-47.5-19.3-72.9-23.5
					C1987.2,400.5,1973.4,385.3,1956.5,389.9z"/>
				<path class="st17" d="M2126,507.4c-8.8-30.8-22.4-62.2-48.6-80.7c-21.1-14.9-47.5-19.3-72.9-23.5c-13.9-2.2-25.6-12.6-38.4-14.1
					c-18.1,20.2-27.8,48.3-25,75.4c4.1,39.3,32.9,74.5,70,88.2c17,6.3,38.1,10.8,44.4,27.8c5.1,13.9-2.8,29.3-1.2,43.9
					c1.9,16.2,16,29.4,32,33c12.9,3,26.5,0.5,38.7-5.1C2143.4,608.3,2139.5,554.7,2126,507.4z"/>
				<g>
					<g>
						<g>
							<g>
								<path class="st12" d="M1665.2,1178c-17.6,0-36-2.3-55.2-6.9c-50.6-12.1-87.7-37.8-110.5-76.3
									c-12.7-21.5-27.5-58.9-25.5-114.9c1.2-33.3,7.6-57.2,7.9-58.2c1-3.8,5-6,8.8-5c3.8,1,6,5,5,8.8
									c-0.3,0.9-24.7,93.1,16.2,162.1c20.7,35,54.9,58.4,101.5,69.6c38.9,9.3,74.3,8.6,105-2.1c24.5-8.6,46.4-23.6,64.9-44.6
									c31.9-36.2,43.1-78.3,43.2-78.7c1-3.8,4.9-6.1,8.7-5.1c3.8,1,6.1,4.9,5.1,8.7c-0.5,1.8-11.9,45.4-46,84.1
									c-20.1,23-44,39.4-70.9,48.9C1705.4,1174.8,1685.9,1178,1665.2,1178z"/>
							</g>
							<g>
								<path class="st12" d="M1804.9,1101.2c-3.9,0-7.1-3.2-7.1-7.1c0-3.9,3.2-7.1,7.1-7.1c33.9-0.1,49.1-26.4,60.5-54.9
									c3.3-8.3,2.3-15.2-3-21.1c-4.3-4.7-9.6-6.9-9.7-7c-3.6-1.5-5.4-5.6-3.9-9.3c1.5-3.6,5.6-5.4,9.3-3.9
									c0.8,0.3,8.5,3.6,14.9,10.6c9,9.9,11,22.7,5.7,35.9c-5.4,13.6-12.5,29.2-23.8,41.7
									C1841.5,1093.7,1824.7,1101.2,1804.9,1101.2C1804.9,1101.2,1804.9,1101.2,1804.9,1101.2z"/>
							</g>
							<g>
								<path class="st12" d="M1481.5,1006.7c-1.3,0-2.5-0.3-3.7-1c-21.2-12.9-34-29.7-38-49.9c-3.5-17.5,0-34.5,3.9-48.9
									c7.3-27,38.4-26.6,53.8-22.7c3.8,1,6.1,4.9,5.1,8.7c-1,3.8-4.9,6.1-8.7,5.1c-1.4-0.4-31-7.5-36.5,12.6
									c-8,29.4-10.1,59.7,27.8,82.8c3.4,2.1,4.4,6.4,2.4,9.8C1486.2,1005.4,1483.9,1006.7,1481.5,1006.7z"/>
							</g>
							<g>
								<g>
									<path class="st12" d="M1477.4,977.7c-3.3-2.3-6.4-4.3-9-7.4c-2.6-3.3-5.3-6.7-7.5-10.2c-4.2-6.7-6.9-14.9-6.7-22.8
										c0.2-7.3,1.7-15.5,5.3-21.9c3.5-6.1,9.8-14.1,17.7-13.3c4.3,0.5,8,6.3,3.8,9.7c-2.1,1.7-4.6,2.2-6.5,4.1
										c-2.1,2.1-3.9,4.3-5.3,7c-2.3,4.5-3.3,10.9-3.4,16c-0.1,5.9,2.2,11.4,4.9,16.5c3.1,5.9,6.6,11.8,11.8,16
										C1486.1,974.2,1481.2,980.3,1477.4,977.7L1477.4,977.7z"/>
								</g>
							</g>
							<g>
								<g>
									<path class="st12" d="M1856.9,1010.8c4.1,6.5,4.1,14.1,3.1,21.6c-0.5,3.8-1.8,7.4-3.2,11c-1.3,3.4-2.4,7-3.9,10.3
										c-3.2,6.6-9.4,12.4-14.8,17.2c-2.6,2.3-5.8,4.8-8.9,6.4c-2.9,1.5-6.2,3.3-9.3,4c-5.7,1.3-8.9-6.5-3.8-9.5
										c4.8-2.9,10-5.1,14.3-8.8c4.5-3.8,9.6-8.6,12.5-13.8c2.9-5.1,5.3-11.2,7-16.8c1.9-6.3,2.6-12.8,1.5-19.3
										C1850.8,1009.7,1855.1,1007.8,1856.9,1010.8L1856.9,1010.8z"/>
								</g>
							</g>
						</g>
						<g>
							<path class="st12" d="M1455.8,1364.6c-0.2,0-0.4,0-0.5,0c-3.9-0.3-6.9-3.7-6.6-7.6c0.1-0.9,1.8-23.1,10.6-53.7
								c8.1-28.3,24.2-69.4,54.2-104.5c2.6-3,7.1-3.3,10.1-0.8c3,2.6,3.3,7.1,0.8,10.1c-54.4,63.6-61.4,149.2-61.5,150.1
								C1462.6,1361.8,1459.5,1364.6,1455.8,1364.6z"/>
						</g>
						<g>
							<path class="st12" d="M1668.8,1429c-0.9,0-1.8-0.2-2.7-0.5c-3.6-1.5-5.4-5.7-3.9-9.3c52.3-126.1,9-212.1,8.5-212.9
								c-1.8-3.5-0.5-7.8,3-9.6c3.5-1.8,7.8-0.5,9.6,3c0.5,0.9,12.1,23.7,16.9,62.9c4.4,35.9,3.6,93.2-25,162.1
								C1674.2,1427.3,1671.5,1429,1668.8,1429z"/>
						</g>
						<g>
							<path class="st12" d="M1497.9,1234.6c-1.3,0-2.6-0.3-3.8-1.1l-63.4-39.5c-1.6-1-2.8-2.6-3.2-4.5c-0.4-1.9-0.1-3.8,0.9-5.4
								l42.1-66.6c2-3.1,5.9-4.2,9.2-2.6l70.7,35.5l7.5-4.4c3.4-2,7.8-0.9,9.8,2.5c2,3.4,0.9,7.8-2.5,9.8l-10.8,6.4
								c-2.1,1.2-4.7,1.3-6.8,0.2l-68.4-34.3l-34.8,55.1l57.3,35.7c3.3,2.1,4.4,6.5,2.3,9.8
								C1502.6,1233.5,1500.3,1234.6,1497.9,1234.6z"/>
						</g>
						<g>
							<path class="st12" d="M1693,1266.8c-3.6,0-6.7-2.8-7.1-6.4c-0.4-3.7,2.2-7,5.8-7.7c5.4-1.7,42.2-20.5,76.6-38.7l-31-58.5
								c-1.8-3.5-0.5-7.8,3-9.6c3.5-1.8,7.8-0.5,9.6,3l34.4,64.8c0.9,1.7,1.1,3.6,0.5,5.4c-0.6,1.8-1.8,3.3-3.5,4.2
								c-0.2,0.1-20.2,10.7-40.7,21.2c-42.4,21.9-44.9,22.1-46.9,22.3C1693.5,1266.8,1693.2,1266.8,1693,1266.8z M1692.3,1252.6
								C1692.3,1252.6,1692.3,1252.6,1692.3,1252.6C1692.3,1252.6,1692.3,1252.6,1692.3,1252.6z"/>
						</g>
						<g>
							<g>
								<path class="st12" d="M1466.7,1144.1c-2.3,0-4.5-1.1-5.9-3.1c-0.9-1.3-22.2-32.6-41.6-78.4
									c-18.1-42.5-37.7-105.8-28.7-165.9c0.4-2.7,2.4-5,5-5.8c0.2,0,17.7-5.4,21.6-17.7c0.4-1.3,1.2-2.4,2.2-3.3
									c10.6-8.8,20.5-19.8,22.1-24.6c-0.2,0-0.4-0.1-0.6-0.1c-8.9,2.5-22.1,8-25,13c-1.6,2.8-5,4.2-8.1,3.3
									c-1.3-0.4-13.6-3.3-19.1,8.5c-1.7,3.6-5.9,5.1-9.5,3.5c-3.6-1.7-5.1-5.9-3.5-9.5c7.2-15.5,21.5-18.1,31.1-17.1
									c9.2-9.6,27.8-14.8,31.8-15.9c0.8-0.2,1.6-0.3,2.4-0.2c9.8,0.9,13.3,5.6,14.5,9.5c2.2,7.1-1.7,15.5-12.8,27.3
									c-5,5.3-10.2,9.9-12.7,12.1c-5.3,13.3-18.9,20.4-26,23.3c-4,31.8-1.8,83.2,28.3,154c18.9,44.5,40.1,75.7,40.3,76
									c2.2,3.3,1.4,7.7-1.9,9.9C1469.5,1143.7,1468.1,1144.1,1466.7,1144.1z"/>
							</g>
							<g>
								<path class="st12" d="M1423.7,851.1c-2.7,0-5.3-1.5-6.5-4.1c-1-2.1-0.8-4.5,0.2-6.4c1.1-3.2,5.2-19.3,8.5-36.2
									c2.4-12.5,3.5-21.1,4-26.9c-5.3,11.5-12.2,31.3-18,51.8c-0.5,1.9-1.8,3.5-3.5,4.4c-1.7,0.9-3.7,1.1-5.6,0.5
									c-0.6-0.2-16.7-5.2-25.4,6.7c-2.3,3.2-6.8,3.9-10,1.6c-3.2-2.3-3.9-6.8-1.6-10c10.2-13.9,25.3-14.5,34.2-13.4
									c1.8-6,4.7-15.5,8.1-25.3c10.6-30.5,16.5-36.7,21.2-39c2.6-1.2,5.5-1.3,8.1-0.2c6.1,2.7,6.9,10.1,7,16.2
									c0.1,12.4-3.5,31.9-6.5,46.1c-1.5,7.1-3.2,14.3-4.7,20.2c-2.4,9.1-3,11.6-6.5,13.2C1425.7,850.9,1424.7,851.1,1423.7,851.1z
									 M1420.2,837.8C1420.2,837.8,1420.2,837.8,1420.2,837.8C1420.2,837.8,1420.2,837.8,1420.2,837.8z M1420.6,837.6
									c-0.2,0.1-0.3,0.1-0.4,0.2C1420.3,837.7,1420.5,837.6,1420.6,837.6z M1420.7,837.6C1420.6,837.6,1420.6,837.6,1420.7,837.6
									C1420.6,837.6,1420.6,837.6,1420.7,837.6z M1420.7,837.6C1420.7,837.6,1420.7,837.6,1420.7,837.6
									C1420.7,837.6,1420.7,837.6,1420.7,837.6z"/>
							</g>
							<g>
								<path class="st12" d="M1404.2,824c-3.7,0-6.9-2.9-7.1-6.7c-1.1-17.5-2.7-32.5-4.4-43.1c-1.7,11-3.2,25.9-4,39.2
									c-0.2,3.9-3.6,6.9-7.5,6.7c-3.9-0.2-6.9-3.6-6.7-7.5c0-0.6,0.8-14.8,2.6-29.6c3.4-28.6,7.2-35.1,13.1-37
									c2.5-0.8,5.3-0.4,7.5,1.1c3.7,2.5,7.3,7.3,10.9,38.8c1.8,15.4,2.7,30,2.7,30.6c0.2,3.9-2.7,7.3-6.7,7.6
									C1404.5,824,1404.4,824,1404.2,824z"/>
							</g>
							<g>
								<path class="st12" d="M1451.6,1167.9c-1.7,0-3.4-0.6-4.8-1.8c-1.2-1.1-29.6-26.8-54.8-74.3c-14.8-27.9-25.4-57.5-31.6-88.1
									c-7.6-37.8-8.4-77.2-2.3-117l-6.2-29.4c-2.5-2.9-8.5-9.7-14.5-17.5c-15-19.4-17-26.9-17.1-31.3c-0.1-3.9,1.8-7.3,5.1-8.9
									c5.3-2.7,12.7-0.4,26.2,8.3c-0.5-2.3-1-4.7-1.5-7.2c-4.9-24.6-3.4-32.4,0.3-36.6c2.2-2.5,5.3-3.6,8.6-3.1
									c5.7,0.9,12.4,5.6,22.8,33.6c5.3,14.1,9.1,27.8,9.2,28.4c1.1,3.8-1.2,7.7-5,8.8c-3.8,1.1-7.7-1.2-8.8-5
									c0-0.1-3.4-12.3-8.1-25.1c-3.1-8.5-5.6-14.3-7.7-18.3c1.2,10.3,4.5,25.8,8.2,39.2c0.8,3-0.4,6.1-2.9,7.8
									c-2.5,1.7-5.9,1.6-8.3-0.3c-7-5.4-14.7-10.5-20.4-13.7c5.1,8.4,14.9,21.1,25.4,32.8c0.8,0.9,1.4,2.1,1.7,3.3l6.9,32.5
									c0.2,0.9,0.2,1.7,0.1,2.6c-6,38.5-5.4,76.4,1.9,112.9c5.8,29.2,15.9,57.5,30,84.1c19.2,36.4,42.4,62.3,52,70.9
									c2.9,2.6,3.2,7.1,0.5,10.1C1455.5,1167.1,1453.6,1167.9,1451.6,1167.9z"/>
							</g>
						</g>
						<g>
							<g>
								<path class="st12" d="M1757.3,1176.9c-2.8,0-5.5-1.7-6.6-4.5c-1.4-3.7,0.4-7.8,4-9.2l0,0c0.4-0.1,35.6-14.1,76.3-40.3
									c36.3-23.4,84.4-61.4,109.9-111.2c-4.3-6.6-11.8-20.8-8-35.2c0.9-10.9,8.3-31,31-34.5c23.9-3.7,36.2,20.4,39.4,33.6
									c0.4,1.8,0.1,3.7-0.8,5.3c-0.4,0.7-4.5,7.2-12.9,8.9c-3.1,0.6-6.3,0.5-9.5-0.3c-1.2,7.1-4,12.3-8.3,15.5
									c-3.2,2.3-7.6,1.7-10-1.5c-2.3-3.2-1.7-7.6,1.5-10c2.6-1.9,3.5-9.8,3.1-14.5c-0.2-2.8,1.2-5.4,3.6-6.8
									c2.4-1.4,5.4-1.2,7.7,0.4c3.5,2.5,6.6,3.6,8.9,3.2c0.6-0.1,1.2-0.3,1.7-0.6c-2.4-7-9.1-21.2-22.2-19.2
									c-7.4,1.1-12.6,4.9-15.9,11.4c-2.7,5.3-3.1,10.6-3.1,10.6c0,0.5-0.1,1.1-0.3,1.6c-1.8,6.2,0.3,12.9,2.3,17.5
									c2.5,5.5,5.6,9.3,5.6,9.4c1.7,2.1,2.1,5.1,0.9,7.6c-26.3,54.7-78.2,96-117.1,120.9c-41.9,26.9-77.1,40.8-78.6,41.4
									C1759.1,1176.7,1758.2,1176.9,1757.3,1176.9z"/>
							</g>
							<g>
								<path class="st12" d="M1778.2,1210c-3.3,0-6.3-2.4-7-5.8c-0.7-3.9,1.8-7.6,5.6-8.4c0.3-0.1,31.9-6.5,72-31.7
									c23.5-14.8,45.3-33,64.8-54.3c24.4-26.6,45.2-57.9,61.9-93.2c0.4-0.8,0.9-1.5,1.5-2.1l10.4-9.9c2.8-2.7,7.4-2.6,10.1,0.2
									c2.7,2.8,2.6,7.4-0.2,10.1l-9.4,9c-17.3,36.2-38.9,68.5-64.1,95.9c-20.4,22.2-43.3,41.3-68,56.7
									c-42.2,26.4-74.9,32.9-76.2,33.2C1779.1,1210,1778.7,1210,1778.2,1210z"/>
							</g>
						</g>
						<g>
							<path class="st12" d="M1971.6,956.6c-2.4,0-5.1-1-7.2-3.9c-12.2-16.7-20.6-36.6-24.4-57.5c-3.8-21-2.8-42.6,2.8-62.4
								c1.1-3.8,5-6,8.8-4.9c3.8,1.1,6,5,4.9,8.8c-9.9,35-3.2,74.9,17.4,104.9c0.1,0,0.3,0.1,0.4,0.1c3,1.2,5,4.2,4.9,7.5
								c-0.1,3.2-2.2,6.1-5.3,7C1973.3,956.4,1972.5,956.6,1971.6,956.6z M1977,953C1977,953,1976.9,953,1977,953
								C1976.9,953,1977,953,1977,953z M1975.9,944.2L1975.9,944.2L1975.9,944.2z"/>
						</g>
						<g>
							<path class="st12" d="M1736.8,1486.7c-0.7,0-1.4-0.1-2.1-0.3c-3.8-1.1-5.9-5.1-4.8-8.9c14.2-46.8,55.4-75.3,95.2-102.8
								c34.8-24.1,70.9-49,87.4-85.8c6.8-15,10.2-32,13.5-48.5c4.4-22.1,9-45,21.7-64.7c4.8-7.5,10.6-14.2,16.3-20.7
								c5.9-6.9,11.6-13.3,16-20.6c20.6-33.8,12.2-78.1,1.8-120.5c-0.9-3.8,1.4-7.7,5.2-8.6c3.8-0.9,7.7,1.4,8.6,5.2
								c11.1,45.4,20,92.9-3.5,131.3c-5.1,8.3-11.3,15.5-17.4,22.5c-5.5,6.4-10.8,12.4-15,19.1c-11.2,17.4-15.3,38-19.7,59.8
								c-3.5,17.2-7,35.1-14.5,51.6c-18.2,40.4-55.9,66.5-92.3,91.7c-39.5,27.3-76.9,53.2-89.6,95.2
								C1742.7,1484.7,1739.9,1486.7,1736.8,1486.7z"/>
						</g>
						<g>
							<path class="st12" d="M1946.3,839.1c-19.6,0-34.4-3.9-44.2-11.7c-2.9-2.3-3.5-6.5-1.4-9.6l35.9-52.1c1.4-2,3.6-3.1,6-3.1
								l18.3,0.3c2.1,0,4.1,1,5.4,2.6l43.4,53.5c1.5,1.9,2,4.3,1.3,6.6c-0.7,2.3-2.5,4.1-4.8,4.7c-0.7,0.2-18.4,5.3-39.8,7.6
								C1959.3,838.7,1952.6,839.1,1946.3,839.1z M1916.7,819.7c19.1,9.1,54,4.3,74.9-0.4l-34.3-42.2l-11.2-0.2L1916.7,819.7z"/>
						</g>
						<g>
							<path class="st12" d="M1960.9,777.1c-3.1,0-5.9-2-6.8-5.1c-1.1-3.8,1.1-7.7,4.9-8.8c0.6-0.2,43.8-13,84.2-44.7
								c23.6-18.4,41.6-39.6,53.7-62.9c15.1-28.9,20.9-61.4,17.3-96.5c-5.8-57.8-27.8-100.2-65.2-126
								c-41.5-28.6-90.4-28.4-107.6-23.7c-121.4,32.6-132.6,128.8-136.2,160.4c-3.3,28.7,1.8,56.7,15.3,83.1
								c10.9,21.3,27.3,41.8,48.8,60.7c36.7,32.5,75.7,49.4,76.1,49.6c3.6,1.6,5.3,5.7,3.7,9.4c-1.6,3.6-5.7,5.3-9.4,3.7
								c-1.7-0.7-41.5-18-79.9-52c-22.8-20.1-40.2-42-52-64.9c-14.8-28.9-20.5-59.6-16.8-91.2c6.8-58.3,29.5-103.5,67.4-134.3
								c30.9-25.1,63.6-33.9,79.3-38.1c9.6-2.6,27.7-4.2,49.8-1c17.8,2.6,44.3,9.3,69.6,26.7c18.8,13,34.3,30,46,50.7
								c13.5,23.8,22,52.6,25.3,85.6c3.8,38-2.6,73.2-19,104.7c-13.1,25.1-32.6,47.8-57.8,67.6c-42.7,33.3-86.8,46.4-88.7,46.9
								C1962.2,777,1961.5,777.1,1960.9,777.1z"/>
						</g>
						<g>
							<path class="st12" d="M1599.2,1629.2c-11.8,0-23.6-0.7-35.5-2.1c-36.4-4.2-73-15-108.7-32c-60.7-28.9-97.4-65.3-98.9-66.9
								c-2.3-2.3-2.7-5.8-1.1-8.6l94.6-165.7c2-3.4,6.3-4.6,9.7-2.7c3.4,2,4.6,6.3,2.7,9.7l-91.8,160.8c10.9,9.9,43.9,38,91.5,60.6
								c34.2,16.2,69.3,26.5,104.1,30.5c41.5,4.8,82.8,0.7,123-12.2l-27-177.9c-0.6-3.9,2.1-7.5,6-8.1c3.9-0.6,7.5,2.1,8.1,6
								l27.9,183.8c0.5,3.4-1.5,6.7-4.7,7.8C1666.3,1623.6,1632.9,1629.2,1599.2,1629.2z"/>
						</g>
						<g>
							<g>
								<path class="st12" d="M1356.1,1758c-5.1,0-10.2-1.4-14.6-4.2c-9.1-5.7-14.1-16.3-12.7-26.9c8.4-65,53.1-174.8,55-179.4
									c1.5-3.6,5.7-5.4,9.3-3.9c3.6,1.5,5.4,5.7,3.9,9.3c-0.5,1.1-45.9,112.6-54.1,175.8c-0.7,5.1,1.8,10.3,6.2,13
									c3.8,2.4,8.3,2.7,12.4,0.9c4.1-1.8,6.9-5.3,7.8-9.7c5.4-27.6,15.8-63.3,31-106c11.2-31.7,21.1-55.7,21.2-56
									c1.5-3.6,5.7-5.4,9.3-3.9c3.6,1.5,5.4,5.7,3.9,9.3c-0.4,0.9-38.7,95-51.3,159.3c-1.7,8.9-7.8,16.4-16.1,20
									C1363.5,1757.2,1359.8,1758,1356.1,1758z"/>
							</g>
							<g>
								<path class="st12" d="M1291,1812.9c-9.4,0-18.8-1.1-27.4-4.1c-10.3-3.6-12.9-9.9-13.3-14.5c-0.7-7.5,2.9-20.5,41.5-47.4
									c19.9-13.9,39.6-24.9,40.5-25.3c3.4-1.9,7.8-0.7,9.7,2.8c1.9,3.4,0.7,7.8-2.8,9.7c-0.2,0.1-20,11.2-39.3,24.6
									c-35.8,24.9-35.4,34-35.4,34.4c0,0.4,1.1,1.4,3.8,2.3c6.8,2.4,14.7,3.4,23,3.4c36.3,0,81.2-19.4,89.1-28.7
									c3.8-4.5,0.7-13-1.5-17.7c-3.5-7.5-8.3-13.4-8.3-13.5c-2.5-3.1-2-7.6,1.1-10c3.1-2.5,7.6-2,10,1.1
									c2.6,3.2,24.7,31.6,9.6,49.4c-7.2,8.5-29,19.3-53,26.2C1327,1808.7,1309.1,1812.9,1291,1812.9z"/>
							</g>
						</g>
						<g>
							<g>
								<path class="st12" d="M1752.8,1808c-1.4,0-2.9-0.1-4.3-0.3c-9-1.4-16.7-7.2-20.6-15.4c-28.2-59.1-112.5-165.5-113.3-166.6
									c-2.4-3.1-1.9-7.6,1.2-10c3.1-2.4,7.6-1.9,10,1.2c3.5,4.4,86.1,108.8,115,169.3c1.9,4,5.6,6.7,10,7.4
									c4.4,0.7,8.7-0.8,11.8-4c3.6-3.8,4.6-9.3,2.7-14.1c-23.7-59.2-95.5-155.8-96.2-156.8c-2.4-3.2-1.7-7.6,1.5-10
									c3.2-2.4,7.6-1.7,10,1.5c3,4,73.7,99.1,98.1,160c4,10,1.8,21.5-5.6,29.3C1767.6,1804.9,1760.4,1808,1752.8,1808z"/>
							</g>
							<g>
								<path class="st12" d="M1795.2,1848.8c-2.3,0-4.5,0-6.4-0.1c-25-0.8-48.8-5.8-57.9-12.2c-19.1-13.4-4.8-46.5-3.1-50.2
									c1.6-3.6,5.9-5.2,9.4-3.5c3.6,1.6,5.2,5.9,3.5,9.4c-3.8,8.4-9.2,27.4-1.7,32.6c12.3,8.6,82.4,18.1,114.9-3.4
									c2.4-1.6,3.1-2.8,3.1-3.2c-0.1-0.4-2-9.3-42.8-24.5c-22-8.2-44-14-44.2-14c-3.8-1-6.1-4.9-5.1-8.7c1-3.8,4.9-6.1,8.7-5.1
									c0.9,0.2,22.8,6,45.5,14.4c44,16.4,50.8,28.1,52,35.5c0.8,4.6-0.2,11.4-9.3,17.4C1842.3,1846.3,1813.8,1848.8,1795.2,1848.8
									z"/>
							</g>
						</g>
					</g>
					<g>
						<path class="st12" d="M1526,986.7c-2.2,0-4.3-1-5.7-2.8c-7.7-10.2-16.5-21.7-21.4-35c-8.1-21.6-5.4-44.2-2.8-66.1
							c1.3-10.8,2.6-21.9,2.5-32.5c0-3.9,3.1-7.1,7.1-7.2c0,0,0,0,0,0c3.9,0,7.1,3.2,7.1,7.1c0.1,11.5-1.3,23.1-2.6,34.3
							c-2.5,21.2-4.8,41.2,2,59.5c4.2,11.3,12,21.5,19.4,31.3c2.4,3.1,1.8,7.6-1.4,10C1529,986.2,1527.5,986.7,1526,986.7z"/>
					</g>
					<g>
						<path class="st12" d="M1553.1,949.5c-2,0-4-0.8-5.4-2.4c-23.2-26.4-31.4-65.2-21-98.8c1.1-3.6,4.7-5.7,8.4-4.9
							c3.6,0.8,6,4.3,5.5,8c-2.1,14.8,12.5,43.5,23,58.2c2.3,3.2,1.6,7.7-1.6,9.9s-7.7,1.6-9.9-1.6c-4.9-6.8-9.9-15.3-14.1-23.8
							c2.8,16.1,9.8,31.4,20.6,43.6c2.6,3,2.3,7.5-0.7,10.1C1556.4,948.9,1554.7,949.5,1553.1,949.5z"/>
					</g>
					<g>
						<path class="st12" d="M1609.9,932.7c-1.4,0-2.7-0.4-3.9-1.2c-29.6-19.7-52.1-50.6-61.6-84.9c-1.1-3.8,1.2-7.7,5-8.8
							c3.8-1.1,7.7,1.2,8.8,5c8.6,31,28.9,59,55.8,76.8c3.3,2.2,4.2,6.6,2,9.9C1614.5,931.6,1612.2,932.7,1609.9,932.7z"/>
					</g>
					<g>
						<path class="st12" d="M1630.8,931.5c-1.6,0-3.3-0.6-4.6-1.7c-23.6-19.9-41.8-45.7-52.8-74.6c-1.4-3.7,0.5-7.8,4.1-9.2
							c3.7-1.4,7.8,0.5,9.2,4.1c10.1,26.6,26.9,50.4,48.6,68.8c3,2.5,3.4,7,0.8,10C1634.8,930.7,1632.8,931.5,1630.8,931.5z"/>
					</g>
					<g>
						<path class="st12" d="M1665.5,947.7c-1.8,0-3.6-0.7-5-2c-21.1-20.7-39.8-43.7-55.8-68.6c-4.2-6.5-8.6-14.1-8.6-22.9
							c0-3.9,3.2-7.1,7.1-7.1c0,0,0,0,0,0c3.9,0,7.1,3.2,7.1,7.1c0,5,3.1,10.3,6.3,15.2c15.4,23.9,33.5,46.2,53.8,66.1
							c2.8,2.8,2.9,7.3,0.1,10.1C1669.2,947,1667.4,947.7,1665.5,947.7z"/>
					</g>
					<g>
						<path class="st12" d="M1721.5,969.4c-1.4,0-2.9-0.4-4.1-1.3c-34.9-24.7-64.9-57.2-86.7-94c-2-3.4-0.9-7.8,2.5-9.8
							c3.4-2,7.8-0.9,9.8,2.5c20.7,35.1,49.3,66.1,82.6,89.6c3.2,2.3,4,6.7,1.7,9.9C1726,968.4,1723.8,969.4,1721.5,969.4z"/>
					</g>
					<g>
						<path class="st12" d="M1735,942.5c-1.8,0-3.7-0.7-5.1-2.1c-17-17.1-33.7-35-49.6-53.3c-2.6-3-2.3-7.5,0.7-10.1
							c3-2.6,7.5-2.3,10.1,0.7c15.7,18,32.1,35.7,48.9,52.6c2.8,2.8,2.8,7.3,0,10.1C1738.6,941.8,1736.8,942.5,1735,942.5z"/>
					</g>
					<g>
						<path class="st12" d="M1781.1,1040.8c-0.4,0-0.8,0-1.2-0.1c-3.9-0.7-6.5-4.3-5.8-8.2c4.4-25.9,0.9-53.1-10-78.5
							c-10.9-25.5-28.1-46.7-49.9-61.5c-3.3-2.2-4.1-6.6-1.9-9.9c2.2-3.3,6.6-4.1,9.9-1.9c24,16.3,43,39.7,55,67.7
							c12,28,15.7,57.9,10.9,86.5C1787.5,1038.3,1784.5,1040.8,1781.1,1040.8z"/>
					</g>
					<g>
						<path class="st12" d="M1804.9,1017.8c-0.1,0-0.2,0-0.3,0c-3.9-0.1-7-3.4-6.9-7.4c0.9-24.4-4.8-48.7-16.4-70.2
							c-1.9-3.5-0.6-7.8,2.9-9.7c3.5-1.9,7.8-0.6,9.7,2.9c12.8,23.7,19.1,50.5,18.1,77.5C1811.9,1014.8,1808.7,1017.8,1804.9,1017.8
							z"/>
					</g>
					<g>
						<path class="st12" d="M1832.6,1019.5c-0.2,0-0.3,0-0.5,0c-3.9-0.2-6.9-3.6-6.7-7.6c0.8-12.5-0.7-25-4.5-37
							c-1.2-3.8,0.9-7.8,4.7-8.9c3.8-1.2,7.8,0.9,8.9,4.7c4.3,13.7,6,27.8,5.1,42.1C1839.5,1016.6,1836.3,1019.5,1832.6,1019.5z"/>
					</g>
					<g>
						<path class="st12" d="M1877.8,998C1877.8,998,1877.8,998,1877.8,998c-4,0-7.2-3.2-7.1-7.2c0.3-45.7-1-83.8-8.6-121.3
							c-9.6-47.5-28.4-82-55.9-102.6c-18.8-14.1-43.2-21.4-68.6-20.4c-25.4,1-49.1,10.1-66.6,25.7c-1.4,1.3-3.3,1.9-5.3,1.8
							c-1.9-0.1-3.7-1.1-4.9-2.5c-18.9-22.6-52.7-32.5-84.1-24.6c-28.7,7.2-55,28.1-72.2,57.4c-15.1,25.6-22.5,56.1-20.9,85.7
							c0.2,3.9-2.8,7.3-6.7,7.5c-3.9,0.2-7.3-2.8-7.5-6.7c-1.8-32.4,6.3-65.7,22.8-93.7c19.2-32.6,48.7-55.9,81.1-64
							c34.1-8.6,70.9,1.1,93.7,24c41.7-32.5,105.2-33.6,147.8-1.6c30.4,22.8,51,60.2,61.3,111.2c7.8,38.7,9.2,77.6,8.9,124.2
							C1884.9,994.9,1881.8,998,1877.8,998z"/>
					</g>
					<g>
						<path class="st12" d="M1842.5,923.9c-0.1,0-0.1,0-0.2,0c-3.9-0.1-7-3.4-6.9-7.3c0.7-26.4-4.3-53.3-14.5-77.7
							c-1.5-3.6,0.2-7.8,3.8-9.3c3.6-1.5,7.8,0.2,9.3,3.8c10.9,26.2,16.3,55.1,15.6,83.6C1849.5,920.8,1846.4,923.9,1842.5,923.9z"
							/>
					</g>
					<g>
						<path class="st12" d="M1814.3,917.3C1814.3,917.3,1814.2,917.3,1814.3,917.3c-4,0-7.2-3.3-7.1-7.2c0.3-24.4-5.3-48.8-16-70.7
							c-1.7-3.5-0.3-7.8,3.3-9.5c3.5-1.7,7.8-0.3,9.5,3.3c11.7,23.9,17.7,50.5,17.4,77.1C1821.4,914.2,1818.2,917.3,1814.3,917.3z"
							/>
					</g>
					<g>
						<path class="st12" d="M1776.6,869.6c-3.5,0-6.6-2.6-7.1-6.2c-2.1-15.2-5.8-30.2-11.2-44.6c-1.4-3.7,0.5-7.8,4.2-9.2
							c3.7-1.4,7.8,0.5,9.2,4.2c5.7,15.4,9.7,31.4,11.9,47.6c0.5,3.9-2.2,7.5-6.1,8C1777.3,869.5,1776.9,869.6,1776.6,869.6z"/>
					</g>
					<g>
						<path class="st12" d="M1715.9,747.2c-3,0-5.8-1.9-6.8-5c-4.7-14.9-18.3-26.6-33.7-29.1c-15.4-2.5-32,4.3-41.2,16.9
							c-1.3,1.8-1.8,3.4-1.9,4.1c2.3,2.9,2,7.2-0.8,9.7c-2.9,2.7-7.4,2.4-10.1-0.5c-5-5.4-4.5-14,1.2-21.8
							c12.3-16.8,34.4-25.9,55-22.5c20.6,3.4,38.6,19,45,38.8c1.2,3.8-0.9,7.8-4.6,9C1717.3,747.1,1716.6,747.2,1715.9,747.2z"/>
					</g>
					<g>
						<path class="st12" d="M1688.7,716.9c-2.5,0-5-1.3-6.3-3.7c-1.9-3.5-0.6-7.8,2.8-9.7c15-8.2,24.3-21.6,28.4-40.9
							c4.4-20.8,3.8-42.6-1.9-63.1c-1.5-5.5-3.8-12.4-8.2-17.2c-4.3-4.6-10.6-7.5-17.3-10.3c-29.4-12.2-60.2-21.4-91.5-27.2
							c-8.8-1.6-17.9-3.1-26.7-4.5c-23.9-3.8-48.7-7.6-72-16.5c-37.8-14.4-64.9-41.5-72.5-72.4c-0.9-3.8,1.4-7.7,5.2-8.6
							c3.8-0.9,7.7,1.4,8.6,5.2c6.5,26.4,30.3,49.8,63.7,62.5c21.9,8.3,45.9,12.1,69.1,15.8c8.9,1.4,18.1,2.8,27.1,4.5
							c32.3,6,64,15.5,94.3,28.1c7.9,3.3,16.1,7,22.3,13.8c6.4,7,9.5,16,11.4,23.1c6.3,22.7,7,46.8,2.1,69.9
							c-4.9,23.2-16.9,40.2-35.5,50.4C1691,716.7,1689.8,716.9,1688.7,716.9z"/>
					</g>
					<g>
						<path class="st12" d="M1445.4,524.2c-1.3,0-2.6-0.3-3.7-1.1c-17.6-10.9-32-27.3-40.5-46.3c-1.6-3.6,0-7.8,3.6-9.4
							c3.6-1.6,7.8,0,9.4,3.6c7.3,16.3,19.8,30.5,35,40c3.3,2.1,4.4,6.5,2.3,9.8C1450.1,523,1447.8,524.2,1445.4,524.2z"/>
					</g>
					<g>
						<path class="st12" d="M1428.4,544.3c-1.7,0-3.5-0.6-4.9-1.9l-33.1-31c-2.9-2.7-3-7.2-0.3-10.1c2.7-2.9,7.2-3,10.1-0.3l33.1,31
							c2.9,2.7,3,7.2,0.3,10.1C1432.2,543.5,1430.3,544.3,1428.4,544.3z"/>
					</g>
					<g>
						<path class="st12" d="M1437.4,580.7c-0.4,0-0.8,0-1.2-0.1c-22.1-3.6-42.4-14.9-57.2-31.6c-2.6-3-2.3-7.5,0.6-10.1
							c3-2.6,7.5-2.3,10.1,0.6c12.5,14.1,30.2,23.9,48.8,27c3.9,0.6,6.5,4.3,5.9,8.2C1443.8,578.2,1440.8,580.7,1437.4,580.7z"/>
					</g>
					<g>
						<path class="st12" d="M1453.4,607.6c-24.1,0-48.3-4.7-70.6-13.8c-3.6-1.5-5.4-5.6-3.9-9.3c1.5-3.6,5.7-5.4,9.3-3.9
							c24.4,10,51.3,14.2,77.6,12.3c3.9-0.3,7.3,2.7,7.6,6.6c0.3,3.9-2.7,7.3-6.6,7.6C1462.4,607.5,1457.9,607.6,1453.4,607.6z"/>
					</g>
					<g>
						<path class="st12" d="M1636.8,715c-2.9,0-5.6-1.8-6.7-4.7c-10.6-28.7-23-57.6-48.2-68.2c-8.2-3.5-17.5-4.7-26.2-5.5
							c-17.2-1.6-35-1.8-52.2-2c-33.5-0.4-68.1-0.8-100.9-11.4c-3.7-1.2-5.8-5.2-4.6-9c1.2-3.7,5.2-5.8,9-4.6
							c30.7,9.9,62.8,10.3,96.7,10.7c17.5,0.2,35.6,0.4,53.3,2.1c9.9,0.9,20.4,2.4,30.4,6.6c30.4,12.8,44.4,44.8,56.1,76.4
							c1.4,3.7-0.5,7.8-4.2,9.2C1638.4,714.8,1637.6,715,1636.8,715z"/>
					</g>
					<g>
						<path class="st12" d="M2011.4,1022.9c-2.9,0-5.8-0.4-8.7-1.3c-12.9-3.9-22.1-16.6-21.9-30.1c0.1-3.9,3.2-7,7.1-7
							c0,0,0.1,0,0.1,0c3.9,0.1,7.1,3.3,7,7.2c-0.1,7,5.1,14.2,11.8,16.2c6.7,2,15-1,18.8-6.9c1.3-2,2.2-4.3,3-7.3
							c2.5-9.9,0.8-20.9-4.6-29.6c-5.4-8.7-14.5-15.1-24.5-17.3c-3.3-0.7-5.9-0.8-7.9-0.1c-2.6,0.8-5.1,3.1-8,5.8
							c-2.8,2.7-7.4,2.6-10.1-0.2c-2.7-2.8-2.6-7.4,0.2-10.1c3-2.9,7.5-7.2,13.5-9.1c4.4-1.4,9.4-1.5,15.2-0.2
							c13.9,3,26.1,11.7,33.6,23.7c7.5,12,9.8,26.8,6.3,40.6c-1.1,4.5-2.7,8.3-4.8,11.6C2032,1017.6,2021.8,1022.9,2011.4,1022.9z"
							/>
					</g>
					<g>
						<path class="st12" d="M1619.5,1194.3c-1.5,0-3-0.1-4.5-0.3c-27.2-3.4-45-37.2-45.7-38.6c-1.8-3.5-0.4-7.8,3.1-9.6
							c3.5-1.8,7.8-0.4,9.6,3.1c0.1,0.2,4,7.6,10.5,15.2c5.6,6.5,14.4,14.6,24.3,15.8c8.9,1.1,17.9-3.5,26.9-13.7
							c2.6-2.9,7.1-3.2,10.1-0.6s3.2,7.1,0.6,10.1C1643.4,1188,1631.7,1194.3,1619.5,1194.3z"/>
					</g>
				</g>
			</g>
			<path class="st12" d="M1581.4,998.5c0-0.7-0.1-1.4-0.2-2.2c-0.1-1.4-0.3-2.8-0.6-4.2c-0.5-2.4-1.1-4.6-1.8-6.5
				c-0.2-0.6-0.5-1.1-0.8-1.6c-1.4-5.6-9.5-6.1-12.3-1.4c-0.5,0.8-1,1.7-1.4,2.6c-4.3,5.4-6.8,11.8-7.4,18.8
				c-0.6,6.6,0.5,17,6.8,20.9c8.8,5.3,15.3-4.4,17.1-11.8C1582,1008.1,1582.2,1003.2,1581.4,998.5z"/>
			<path class="st12" d="M1713.8,1023.1c0.4-3-1.2-5.5-3.4-7.1c-2.3-2.7-6-3.9-9.6-3.2c-11.3,2.4-21.8,23.2-14.2,33.4
				c1,9.1,11.2,11.4,16.7,4.3c3.2-4.2,5.6-8.8,7.3-13.6c1.3-3.3,2.5-7.1,2.7-10.7C1713.6,1025.2,1713.7,1024.2,1713.8,1023.1z"/>
			<path class="st12" d="M1684.4,1077.8c-21,11.9-43.6,20.5-68,19.7c-11.2-0.3-20.7-4-28.3-12.3c-6.9-7.7-11.2-17.7-15.3-27
				c-2.5-5.7-12.5-1.6-10.2,4.3c4.3,11.2,9,22.3,16.5,31.8c8.5,10.8,20.1,16.3,33.7,17.8c27.9,3,58.5-5.2,80.1-23.2
				C1699.1,1083.5,1691.1,1074,1684.4,1077.8z"/>
			<path class="st12" d="M1608.5,957.9c-4.1-13.9-19.2-19.5-32.7-17.3c-14.6,2.4-25.6,13.7-33.1,25.7c-4,6.4,5.8,11.9,10,5.9
				c5.6-8.1,13.3-16.1,23.3-18.2c8-1.7,17.2,1.6,22.2,8.2C1601.8,966.9,1610.4,964.4,1608.5,957.9z"/>
			<path class="st12" d="M1722.4,970.7c-15.9-5.5-33.2,0.9-46.6,9.5c-7,4.5-0.8,15.3,6.5,11.2c9.9-5.6,22-10.4,33.4-6.9
				c9,2.8,14,10.7,16.4,19.4c1.7,6.3,10.8,6.1,12.6,0C1749,988.6,1735.9,975.4,1722.4,970.7z"/>
		</g>
	</g>
</g>
</svg>
