<?xml version="1.0" encoding="iso-8859-1"?>
<!-- Generator: Adobe Illustrator 19.0.0, SVG Export Plug-In . SVG Version: 6.00 Build 0)  -->
<svg version="1.1" id="Layer_1" xmlns="http://www.w3.org/2000/svg" xmlns:xlink="http://www.w3.org/1999/xlink" x="0px" y="0px"
	 viewBox="0 0 120.282 120.282" style="enable-background:new 0 0 120.282 120.282;" xml:space="preserve">
<g>
	<rect x="10.566" y="32.264" style="fill:#EF4F28;" width="99.149" height="81.661"/>
	<rect y="32.264" style="fill:#232323;" width="120.282" height="10.513"/>
	<rect x="68.022" y="66.809" style="fill:#00999C;" width="29.043" height="27.584"/>
	<rect x="10.566" y="104.161" style="fill:#DD3D12;" width="99.149" height="9.764"/>
	<rect x="23.178" y="66.809" style="fill:#00999C;" width="29.043" height="47.116"/>
	<g>
		<rect x="31.781" y="21.004" style="fill:#232323;" width="5.958" height="13.9"/>
		<rect x="82.544" y="21.004" style="fill:#232323;" width="5.958" height="13.9"/>
	</g>
	<rect x="22.535" y="6.357" style="fill:#00999C;" width="75.213" height="17.376"/>
	<g>
		<path style="fill:#FFFFFF;" d="M42.425,15.709v2.646h-1.398v-7.519h2.449c0.503,0,0.938,0.059,1.305,0.177
			c0.368,0.118,0.671,0.283,0.91,0.494s0.416,0.464,0.53,0.759c0.114,0.294,0.172,0.617,0.172,0.967
			c0,0.364-0.061,0.698-0.182,1.001c-0.122,0.303-0.304,0.564-0.547,0.783c-0.242,0.218-0.546,0.388-0.909,0.509
			c-0.364,0.122-0.791,0.182-1.279,0.182L42.425,15.709L42.425,15.709z M42.425,14.617h1.051c0.257,0,0.48-0.032,0.671-0.096
			c0.19-0.064,0.349-0.156,0.473-0.276c0.125-0.12,0.219-0.265,0.281-0.437s0.094-0.363,0.094-0.575
			c0-0.201-0.031-0.383-0.094-0.546c-0.063-0.163-0.156-0.301-0.281-0.416c-0.124-0.114-0.282-0.202-0.473-0.262
			c-0.19-0.061-0.414-0.091-0.671-0.091h-1.051V14.617z"/>
		<path style="fill:#FFFFFF;" d="M54.69,14.596c0,0.551-0.092,1.062-0.275,1.531c-0.184,0.47-0.442,0.876-0.774,1.219
			c-0.333,0.343-0.733,0.611-1.201,0.803c-0.469,0.192-0.986,0.289-1.555,0.289s-1.088-0.096-1.558-0.289s-0.872-0.46-1.206-0.803
			c-0.335-0.343-0.594-0.75-0.777-1.219c-0.184-0.47-0.275-0.98-0.275-1.531s0.092-1.062,0.275-1.531s0.442-0.876,0.777-1.219
			c0.334-0.343,0.736-0.611,1.206-0.803s0.989-0.289,1.558-0.289s1.086,0.097,1.555,0.291c0.468,0.194,0.868,0.462,1.201,0.803
			c0.332,0.342,0.591,0.747,0.774,1.217S54.69,14.045,54.69,14.596z M53.256,14.596c0-0.413-0.055-0.782-0.164-1.11
			s-0.267-0.606-0.471-0.834c-0.204-0.229-0.453-0.404-0.746-0.525c-0.293-0.121-0.623-0.182-0.99-0.182
			c-0.368,0-0.699,0.061-0.993,0.182c-0.295,0.122-0.545,0.296-0.752,0.525c-0.206,0.229-0.364,0.507-0.476,0.834
			c-0.11,0.328-0.166,0.697-0.166,1.11s0.056,0.783,0.166,1.11c0.111,0.327,0.27,0.604,0.476,0.832
			c0.207,0.227,0.457,0.401,0.752,0.523c0.294,0.121,0.625,0.182,0.993,0.182c0.367,0,0.697-0.061,0.99-0.182
			c0.293-0.122,0.542-0.296,0.746-0.523s0.361-0.504,0.471-0.832C53.201,15.379,53.256,15.009,53.256,14.596z"/>
		<path style="fill:#FFFFFF;" d="M57.192,17.201h3.01v1.154h-4.409v-7.519h1.399C57.192,10.836,57.192,17.201,57.192,17.201z"/>
		<path style="fill:#FFFFFF;" d="M62.745,18.355h-1.404v-7.519h1.404V18.355z"/>
		<path style="fill:#FFFFFF;" d="M69.603,16.582c0.076,0,0.142,0.029,0.197,0.088l0.551,0.598c-0.305,0.378-0.68,0.667-1.125,0.869
			c-0.446,0.201-0.98,0.301-1.604,0.301c-0.558,0-1.06-0.095-1.505-0.286s-0.826-0.456-1.142-0.796
			c-0.315-0.339-0.558-0.745-0.726-1.216c-0.168-0.472-0.252-0.986-0.252-1.544c0-0.565,0.094-1.082,0.281-1.552
			s0.45-0.875,0.79-1.214c0.34-0.339,0.746-0.604,1.219-0.793c0.474-0.189,0.996-0.283,1.568-0.283c0.558,0,1.046,0.089,1.463,0.268
			c0.418,0.179,0.776,0.416,1.074,0.71l-0.468,0.65c-0.028,0.042-0.063,0.078-0.106,0.109c-0.044,0.031-0.104,0.046-0.18,0.046
			c-0.08,0-0.161-0.031-0.244-0.093c-0.084-0.063-0.189-0.13-0.317-0.203s-0.29-0.14-0.486-0.203s-0.444-0.094-0.746-0.094
			c-0.354,0-0.679,0.062-0.975,0.185c-0.297,0.124-0.552,0.299-0.765,0.528s-0.38,0.507-0.499,0.834
			c-0.12,0.328-0.18,0.696-0.18,1.105c0,0.423,0.06,0.799,0.18,1.128c0.119,0.329,0.281,0.606,0.486,0.832
			c0.204,0.225,0.445,0.397,0.723,0.517s0.575,0.18,0.895,0.18c0.19,0,0.362-0.011,0.517-0.031c0.154-0.021,0.297-0.054,0.427-0.099
			c0.13-0.045,0.253-0.103,0.369-0.174c0.116-0.071,0.231-0.159,0.346-0.263c0.034-0.031,0.071-0.056,0.109-0.076
			C69.516,16.592,69.557,16.582,69.603,16.582z"/>
		<path style="fill:#FFFFFF;" d="M76.148,10.837v1.113h-3.333v2.085h2.626v1.076h-2.626v2.127h3.333v1.118h-4.742v-7.519
			C71.406,10.837,76.148,10.837,76.148,10.837z"/>
	</g>
</g>
<g>
</g>
<g>
</g>
<g>
</g>
<g>
</g>
<g>
</g>
<g>
</g>
<g>
</g>
<g>
</g>
<g>
</g>
<g>
</g>
<g>
</g>
<g>
</g>
<g>
</g>
<g>
</g>
<g>
</g>
</svg>
