<?xml version="1.0" encoding="iso-8859-1"?>
<!-- Generator: Adobe Illustrator 19.0.0, SVG Export Plug-In . SVG Version: 6.00 Build 0)  -->
<svg version="1.1" id="Layer_1" xmlns="http://www.w3.org/2000/svg" xmlns:xlink="http://www.w3.org/1999/xlink" x="0px" y="0px"
	 viewBox="0 0 295.996 295.996" style="enable-background:new 0 0 295.996 295.996;" xml:space="preserve">
<g>
	<path style="fill:#FFCE00;" d="M270.996,123.998c0-11.334-1.363-22.348-3.907-32.9c-7.269-15.152-17.35-28.708-29.558-39.996
		c-22.391-13.376-48.766-20.666-76.771-19.644C83.492,34.274,23.139,99.196,25.955,176.463c0.413,11.304,2.17,22.239,5.087,32.673
		c6.303,12.01,14.397,22.938,23.934,32.42c21.892,14.189,47.99,22.44,76.023,22.44C208.316,263.996,270.996,201.316,270.996,123.998
		z M188.061,89.445l11.313,11.314l-17.941,17.938l17.942,17.94l-11.315,11.314l-29.254-29.255L188.061,89.445z M94.955,100.76
		l11.312-11.314l29.255,29.253l-29.254,29.255L94.954,136.64l17.941-17.94L94.955,100.76z M81.051,204.009
		c-4.809-4.223-7.387-7.012-15.387-7.012v-16c14,0,20.369,6.093,25.944,10.988c4.809,4.223,8.069,7.012,15.304,7.012
		s10.454-2.789,15.262-7.012c5.575-4.896,12.534-10.988,25.797-10.988c13.264,0,20.214,6.093,25.79,10.988
		c4.809,4.223,7.991,7.012,15.228,7.012s10.251-2.789,15.06-7.012c5.576-4.896,12.615-10.988,25.615-10.988v16
		c-7,0-10.248,2.789-15.056,7.012c-5.576,4.896-12.432,10.988-25.697,10.988c-13.264,0-20.162-6.093-25.738-10.988
		c-4.809-4.223-7.965-7.012-15.202-7.012c-7.235,0-10.401,2.789-15.209,7.011c-5.575,4.896-12.592,10.989-25.855,10.989
		C93.643,214.997,86.626,208.904,81.051,204.009z"/>
	<path style="fill:#FFB100;" d="M267.089,91.098c2.544,10.553,3.907,21.566,3.907,32.9c0,77.318-62.68,139.998-139.998,139.998
		c-28.032,0-54.131-8.251-76.023-22.44c23.88,23.744,56.766,38.44,93.023,38.44c72.784,0,131.998-59.214,131.998-131.998
		C279.996,127.636,275.358,108.337,267.089,91.098z"/>
	<path style="fill:#FFE454;" d="M160.76,31.457c28.006-1.021,54.381,6.268,76.771,19.644C213.985,29.328,182.521,16,147.998,16
		C75.214,16,16,75.214,16,147.998c0,22.05,5.442,42.849,15.042,61.138c-2.917-10.434-4.674-21.369-5.087-32.673
		C23.139,99.196,83.492,34.274,160.76,31.457z"/>
	<path d="M147.998,0C66.392,0,0,66.392,0,147.998s66.392,147.998,147.998,147.998s147.998-66.392,147.998-147.998
		S229.604,0,147.998,0z M147.998,279.996c-36.257,0-69.143-14.696-93.023-38.44c-9.536-9.482-17.631-20.41-23.934-32.42
		C21.442,190.847,16,170.048,16,147.998C16,75.214,75.214,16,147.998,16c34.523,0,65.987,13.328,89.533,35.102
		c12.208,11.288,22.289,24.844,29.558,39.996c8.27,17.239,12.907,36.538,12.907,56.9
		C279.996,220.782,220.782,279.996,147.998,279.996z"/>
	<path d="M147.992,196.997c7.237,0,10.414,2.789,15.223,7.012c5.576,4.896,12.516,10.988,25.779,10.988
		c13.265,0,20.038-6.093,25.614-10.988c4.809-4.223,8.056-7.012,15.056-7.012v-16c-13,0-20.037,6.093-25.613,10.988
		c-4.809,4.223-7.903,7.012-15.14,7.012s-10.372-2.789-15.181-7.012c-5.576-4.896-12.495-10.988-25.758-10.988
		s-20.191,6.093-25.766,10.988c-4.809,4.223-7.98,7.012-15.216,7.012c-7.235,0-10.576-2.789-15.385-7.012
		c-5.575-4.896-11.941-10.988-25.941-10.988v16c8,0,10.579,2.789,15.387,7.012c5.575,4.896,12.597,10.988,25.861,10.988
		s20.244-6.093,25.819-10.989C137.539,199.786,140.757,196.997,147.992,196.997z"/>
	<polygon points="106.269,147.953 135.522,118.698 106.268,89.445 94.955,100.76 112.896,118.698 94.954,136.639 	"/>
	<polygon points="199.374,136.639 181.433,118.698 199.373,100.76 188.061,89.445 158.806,118.698 188.06,147.953 	"/>
</g>
<g>
</g>
<g>
</g>
<g>
</g>
<g>
</g>
<g>
</g>
<g>
</g>
<g>
</g>
<g>
</g>
<g>
</g>
<g>
</g>
<g>
</g>
<g>
</g>
<g>
</g>
<g>
</g>
<g>
</g>
</svg>
