<?xml version="1.0" encoding="iso-8859-1"?>
<!-- Generator: Adobe Illustrator 18.0.0, SVG Export Plug-In . SVG Version: 6.00 Build 0)  -->
<!DOCTYPE svg PUBLIC "-//W3C//DTD SVG 1.1//EN" "http://www.w3.org/Graphics/SVG/1.1/DTD/svg11.dtd">
<svg version="1.1" id="Capa_1" xmlns="http://www.w3.org/2000/svg" xmlns:xlink="http://www.w3.org/1999/xlink" x="0px" y="0px"
	 viewBox="0 0 417.26 417.26" style="enable-background:new 0 0 417.26 417.26;" xml:space="preserve">
<g>
	<g>
		<path style="fill:#75D8B4;" d="M340.165,416.698h-25.462c-10.711,0-20.693-5.386-28.109-15.166
			c-7.115-9.383-11.033-21.787-11.033-34.925V215.433c0-2.654,2.152-4.806,4.806-4.806s4.806,2.152,4.806,4.806v151.174
			c0,22.32,13.247,40.478,29.53,40.478h25.462c2.654,0,4.806,2.152,4.806,4.806C344.971,414.546,342.819,416.698,340.165,416.698z"
			/>
		<path style="fill:#75D8B4;" d="M332.535,416.698c-12.575,0-22.805-12.805-22.805-28.545V185.155c0-2.654,2.152-4.806,4.806-4.806
			s4.806,2.152,4.806,4.806v202.999c0,10.262,6.042,18.932,13.193,18.932c2.654,0,4.806,2.152,4.806,4.806
			C337.341,414.546,335.189,416.698,332.535,416.698z"/>
		<path style="fill:#75D8B4;" d="M308.06,416.698h-6.336c-15.82,0-30.605-8.01-41.633-22.554
			c-10.727-14.148-16.635-32.885-16.635-52.761v-87.221c0-2.654,2.152-4.806,4.806-4.806s4.806,2.152,4.806,4.806v87.221
			c0,36.229,21.827,65.703,48.655,65.703h6.336c2.654,0,4.806,2.152,4.806,4.806C312.866,414.546,310.714,416.698,308.06,416.698z"
			/>
		<path style="fill:#75D8B4;" d="M346.012,416.698h-25.461c-2.654,0-4.806-2.152-4.806-4.806c0-2.654,2.152-4.806,4.806-4.806
			h25.461c16.283,0,29.53-18.158,29.53-40.478V215.433c0-2.654,2.152-4.806,4.806-4.806c2.654,0,4.806,2.152,4.806,4.806v151.174
			c0,13.138-3.918,25.541-11.033,34.925C366.706,411.312,356.723,416.698,346.012,416.698z"/>
		<path style="fill:#75D8B4;" d="M328.181,416.698c-2.654,0-4.806-2.152-4.806-4.806c0-2.654,2.152-4.806,4.806-4.806
			c7.151,0,13.193-8.67,13.193-18.932V185.155c0-2.654,2.152-4.806,4.806-4.806c2.654,0,4.806,2.152,4.806,4.806v202.999
			C350.986,403.893,340.755,416.698,328.181,416.698z"/>
		<path style="fill:#75D8B4;" d="M358.992,416.698h-6.336c-2.654,0-4.806-2.152-4.806-4.806c0-2.654,2.152-4.806,4.806-4.806h6.336
			c26.829,0,48.656-29.474,48.656-65.703v-87.221c0-2.654,2.152-4.806,4.806-4.806c2.654,0,4.806,2.152,4.806,4.806v87.221
			c0,19.876-5.908,38.613-16.635,52.761C389.597,408.688,374.812,416.698,358.992,416.698z"/>
	</g>
	<path style="fill:#9BC9CC;" d="M209.023,171.417c-26.324,0-48.254,18.775-53.152,43.663c-4.142-8.828-7.565-18.484-7.565-35.379
		c0-20.159,4.868-30.015,10.022-40.45c5.487-11.112,11.162-22.602,11.162-45.338h-11.037c0,20.159-4.868,30.015-10.021,40.45
		c-2.457,4.975-4.95,10.029-6.955,16.13c-5.423-24.2-27.02-42.288-52.856-42.288h0l0,0c0,28.511,22.027,51.862,49.989,54.004
		c-0.841,5.037-1.339,10.77-1.339,17.491c0,22.735,5.675,34.225,11.162,45.336c5.153,10.434,10.021,20.29,10.021,40.448
		c0,9.574-1.105,16.809-2.81,22.9c-4.165-25.784-26.517-45.478-53.477-45.478l0,0c0,28.674,22.279,52.131,50.469,54.041
		c-1.31,3.112-2.743,6.029-4.203,8.986c-5.487,11.112-11.162,22.602-11.162,45.337h11.037c0-20.158,4.868-30.014,10.022-40.449
		c5.487-11.111,11.162-22.602,11.162-45.337c0-19.29-4.085-30.483-8.675-40.22C187.926,222.289,209.023,199.321,209.023,171.417
		L209.023,171.417L209.023,171.417z"/>
	<path style="fill:#E8BF4D;" d="M386.295,416.698c0-75.733-61.394-137.126-137.126-137.126s-137.126,61.394-137.126,137.126"/>
	<path style="fill:#F9D25B;" d="M193.984,416.698c0-53.567-43.425-96.992-96.992-96.992S0,363.131,0,416.698"/>
	<path style="fill:#F74B4B;" d="M82.621,284.589h-4.136c-9.941,0-17.999,8.058-17.999,17.999v114.111h40.135V302.588
		C100.62,292.647,92.561,284.589,82.621,284.589z"/>
	<circle style="fill:#7F3030;" cx="80.553" cy="305.071" r="11.149"/>
	<path style="fill:#F74B4B;" d="M35.795,316.549h-4.136c-9.941,0-17.999,8.058-17.999,17.999v82.15h40.135v-82.15
		C53.794,324.608,45.735,316.549,35.795,316.549z"/>
	<circle style="fill:#7F3030;" cx="33.727" cy="337.032" r="11.149"/>
	<path style="fill:#F74B4B;" d="M243.157,316.549h-4.136c-9.941,0-17.999,8.058-17.999,17.999v82.15h40.135v-82.15
		C261.156,324.608,253.097,316.549,243.157,316.549z"/>
	<circle style="fill:#7F3030;" cx="241.089" cy="337.032" r="11.149"/>
	<path style="fill:#51CAF4;" d="M30.384,223.87c-12.084,0-21.915-9.831-21.915-21.915S18.3,180.04,30.384,180.04
		s21.915,9.831,21.915,21.915S42.468,223.87,30.384,223.87z M30.384,189.04c-7.121,0-12.915,5.793-12.915,12.915
		s5.794,12.915,12.915,12.915s12.915-5.793,12.915-12.915S37.505,189.04,30.384,189.04z"/>
	<path style="fill:#51CAF4;" d="M285.038,75.064c-7.283,0-13.208-5.925-13.208-13.208s5.925-13.208,13.208-13.208
		c7.282,0,13.207,5.925,13.207,13.208S292.321,75.064,285.038,75.064z M285.038,57.649c-2.32,0-4.208,1.888-4.208,4.208
		c0,2.32,1.888,4.208,4.208,4.208c2.319,0,4.207-1.888,4.207-4.208C289.245,59.536,287.358,57.649,285.038,57.649z"/>
	<path style="fill:#51CAF4;" d="M266.541,35.565c-9.65,0-17.502-7.852-17.502-17.502s7.852-17.502,17.502-17.502
		s17.502,7.852,17.502,17.502S276.192,35.565,266.541,35.565z M266.541,9.561c-4.688,0-8.502,3.814-8.502,8.502
		s3.814,8.502,8.502,8.502s8.502-3.814,8.502-8.502S271.229,9.561,266.541,9.561z"/>
	<path style="fill:#51CAF4;" d="M213.033,268.218c-14.7,0-26.659-11.959-26.659-26.66c0-14.7,11.959-26.659,26.659-26.659
		s26.66,11.959,26.66,26.659C239.693,256.259,227.733,268.218,213.033,268.218z M213.033,223.899
		c-9.737,0-17.659,7.922-17.659,17.659c0,9.738,7.922,17.66,17.659,17.66c9.738,0,17.66-7.922,17.66-17.66
		C230.693,231.821,222.771,223.899,213.033,223.899z"/>
	<path style="fill:#51CAF4;" d="M42.577,171.989c-16.967,0-30.771-13.803-30.771-30.77s13.804-30.77,30.771-30.77
		s30.77,13.803,30.77,30.77S59.544,171.989,42.577,171.989z M42.577,119.45c-12.004,0-21.771,9.766-21.771,21.77
		s9.767,21.77,21.771,21.77s21.77-9.766,21.77-21.77S54.581,119.45,42.577,119.45z"/>
	<g>
		<path style="fill:#F9993A;" d="M379.885,121.353c-9.83,15.67-25.29,24.54-41.5,26.62c-21.19,2.73-43.66-6.15-56.51-26.62
			c11.34-18.07,30.17-27.1,49.01-27.1c2.51,0,5.01,0.16,7.5,0.48C354.595,96.813,370.055,105.683,379.885,121.353z"/>
		<path style="fill:#F9D43A;" d="M379.885,121.353c-9.83,15.67-25.29,24.54-41.5,26.62c-4.94-7.67-7.8-16.81-7.8-26.62
			s2.86-18.95,7.8-26.62C354.595,96.813,370.055,105.683,379.885,121.353z"/>
		<circle style="fill:#4D4D4D;" cx="350.26" cy="120.853" r="8.486"/>
		<path style="fill:#F9993A;" d="M245.709,94.733c-0.951-0.122-1.903-0.214-2.857-0.289v53.818c0.954-0.076,1.907-0.166,2.857-0.289
			c16.21-2.08,31.67-10.95,41.5-26.62C277.379,105.683,261.918,96.813,245.709,94.733z"/>
	</g>
</g>
<g>
</g>
<g>
</g>
<g>
</g>
<g>
</g>
<g>
</g>
<g>
</g>
<g>
</g>
<g>
</g>
<g>
</g>
<g>
</g>
<g>
</g>
<g>
</g>
<g>
</g>
<g>
</g>
<g>
</g>
</svg>
