<?xml version="1.0" encoding="iso-8859-1"?>
<!-- Generator: Adobe Illustrator 19.0.0, SVG Export Plug-In . SVG Version: 6.00 Build 0)  -->
<svg version="1.1" id="Layer_1" xmlns="http://www.w3.org/2000/svg" xmlns:xlink="http://www.w3.org/1999/xlink" x="0px" y="0px"
	 viewBox="0 0 495.279 495.279" style="enable-background:new 0 0 495.279 495.279;" xml:space="preserve">
<g>
	<path style="fill:#FFE477;" d="M445.654,155.14h32.125v-40h-32.125c1.388,6.451,2.125,13.14,2.125,20
		S447.042,148.689,445.654,155.14z"/>
	<path style="fill:#FFE477;" d="M432.569,83.634l22.741-22.74l-28.283-28.284L404.285,55.35
		C415.59,62.673,425.246,72.33,432.569,83.634z"/>
	<path style="fill:#FFE477;" d="M272.99,186.645l-22.741,22.74l28.283,28.284l22.741-22.741
		C289.969,207.607,280.312,197.95,272.99,186.645z"/>
	<path style="fill:#FFE477;" d="M372.779,42.265V10.14h-40v32.125c6.451-1.388,13.141-2.125,20-2.125S366.328,40.877,372.779,42.265
		z"/>
	<path style="fill:#FFE477;" d="M332.779,228.014v32.125h40v-32.125c-6.451,1.388-13.141,2.125-20,2.125
		S339.23,229.402,332.779,228.014z"/>
	<path style="fill:#FFE477;" d="M404.285,214.929l22.741,22.741l28.283-28.284l-22.741-22.74
		C425.246,197.95,415.59,207.607,404.285,214.929z"/>
	<path style="fill:#FFE477;" d="M301.273,55.35l-22.741-22.741l-28.283,28.284l22.741,22.74
		C280.312,72.33,289.969,62.673,301.273,55.35z"/>
	<path style="fill:#FFD422;" d="M352.779,230.14c6.859,0,13.549-0.737,20-2.125c11.389-2.45,22.026-6.945,31.506-13.085
		c11.304-7.323,20.961-16.979,28.284-28.284c6.14-9.479,10.635-20.117,13.085-31.506c1.388-6.451,2.125-13.14,2.125-20
		s-0.737-13.549-2.125-20c-2.45-11.389-6.945-22.026-13.085-31.506c-7.322-11.304-16.979-20.961-28.284-28.284
		c-9.479-6.14-20.117-10.635-31.506-13.085c-6.451-1.388-13.141-2.125-20-2.125V230.14z"/>
	<path style="fill:#FFE477;" d="M257.779,135.14c0-6.86,0.737-13.549,2.125-20h-32.125v40h32.125
		C258.517,148.689,257.779,141.999,257.779,135.14z"/>
	<path style="fill:#FFDE55;" d="M259.904,155.14c2.45,11.389,6.945,22.026,13.085,31.506c7.322,11.304,16.979,20.961,28.284,28.284
		c9.479,6.14,20.117,10.635,31.506,13.085c6.451,1.388,13.141,2.125,20,2.125v-190c-6.859,0-13.549,0.737-20,2.125
		c-11.389,2.45-22.026,6.945-31.506,13.085c-11.304,7.323-20.961,16.979-28.284,28.284c-6.14,9.479-10.635,20.117-13.085,31.506
		c-1.388,6.451-2.125,13.14-2.125,20S258.517,148.689,259.904,155.14z"/>
	<path style="fill:#FF9811;" d="M132.135,403.682V252.209c-6.223-2.359-12.961-3.662-20-3.662c-7.039,0-13.777,1.302-20,3.661
		v155.149c9.054-2.402,19.516-3.909,31.894-3.909C126.831,403.45,129.523,403.535,132.135,403.682z"/>
	<path style="fill:#5EAC24;" d="M112.135,248.547c7.039,0,13.777,1.302,20,3.662c21.362,8.099,36.592,28.765,36.592,52.931h30
		c0-28.366-13.71-53.59-34.852-69.394c14.009,2.427,27.128,10.074,36.125,22.457l24.271-17.634
		c-16.673-22.948-42.59-35.296-68.983-35.655c12.76-6.271,27.868-7.796,42.424-3.066l9.271-28.531
		c-22.013-7.154-45.479-5.311-66.078,5.185c-11.382,5.799-21.13,13.869-28.791,23.635L112.135,248.547z"/>
	<path style="fill:#6DC82A;" d="M112.112,202.137c-21.817-27.68-59.396-40.329-94.824-28.82l9.271,28.532
		c14.556-4.729,29.664-3.205,42.424,3.066C42.59,205.273,16.672,217.621,0,240.569l24.271,17.634
		c8.997-12.385,22.116-20.032,36.126-22.458c-21.143,15.804-34.854,41.028-34.854,69.395h30c0-24.166,15.23-44.832,36.592-52.931
		c6.223-2.359,12.961-3.661,20-3.661L112.112,202.137z"/>
	<path style="fill:#FFA733;" d="M444.579,427.71c-16.04-10.81-36-24.26-73.05-24.26c-37.04,0-57.01,13.45-73.05,24.26
		c-14.45,9.74-25.87,17.43-50.7,17.43v40h247.5v-40C470.449,445.14,459.029,437.45,444.579,427.71z"/>
	<path style="fill:#FFB655;" d="M197.079,427.71c-14.827-9.992-33.023-22.232-64.944-24.027c-2.612-0.147-5.304-0.233-8.106-0.233
		c-12.378,0-22.84,1.506-31.894,3.909c-18.047,4.789-30.475,13.153-41.156,20.351c-14.46,9.74-25.87,17.43-50.7,17.43v40h247.5v-40
		C222.949,445.14,211.529,437.45,197.079,427.71z"/>
</g>
<g>
</g>
<g>
</g>
<g>
</g>
<g>
</g>
<g>
</g>
<g>
</g>
<g>
</g>
<g>
</g>
<g>
</g>
<g>
</g>
<g>
</g>
<g>
</g>
<g>
</g>
<g>
</g>
<g>
</g>
</svg>
