<?xml version="1.0" encoding="iso-8859-1"?>
<!-- Generator: Adobe Illustrator 19.0.0, SVG Export Plug-In . SVG Version: 6.00 Build 0)  -->
<svg version="1.1" id="Layer_1" xmlns="http://www.w3.org/2000/svg" xmlns:xlink="http://www.w3.org/1999/xlink" x="0px" y="0px"
	 viewBox="0 0 512 512" style="enable-background:new 0 0 512 512;" xml:space="preserve">
<g>
	<path style="fill:#FF6361;" d="M143.257,188.985c13.942,0.032,27.781,2.418,41.484,4.773c12.947,2.225,25.733,4.786,38.478,7.548
		c25.476,5.548,50.723,12.005,75.848,19.369c25.104,7.464,50.076,15.763,74.833,25.959c12.38,5.101,24.713,10.638,36.972,17.011
		c12.25,6.436,24.448,13.606,36.464,22.703l0.156,0.118c12.338,9.34,14.769,26.915,5.428,39.254
		c-9.34,12.338-26.915,14.769-39.256,5.426c-9.664-7.32-18.651-15-28.986-21.455c-10.003-6.249-20.62-12.078-31.511-17.599
		c-21.8-11.065-44.791-20.797-68.133-29.78c-23.392-8.901-47.224-17.04-71.294-24.296c-12.031-3.617-24.128-7.042-36.214-10.11
		c-11.673-2.912-23.274-5.269-35.149-7.15c-8.985-1.423-16.193-8.296-14.889-18.01C128.56,194.756,135.405,188.958,143.257,188.985z
		"/>
	<path style="fill:#FF6361;" d="M368.736,188.985c-13.942,0.032-27.781,2.418-41.484,4.773c-12.947,2.225-25.733,4.786-38.478,7.548
		c-25.476,5.548-50.723,12.005-75.848,19.369c-25.104,7.464-50.076,15.763-74.833,25.959c-12.38,5.101-24.713,10.638-36.972,17.011
		c-12.25,6.436-24.448,13.606-36.464,22.703l-0.156,0.118c-12.339,9.34-14.769,26.915-5.429,39.254
		c9.34,12.338,26.915,14.769,39.256,5.426c9.664-7.32,18.651-15,28.986-21.455c10.003-6.249,20.62-12.078,31.511-17.599
		c21.8-11.065,44.791-20.797,68.133-29.78c23.392-8.901,47.224-17.04,71.293-24.296c12.031-3.617,24.128-7.042,36.214-10.11
		c11.673-2.912,23.274-5.269,35.149-7.15c8.985-1.423,16.193-8.296,14.889-18.01C383.434,194.756,376.589,188.958,368.736,188.985z"
		/>
</g>
<path style="opacity:0.3;enable-background:new    ;" d="M368.736,188.985c-13.942,0.032-27.781,2.418-41.484,4.773
	c-12.947,2.225-25.733,4.786-38.478,7.548c-25.476,5.548-50.723,12.005-75.848,19.369c-25.104,7.464-50.076,15.763-74.833,25.959
	c-12.38,5.101-24.713,10.638-36.972,17.011c-12.25,6.436-24.448,13.606-36.464,22.703l-0.156,0.118
	c-12.339,9.34-14.769,26.915-5.429,39.254c9.34,12.338,26.915,14.769,39.256,5.426c9.664-7.32,18.651-15,28.986-21.455
	c10.003-6.249,20.62-12.078,31.511-17.599c21.8-11.065,44.791-20.797,68.133-29.78c23.392-8.901,47.224-17.04,71.293-24.296
	c12.031-3.617,24.128-7.042,36.214-10.11c11.673-2.912,23.274-5.269,35.149-7.15c8.985-1.423,16.193-8.296,14.889-18.01
	C383.434,194.756,376.589,188.958,368.736,188.985z"/>
<path style="fill:#FF6361;" d="M475.109,175.166H36.892c-15.972,0-28.92,12.947-28.92,28.92c0,15.971,12.947,28.92,28.92,28.92
	h14.633l2.788,15.904c4.949,28.226,29.462,48.815,58.118,48.815h61.646c28.656,0,53.17-20.589,58.118-48.815l5.208-29.702
	c12.22-2.953,24.973-2.954,37.193,0l5.208,29.702c4.949,28.226,29.462,48.815,58.118,48.815h61.646
	c28.656,0,53.17-20.589,58.118-48.815l2.788-15.904h14.633c15.971,0,28.92-12.947,28.92-28.92
	C504.028,188.114,491.08,175.166,475.109,175.166z"/>
<path style="opacity:0.15;enable-background:new    ;" d="M181.163,287.032h-61.646c-28.656,0-53.17-20.589-58.118-48.815
	l-2.788-15.904H43.977c-16.241,0-29.357-13.389-28.908-29.733c0.091-3.334,0.765-6.512,1.912-9.456
	c-5.546,5.269-9.009,12.709-9.009,20.962c0,15.971,12.947,28.92,28.92,28.92h14.633l2.788,15.904
	c4.949,28.226,29.462,48.815,58.118,48.815h61.646c22.56,0,42.545-12.765,52.445-31.967
	C215.614,278.857,199.213,287.032,181.163,287.032z M406.653,287.032h-61.646c-28.656,0-53.17-20.589-58.118-48.816l-4.104-20.31
	c-0.955-5.448-5.365-9.659-10.861-10.276c-6.75-0.757-16.18-0.81-23.007-0.159c-6.139,0.586-10.915,5.555-11.299,11.687
	c12.154-2.902,24.83-2.888,36.978,0.048l5.208,29.702c4.949,28.226,29.462,48.815,58.118,48.815h61.646
	c22.561,0,42.545-12.765,52.445-31.968C441.105,278.857,424.703,287.032,406.653,287.032z"/>
<circle style="fill:#FFB547;" cx="36.503" cy="204.084" r="8.802"/>
<path style="fill:#333E48;" d="M112.432,271.15c-15.784,0-29.217-11.283-31.944-26.829l-5.301-30.24
	c-0.736-4.203,1.13-7.183,2.307-8.585c1.178-1.402,3.791-3.754,8.057-3.754h115.408c4.267,0,6.879,2.352,8.056,3.754
	s3.043,4.382,2.308,8.585l-5.302,30.24c-2.725,15.546-16.16,26.829-31.943,26.829H112.432z"/>
<g style="opacity:0.1;">
	<path d="M190.023,254.142h-61.646c-15.784,0-29.217-11.283-31.944-26.829l-4.483-25.572h-6.399c-4.267,0-6.88,2.352-8.057,3.754
		c-1.177,1.402-3.042,4.382-2.307,8.585l5.301,30.24c2.727,15.546,16.16,26.829,31.944,26.829h61.646
		c13.444,0,25.177-8.189,30.046-20.223C199.842,252.992,195.053,254.142,190.023,254.142z"/>
</g>
<circle style="fill:#FFB547;" cx="475.497" cy="204.084" r="8.802"/>
<path style="fill:#333E48;" d="M399.569,271.15c15.784,0,29.217-11.283,31.944-26.829l5.301-30.24
	c0.736-4.203-1.13-7.183-2.307-8.585c-1.178-1.402-3.791-3.754-8.057-3.754H311.041c-4.267,0-6.879,2.352-8.056,3.754
	s-3.043,4.382-2.308,8.585l5.302,30.24c2.726,15.546,16.16,26.829,31.943,26.829H399.569z"/>
<g style="opacity:0.1;">
	<path d="M415.514,254.142h-61.646c-15.784,0-29.217-11.283-31.944-26.829l-4.483-25.572h-6.399c-4.267,0-6.88,2.352-8.057,3.754
		c-1.177,1.402-3.042,4.382-2.307,8.585l5.301,30.24c2.726,15.546,16.16,26.829,31.944,26.829h61.646
		c13.444,0,25.177-8.189,30.046-20.223C425.333,252.992,420.545,254.142,415.514,254.142z"/>
</g>
<path style="fill:#1E252B;" d="M200.959,193.768H85.551c-7.498,0-12.092,4.135-14.163,6.601c-2.069,2.465-5.346,7.702-4.053,15.087
	l5.301,30.24c3.396,19.369,20.133,33.425,39.796,33.425h61.646c19.663,0,36.399-14.057,39.796-33.425l5.302-30.241
	c0.945-5.396-0.534-10.896-4.056-15.088C213.05,197.903,208.457,193.768,200.959,193.768z M203.47,212.704l-5.302,30.24
	c-2.056,11.724-12.187,20.233-24.089,20.233h-61.646c-11.903,0-22.035-8.509-24.091-20.233l-5.301-30.239
	c-0.056-0.321-0.205-1.172,0.557-2.081c0.765-0.911,1.629-0.911,1.954-0.911h115.408c0.325,0,1.187,0,1.953,0.911
	C203.676,211.533,203.527,212.385,203.47,212.704z M475.109,167.193H36.891C16.549,167.193,0,183.743,0,204.086
	s16.549,36.892,36.891,36.892h7.937l1.632,9.309c1.967,11.215,6.638,21.35,13.265,29.799l-0.034,0.027
	c-7.666,5.803-12.612,14.243-13.929,23.765c-1.316,9.523,1.154,18.989,6.957,26.655c5.803,7.666,14.244,12.612,23.767,13.929
	c1.672,0.232,3.343,0.345,5.004,0.345c7.79,0,15.334-2.519,21.654-7.305c2.768-2.096,5.498-4.234,8.137-6.302
	c6.782-5.312,13.189-10.33,20.26-14.748c5.739-3.584,11.817-7.114,18.513-10.754h24.024c26.189,0,49.233-15.049,60.207-37.613
	c7.196-2.702,14.439-5.346,21.706-7.897c7.226,2.535,14.502,5.178,21.719,7.887c10.97,22.569,34.019,37.622,60.211,37.622h24.017
	c6.695,3.64,12.774,7.169,18.514,10.754c7.07,4.417,13.476,9.435,20.257,14.747c2.64,2.068,5.371,4.206,8.141,6.305
	c6.486,4.911,14.114,7.284,21.685,7.284c10.897,0,21.671-4.916,28.74-14.254c5.803-7.665,8.273-17.131,6.957-26.655
	c-1.317-9.522-6.264-17.962-13.938-23.772l-0.022-0.017c6.629-8.45,11.301-18.585,13.267-29.802l1.632-9.309h7.937
	c20.342,0,36.891-16.55,36.891-36.892C512,183.743,495.451,167.193,475.109,167.193z M101.45,318.647
	c-2.589,2.028-5.266,4.125-7.931,6.143c-4.27,3.233-9.548,4.609-14.849,3.877c-5.304-0.732-10.006-3.488-13.238-7.758
	c-3.231-4.27-4.608-9.544-3.875-14.847c0.733-5.304,3.488-10.006,7.77-13.247l0.144-0.109c0.545-0.412,1.106-0.82,1.659-1.229
	c11.443,8.958,25.822,14.221,41.302,14.221h6.419C112.714,309.836,107.001,314.299,101.45,318.647z M240.297,248.867l4.02-22.935
	c7.719-1.279,15.644-1.279,23.363,0l2.226,12.695C260.033,241.886,250.138,245.301,240.297,248.867z M446.564,320.908
	c-6.673,8.814-19.273,10.554-28.087,3.883c-2.666-2.019-5.344-4.117-7.934-6.145c-5.551-4.348-11.262-8.81-17.399-12.949h6.425
	c15.479,0,29.857-5.262,41.299-14.219c0.555,0.411,1.117,0.818,1.665,1.233l0.149,0.112c4.27,3.233,7.024,7.934,7.758,13.238
	C451.171,311.366,449.796,316.639,446.564,320.908z M475.109,225.033h-14.634c-3.872,0-7.185,2.782-7.853,6.596l-2.788,15.904
	c-4.288,24.464-25.429,42.219-50.266,42.219h-61.646c-24.837,0-45.976-17.755-50.265-42.219l-5.208-29.702
	c-0.548-3.124-2.897-5.627-5.98-6.373c-6.696-1.619-13.582-2.427-20.469-2.427s-13.773,0.809-20.469,2.427
	c-3.084,0.745-5.432,3.249-5.98,6.373l-5.208,29.702c-4.288,24.464-25.428,42.219-50.265,42.219h-61.646
	c-24.837,0-45.978-17.755-50.266-42.219l-2.788-15.904c-0.669-3.814-3.981-6.596-7.853-6.596H36.891
	c-11.549,0-20.946-9.397-20.946-20.947c0-11.55,9.397-20.947,20.946-20.947h438.218c11.549,0,20.946,9.397,20.946,20.947
	C496.055,215.636,486.658,225.033,475.109,225.033z M426.449,193.768H311.041c-7.497,0-12.09,4.135-14.16,6.599
	c-3.523,4.192-5.001,9.692-4.056,15.089l5.302,30.24c3.396,19.369,20.132,33.425,39.796,33.425h61.646
	c19.663,0,36.4-14.057,39.797-33.425l5.301-30.241c1.293-7.384-1.985-12.621-4.055-15.088
	C438.541,197.903,433.947,193.768,426.449,193.768z M428.96,212.704l-5.301,30.24c-2.056,11.724-12.187,20.233-24.091,20.233
	h-61.646c-11.902,0-22.034-8.509-24.089-20.233l-5.302-30.239c-0.056-0.32-0.205-1.172,0.558-2.081
	c0.765-0.911,1.627-0.911,1.953-0.911h115.408c0.325,0,1.188,0,1.952,0.909C429.165,211.533,429.017,212.384,428.96,212.704z"/>
<g>
</g>
<g>
</g>
<g>
</g>
<g>
</g>
<g>
</g>
<g>
</g>
<g>
</g>
<g>
</g>
<g>
</g>
<g>
</g>
<g>
</g>
<g>
</g>
<g>
</g>
<g>
</g>
<g>
</g>
</svg>
