<?xml version="1.0" encoding="iso-8859-1"?>
<!-- Generator: Adobe Illustrator 19.0.0, SVG Export Plug-In . SVG Version: 6.00 Build 0)  -->
<svg version="1.1" id="Layer_1" xmlns="http://www.w3.org/2000/svg" xmlns:xlink="http://www.w3.org/1999/xlink" x="0px" y="0px"
	 viewBox="0 0 295.996 295.996" style="enable-background:new 0 0 295.996 295.996;" xml:space="preserve">
<g>
	<path style="fill:#FFCE00;" d="M134.813,263.942c-26.155-6.005-45.727-29.455-45.727-57.406c0-32.483,26.427-58.911,58.91-58.911
		c32.484,0,58.912,26.428,58.912,58.911c0,19.566-9.597,36.925-24.321,47.645c51.787-20.54,88.409-71.084,88.409-130.183
		c0-11.334-1.363-22.348-3.907-32.899c-7.269-15.153-17.35-28.709-29.558-39.997c-22.391-13.376-48.766-20.666-76.771-19.645
		c-38.243,1.394-72.337,18.009-96.685,43.797l25.366-18.648l9.477,12.891L62.908,95.97L55.25,85.552
		c-19.439,25.031-30.54,56.763-29.295,90.911c0.413,11.304,2.17,22.239,5.087,32.673c6.303,12.01,14.397,22.938,23.934,32.42
		c21.892,14.189,47.99,22.44,76.022,22.44C132.274,263.996,133.546,263.977,134.813,263.942z M206.553,56.605l36.01,26.474
		l-9.477,12.891l-36.01-26.474L206.553,56.605z M197.497,98.998c8.836,0,16,7.164,16,16s-7.164,16-16,16s-16-7.164-16-16
		S188.661,98.998,197.497,98.998z M82.497,114.998c0-8.836,7.164-16,16-16s16,7.164,16,16s-7.164,16-16,16
		S82.497,123.834,82.497,114.998z"/>
	<path style="fill:#FFB100;" d="M267.089,91.099c2.544,10.552,3.907,21.565,3.907,32.899c0,59.099-36.622,109.643-88.409,130.183
		c-9.721,7.078-21.673,11.268-34.591,11.268c-4.532,0-8.941-0.531-13.183-1.506c-1.268,0.034-2.539,0.054-3.815,0.054
		c-28.032,0-54.131-8.251-76.022-22.44c23.88,23.744,56.766,38.44,93.022,38.44c72.784,0,131.998-59.214,131.998-131.998
		C279.996,127.636,275.358,108.337,267.089,91.099z"/>
	<path style="fill:#FFE454;" d="M55.25,85.552l-1.818-2.473l10.644-7.825c24.348-25.788,58.441-42.403,96.685-43.797
		c28.006-1.021,54.381,6.269,76.771,19.645C213.985,29.328,182.521,16,147.998,16C75.214,16,16,75.214,16,147.998
		c0,22.05,5.442,42.849,15.042,61.138c-2.917-10.434-4.674-21.369-5.087-32.673C24.71,142.314,35.811,110.583,55.25,85.552z"/>
	<path d="M147.998,0C66.392,0,0,66.392,0,147.998s66.392,147.998,147.998,147.998s147.998-66.392,147.998-147.998
		S229.604,0,147.998,0z M147.998,279.996c-36.257,0-69.143-14.696-93.022-38.44c-9.536-9.482-17.631-20.41-23.934-32.42
		C21.442,190.847,16,170.048,16,147.998C16,75.214,75.214,16,147.998,16c34.523,0,65.987,13.328,89.533,35.102
		c12.208,11.288,22.289,24.844,29.558,39.997c8.27,17.238,12.907,36.537,12.907,56.899
		C279.996,220.782,220.782,279.996,147.998,279.996z"/>
	<circle cx="98.497" cy="114.998" r="16"/>
	<circle cx="197.497" cy="114.998" r="16"/>
	<path style="fill:#FFFFFF;" d="M147.996,163.625c-23.661,0-42.91,19.25-42.91,42.911c0,23.662,19.249,42.912,42.91,42.912
		c23.662,0,42.912-19.25,42.912-42.912C190.908,182.875,171.658,163.625,147.996,163.625z"/>
	<path d="M206.908,206.536c0-32.483-26.428-58.911-58.912-58.911c-32.483,0-58.91,26.428-58.91,58.911
		c0,27.951,19.572,51.401,45.727,57.406c4.241,0.975,8.65,1.506,13.183,1.506c12.918,0,24.87-4.19,34.591-11.268
		C197.312,243.461,206.908,226.103,206.908,206.536z M147.996,249.448c-23.661,0-42.91-19.25-42.91-42.912
		c0-23.661,19.249-42.911,42.91-42.911c23.662,0,42.912,19.25,42.912,42.911C190.908,230.198,171.658,249.448,147.996,249.448z"/>
	
		<rect x="197.476" y="68.282" transform="matrix(-0.8057 -0.5923 0.5923 -0.8057 351.7543 267.9441)" width="44.693" height="15.999"/>
	<polygon points="55.25,85.552 62.908,95.97 98.918,69.496 89.441,56.605 64.075,75.254 53.432,83.079 	"/>
</g>
<g>
</g>
<g>
</g>
<g>
</g>
<g>
</g>
<g>
</g>
<g>
</g>
<g>
</g>
<g>
</g>
<g>
</g>
<g>
</g>
<g>
</g>
<g>
</g>
<g>
</g>
<g>
</g>
<g>
</g>
</svg>
