<?xml version="1.0" encoding="iso-8859-1"?>
<!-- Generator: Adobe Illustrator 19.0.0, SVG Export Plug-In . SVG Version: 6.00 Build 0)  -->
<svg version="1.1" id="Layer_1" xmlns="http://www.w3.org/2000/svg" xmlns:xlink="http://www.w3.org/1999/xlink" x="0px" y="0px"
	 viewBox="0 0 512.001 512.001" style="enable-background:new 0 0 512.001 512.001;" xml:space="preserve">
<polygon style="fill:#47A7DD;" points="267.759,207.743 136.973,207.743 130.553,114.561 156.72,88.873 189.894,86.596 
	189.905,86.596 231.32,83.742 260.74,105.61 "/>
<polygon style="fill:#3F9EC9;" points="176.3,120.603 181.775,207.731 181.753,207.743 136.973,207.743 130.553,114.561 
	156.72,88.873 189.894,86.596 189.905,86.596 "/>
<polygon style="fill:#E6E6E6;" points="319.567,503.67 142.837,503.67 122.689,207.737 339.713,207.737 "/>
<polygon style="fill:#CCCCCC;" points="122.689,207.737 142.837,503.67 191.704,503.67 171.556,207.737 "/>
<path style="fill:#FC583D;" d="M323.472,207.743l16.363-183.979c0.692-7.795-5.072-14.682-12.879-15.375
	c-7.795-0.703-14.682,5.061-15.375,12.868l-16.589,186.487"/>
<rect x="333.26" y="28.535" transform="matrix(-0.9961 -0.0886 0.0886 -0.9961 706.278 229.1288)" style="fill:#E6E6E6;" width="49.929" height="140.709"/>
<polygon style="fill:#CEBBA3;" points="231.32,83.753 189.905,86.596 156.72,88.873 164.472,22.691 187.062,21.136 214.572,19.248 
	"/>
<polygon style="fill:#BAA48C;" points="189.905,86.596 156.72,88.873 164.472,22.691 187.062,21.136 "/>
<path d="M390.047,22.719l-42.126-3.746c-0.628-3.98-2.298-7.737-4.953-10.907c-3.861-4.61-9.286-7.442-15.263-7.972
	c-5.982-0.54-11.821,1.285-16.435,5.141c-4.619,3.861-7.454,9.289-7.986,15.284l-7.553,84.916c-0.408,4.582,2.976,8.627,7.559,9.035
	c4.572,0.411,8.627-2.976,9.035-7.559l7.553-84.918c0.139-1.56,0.875-2.972,2.076-3.975c1.195-0.998,2.708-1.47,4.267-1.331
	c1.559,0.139,2.971,0.875,3.976,2.075c1.003,1.197,1.479,2.713,1.342,4.266l-0.247,2.774c-0.002,0.018-0.006,0.036-0.008,0.054
	l-15.432,173.552h-11.755l5.761-64.755c0.408-4.582-2.976-8.627-7.559-9.035c-4.58-0.412-8.627,2.976-9.035,7.559l-5.892,66.231
	h-11.828l-6.49-94.37c-0.167-2.429-1.388-4.662-3.342-6.114l-27.073-20.119l-15.999-61.651c-1.007-3.881-4.631-6.494-8.634-6.217
	l-50.099,3.445c-3.999,0.275-7.236,3.36-7.702,7.341l-7.41,63.262l-24.072,23.632c-1.737,1.706-2.641,4.086-2.474,6.516l4.823,70.11
	c0.317,4.59,4.303,8.046,8.882,7.739c4.589-0.317,8.054-4.293,7.739-8.882l-4.053-58.894c9.285,1.781,23.685,3.795,41.394,3.795
	c9.137,0,19.158-0.536,29.8-1.918c4.562-0.592,7.78-4.77,7.188-9.333c-0.592-4.561-4.763-7.781-9.333-7.188
	c-25.702,3.337-47.667,1.281-61.225-0.926l12.895-12.66l68.467-4.708l14.413,10.711c-3.26,1.021-6.54,1.981-9.845,2.831
	c-4.455,1.146-7.137,5.687-5.991,10.143c0.967,3.759,4.35,6.256,8.061,6.256c0.687,0,1.386-0.086,2.082-0.264
	c5.269-1.356,10.494-2.941,15.646-4.692l5.65,82.155H122.689c-2.308,0-4.511,0.957-6.086,2.643c-1.575,1.686-2.381,3.95-2.223,6.252
	l14.935,219.356c0.312,4.59,4.297,8.066,8.876,7.744c4.59-0.312,8.058-4.286,7.744-8.876l-14.328-210.461h199.192l-19.014,279.274
	H150.619l-2.809-41.253c-0.313-4.589-4.286-8.071-8.876-7.744c-4.59,0.312-8.058,4.286-7.745,8.876l3.337,49.016
	c0.298,4.371,3.93,7.764,8.311,7.764h176.73c4.38,0,8.013-3.393,8.311-7.764l20.148-295.933c0.157-2.302-0.649-4.566-2.223-6.252
	c-1.575-1.686-3.779-2.643-6.086-2.643h-7.138l2.101-23.631l41.432,3.685c0.247,0.022,0.493,0.032,0.739,0.032
	c1.946,0,3.841-0.682,5.344-1.941c1.695-1.417,2.757-3.45,2.952-5.651l12.462-140.148C398.014,27.171,394.629,23.126,390.047,22.719
	z M208.25,28.032l12.48,48.091l-54.565,3.752l5.78-49.346L208.25,28.032z M336.153,159.183l10.989-123.554l33.133,2.946
	l-0.836,9.401l-16.568-1.473c-4.575-0.411-8.626,2.976-9.035,7.559c-0.408,4.582,2.978,8.627,7.56,9.035l16.568,1.473l-1.037,11.662
	l-16.568-1.473c-4.571-0.412-8.627,2.976-9.035,7.559c-0.408,4.582,2.978,8.627,7.56,9.035l16.568,1.473l-1.037,11.662
	l-16.568-1.473c-4.577-0.413-8.627,2.976-9.035,7.559c-0.408,4.582,2.978,8.627,7.56,9.035l16.568,1.473l-1.037,11.662
	l-16.568-1.473c-4.566-0.408-8.627,2.976-9.035,7.559c-0.408,4.582,2.978,8.627,7.56,9.035l16.568,1.473l-1.137,12.792
	L336.153,159.183z"/>
<g>
</g>
<g>
</g>
<g>
</g>
<g>
</g>
<g>
</g>
<g>
</g>
<g>
</g>
<g>
</g>
<g>
</g>
<g>
</g>
<g>
</g>
<g>
</g>
<g>
</g>
<g>
</g>
<g>
</g>
</svg>
