<?xml version="1.0" encoding="iso-8859-1"?>
<!-- Generator: Adobe Illustrator 19.0.0, SVG Export Plug-In . SVG Version: 6.00 Build 0)  -->
<svg version="1.1" id="Layer_1" xmlns="http://www.w3.org/2000/svg" xmlns:xlink="http://www.w3.org/1999/xlink" x="0px" y="0px"
	 viewBox="0 0 512 512" style="enable-background:new 0 0 512 512;" xml:space="preserve">
<path style="fill:#B5E06C;" d="M438.057,260.269h63.38c0,10.572-4.278,20.126-11.201,27.059
	c-6.933,6.922-16.486,11.201-27.059,11.201h-41.823c10.16-7.789,16.704-20.05,16.704-33.829v-4.431H438.057z"/>
<path style="fill:#FFF3E6;" d="M438.057,260.269v4.431c0,13.779-6.542,26.04-16.704,33.829h-0.011
	c-7.171,5.503-16.151,8.774-25.889,8.774h-40.307H197.701h-42.3c-23.528,0-42.603-19.075-42.603-42.603v-4.431H218h114.853
	L438.057,260.269L438.057,260.269z"/>
<path style="fill:#A3875E;" d="M438.057,251.126v9.142H332.854v-38.01l51.529-65.285
	C416.511,176.016,438.057,211.058,438.057,251.126z"/>
<path style="fill:#B5E06C;" d="M401.79,307.302v41.855c0,11.666-9.457,21.123-21.123,21.123h-4.398
	c-11.655,0-21.123-9.457-21.123-21.123v-41.855h40.307H401.79z"/>
<path style="fill:#6E5B3F;" d="M384.383,156.972l-51.529,65.285l-57.421-80.537h53.219
	C349.006,141.721,368.059,147.278,384.383,156.972z"/>
<polygon style="fill:#A3875E;" points="332.854,222.259 332.854,260.269 218.001,260.269 218.001,222.259 275.433,141.721 "/>
<path style="fill:#6E5B3F;" d="M275.433,141.721l-57.432,80.537l-51.529-65.285c16.324-9.695,35.378-15.252,55.731-15.252H275.433z"
	/>
<path style="fill:#A3875E;" d="M218.001,222.259v38.01H112.799v-9.142c0-3.629,0.173-7.214,0.52-10.746
	c3.466-35.53,23.928-66.087,53.154-83.408L218.001,222.259z"/>
<g>
	<path style="fill:#B5E06C;" d="M197.701,307.302v41.855c0,11.666-9.457,21.123-21.123,21.123h-4.387
		c-11.666,0-21.123-9.457-21.123-21.123v-41.855h4.333H197.701z"/>
	<path style="fill:#B5E06C;" d="M155.401,307.302h-4.333H35.272c-13.649,0-24.708-11.07-24.708-24.719
		c0-11.666,4.723-22.228,12.37-29.875c7.647-7.647,18.209-12.37,29.875-12.37h59.988l0.52,0.043
		c-0.347,3.532-0.52,7.117-0.52,10.746v9.142v4.431C112.799,288.226,131.874,307.302,155.401,307.302z"/>
</g>
<path d="M410.917,178.246c-4.714,3.438-5.749,10.045-2.311,14.76c0.614,0.842,1.214,1.694,1.801,2.555
	c2.045,3.002,5.363,4.619,8.741,4.619c2.047,0,4.117-0.595,5.937-1.834c4.822-3.284,6.069-9.856,2.785-14.678
	c-0.714-1.05-1.445-2.086-2.192-3.111C422.24,175.844,415.631,174.809,410.917,178.246z"/>
<path d="M35.272,317.866h105.233v31.292c0,17.473,14.215,31.687,31.687,31.687h4.387c17.473,0,31.687-14.215,31.687-31.687v-31.292
	h136.318v31.292c0,17.473,14.215,31.687,31.687,31.687h4.398c17.473,0,31.687-14.215,31.687-31.687v-34.024
	c4.335-1.453,8.474-3.478,12.345-6.042h38.477c13.034,0,25.294-5.075,34.535-14.3c9.214-9.229,14.289-21.489,14.289-34.523
	c0-5.834-4.729-10.564-10.564-10.564h-52.845c-0.154-13.291-2.449-26.324-6.868-38.757c-1.954-5.497-7.994-8.371-13.491-6.415
	c-5.497,1.953-8.37,7.994-6.415,13.491c3.61,10.156,5.494,20.809,5.647,31.681h-84.045v-23.779l43.251-54.798
	c1.576,1.144,3.128,2.32,4.629,3.551c4.511,3.699,11.167,3.041,14.867-1.47c3.7-4.512,3.041-11.167-1.47-14.867
	c-4.606-3.777-9.531-7.229-14.629-10.271c-0.019-0.012-0.038-0.023-0.057-0.036c-0.078-0.046-0.154-0.097-0.231-0.144
	c-18.432-10.946-39.569-16.732-61.126-16.732H222.203c-21.557,0-42.694,5.786-61.118,16.728c-0.086,0.051-0.17,0.106-0.256,0.156
	c-0.011,0.006-0.021,0.013-0.032,0.019c-29.854,17.807-50.522,47.855-56.651,81.712H52.809c-14.109,0-27.372,5.492-37.346,15.465
	C5.492,255.21,0,268.473,0,282.583C0,302.038,15.824,317.866,35.272,317.866z M187.137,349.157c0,5.822-4.737,10.559-10.559,10.559
	h-4.387c-5.822,0-10.559-4.737-10.559-10.559v-31.292h25.505L187.137,349.157L187.137,349.157z M391.227,349.157
	c0,5.822-4.737,10.559-10.559,10.559h-4.398c-5.822,0-10.559-4.737-10.559-10.559v-31.292h25.515V349.157z M482.772,279.851
	c-5.24,5.231-12.198,8.112-19.595,8.112h-19.878c2.595-5.336,4.289-11.111,4.974-17.132h40.523
	C487.423,274.166,485.392,277.227,482.772,279.851z M414.993,290.09c-0.027,0.02-0.056,0.036-0.082,0.057
	c-5.619,4.312-12.347,6.591-19.458,6.591h-40.307H197.701h-42.3c-15.569,0-28.581-11.163-31.45-25.905h302.96
	C425.451,278.434,421.284,285.241,414.993,290.09z M228.565,249.705v-24.066l46.868-65.722l46.859,65.722v24.066H228.565z
	 M368.134,160.508l-34.85,44.155l-37.345-52.378h32.712C342.308,152.285,355.75,155.111,368.134,160.508z M254.925,152.285
	l-37.353,52.379l-34.852-44.156c12.382-5.397,25.826-8.223,39.483-8.223L254.925,152.285L254.925,152.285z M164.179,171.119
	l43.257,54.806v23.779h-84.04c0.039-2.794,0.169-5.58,0.435-8.298C126.574,213.305,141.45,187.642,164.179,171.119z M30.404,260.178
	c5.981-5.982,13.938-9.276,22.405-9.276h49.428c0,0.075-0.003,0.15-0.003,0.225v9.142v4.431c0,12.023,4.016,23.122,10.771,32.039
	H35.272c-7.799,0-14.144-6.35-14.144-14.155C21.128,274.116,24.423,266.159,30.404,260.178z"/>
<path d="M58.691,284.383h5.383c5.834,0,10.564-4.729,10.564-10.564s-4.729-10.564-10.564-10.564h-5.383
	c-5.834,0-10.564,4.729-10.564,10.564S52.857,284.383,58.691,284.383z"/>
<g>
</g>
<g>
</g>
<g>
</g>
<g>
</g>
<g>
</g>
<g>
</g>
<g>
</g>
<g>
</g>
<g>
</g>
<g>
</g>
<g>
</g>
<g>
</g>
<g>
</g>
<g>
</g>
<g>
</g>
</svg>
