<?xml version="1.0" encoding="iso-8859-1"?>
<!-- Generator: Adobe Illustrator 19.0.0, SVG Export Plug-In . SVG Version: 6.00 Build 0)  -->
<svg version="1.1" id="Layer_1" xmlns="http://www.w3.org/2000/svg" xmlns:xlink="http://www.w3.org/1999/xlink" x="0px" y="0px"
	 viewBox="0 0 512.001 512.001" style="enable-background:new 0 0 512.001 512.001;" xml:space="preserve">
<g>
	<path style="fill:#FB7B76;" d="M455.921,157.453h-63.12h-1.1c0-11.906-2.954-23.124-8.163-32.976l0.545-0.288l54.712-31.777
		l0.3-0.167C449.823,111.593,455.921,133.818,455.921,157.453z"/>
	<path style="fill:#FB7B76;" d="M387.928,160.548h63.12c0,23.869-6.22,46.293-17.138,65.764l-0.3-0.167l-54.656-30.655l-1.055-0.588
		c5.687-10.174,8.929-21.891,8.929-34.354L387.928,160.548L387.928,160.548z"/>
	<path style="fill:#FB7B76;" d="M434.221,95.339l-0.3,0.167l-54.712,31.777l-0.545,0.288c-5.82-11.007-14.461-20.314-24.957-26.934
		l32.988-54.846l0.111-0.178C406.566,57.81,422.959,74.97,434.221,95.339z"/>
	<path style="fill:#FB7B76;" d="M438.483,223.05l0.3,0.167c-11.185,20.004-27.334,36.874-46.748,48.959l-0.466-0.744l-33.098-50.991
		l-2.354-1.599c11.163-6.409,20.404-15.783,26.656-27.034l1.055,0.588L438.483,223.05z"/>
	<path style="fill:#FB7B76;" d="M375.689,437.13c17.738,0,32.11,14.383,32.11,32.11c0,17.738-14.372,32.121-32.11,32.121h-26.801
		V437.13H375.689z"/>
	<path style="fill:#FB7B76;" d="M386.695,274.526l0.466,0.744c-20.659,12.862-45.039,20.292-71.117,20.292h-4.643v-64.231h4.643
		c12.806,0,24.823-3.42,35.197-9.396l2.354,1.599L386.695,274.526z"/>
	<path style="fill:#FB7B76;" d="M388.583,45.614l-0.111,0.178l-32.988,54.846c-9.807-6.187-21.214-10.03-33.454-10.752V25.6
		C346.378,26.345,369.114,33.575,388.583,45.614z"/>
	<rect x="296.525" y="437.13" style="fill:#FB7B76;" width="52.355" height="64.228"/>
</g>
<path style="fill:#FBB0AD;" d="M214.595,89.765V25.534v-0.722c0-7.83,6.353-14.172,14.172-14.172h79.091
	c7.83,0,14.172,6.342,14.172,14.172V25.6v64.286v0.6c0,7.83-6.342,14.172-14.172,14.172h-79.091
	c-7.819,0-14.172-6.342-14.172-14.172L214.595,89.765L214.595,89.765z"/>
<g>
	<polygon style="fill:#FB7B76;" points="316.274,228.237 316.274,292.468 259.096,292.468 255.454,292.468 255.454,228.237 
		259.096,228.237 	"/>
	<rect x="244.18" y="437.13" style="fill:#FB7B76;" width="52.345" height="64.228"/>
	<path style="fill:#FB7B76;" d="M250.581,231.332v64.231h-54.234l-7.986-63.831l-0.011-0.333c1.344-0.045,2.699-0.067,4.053-0.067
		H250.581z"/>
	<path style="fill:#FB7B76;" d="M247.279,434.035v64.231h-50.003c-3.477,0-6.93-0.133-10.34-0.4l7.986-63.831v-0.045
		c0.778,0.033,1.566,0.045,2.354,0.045H247.279z"/>
	<rect x="160.94" y="25.534" style="fill:#FB7B76;" width="51.88" height="64.228"/>
	<path style="fill:#FB7B76;" d="M193.233,228.637l7.986,63.831h-3.943c-13.695,0-26.489,3.91-37.33,10.673l-0.255-0.4
		l-34.709-53.468c19.848-12.639,43.195-20.237,68.24-20.97L193.233,228.637z"/>
	<path style="fill:#FB7B76;" d="M191.826,437.086v0.045l-7.986,63.831c-22.147-1.677-42.817-8.73-60.71-19.859l33.088-55.034
		l0.011-0.011C166.581,432.677,178.754,436.663,191.826,437.086z"/>
	<path style="fill:#FB7B76;" d="M162.715,25.534v64.231h-26.401c-17.738,0-32.11-14.383-32.11-32.121
		c0-17.727,14.372-32.11,32.11-32.11H162.715z"/>
	<path style="fill:#FB7B76;" d="M156.596,305.837l0.255,0.4c-10.263,6.387-18.759,15.328-24.624,25.923l-1.355-0.755l-54.656-30.644
		c10.963-19.671,26.723-36.331,45.672-48.392L156.596,305.837z"/>
	<path style="fill:#FB7B76;" d="M159.324,422.962l-0.011,0.011l-33.088,55.034c-19.681-12.229-35.998-29.378-47.226-49.715
		l54.701-31.777l0.866-0.466C140.332,407.034,148.906,416.331,159.324,422.962z"/>
	<path style="fill:#FB7B76;" d="M133.967,328.309l1.355,0.755c-5.631,10.14-8.829,21.791-8.829,34.187H62.272
		c0-23.78,6.187-46.16,17.038-65.586L133.967,328.309z"/>
	<path style="fill:#FB7B76;" d="M131.472,399.145l-0.866,0.466l-54.701,31.777c-10.663-19.304-16.727-41.484-16.727-65.041h64.22
		C123.397,378.176,126.318,389.337,131.472,399.145z"/>
</g>
<path d="M347.709,212.717c-9.059,5.217-19.394,7.976-29.887,7.976H194.181c-1.469,0-2.952,0.024-4.365,0.071
	c-26.132,0.765-51.598,8.59-73.643,22.629c-0.022,0.015-0.045,0.03-0.068,0.045c-0.004,0.002-0.007,0.004-0.012,0.006
	c-0.005,0.003-0.01,0.007-0.015,0.011c-20.334,12.966-37.281,30.91-49.026,51.9c-0.094,0.159-0.182,0.318-0.267,0.48
	c-11.936,21.473-18.247,45.846-18.247,70.511c0,24.534,6.243,48.804,18.052,70.184c0.033,0.061,0.069,0.119,0.103,0.18
	c0.004,0.007,0.007,0.015,0.012,0.022c0.002,0.004,0.006,0.009,0.009,0.013c12.075,21.783,29.636,40.244,50.798,53.393
	c0.039,0.024,0.081,0.048,0.12,0.072c0.006,0.003,0.011,0.007,0.017,0.012c0.004,0.002,0.01,0.004,0.014,0.006
	c19.692,12.215,42.294,19.595,65.349,21.341c3.67,0.287,7.428,0.432,11.17,0.432h181.508c23.571,0,42.749-19.182,42.749-42.76
	c0-23.572-19.177-42.749-42.749-42.749H194.181c-0.636,0-1.272-0.008-1.9-0.035c-0.037-0.001-0.074-0.003-0.112-0.004
	c-10.73-0.347-21.176-3.582-30.228-9.371c-8.882-5.653-16.161-13.565-21.052-22.886c-4.483-8.533-6.854-18.163-6.854-27.85
	c0-10.16,2.591-20.195,7.5-29.035c4.978-8.994,12.218-16.617,20.947-22.05c9.499-5.927,20.459-9.06,31.697-9.06h3.907
	c0.007,0,0.015,0.001,0.022,0.001c0.005,0,0.011-0.001,0.017-0.001H317.82c27.193,0,53.729-7.573,76.739-21.899
	c20.962-13.047,38.395-31.305,50.406-52.787c12.102-21.579,18.498-46.12,18.498-70.967c0-24.608-6.28-48.941-18.155-70.356
	c-12.117-21.917-29.8-40.462-51.131-53.627c-19.181-11.862-40.92-19.067-63.333-21.077C327.154,6.415,318.244,0,307.859,0h-16.037
	c-5.875,0-10.639,4.763-10.639,10.639s4.764,10.639,10.639,10.639h16.037c1.948,0,3.533,1.585,3.533,3.533v65.674
	c0,1.948-1.585,3.533-3.533,3.533h-79.091c-1.949,0-3.533-1.585-3.533-3.533v-0.609c0-0.038,0.005-0.076,0.005-0.113
	c0-0.037-0.005-0.074-0.005-0.113V25.647c0-0.038,0.005-0.076,0.005-0.113s-0.005-0.074-0.005-0.113v-0.61
	c0-1.948,1.585-3.533,3.533-3.533c5.876,0,10.639-4.763,10.639-10.639S234.644,0,228.768,0c-10.156,0-18.903,6.137-22.737,14.895
	h-69.716c-23.572,0-42.749,19.177-42.749,42.749c0,23.577,19.177,42.76,42.749,42.76h69.716
	c3.834,8.758,12.581,14.895,22.737,14.895h79.091c9.658,0,18.039-5.55,22.137-13.626c6.405,1.329,12.571,3.706,18.227,7.032
	c0.528,0.479,1.112,0.911,1.749,1.287c0.44,0.26,0.893,0.481,1.351,0.67c8.253,5.561,15.058,13.078,19.714,21.884
	c4.598,8.696,6.93,18.118,6.93,28.003c0,10.208-2.62,20.293-7.59,29.184C365.053,199.311,357.219,207.257,347.709,212.717z
	 M203.956,79.125h-30.601V36.173h30.601V79.125z M114.844,57.644c0-11.839,9.632-21.471,21.471-21.471h15.762v42.952h-15.762
	C124.476,79.125,114.844,69.488,114.844,57.644z M431.527,110.233c5.559,12.533,9.008,25.968,10.189,39.675h-43.181
	c-0.811-6.122-2.312-12.142-4.474-17.915L431.527,110.233z M431.194,211.595l-37.667-21.126c2.451-6.189,4.137-12.671,5.012-19.282
	h43.176C440.512,185.163,436.949,198.85,431.194,211.595z M207.515,284.924l-5.374-42.953h39.578v42.953H207.515z M160.462,292.253
	l-23.544-36.269c13.657-7.111,28.534-11.616,43.872-13.272l5.331,42.617C177.226,286.212,168.564,288.554,160.462,292.253z
	 M262.998,241.971h39.542v42.953h-39.542V241.971L262.998,241.971z M323.819,241.74c9.132-0.677,18.083-2.893,26.448-6.536
	l23.588,36.341c-15.528,7.87-32.557,12.375-50.036,13.216V241.74z M80.39,416.479c-5.508-12.481-8.927-25.854-10.103-39.492h43.182
	c0.801,6.053,2.279,12.006,4.401,17.719L80.39,416.479z M113.465,355.707H70.288c1.199-13.904,4.732-27.527,10.437-40.221
	l37.674,21.122C115.988,342.74,114.33,349.161,113.465,355.707z M90.641,435.132l37.214-21.618
	c4.073,5.712,8.866,10.885,14.254,15.375l-22.284,37.065C108.426,457.419,98.539,446.976,90.641,435.132z M179.932,446.504
	l-5.337,42.655c-12.757-2.038-25.186-6.081-36.71-11.949l22.207-36.937C166.407,443.197,173.078,445.286,179.932,446.504z
	 M233.544,447.769v42.952h-37.701l5.374-42.952H233.544z M285.891,490.722h-31.068v-42.952h31.068V490.722z M307.169,447.769h31.08
	v42.952h-31.08V447.769z M397.16,469.24c0,11.846-9.632,21.481-21.471,21.481h-16.161v-42.952h16.161
	C387.528,447.769,397.16,457.401,397.16,469.24z M128.716,317.999l-37.633-21.1c7.609-11.259,17.048-21.252,27.872-29.508
	l23.469,36.153C137.287,307.786,132.677,312.644,128.716,317.999z M391.944,260.334l-23.439-36.11
	c5.524-4.4,10.458-9.495,14.667-15.166l37.632,21.107C412.958,241.739,403.18,251.959,391.944,260.334z M421.252,91.594
	l-37.22,21.617c-4.115-5.742-8.96-10.935-14.406-15.437l22.277-37.042C403.371,69.261,413.314,79.717,421.252,91.594z
	 M332.671,80.49V37.073c14.326,1.724,28.261,5.945,41.136,12.461l-22.219,36.942C345.552,83.72,339.192,81.704,332.671,80.49z"/>
<path d="M261.278,21.278c5.875,0,10.639-4.763,10.639-10.639S267.152,0,261.278,0h-1.947c-5.876,0-10.639,4.763-10.639,10.639
	s4.763,10.639,10.639,10.639H261.278z"/>
<g>
</g>
<g>
</g>
<g>
</g>
<g>
</g>
<g>
</g>
<g>
</g>
<g>
</g>
<g>
</g>
<g>
</g>
<g>
</g>
<g>
</g>
<g>
</g>
<g>
</g>
<g>
</g>
<g>
</g>
</svg>
