<?xml version="1.0" encoding="iso-8859-1"?>
<!-- Generator: Adobe Illustrator 19.0.0, SVG Export Plug-In . SVG Version: 6.00 Build 0)  -->
<svg version="1.1" id="Layer_1" xmlns="http://www.w3.org/2000/svg" xmlns:xlink="http://www.w3.org/1999/xlink" x="0px" y="0px"
	 viewBox="0 0 512.001 512.001" style="enable-background:new 0 0 512.001 512.001;" xml:space="preserve">
<g>
	<path style="fill:#917857;" d="M475.621,169.018c0,8.656-7.018,15.674-15.674,15.674H52.457c-8.656,0-15.674-7.018-15.674-15.674
		c0-8.656,7.018-15.674,15.674-15.674h407.491C468.604,153.344,475.621,160.362,475.621,169.018z"/>
	<path style="fill:#917857;" d="M459.947,336.201H52.457c-8.656,0-15.674-7.018-15.674-15.674c0-8.656,7.018-15.674,15.674-15.674
		h407.491c8.656,0,15.674,7.018,15.674,15.674C475.621,329.184,468.604,336.201,459.947,336.201z"/>
</g>
<path style="fill:#A38A67;" d="M475.419,470.418c0,8.656-7.018,15.674-15.674,15.674H52.255c-8.656,0-15.674-7.018-15.674-15.674
	V30.015c0-8.656,7.018-15.674,15.674-15.674s15.674,7.018,15.674,15.674v424.73h376.142V30.015c0-8.656,7.018-15.674,15.674-15.674
	s15.674,7.018,15.674,15.674V470.418z"/>
<path style="fill:#5D4E38;" d="M496.326,81.509H15.674C7.018,81.509,0,74.492,0,65.835s7.018-15.674,15.674-15.674h480.653
	c8.656,0,15.674,7.018,15.674,15.674S504.982,81.509,496.326,81.509z"/>
<path style="fill:#368B4C;" d="M131.898,228.738c-17.312,0-31.347-14.034-31.347-31.347v-56.747
	c0-17.312,14.034-31.347,31.347-31.347s31.347,14.034,31.347,31.347v56.747C163.245,214.704,149.21,228.738,131.898,228.738z"/>
<path style="fill:#CD7300;" d="M222.805,228.738c-17.312,0-31.347-14.034-31.347-31.347v-56.747
	c0-17.312,14.034-31.347,31.347-31.347s31.347,14.034,31.347,31.347v56.747C254.151,214.704,240.117,228.738,222.805,228.738z"/>
<path style="fill:#85C6F7;" d="M376.405,228.738c-17.312,0-31.347-14.034-31.347-31.347v-56.747
	c0-17.312,14.034-31.347,31.347-31.347s31.347,14.034,31.347,31.347v56.747C407.751,214.704,393.717,228.738,376.405,228.738z"/>
<path style="fill:#AA2300;" d="M189.368,380.249c-17.312,0-31.347-14.034-31.347-31.347v-56.747
	c0-17.312,14.034-31.347,31.347-31.347s31.347,14.034,31.347,31.347v56.747C220.714,366.214,206.68,380.249,189.368,380.249z"/>
<path style="fill:#368B4C;" d="M280.273,380.249c-17.312,0-31.347-14.034-31.347-31.347v-56.747
	c0-17.312,14.034-31.347,31.347-31.347c17.312,0,31.347,14.034,31.347,31.347v56.747
	C311.62,366.214,297.586,380.249,280.273,380.249z"/>
<path style="fill:#CD7300;" d="M376.405,380.249c-17.312,0-31.347-14.034-31.347-31.347v-56.747
	c0-17.312,14.034-31.347,31.347-31.347s31.347,14.034,31.347,31.347v56.747C407.751,366.214,393.717,380.249,376.405,380.249z"/>
<path style="fill:#67573E;" d="M488.245,407.204H23.755c-8.656,0-15.674,7.018-15.674,15.674v59.108
	c0,8.656,7.018,15.674,15.674,15.674h464.49c8.656,0,15.674-7.018,15.674-15.674v-59.108
	C503.918,414.22,496.902,407.204,488.245,407.204z"/>
<path style="fill:#2F7842;" d="M131.898,109.296v119.442c17.312,0,31.347-14.034,31.347-31.347v-56.747
	C163.245,123.332,149.21,109.296,131.898,109.296z"/>
<path style="fill:#AD6100;" d="M222.805,109.296v119.442c17.312,0,31.347-14.034,31.347-31.347v-56.747
	C254.151,123.332,240.117,109.296,222.805,109.296z"/>
<path style="fill:#68ABDE;" d="M376.405,109.296v119.442c17.312,0,31.347-14.034,31.347-31.347v-56.747
	C407.751,123.332,393.717,109.296,376.405,109.296z"/>
<path style="fill:#961F00;" d="M189.368,260.807v119.442c17.312,0,31.347-14.034,31.347-31.347v-56.747
	C220.714,274.842,206.68,260.807,189.368,260.807z"/>
<path style="fill:#2F7842;" d="M280.273,260.807v119.442c17.312,0,31.347-14.034,31.347-31.347v-56.747
	C311.62,274.842,297.586,260.807,280.273,260.807z"/>
<path style="fill:#AD6100;" d="M376.405,260.807v119.442c17.312,0,31.347-14.034,31.347-31.347v-56.747
	C407.751,274.842,393.717,260.807,376.405,260.807z"/>
<path style="fill:#5D4E38;" d="M488.245,407.204H256.203v90.455h232.043c8.656,0,15.674-7.018,15.674-15.674v-59.108
	C503.918,414.22,496.902,407.204,488.245,407.204z"/>
<g>
</g>
<g>
</g>
<g>
</g>
<g>
</g>
<g>
</g>
<g>
</g>
<g>
</g>
<g>
</g>
<g>
</g>
<g>
</g>
<g>
</g>
<g>
</g>
<g>
</g>
<g>
</g>
<g>
</g>
</svg>
