<?xml version="1.0" encoding="iso-8859-1"?>
<!-- Generator: Adobe Illustrator 19.0.0, SVG Export Plug-In . SVG Version: 6.00 Build 0)  -->
<svg version="1.1" id="Layer_1" xmlns="http://www.w3.org/2000/svg" xmlns:xlink="http://www.w3.org/1999/xlink" x="0px" y="0px"
	 viewBox="0 0 512.001 512.001" style="enable-background:new 0 0 512.001 512.001;" xml:space="preserve">
<g>
	<path style="fill:#C1E8E6;" d="M484.623,495.66h-32.681c-4.513,0-8.17,3.658-8.17,8.17s3.657,8.17,8.17,8.17h32.681
		c4.513,0,8.17-3.658,8.17-8.17S489.135,495.66,484.623,495.66z"/>
	<path style="fill:#C1E8E6;" d="M413.815,495.66h-32.681c-4.513,0-8.17,3.658-8.17,8.17s3.657,8.17,8.17,8.17h32.681
		c4.513,0,8.17-3.658,8.17-8.17S418.327,495.66,413.815,495.66z"/>
	<path style="fill:#C1E8E6;" d="M343.006,495.66h-32.681c-4.513,0-8.17,3.658-8.17,8.17s3.657,8.17,8.17,8.17h32.681
		c4.513,0,8.17-3.658,8.17-8.17S347.518,495.66,343.006,495.66z"/>
	<path style="fill:#C1E8E6;" d="M272.198,495.66h-32.681c-4.513,0-8.17,3.658-8.17,8.17s3.657,8.17,8.17,8.17h32.681
		c4.513,0,8.17-3.658,8.17-8.17S276.71,495.66,272.198,495.66z"/>
	<path style="fill:#C1E8E6;" d="M201.389,495.66h-32.681c-4.513,0-8.17,3.658-8.17,8.17s3.657,8.17,8.17,8.17h32.681
		c4.513,0,8.17-3.658,8.17-8.17S205.901,495.66,201.389,495.66z"/>
	<path style="fill:#C1E8E6;" d="M130.581,495.66H97.9c-4.513,0-8.17,3.658-8.17,8.17S93.387,512,97.9,512h32.681
		c4.513,0,8.17-3.658,8.17-8.17S135.093,495.66,130.581,495.66z"/>
	<path style="fill:#C1E8E6;" d="M24.718,511.647c-0.231-0.07-0.46-0.154-0.686-0.245C24.256,511.492,24.483,511.576,24.718,511.647z
		"/>
	<path style="fill:#C1E8E6;" d="M20.286,508.348c-0.193-0.291-0.363-0.597-0.517-0.912
		C19.923,507.751,20.093,508.058,20.286,508.348z"/>
	<path style="fill:#C1E8E6;" d="M19.675,507.244c-0.3-0.651-0.513-1.345-0.634-2.065C19.162,505.904,19.376,506.597,19.675,507.244z
		"/>
	<path style="fill:#C1E8E6;" d="M20.952,509.209c-0.233-0.266-0.454-0.541-0.65-0.834C20.499,508.668,20.719,508.943,20.952,509.209
		z"/>
	<path style="fill:#C1E8E6;" d="M27.09,512c0.001,0,32.682,0,32.682,0c4.513,0,8.17-3.658,8.17-8.17s-3.657-8.17-8.17-8.17H46.816
		l-13.947,13.947C31.305,511.17,29.217,512,27.09,512z"/>
	<path style="fill:#C1E8E6;" d="M26.282,511.96c-0.15-0.015-0.3-0.042-0.45-0.066C25.981,511.916,26.129,511.944,26.282,511.96z"/>
	<path style="fill:#C1E8E6;" d="M19.003,504.928c-0.049-0.362-0.082-0.727-0.082-1.098
		C18.921,504.203,18.955,504.568,19.003,504.928z"/>
	<path style="fill:#C1E8E6;" d="M22.773,510.756c-0.307-0.192-0.606-0.397-0.881-0.624
		C22.168,510.361,22.466,510.565,22.773,510.756z"/>
	<path style="fill:#C1E8E6;" d="M23.96,511.376c-0.346-0.144-0.674-0.315-0.992-0.501C23.286,511.062,23.615,511.233,23.96,511.376z
		"/>
	<path style="fill:#C1E8E6;" d="M21.877,510.119c-0.269-0.223-0.516-0.467-0.753-0.721
		C21.361,509.652,21.609,509.896,21.877,510.119z"/>
	<path style="fill:#C1E8E6;" d="M25.491,511.841c-0.2-0.04-0.399-0.094-0.597-0.148C25.091,511.747,25.288,511.801,25.491,511.841z"
		/>
	<path style="fill:#C1E8E6;" d="M139.213,336.119c-2.525-0.804-4.505-2.782-5.307-5.308l-10.629-33.406l-88.015,88.015v98.685
		l137.358-137.357L139.213,336.119z"/>
</g>
<rect x="290.71" y="157.181" transform="matrix(-0.7071 0.7071 -0.7071 -0.7071 637.0215 66.8217)" style="fill:#6DA8D6;" width="27.922" height="16.323"/>
<path style="fill:#FF9D49;" d="M271.687,209.88l17.332-17.332l-11.542-11.542L171.412,287.07l2.787,8.756l8.758,2.788l65.621-65.625
	c3.192-3.191,8.365-3.192,11.554,0c0.002,0.003,11.558-11.552,11.558-11.552C268.496,218.243,268.496,213.069,271.687,209.88z"/>
<path style="fill:#FFCC75;" d="M384.68,192.316c6.568,0,12.719-2.534,17.319-7.134l49.523-49.523l-94.058-94.06L131.067,267.996
	l17.129,53.833l42.019,13.37c0.002,0.001,11.815,3.759,11.815,3.759l153.775-153.778c1.533-1.533,3.61-2.393,5.778-2.393
	s4.244,0.861,5.778,2.393C371.96,189.781,378.111,192.316,384.68,192.316z M344.263,173.639c-1.533,1.533-3.61,2.393-5.778,2.393
	s-4.244-0.861-5.778-2.393l-0.836-0.836l-48.63,48.63c-1.596,1.595-3.688,2.393-5.778,2.393c-2.089,0-4.179-0.796-5.774-2.39
	l-11.555,11.555c3.189,3.191,3.187,8.361-0.001,11.552l-69.137,69.141c-1.557,1.556-3.645,2.393-5.779,2.393
	c-0.828,0-1.662-0.125-2.476-0.385l-17.525-5.576c-2.525-0.804-4.505-2.782-5.307-5.308l-5.575-17.521
	c-0.927-2.911-0.153-6.095,2.008-8.255l140.881-140.88l-0.836-0.836c-3.191-3.191-3.191-8.364,0-11.554l55.301-55.301
	c1.533-1.533,3.61-2.393,5.778-2.393s4.244,0.861,5.778,2.393l36.323,36.323c3.191,3.191,3.191,8.364,0,11.554L344.263,173.639z"/>
<g>
	<path style="fill:#274B6D;" d="M410.271,16.34c-15.011,0-29.253,4.957-40.888,14.066l93.328,93.328
		c20.356-26.073,18.565-63.939-5.41-87.914C444.737,23.259,428.035,16.34,410.271,16.34z"/>
	<path style="fill:#274B6D;" d="M314.559,132.38l23.08,23.081c0.021,0.021,0.846,0.846,0.846,0.846l43.747-43.748l-24.768-24.769
		l-43.747,43.748C313.718,131.539,314.548,132.369,314.559,132.38z"/>
</g>
<g>
	<path style="fill:#082947;" d="M413.553,196.735l55.301-55.301c32.302-32.303,32.302-84.865,0-117.167
		C453.206,8.618,432.4,0,410.271,0c-22.129,0-42.935,8.618-58.584,24.267L115.995,259.958c-2.159,2.159-2.934,5.343-2.008,8.254
		l3.71,11.662l-96.386,96.386c-1.532,1.532-2.392,3.61-2.392,5.777V503.83c0,0.371,0.034,0.737,0.082,1.098
		c0.011,0.084,0.024,0.168,0.038,0.251c0.121,0.72,0.334,1.414,0.634,2.065c0.029,0.065,0.061,0.129,0.093,0.193
		c0.155,0.314,0.325,0.62,0.517,0.912c0.211,0.318,0.432,0.595,0.666,0.861c0.057,0.064,0.113,0.126,0.172,0.19
		c0.236,0.254,0.484,0.498,0.753,0.721c0.291,0.241,0.588,0.446,0.897,0.637c0.064,0.04,0.13,0.081,0.195,0.119
		c0.317,0.185,0.646,0.357,0.992,0.501c0.026,0.011,0.049,0.017,0.071,0.026c0.227,0.092,0.455,0.175,0.686,0.245
		c0.059,0.017,0.118,0.029,0.176,0.046c0.198,0.056,0.397,0.109,0.597,0.148c0.113,0.023,0.227,0.034,0.341,0.052
		c0.15,0.023,0.3,0.051,0.45,0.066c0.269,0.027,0.538,0.04,0.807,0.04c2.128,0,4.216-0.83,5.78-2.393l13.949-13.948L190.15,352.327
		l11.663,3.71c0.814,0.259,1.649,0.385,2.476,0.385c2.134,0,4.222-0.837,5.779-2.393l152.093-152.096
		c6.609,4.374,14.375,6.722,22.518,6.722C395.613,208.656,405.867,204.422,413.553,196.735z M355.805,185.181L202.03,338.958
		l-11.813-3.758c-0.002-0.001-42.021-13.371-42.021-13.371l-17.129-53.833L357.464,41.598l94.058,94.059l-49.523,49.523
		c-4.6,4.6-10.751,7.134-17.319,7.134s-12.719-2.534-17.319-7.134c-1.533-1.533-3.61-2.393-5.778-2.393
		S357.338,183.648,355.805,185.181z M35.262,385.421l88.015-88.015l10.629,33.406c0.803,2.526,2.782,4.505,5.307,5.308
		l33.405,10.629L35.262,484.106V385.421z M462.71,123.734l-93.328-93.328c11.637-9.109,25.878-14.066,40.889-14.066
		c17.765,0,34.467,6.919,47.029,19.48C481.275,59.796,483.065,97.661,462.71,123.734z"/>
	<path style="fill:#082947;" d="M399.565,106.783L363.242,70.46c-1.533-1.533-3.61-2.393-5.778-2.393s-4.244,0.861-5.778,2.393
		l-55.301,55.301c-3.191,3.191-3.191,8.364,0,11.554l0.836,0.836l-140.88,140.881c-2.159,2.159-2.934,5.344-2.008,8.255
		l5.575,17.521c0.803,2.525,2.782,4.505,5.307,5.308l17.525,5.576c0.814,0.259,1.649,0.385,2.476,0.385
		c2.134,0,4.222-0.838,5.779-2.393l69.137-69.141c3.19-3.19,3.19-8.361,0.001-11.552c-3.192-3.194-8.365-3.193-11.557-0.003
		l-65.621,65.625l-8.758-2.788l-2.787-8.756l106.065-106.064l11.542,11.542l-17.332,17.332c-3.191,3.191-3.191,8.364,0,11.554
		c1.599,1.597,3.688,2.393,5.778,2.393c2.09,0,4.182-0.797,5.778-2.393l48.63-48.63l0.836,0.836c1.533,1.533,3.61,2.393,5.778,2.393
		c2.168,0,4.244-0.861,5.778-2.393l55.301-55.301C402.754,115.147,402.754,109.973,399.565,106.783z M300.573,180.993
		l-11.542-11.542l19.745-19.745l11.542,11.542L300.573,180.993z M313.718,131.539l43.747-43.748l24.768,24.769l-43.747,43.748
		l-0.826-0.826c-0.021-0.021-23.101-23.102-23.101-23.102C314.548,132.369,313.718,131.539,313.718,131.539z"/>
</g>
<g>
</g>
<g>
</g>
<g>
</g>
<g>
</g>
<g>
</g>
<g>
</g>
<g>
</g>
<g>
</g>
<g>
</g>
<g>
</g>
<g>
</g>
<g>
</g>
<g>
</g>
<g>
</g>
<g>
</g>
</svg>
