<?xml version="1.0" encoding="iso-8859-1"?>
<!-- Generator: Adobe Illustrator 19.0.0, SVG Export Plug-In . SVG Version: 6.00 Build 0)  -->
<svg version="1.1" id="Layer_1" xmlns="http://www.w3.org/2000/svg" xmlns:xlink="http://www.w3.org/1999/xlink" x="0px" y="0px"
	 viewBox="0 0 368 368" style="enable-background:new 0 0 368 368;" xml:space="preserve">
<path style="fill:#D6913C;" d="M328,24c17.6,0,32,14.4,32,32v256c0,17.6-14.4,32-32,32H40c-17.6,0-32-14.4-32-32V56
	c0-17.6,14.4-32,32-32H328z"/>
<path style="fill:#A46210;" d="M328,352H40c-22,0-40-18-40-40V56c0-22,18-40,40-40h288c22,0,40,18,40,40v256
	C368,334,350,352,328,352z M40,32c-13.2,0-24,10.8-24,24v256c0,13.2,10.8,24,24,24h288c13.2,0,24-10.8,24-24V56
	c0-13.2-10.8-24-24-24H40z"/>
<path style="fill:#FFE53C;" d="M144,128H64c-4.4,0-8-3.6-8-8s3.6-8,8-8h80c4.4,0,8,3.6,8,8S148.4,128,144,128z"/>
<path style="fill:#FFFFFF;" d="M296,128h-80c-4.4,0-8-3.6-8-8s3.6-8,8-8h80c4.4,0,8,3.6,8,8S300.4,128,296,128z"/>
<path style="fill:#FFE53C;" d="M104,168c-4.4,0-8-3.6-8-8V80c0-4.4,3.6-8,8-8s8,3.6,8,8v80C112,164.4,108.4,168,104,168z"/>
<path style="fill:#CAF1FF;" d="M75.6,284.4c-2,0-4-0.8-5.6-2.4c-3.2-3.2-3.2-8,0-11.2l56.4-56.8c3.2-3.2,8-3.2,11.2,0s3.2,8,0,11.2
	L81.2,282C79.6,283.6,77.6,284.4,75.6,284.4z"/>
<g>
	<path style="fill:#C6490F;" d="M296,272h-80c-4.4,0-8-3.6-8-8s3.6-8,8-8h80c4.4,0,8,3.6,8,8S300.4,272,296,272z"/>
	<path style="fill:#C6490F;" d="M296,224h-80c-4.4,0-8-3.6-8-8s3.6-8,8-8h80c4.4,0,8,3.6,8,8S300.4,224,296,224z"/>
</g>
<path style="fill:#CAF1FF;" d="M132,284.4c-2,0-4-0.8-5.6-2.4L70,225.2c-3.2-3.2-3.2-8,0-11.2s8.4-3.2,11.2,0l56.4,56.8
	c3.2,3.2,3.2,8,0,11.2C136,283.6,134,284.4,132,284.4z"/>
<g>
</g>
<g>
</g>
<g>
</g>
<g>
</g>
<g>
</g>
<g>
</g>
<g>
</g>
<g>
</g>
<g>
</g>
<g>
</g>
<g>
</g>
<g>
</g>
<g>
</g>
<g>
</g>
<g>
</g>
</svg>
