<?xml version="1.0" encoding="iso-8859-1"?>
<!-- Generator: Adobe Illustrator 19.0.0, SVG Export Plug-In . SVG Version: 6.00 Build 0)  -->
<svg version="1.1" id="Layer_1" xmlns="http://www.w3.org/2000/svg" xmlns:xlink="http://www.w3.org/1999/xlink" x="0px" y="0px"
	 viewBox="0 0 511.999 511.999" style="enable-background:new 0 0 511.999 511.999;" xml:space="preserve">
<rect x="72.15" y="270.964" style="fill:#FFD652;" width="277.912" height="230.881"/>
<rect x="72.15" y="270.964" style="fill:#FB9D46;" width="34.205" height="230.881"/>
<rect x="350.062" y="270.964" style="fill:#F7EDBC;" width="89.787" height="230.881"/>
<polygon style="fill:#FFD652;" points="439.849,270.964 350.062,270.964 414.196,185.453 503.983,185.453 "/>
<polygon style="fill:#F7EDBC;" points="72.15,270.964 161.937,270.964 97.803,185.453 8.016,185.453 "/>
<g>
	<rect x="166.213" y="270.964" style="fill:#FB9D46;" width="85.511" height="47.031"/>
	<path style="fill:#FB9D46;" d="M199.348,485.812c-8.566,0-16.619-3.336-22.676-9.393l-51.306-51.306
		c-6.056-6.056-9.392-14.108-9.392-22.674c0-8.565,3.336-16.618,9.392-22.674c6.055-6.056,14.108-9.392,22.674-9.392
		c8.566,0,16.619,3.336,22.676,9.393l28.631,28.631l64.975-64.975c6.055-6.057,14.108-9.392,22.674-9.392
		c8.566,0,16.619,3.336,22.676,9.393c6.055,6.055,9.391,14.108,9.391,22.673c0,8.566-3.336,16.618-9.392,22.674l-87.649,87.649
		C215.967,482.476,207.914,485.812,199.348,485.812z"/>
</g>
<path style="fill:#5AC779;" d="M199.348,469.778c-4.103,0-8.207-1.565-11.337-4.697l-51.307-51.307
	c-6.262-6.262-6.262-16.413,0-22.674c6.261-6.262,16.413-6.262,22.674,0l39.97,39.969l76.313-76.312
	c6.261-6.262,16.413-6.262,22.674,0c6.262,6.262,6.262,16.413,0,22.674l-87.649,87.649
	C207.555,468.212,203.452,469.778,199.348,469.778z"/>
<polygon style="fill:#FF7452;" points="307.306,125.595 307.306,10.154 204.693,10.154 204.693,125.595 161.937,125.595 
	256,215.382 350.062,125.595 "/>
<polygon style="fill:#E24642;" points="241.035,10.154 204.693,10.154 204.693,125.595 161.937,125.595 256,215.382 
	290.999,181.972 241.035,132.008 "/>
<path d="M511.153,181.868c-1.359-2.716-4.133-4.432-7.17-4.432h-89.787c-2.523,0-4.9,1.188-6.413,3.207l-61.729,82.305H165.945
	l-61.729-82.305c-1.514-2.019-3.891-3.207-6.413-3.207H8.016c-3.037,0-5.813,1.716-7.17,4.432c-1.357,2.716-1.065,5.965,0.757,8.395
	l62.53,83.374v228.209c0,4.427,3.588,8.017,8.017,8.017h367.699c4.428,0,8.017-3.589,8.017-8.017V273.636l62.53-83.374
	C512.218,187.833,512.51,184.584,511.153,181.868z M174.229,278.981h69.478v30.998h-69.478V278.981z M93.795,193.469l52.109,69.478
	H76.158L24.05,193.469H93.795z M431.833,493.828h-73.754V467.64c0-4.427-3.588-8.017-8.017-8.017s-8.017,3.589-8.017,8.017v26.188
	H80.167V278.981h78.029v39.015c0,4.427,3.588,8.017,8.017,8.017h85.511c4.428,0,8.017-3.589,8.017-8.017v-39.015h82.305v152.317
	c0,4.427,3.588,8.017,8.017,8.017s8.017-3.589,8.017-8.017V278.981h73.754V493.828z M435.841,262.947h-69.745l52.109-69.478h69.745
	L435.841,262.947z"/>
<path d="M286.997,342.046c-6.425,0-12.464,2.501-17.006,7.044l-70.643,70.643l-34.301-34.3c-4.542-4.543-10.581-7.045-17.006-7.045
	c-6.425,0-12.464,2.501-17.005,7.044c-4.543,4.543-7.045,10.582-7.045,17.006c0,6.424,2.502,12.463,7.044,17.006l51.307,51.307
	c4.542,4.543,10.581,7.045,17.006,7.045s12.464-2.502,17.006-7.044l87.648-87.649c4.543-4.543,7.045-10.582,7.045-17.006
	c0-6.424-2.502-12.463-7.044-17.005C299.462,344.547,293.423,342.046,286.997,342.046z M292.666,371.764l-87.649,87.649
	c-1.514,1.514-3.527,2.347-5.668,2.347c-2.141,0-4.155-0.834-5.668-2.348l-51.308-51.307c-1.514-1.515-2.347-3.527-2.347-5.668
	c0-2.141,0.834-4.154,2.348-5.669c1.514-1.515,3.527-2.347,5.668-2.347c2.141,0,4.155,0.834,5.668,2.348l39.97,39.969
	c3.132,3.131,8.207,3.131,11.338,0l76.313-76.313c1.514-1.515,3.527-2.347,5.668-2.347c2.141,0,4.155,0.834,5.669,2.348
	c1.514,1.515,2.347,3.527,2.347,5.668C295.015,368.236,294.18,370.249,292.666,371.764z"/>
<path d="M250.464,221.18c1.549,1.478,3.542,2.218,5.536,2.218s3.986-0.739,5.536-2.218l94.063-89.787
	c2.37-2.263,3.124-5.739,1.906-8.781c-1.219-3.041-4.164-5.034-7.442-5.034h-34.739V10.154c0-4.427-3.588-8.017-8.017-8.017H204.693
	c-4.428,0-8.017,3.589-8.017,8.017V33.67c0,4.427,3.588,8.017,8.017,8.017s8.017-3.589,8.017-8.017V18.171h86.58v107.424
	c0,4.427,3.588,8.017,8.017,8.017h22.747L256,204.299l-74.054-70.688h22.747c4.428,0,8.017-3.589,8.017-8.017v-57.72
	c0-4.427-3.588-8.017-8.017-8.017s-8.017,3.589-8.017,8.017v49.704h-34.739c-3.276,0-6.223,1.993-7.442,5.034
	c-1.219,3.042-0.464,6.518,1.906,8.781L250.464,221.18z"/>
<g>
</g>
<g>
</g>
<g>
</g>
<g>
</g>
<g>
</g>
<g>
</g>
<g>
</g>
<g>
</g>
<g>
</g>
<g>
</g>
<g>
</g>
<g>
</g>
<g>
</g>
<g>
</g>
<g>
</g>
</svg>
