<svg width="301.519970703125px" height="141.2099609375px" xmlns="http://www.w3.org/2000/svg" viewBox="99.2400146484375 4.39501953125 301.519970703125 141.2099609375" style="background: rgba(0, 0, 0, 0);" preserveAspectRatio="xMidYMid"><defs><linearGradient id="editing-outline-gradient" x1="-0.41354545764260087" x2="1.4135454576426008" y1="0.09326335692419985" y2="0.9067366430758002"><stop offset="0" stop-color="#ffa37f"></stop><stop offset="1" stop-color="#7f86ff"></stop></linearGradient><filter id="editing-outline" x="-100%" y="-100%" width="300%" height="300%"><feMorphology in="SourceGraphic" operator="dilate" radius="2" result="outline"></feMorphology><feComposite operator="out" in="outline" in2="SourceAlpha"></feComposite></filter></defs><g filter="url(#editing-outline)"><g transform="translate(146.15500116348267, 96.21999931335449)"><path d="M32.38-22.81L32.38-22.81L32.38-22.81Q29.75-24.69 25.63-24.69L25.63-24.69L25.63-24.69Q21.75-24.69 18.44-23.25L18.44-23.25L18.44-23.25Q12.19-20.63 9.88-16.50L9.88-16.50L9.88-16.50Q8.88-14.63 8.88-12.50L8.88-12.50L8.88-12.50Q8.88-12.13 8.88-10.41L8.88-10.41L8.88-10.41Q8.88-8.69 9.50-5.78L9.50-5.78L9.50-5.78Q10.13-2.88 10.13 0.13L10.13 0.13L10.13 0.13Q8.81 0.19 8 0.44L8 0.44L8 0.44Q7.19 0.69 6.63 0.69L6.63 0.69L6.63 0.69Q6.06 0.69 5.66 0.19L5.66 0.19L5.66 0.19Q5.25-0.31 4.75-1.75L4.75-1.75L4.75-1.75Q4.69-2.13 4.50-3.88L4.50-3.88L4.50-3.88Q4.31-5.63 4.03-8.13L4.03-8.13L4.03-8.13Q3.75-10.63 3.41-13.59L3.41-13.59L3.41-13.59Q3.06-16.56 2.75-19.44L2.75-19.44L2.75-19.44Q2.06-25.69 1.69-28.63L1.69-28.63L1.69-28.63Q1.69-30.13 3.88-30.13L3.88-30.13L3.88-30.13Q5.19-30.13 5.94-29.03L5.94-29.03L5.94-29.03Q6.69-27.94 7.13-26.53L7.13-26.53L7.13-26.53Q7.56-25.13 7.72-23.75L7.72-23.75L7.72-23.75Q7.88-22.38 8-21.81L8-21.81L8-21.81Q16.25-29.19 28.50-29.19L28.50-29.19L28.50-29.19Q29.88-29.19 31.38-29.13L31.38-29.13L31.38-29.13Q31.75-29.19 32.31-29.19L32.31-29.19L32.31-29.19Q32.88-29.19 33.44-28.44L33.44-28.44L33.44-28.44Q34.13-27.56 34.13-26.31L34.13-26.31L34.13-26.31Q34.13-23.19 32.38-22.81ZM38.56-11.88L38.56-11.88L38.56-11.88Q38.56-19.25 44.94-23.75L44.94-23.75L44.94-23.75Q50-27.31 57.13-28.06L57.13-28.06L57.13-28.06Q57.50-28.06 58.88-28.06L58.88-28.06L58.88-28.06Q60.25-28.06 62.56-27.25L62.56-27.25L62.56-27.25Q67.69-25.50 69.56-21.06L69.56-21.06L69.56-21.06Q70.31-19.31 70.31-18.09L70.31-18.09L70.31-18.09Q70.31-16.88 70.25-16.38L70.25-16.38L70.25-16.38Q70.25-8.56 64.31-4.06L64.31-4.06L64.31-4.06Q58.81 0.06 50.56 0.06L50.56 0.06L50.56 0.06Q44.63 0.06 41.59-2.69L41.59-2.69L41.59-2.69Q38.56-5.44 38.56-11.88ZM42.88-10.38L42.88-10.38L42.88-10.38Q42.88-6.50 44.94-5.13L44.94-5.13L44.94-5.13Q46.50-4.13 50.19-4.13L50.19-4.13L50.19-4.13Q53.88-4.13 56.69-4.69L56.69-4.69L56.69-4.69Q59.50-5.25 61.69-6.63L61.69-6.63L61.69-6.63Q66.38-9.63 66.38-15.94L66.38-15.94L66.38-15.94Q66.38-19.69 64.38-22.06L64.38-22.06L64.38-22.06Q62.19-24.63 58.63-24.63L58.63-24.63L58.63-24.63Q56.19-24.19 53.72-23.69L53.72-23.69L53.72-23.69Q51.25-23.19 49.06-21.75L49.06-21.75L49.06-21.75Q44.31-18.69 42.88-10.38ZM102.38-0.88L102.38-0.88L102.38-0.88Q101.81 0.19 99.47 0.19L99.47 0.19L99.47 0.19Q97.13 0.19 97.13-1.50L97.13-1.50L97.13-1.50Q97.13-8.88 96.81-11.63L96.81-11.63L96.81-11.63Q96.25-17.69 94.44-18.13L94.44-18.13L94.44-18.13Q89.94-19 87.09-19L87.09-19L87.09-19Q84.25-19 82.41-17.28L82.41-17.28L82.41-17.28Q80.56-15.56 79.59-11.59L79.59-11.59L79.59-11.59Q78.63-7.63 78.19-0.44L78.19-0.44L73.38-0.44L73.38-0.44Q73.50-4 73.50-7.06L73.50-7.06L73.50-7.06Q73.50-10.13 73.38-14.34L73.38-14.34L73.38-14.34Q73.25-18.56 73.06-23.56L73.06-23.56L73.06-23.56Q72.75-29.31 72.75-33.28L72.75-33.28L72.75-33.28Q72.75-37.25 73.25-40.56L73.25-40.56L73.25-40.56Q73.88-41.75 75.06-41.75L75.06-41.75L75.06-41.75Q76.50-41.75 77.31-40.72L77.31-40.72L77.31-40.72Q78.13-39.69 78.19-38.88L78.19-38.88L77.88-28.56L77.88-28.56Q77.88-22.75 78.44-19.88L78.44-19.88L78.44-19.88Q84.06-23.63 90.06-23.63L90.06-23.63L90.06-23.63Q92-23.63 94.19-23.31L94.19-23.31L94.19-23.31Q98.88-20.88 100.31-18.13L100.31-18.13L100.31-18.13Q101-16.69 101.19-15.06L101.19-15.06L101.19-15.06Q101.38-13.44 101.44-11.38L101.44-11.38L101.44-11.38Q101.81-4.25 102.38-0.88ZM106.25-11.88L106.25-11.88L106.25-11.88Q106.25-19.25 112.63-23.75L112.63-23.75L112.63-23.75Q117.69-27.31 124.81-28.06L124.81-28.06L124.81-28.06Q125.19-28.06 126.56-28.06L126.56-28.06L126.56-28.06Q127.94-28.06 130.25-27.25L130.25-27.25L130.25-27.25Q135.38-25.50 137.25-21.06L137.25-21.06L137.25-21.06Q138-19.31 138-18.09L138-18.09L138-18.09Q138-16.88 137.94-16.38L137.94-16.38L137.94-16.38Q137.94-8.56 132-4.06L132-4.06L132-4.06Q126.50 0.06 118.25 0.06L118.25 0.06L118.25 0.06Q112.31 0.06 109.28-2.69L109.28-2.69L109.28-2.69Q106.25-5.44 106.25-11.88ZM110.56-10.38L110.56-10.38L110.56-10.38Q110.56-6.50 112.63-5.13L112.63-5.13L112.63-5.13Q114.19-4.13 117.88-4.13L117.88-4.13L117.88-4.13Q121.56-4.13 124.38-4.69L124.38-4.69L124.38-4.69Q127.19-5.25 129.38-6.63L129.38-6.63L129.38-6.63Q134.06-9.63 134.06-15.94L134.06-15.94L134.06-15.94Q134.06-19.69 132.06-22.06L132.06-22.06L132.06-22.06Q129.88-24.63 126.31-24.63L126.31-24.63L126.31-24.63Q123.88-24.19 121.41-23.69L121.41-23.69L121.41-23.69Q118.94-23.19 116.75-21.75L116.75-21.75L116.75-21.75Q112-18.69 110.56-10.38ZM165-9.88L165.06-13.69L165.06-13.69Q165.06-21.13 164.25-24.63L164.25-24.63L164.25-24.63Q164.75-25.56 162.75-25.56L162.75-25.56L162.75-25.56Q160.63-25.56 157.25-24.50L157.25-24.50L157.25-24.50Q153.88-23.44 151.75-22.38L151.75-22.38L151.75-22.38Q146.69-19.94 146.13-17.63L146.13-17.63L146.13-0.63L141.94-0.63L141.94-0.63Q141.13-2.75 141.13-12.56L141.13-12.56L141.13-12.56Q141.13-21.31 141.47-25.44L141.47-25.44L141.47-25.44Q141.81-29.56 142-30.13L142-30.13L142-30.13Q143.63-31.19 144.63-31.19L144.63-31.19L144.63-31.19Q146.19-31.19 146.19-27.50L146.19-27.50L146.19-27.50Q146.19-26.06 146.03-24.72L146.03-24.72L146.03-24.72Q145.88-23.38 145.88-22.88L145.88-22.88L145.88-22.88Q156-30.31 161.56-30.31L161.56-30.31L161.56-30.31Q167.88-30.31 168.75-20.13L168.75-20.13L168.75-20.13Q169.13-16.56 169.13-10.25L169.13-10.25L169.06-5.31L169.06-5.31Q169.06-2.56 169.19 0L169.19 0L169.19 0Q168.56 0.38 168.19 0.38L168.19 0.38L168.19 0.38Q168 0.31 167.38 0.19L167.38 0.19L167.38 0.19Q166.75 0.06 165.75 0L165.75 0L165.75 0Q165.13-2.50 165.06-5.09L165.06-5.09L165.06-5.09Q165-7.69 165-9.88L165-9.88ZM174.25-11.88L174.25-11.88L174.25-11.88Q174.25-19.25 180.63-23.75L180.63-23.75L180.63-23.75Q185.69-27.31 192.81-28.06L192.81-28.06L192.81-28.06Q193.19-28.06 194.56-28.06L194.56-28.06L194.56-28.06Q195.94-28.06 198.25-27.25L198.25-27.25L198.25-27.25Q203.38-25.50 205.25-21.06L205.25-21.06L205.25-21.06Q206-19.31 206-18.09L206-18.09L206-18.09Q206-16.88 205.94-16.38L205.94-16.38L205.94-16.38Q205.94-8.56 200-4.06L200-4.06L200-4.06Q194.50 0.06 186.25 0.06L186.25 0.06L186.25 0.06Q180.31 0.06 177.28-2.69L177.28-2.69L177.28-2.69Q174.25-5.44 174.25-11.88ZM178.56-10.38L178.56-10.38L178.56-10.38Q178.56-6.50 180.63-5.13L180.63-5.13L180.63-5.13Q182.19-4.13 185.88-4.13L185.88-4.13L185.88-4.13Q189.56-4.13 192.38-4.69L192.38-4.69L192.38-4.69Q195.19-5.25 197.38-6.63L197.38-6.63L197.38-6.63Q202.06-9.63 202.06-15.94L202.06-15.94L202.06-15.94Q202.06-19.69 200.06-22.06L200.06-22.06L200.06-22.06Q197.88-24.63 194.31-24.63L194.31-24.63L194.31-24.63Q191.88-24.19 189.41-23.69L189.41-23.69L189.41-23.69Q186.94-23.19 184.75-21.75L184.75-21.75L184.75-21.75Q180-18.69 178.56-10.38Z" fill="url(#editing-outline-gradient)"></path></g></g><style>text {
  font-size: 64px;
  font-family: Arial Black;
  dominant-baseline: central;
  text-anchor: middle;
}</style></svg>