<?xml version="1.0" encoding="iso-8859-1"?>
<!-- Generator: Adobe Illustrator 19.0.0, SVG Export Plug-In . SVG Version: 6.00 Build 0)  -->
<svg version="1.1" id="Layer_1" xmlns="http://www.w3.org/2000/svg" xmlns:xlink="http://www.w3.org/1999/xlink" x="0px" y="0px"
	 viewBox="0 0 512.992 512.992" style="enable-background:new 0 0 512.992 512.992;" xml:space="preserve">
<polygon style="fill:#32BEA6;" points="10.4,406.096 10.4,106.912 437.6,107.52 437.6,406.096 "/>
<path style="fill:#E2E2E2;" d="M20.8,117.328l406.4,0.592v277.776H20.8V117.328 M0,96.496v320h448V97.136L0,96.496L0,96.496z"/>
<polygon style="fill:#231E20;" points="462.992,153.584 338.272,351.6 388.528,383.248 512.992,185.648 "/>
<g>
	<path style="fill:#FFFFFF;" d="M83.344,255.312c12.416-11.296,24.48-19.664,36.176-25.136s20.72-8.224,27.104-8.224
		c1.712,0,3.312,0.72,4.784,2.144s2.64,3.088,3.488,4.96c0.864,1.888,1.296,3.28,1.296,4.176c0,1.472-0.576,2.56-1.712,3.248
		s-3.152,1.536-6,2.512c0.576,1.312,1.312,2.992,2.208,5.024c0.896,2.048,1.6,3.696,2.08,4.976c0.496,1.28,0.736,2.384,0.736,3.376
		c0,1.968-1.984,5.616-5.952,10.976c-3.968,5.344-6.752,9.296-8.352,11.84c-1.6,2.528-2.384,5.648-2.384,9.312
		c0,6.048,2.768,9.056,8.336,9.056c5.728,0,14.672-5.344,26.864-16.048v7.472c-20.688,22.992-35.488,34.464-44.4,34.464
		c-3.184,0-5.456-1.04-6.8-3.136c-1.344-2.08-2.016-5.152-2.016-9.248c0-6.448,2.336-15.808,6.992-28.08
		c-11.936,13.232-20.8,22.656-26.608,28.272c-5.808,5.6-10.592,8.384-14.352,8.384c-1.792,0-4.048-1.552-6.736-4.656
		c-2.736-3.104-5.12-7.12-7.2-12.08c-2.08-4.944-3.12-10.08-3.12-15.392c0-3.84,0.368-7.04,1.104-9.632
		c0.736-2.576,2.176-5.216,4.304-7.92C75.296,263.28,78.672,259.728,83.344,255.312z M142.08,241.824
		c-21.264,9.728-36.4,17.984-45.44,24.768s-13.552,13.776-13.552,20.976c0,2.624,0.448,4.768,1.344,6.432
		c0.896,1.68,2.128,2.512,3.68,2.512c0.896,0,2.496-0.576,4.784-1.712c8.592-5.072,16.432-11.664,23.552-19.792
		C123.568,266.848,132.112,255.792,142.08,241.824z"/>
	<path style="fill:#FFFFFF;" d="M252.08,277.504v7.952c-8.512,5.408-15.216,8.096-20.112,8.096c-2.688,0-5.552-0.432-8.576-1.344
		c-7.36,9.328-13.68,16.16-18.96,20.48s-10.56,6.496-15.872,6.496c-6.128,0-10.864-3.232-14.16-9.68
		c-3.312-6.448-4.976-14.48-4.976-24.048c0-12.992,3.92-27.152,11.776-42.48c7.84-15.328,17.312-29.68,28.384-43.04
		c11.072-13.36,21.808-24.416,32.192-33.168c10.384-8.736,17.408-13.12,21.104-13.12c3.504,0,5.28,2.4,5.28,7.232
		c0,21.424-27.488,58.784-82.416,112.08c-0.176,1.472-0.256,4.368-0.256,8.704c0,11.296,3.024,16.928,9.072,16.928
		c2.368,0,4.752-0.96,7.168-2.88s6.112-5.584,11.104-10.976c-1.968-4.416-2.944-7.68-2.944-9.808c0-4.496,1.84-9.36,5.52-14.608
		c3.68-5.232,7.872-9.744,12.576-13.552c4.704-3.808,8.112-5.696,10.24-5.696c3.344,0,5.024,2.4,5.024,7.232
		c0,3.68-0.976,8.096-2.88,13.248c-1.92,5.152-4.72,11.04-8.4,17.664c1.392,1.136,2.496,1.968,3.312,2.496
		c0.816,0.544,2.048,0.8,3.68,0.8C242.72,282.528,247.088,280.848,252.08,277.504z M189.792,259.104
		c4.256-3.68,8.512-8.032,12.816-13.056c4.288-5.024,10.56-12.72,18.816-23.12c7.936-9.968,14.16-18.288,18.704-24.96
		s7.952-12.208,10.24-16.624s3.424-7.44,3.424-9.072c0-1.232-0.32-1.84-0.976-1.84c-1.792,0-5.536,2.976-11.216,8.896
		c-5.68,5.936-12.16,14.032-19.44,24.336c-10.064,14.224-17.328,24.944-21.84,32.128C195.84,243.008,192.32,250.768,189.792,259.104
		z"/>
	<path style="fill:#FFFFFF;" d="M325.92,277.504v8.208c-8.752,8.592-15.872,15.248-21.408,20
		c-5.504,4.736-10.656,8.416-15.44,11.024s-9.472,3.92-14.064,3.92c-4.512,0-8.64-1.776-12.384-5.328
		c-3.76-3.568-6.704-8.224-8.832-13.984s-3.184-11.872-3.184-18.336c0-5.568,1.232-10.496,3.68-14.848
		c2.448-4.336,7.184-9.936,14.208-16.8c8.352-8.176,16.096-14.48,23.264-18.944c7.152-4.448,12.784-6.672,16.88-6.672
		c2.944,0,5.44,1.024,7.472,3.056c2.032,2.048,3.056,4.624,3.056,7.728c0,2.624-1.344,6.336-4.032,11.152
		c-2.72,4.832-5.744,9.008-9.088,12.576c-3.344,3.568-6,5.328-7.968,5.328c-2.128,0-3.184-1.136-3.184-3.424
		c0.096-0.656,0.16-1.28,0.192-1.84s0.064-1.136,0.064-1.712c0-0.976-0.336-1.536-1.024-1.664c-0.72-0.112-1.536,0.192-2.528,0.928
		c-8.16,5.728-13.776,9.744-16.784,12.08c-3.04,2.336-5.44,4.688-7.2,7.056c-1.744,2.368-2.64,4.88-2.64,7.488
		c0,4.816,1.552,8.752,4.672,11.76c3.104,3.024,7.168,4.544,12.128,4.544c5.152,0,11.344-1.984,18.592-5.952
		C307.584,290.88,316.112,285.104,325.92,277.504z"/>
</g>
<g>
</g>
<g>
</g>
<g>
</g>
<g>
</g>
<g>
</g>
<g>
</g>
<g>
</g>
<g>
</g>
<g>
</g>
<g>
</g>
<g>
</g>
<g>
</g>
<g>
</g>
<g>
</g>
<g>
</g>
</svg>
